<svg xmlns="http://www.w3.org/2000/svg" width="2249.28" height="1241.28" version="1.1" viewBox="0 0 2249.28 1241.28">
 <style>
          .fill { fill: black; }
          .stroke { stroke: black; }
          @media (prefers-color-scheme: dark) {
            .fill { fill: white; }
            .stroke { stroke: white; }
          }
        </style><defs>
  <clipPath id="dg">
   <path transform="matrix(2,0,0,-2,0,1241.28)" d="M62.845335 47.186876H1113.236V594.6017H62.845335Z" />
  </clipPath>
  <clipPath id="cj">
   <path transform="matrix(2,0,0,-2,0,1241.28)" d="M62.845335 47.186876H1113.236V594.6017H62.845335Z" />
  </clipPath>
  <clipPath id="by">
   <path transform="matrix(2,0,0,-2,0,1241.28)" d="M62.845335 47.186876H1113.236V594.6017H62.845335Z" />
  </clipPath>
  <clipPath id="bn">
   <path transform="matrix(2,0,0,-2,0,1241.28)" d="M62.845335 47.186876H1113.236V594.6017H62.845335Z" />
  </clipPath>
  <clipPath id="bc">
   <path transform="matrix(2,0,0,-2,0,1241.28)" d="M62.845335 47.186876H1113.236V594.6017H62.845335Z" />
  </clipPath>
  <clipPath id="ar">
   <path transform="matrix(2,0,0,-2,0,1241.28)" d="M62.845335 47.186876H1113.236V594.6017H62.845335Z" />
  </clipPath>
  <clipPath id="ag">
   <path transform="matrix(2,0,0,-2,0,1241.28)" d="M62.845335 47.186876H1113.236V594.6017H62.845335Z" />
  </clipPath>
  <clipPath id="v">
   <path transform="matrix(2,0,0,-2,0,1241.28)" d="M62.845335 47.186876H1113.236V594.6017H62.845335Z" />
  </clipPath>
  <clipPath id="k">
   <path transform="matrix(2,0,0,-2,0,1241.28)" d="M62.845335 47.186876H1113.236V594.6017H62.845335Z" />
  </clipPath>
  <clipPath id="df">
   <path transform="matrix(2,0,0,-2,0,1241.28)" d="M62.845335 47.186876H1113.236V594.6017H62.845335Z" />
  </clipPath>
  <clipPath id="cu">
   <path transform="matrix(2,0,0,-2,0,1241.28)" d="M62.845335 47.186876H1113.236V594.6017H62.845335Z" />
  </clipPath>
  <clipPath id="cr">
   <path transform="matrix(2,0,0,-2,0,1241.28)" d="M62.845335 47.186876H1113.236V594.6017H62.845335Z" />
  </clipPath>
  <clipPath id="cq">
   <path transform="matrix(2,0,0,-2,0,1241.28)" d="M62.845335 47.186876H1113.236V594.6017H62.845335Z" />
  </clipPath>
  <clipPath id="cp">
   <path transform="matrix(2,0,0,-2,0,1241.28)" d="M62.845335 47.186876H1113.236V594.6017H62.845335Z" />
  </clipPath>
  <clipPath id="co">
   <path transform="matrix(2,0,0,-2,0,1241.28)" d="M62.845335 47.186876H1113.236V594.6017H62.845335Z" />
  </clipPath>
  <clipPath id="cn">
   <path transform="matrix(2,0,0,-2,0,1241.28)" d="M62.845335 47.186876H1113.236V594.6017H62.845335Z" />
  </clipPath>
  <clipPath id="cm">
   <path transform="matrix(2,0,0,-2,0,1241.28)" d="M62.845335 47.186876H1113.236V594.6017H62.845335Z" />
  </clipPath>
  <clipPath id="cl">
   <path transform="matrix(2,0,0,-2,0,1241.28)" d="M62.845335 47.186876H1113.236V594.6017H62.845335Z" />
  </clipPath>
  <clipPath id="ck">
   <path transform="matrix(2,0,0,-2,0,1241.28)" d="M62.845335 47.186876H1113.236V594.6017H62.845335Z" />
  </clipPath>
  <clipPath id="ci">
   <path transform="matrix(2,0,0,-2,0,1241.28)" d="M62.845335 47.186876H1113.236V594.6017H62.845335Z" />
  </clipPath>
  <clipPath id="ch">
   <path transform="matrix(2,0,0,-2,0,1241.28)" d="M62.845335 47.186876H1113.236V594.6017H62.845335Z" />
  </clipPath>
  <clipPath id="cg">
   <path transform="matrix(2,0,0,-2,0,1241.28)" d="M62.845335 47.186876H1113.236V594.6017H62.845335Z" />
  </clipPath>
  <clipPath id="cf">
   <path transform="matrix(2,0,0,-2,0,1241.28)" d="M62.845335 47.186876H1113.236V594.6017H62.845335Z" />
  </clipPath>
  <clipPath id="ce">
   <path transform="matrix(2,0,0,-2,0,1241.28)" d="M62.845335 47.186876H1113.236V594.6017H62.845335Z" />
  </clipPath>
  <clipPath id="cd">
   <path transform="matrix(2,0,0,-2,0,1241.28)" d="M62.845335 47.186876H1113.236V594.6017H62.845335Z" />
  </clipPath>
  <clipPath id="cc">
   <path transform="matrix(2,0,0,-2,0,1241.28)" d="M62.845335 47.186876H1113.236V594.6017H62.845335Z" />
  </clipPath>
  <clipPath id="cb">
   <path transform="matrix(2,0,0,-2,0,1241.28)" d="M62.845335 47.186876H1113.236V594.6017H62.845335Z" />
  </clipPath>
  <clipPath id="ca">
   <path transform="matrix(2,0,0,-2,0,1241.28)" d="M62.845335 47.186876H1113.236V594.6017H62.845335Z" />
  </clipPath>
  <clipPath id="bz">
   <path transform="matrix(2,0,0,-2,0,1241.28)" d="M62.845335 47.186876H1113.236V594.6017H62.845335Z" />
  </clipPath>
  <clipPath id="bx">
   <path transform="matrix(2,0,0,-2,0,1241.28)" d="M62.845335 47.186876H1113.236V594.6017H62.845335Z" />
  </clipPath>
  <clipPath id="bw">
   <path transform="matrix(2,0,0,-2,0,1241.28)" d="M62.845335 47.186876H1113.236V594.6017H62.845335Z" />
  </clipPath>
  <clipPath id="bv">
   <path transform="matrix(2,0,0,-2,0,1241.28)" d="M62.845335 47.186876H1113.236V594.6017H62.845335Z" />
  </clipPath>
  <clipPath id="bu">
   <path transform="matrix(2,0,0,-2,0,1241.28)" d="M62.845335 47.186876H1113.236V594.6017H62.845335Z" />
  </clipPath>
  <clipPath id="bt">
   <path transform="matrix(2,0,0,-2,0,1241.28)" d="M62.845335 47.186876H1113.236V594.6017H62.845335Z" />
  </clipPath>
  <clipPath id="bs">
   <path transform="matrix(2,0,0,-2,0,1241.28)" d="M62.845335 47.186876H1113.236V594.6017H62.845335Z" />
  </clipPath>
  <clipPath id="br">
   <path transform="matrix(2,0,0,-2,0,1241.28)" d="M62.845335 47.186876H1113.236V594.6017H62.845335Z" />
  </clipPath>
  <clipPath id="bq">
   <path transform="matrix(2,0,0,-2,0,1241.28)" d="M62.845335 47.186876H1113.236V594.6017H62.845335Z" />
  </clipPath>
  <clipPath id="bp">
   <path transform="matrix(2,0,0,-2,0,1241.28)" d="M62.845335 47.186876H1113.236V594.6017H62.845335Z" />
  </clipPath>
  <clipPath id="bo">
   <path transform="matrix(2,0,0,-2,0,1241.28)" d="M62.845335 47.186876H1113.236V594.6017H62.845335Z" />
  </clipPath>
  <clipPath id="bm">
   <path transform="matrix(2,0,0,-2,0,1241.28)" d="M62.845335 47.186876H1113.236V594.6017H62.845335Z" />
  </clipPath>
  <clipPath id="bl">
   <path transform="matrix(2,0,0,-2,0,1241.28)" d="M62.845335 47.186876H1113.236V594.6017H62.845335Z" />
  </clipPath>
  <clipPath id="bk">
   <path transform="matrix(2,0,0,-2,0,1241.28)" d="M62.845335 47.186876H1113.236V594.6017H62.845335Z" />
  </clipPath>
  <clipPath id="bj">
   <path transform="matrix(2,0,0,-2,0,1241.28)" d="M62.845335 47.186876H1113.236V594.6017H62.845335Z" />
  </clipPath>
  <clipPath id="bi">
   <path transform="matrix(2,0,0,-2,0,1241.28)" d="M62.845335 47.186876H1113.236V594.6017H62.845335Z" />
  </clipPath>
  <clipPath id="bh">
   <path transform="matrix(2,0,0,-2,0,1241.28)" d="M62.845335 47.186876H1113.236V594.6017H62.845335Z" />
  </clipPath>
  <clipPath id="bg">
   <path transform="matrix(2,0,0,-2,0,1241.28)" d="M62.845335 47.186876H1113.236V594.6017H62.845335Z" />
  </clipPath>
  <clipPath id="bf">
   <path transform="matrix(2,0,0,-2,0,1241.28)" d="M62.845335 47.186876H1113.236V594.6017H62.845335Z" />
  </clipPath>
  <clipPath id="be">
   <path transform="matrix(2,0,0,-2,0,1241.28)" d="M62.845335 47.186876H1113.236V594.6017H62.845335Z" />
  </clipPath>
  <clipPath id="bd">
   <path transform="matrix(2,0,0,-2,0,1241.28)" d="M62.845335 47.186876H1113.236V594.6017H62.845335Z" />
  </clipPath>
  <clipPath id="bb">
   <path transform="matrix(2,0,0,-2,0,1241.28)" d="M62.845335 47.186876H1113.236V594.6017H62.845335Z" />
  </clipPath>
  <clipPath id="ba">
   <path transform="matrix(2,0,0,-2,0,1241.28)" d="M62.845335 47.186876H1113.236V594.6017H62.845335Z" />
  </clipPath>
  <clipPath id="az">
   <path transform="matrix(2,0,0,-2,0,1241.28)" d="M62.845335 47.186876H1113.236V594.6017H62.845335Z" />
  </clipPath>
  <clipPath id="ay">
   <path transform="matrix(2,0,0,-2,0,1241.28)" d="M62.845335 47.186876H1113.236V594.6017H62.845335Z" />
  </clipPath>
  <clipPath id="ax">
   <path transform="matrix(2,0,0,-2,316.67079,140.05408)" d="M-8-8H8V8H-8Z" />
  </clipPath>
  <clipPath id="aw">
   <path transform="matrix(2,0,0,-2,412.16084,149.57158)" d="M-8-8H8V8H-8Z" />
  </clipPath>
  <clipPath id="av">
   <path transform="matrix(2,0,0,-2,507.65089,173.51058)" d="M-8-8H8V8H-8Z" />
  </clipPath>
  <clipPath id="au">
   <path transform="matrix(2,0,0,-2,603.1409,194.92415)" d="M-8-8H8V8H-8Z" />
  </clipPath>
  <clipPath id="at">
   <path transform="matrix(2,0,0,-2,698.631,224.57456)" d="M-8-8H8V8H-8Z" />
  </clipPath>
  <clipPath id="as">
   <path transform="matrix(2,0,0,-2,794.12106,260.25663)" d="M-8-8H8V8H-8Z" />
  </clipPath>
  <clipPath id="aq">
   <path transform="matrix(2,0,0,-2,889.6111,319.31947)" d="M-8-8H8V8H-8Z" />
  </clipPath>
  <clipPath id="ap">
   <path transform="matrix(2,0,0,-2,985.10116,377.2731)" d="M-8-8H8V8H-8Z" />
  </clipPath>
  <clipPath id="ao">
   <path transform="matrix(2,0,0,-2,1080.5912,450.73008)" d="M-8-8H8V8H-8Z" />
  </clipPath>
  <clipPath id="an">
   <path transform="matrix(2,0,0,-2,1176.0813,530.80758)" d="M-8-8H8V8H-8Z" />
  </clipPath>
  <clipPath id="am">
   <path transform="matrix(2,0,0,-2,1271.5714,621.16098)" d="M-8-8H8V8H-8Z" />
  </clipPath>
  <clipPath id="al">
   <path transform="matrix(2,0,0,-2,1367.0615,712.61447)" d="M-8-8H8V8H-8Z" />
  </clipPath>
  <clipPath id="ak">
   <path transform="matrix(2,0,0,-2,1462.5516,793.68038)" d="M-8-8H8V8H-8Z" />
  </clipPath>
  <clipPath id="aj">
   <path transform="matrix(2,0,0,-2,1558.0418,885.86019)" d="M-8-8H8V8H-8Z" />
  </clipPath>
  <clipPath id="ai">
   <path transform="matrix(2,0,0,-2,1653.5319,976.0466)" d="M-8-8H8V8H-8Z" />
  </clipPath>
  <clipPath id="ah">
   <path transform="matrix(2,0,0,-2,1749.022,1061.2335)" d="M-8-8H8V8H-8Z" />
  </clipPath>
  <clipPath id="af">
   <path transform="matrix(2,0,0,-2,1844.5121,1144.3851)" d="M-8-8H8V8H-8Z" />
  </clipPath>
  <clipPath id="ae">
   <path transform="matrix(2,0,0,-2,1940.0022,1230.214)" d="M-8-8H8V8H-8Z" />
  </clipPath>
  <clipPath id="ad">
   <path transform="matrix(2,0,0,-2,0,1241.28)" d="M62.845335 47.186876H1113.236V594.6017H62.845335Z" />
  </clipPath>
  <clipPath id="ac">
   <path transform="matrix(2,0,0,-2,316.67079,293.8144)" d="M-8-8H8V8H-8Z" />
  </clipPath>
  <clipPath id="ab">
   <path transform="matrix(2,0,0,-2,412.16084,308.86085)" d="M-8-8H8V8H-8Z" />
  </clipPath>
  <clipPath id="aa">
   <path transform="matrix(2,0,0,-2,507.65089,325.61433)" d="M-8-8H8V8H-8Z" />
  </clipPath>
  <clipPath id="z">
   <path transform="matrix(2,0,0,-2,603.1409,343.88435)" d="M-8-8H8V8H-8Z" />
  </clipPath>
  <clipPath id="y">
   <path transform="matrix(2,0,0,-2,698.631,364.213)" d="M-8-8H8V8H-8Z" />
  </clipPath>
  <clipPath id="x">
   <path transform="matrix(2,0,0,-2,794.12106,386.64784)" d="M-8-8H8V8H-8Z" />
  </clipPath>
  <clipPath id="w">
   <path transform="matrix(2,0,0,-2,889.6111,411.00059)" d="M-8-8H8V8H-8Z" />
  </clipPath>
  <clipPath id="u">
   <path transform="matrix(2,0,0,-2,985.10116,438.92784)" d="M-8-8H8V8H-8Z" />
  </clipPath>
  <clipPath id="t">
   <path transform="matrix(2,0,0,-2,1080.5912,468.5552)" d="M-8-8H8V8H-8Z" />
  </clipPath>
  <clipPath id="s">
   <path transform="matrix(2,0,0,-2,1176.0813,502.62538)" d="M-8-8H8V8H-8Z" />
  </clipPath>
  <clipPath id="r">
   <path transform="matrix(2,0,0,-2,1271.5714,539.16787)" d="M-8-8H8V8H-8Z" />
  </clipPath>
  <clipPath id="q">
   <path transform="matrix(2,0,0,-2,1367.0615,579.59506)" d="M-8-8H8V8H-8Z" />
  </clipPath>
  <clipPath id="p">
   <path transform="matrix(2,0,0,-2,1462.5516,626.1751)" d="M-8-8H8V8H-8Z" />
  </clipPath>
  <clipPath id="o">
   <path transform="matrix(2,0,0,-2,1558.0418,676.61428)" d="M-8-8H8V8H-8Z" />
  </clipPath>
  <clipPath id="n">
   <path transform="matrix(2,0,0,-2,1653.5319,732.6457)" d="M-8-8H8V8H-8Z" />
  </clipPath>
  <clipPath id="m">
   <path transform="matrix(2,0,0,-2,1749.022,795.36978)" d="M-8-8H8V8H-8Z" />
  </clipPath>
  <clipPath id="l">
   <path transform="matrix(2,0,0,-2,1844.5121,869.9451)" d="M-8-8H8V8H-8Z" />
  </clipPath>
  <clipPath id="j">
   <path transform="matrix(2,0,0,-2,1940.0022,943.49526)" d="M-8-8H8V8H-8Z" />
  </clipPath>
  <clipPath id="i">
   <path transform="matrix(2,0,0,-2,2035.4923,1035.8722)" d="M-8-8H8V8H-8Z" />
  </clipPath>
  <clipPath id="h">
   <path transform="matrix(2,0,0,-2,0,1241.28)" d="M62.845335 47.186876H1113.236V594.6017H62.845335Z" />
  </clipPath>
  <clipPath id="g">
   <path transform="matrix(2,0,0,-2,316.67079,293.88154)" d="M-8-8H8V8H-8Z" />
  </clipPath>
  <clipPath id="f">
   <path transform="matrix(2,0,0,-2,412.16084,309.0338)" d="M-8-8H8V8H-8Z" />
  </clipPath>
  <clipPath id="e">
   <path transform="matrix(2,0,0,-2,507.65089,325.70329)" d="M-8-8H8V8H-8Z" />
  </clipPath>
  <clipPath id="d">
   <path transform="matrix(2,0,0,-2,603.1409,344.06123)" d="M-8-8H8V8H-8Z" />
  </clipPath>
  <clipPath id="c">
   <path transform="matrix(2,0,0,-2,698.631,364.29975)" d="M-8-8H8V8H-8Z" />
  </clipPath>
  <clipPath id="b">
   <path transform="matrix(2,0,0,-2,794.12106,386.63429)" d="M-8-8H8V8H-8Z" />
  </clipPath>
  <clipPath id="a">
   <path transform="matrix(2,0,0,-2,889.6111,411.30656)" d="M-8-8H8V8H-8Z" />
  </clipPath>
  <clipPath id="de">
   <path transform="matrix(2,0,0,-2,985.10116,438.58778)" d="M-8-8H8V8H-8Z" />
  </clipPath>
  <clipPath id="dd">
   <path transform="matrix(2,0,0,-2,1080.5912,468.78233)" d="M-8-8H8V8H-8Z" />
  </clipPath>
  <clipPath id="dc">
   <path transform="matrix(2,0,0,-2,1176.0813,502.23185)" d="M-8-8H8V8H-8Z" />
  </clipPath>
  <clipPath id="db">
   <path transform="matrix(2,0,0,-2,1271.5714,539.3198)" d="M-8-8H8V8H-8Z" />
  </clipPath>
  <clipPath id="da">
   <path transform="matrix(2,0,0,-2,1367.0615,580.4768)" d="M-8-8H8V8H-8Z" />
  </clipPath>
  <clipPath id="cz">
   <path transform="matrix(2,0,0,-2,1462.5516,626.18618)" d="M-8-8H8V8H-8Z" />
  </clipPath>
  <clipPath id="cy">
   <path transform="matrix(2,0,0,-2,1558.0418,676.99057)" d="M-8-8H8V8H-8Z" />
  </clipPath>
  <clipPath id="cx">
   <path transform="matrix(2,0,0,-2,1653.5319,733.4992)" d="M-8-8H8V8H-8Z" />
  </clipPath>
  <clipPath id="cw">
   <path transform="matrix(2,0,0,-2,1749.022,796.3962)" d="M-8-8H8V8H-8Z" />
  </clipPath>
  <clipPath id="cv">
   <path transform="matrix(2,0,0,-2,1844.5121,866.4494)" d="M-8-8H8V8H-8Z" />
  </clipPath>
  <clipPath id="ct">
   <path transform="matrix(2,0,0,-2,1940.0022,944.521)" d="M-8-8H8V8H-8Z" />
  </clipPath>
  <clipPath id="cs">
   <path transform="matrix(2,0,0,-2,2035.4923,1031.5787)" d="M-8-8H8V8H-8Z" />
  </clipPath>
 </defs>
 <g clip-path="url(#dg)">
  <path transform="matrix(2,0,0,-2,0,1241.28)" d="M158.33539 47.186876V594.6016" fill="none" stroke="#b0b0b0" stroke-dasharray="1.85,.8" stroke-linejoin="round" stroke-opacity=".6" stroke-width=".5" />
 </g>
 <path transform="matrix(2,0,0,-2,0,1241.28)" d="m158.33539 47.186876v3" />
 <path transform="matrix(2,0,0,-2,0,1241.28)" d="m158.33539 47.186876v3" fill="none" stroke-linejoin="round" stroke-width=".5" class="stroke" />
 <path transform="matrix(2,0,0,-2,0,1241.28)" d="m158.33539 594.6016v-3" />
 <path transform="matrix(2,0,0,-2,0,1241.28)" d="m158.33539 594.6016v-3" fill="none" stroke-linejoin="round" stroke-width=".5" class="stroke" />
 <text transform="matrix(2 0 -0 2 0 1241.28)" font-family="CMR12" font-size="15.940224" xml:space="preserve" class="fill"><tspan x="154.4334" y="-32.617284" class="fill">0</tspan></text>
 <g clip-path="url(#cj)">
  <path transform="matrix(2,0,0,-2,0,1241.28)" d="M349.31553 47.186876V594.6016" fill="none" stroke="#b0b0b0" stroke-dasharray="1.85,.8" stroke-linejoin="round" stroke-opacity=".6" stroke-width=".5" />
 </g>
 <path transform="matrix(2,0,0,-2,0,1241.28)" d="m349.31553 47.186876v3" />
 <path transform="matrix(2,0,0,-2,0,1241.28)" d="m349.31553 47.186876v3" fill="none" stroke-linejoin="round" stroke-width=".5" class="stroke" />
 <path transform="matrix(2,0,0,-2,0,1241.28)" d="m349.31553 594.6016v-3" />
 <path transform="matrix(2,0,0,-2,0,1241.28)" d="m349.31553 594.6016v-3" fill="none" stroke-linejoin="round" stroke-width=".5" class="stroke" />
 <text transform="matrix(2 0 -0 2 0 1241.28)" font-family="CMR12" font-size="15.940224" xml:space="preserve" class="fill"><tspan x="345.4135" y="-32.617284" class="fill">2</tspan></text>
 <g clip-path="url(#by)">
  <path transform="matrix(2,0,0,-2,0,1241.28)" d="M540.29568 47.186876V594.6016" fill="none" stroke="#b0b0b0" stroke-dasharray="1.85,.8" stroke-linejoin="round" stroke-opacity=".6" stroke-width=".5" />
 </g>
 <path transform="matrix(2,0,0,-2,0,1241.28)" d="m540.29568 47.186876v3" />
 <path transform="matrix(2,0,0,-2,0,1241.28)" d="m540.29568 47.186876v3" fill="none" stroke-linejoin="round" stroke-width=".5" class="stroke" />
 <path transform="matrix(2,0,0,-2,0,1241.28)" d="m540.29568 594.6016v-3" />
 <path transform="matrix(2,0,0,-2,0,1241.28)" d="m540.29568 594.6016v-3" fill="none" stroke-linejoin="round" stroke-width=".5" class="stroke" />
 <text transform="matrix(2 0 -0 2 0 1241.28)" font-family="CMR12" font-size="15.940224" xml:space="preserve" class="fill"><tspan x="536.3937" y="-32.617284" class="fill">4</tspan></text>
 <g clip-path="url(#bn)">
  <path transform="matrix(2,0,0,-2,0,1241.28)" d="M731.27578 47.186876V594.6016" fill="none" stroke="#b0b0b0" stroke-dasharray="1.85,.8" stroke-linejoin="round" stroke-opacity=".6" stroke-width=".5" />
 </g>
 <path transform="matrix(2,0,0,-2,0,1241.28)" d="m731.27578 47.186876v3" />
 <path transform="matrix(2,0,0,-2,0,1241.28)" d="m731.27578 47.186876v3" fill="none" stroke-linejoin="round" stroke-width=".5" class="stroke" />
 <path transform="matrix(2,0,0,-2,0,1241.28)" d="m731.27578 594.6016v-3" />
 <path transform="matrix(2,0,0,-2,0,1241.28)" d="m731.27578 594.6016v-3" fill="none" stroke-linejoin="round" stroke-width=".5" class="stroke" />
 <text transform="matrix(2 0 -0 2 0 1241.28)" font-family="CMR12" font-size="15.940224" xml:space="preserve" class="fill"><tspan x="727.3738" y="-32.617284" class="fill">6</tspan></text>
 <g clip-path="url(#bc)">
  <path transform="matrix(2,0,0,-2,0,1241.28)" d="M922.25588 47.186876V594.6016" fill="none" stroke="#b0b0b0" stroke-dasharray="1.85,.8" stroke-linejoin="round" stroke-opacity=".6" stroke-width=".5" />
 </g>
 <path transform="matrix(2,0,0,-2,0,1241.28)" d="m922.25588 47.186876v3" />
 <path transform="matrix(2,0,0,-2,0,1241.28)" d="m922.25588 47.186876v3" fill="none" stroke-linejoin="round" stroke-width=".5" class="stroke" />
 <path transform="matrix(2,0,0,-2,0,1241.28)" d="m922.25588 594.6016v-3" />
 <path transform="matrix(2,0,0,-2,0,1241.28)" d="m922.25588 594.6016v-3" fill="none" stroke-linejoin="round" stroke-width=".5" class="stroke" />
 <text transform="matrix(2 0 -0 2 0 1241.28)" font-family="CMR12" font-size="15.940224" xml:space="preserve" class="fill"><tspan x="918.3539" y="-32.617284" class="fill">8</tspan></text>
 <g clip-path="url(#ar)">
  <path transform="matrix(2,0,0,-2,0,1241.28)" d="M1113.236 47.186876V594.6016" fill="none" stroke="#b0b0b0" stroke-dasharray="1.85,.8" stroke-linejoin="round" stroke-opacity=".6" stroke-width=".5" />
 </g>
 <path transform="matrix(2,0,0,-2,0,1241.28)" d="m1113.236 47.186876v3" />
 <path transform="matrix(2,0,0,-2,0,1241.28)" d="m1113.236 47.186876v3" fill="none" stroke-linejoin="round" stroke-width=".5" class="stroke" />
 <path transform="matrix(2,0,0,-2,0,1241.28)" d="m1113.236 594.6016v-3" />
 <path transform="matrix(2,0,0,-2,0,1241.28)" d="m1113.236 594.6016v-3" fill="none" stroke-linejoin="round" stroke-width=".5" class="stroke" />
 <text transform="matrix(2 0 -0 2 0 1241.28)" font-family="CMR12" font-size="15.940224" xml:space="preserve" class="fill"><tspan x="1105.432 1113.2268" y="-32.617284" class="fill">10</tspan></text>
 <path transform="matrix(2,0,0,-2,0,1241.28)" d="m62.845335 47.186876v1.5" />
 <path transform="matrix(2,0,0,-2,0,1241.28)" d="m62.845335 47.186876v1.5" fill="none" stroke-linejoin="round" stroke-width=".5" class="stroke" />
 <path transform="matrix(2,0,0,-2,0,1241.28)" d="m62.845335 594.6016v-1.5" />
 <path transform="matrix(2,0,0,-2,0,1241.28)" d="m62.845335 594.6016v-1.5" fill="none" stroke-linejoin="round" stroke-width=".5" class="stroke" />
 <path transform="matrix(2,0,0,-2,0,1241.28)" d="m110.59036 47.186876v1.5" />
 <path transform="matrix(2,0,0,-2,0,1241.28)" d="m110.59036 47.186876v1.5" fill="none" stroke-linejoin="round" stroke-width=".5" class="stroke" />
 <path transform="matrix(2,0,0,-2,0,1241.28)" d="m110.59036 594.6016v-1.5" />
 <path transform="matrix(2,0,0,-2,0,1241.28)" d="m110.59036 594.6016v-1.5" fill="none" stroke-linejoin="round" stroke-width=".5" class="stroke" />
 <path transform="matrix(2,0,0,-2,0,1241.28)" d="m206.08043 47.186876v1.5" />
 <path transform="matrix(2,0,0,-2,0,1241.28)" d="m206.08043 47.186876v1.5" fill="none" stroke-linejoin="round" stroke-width=".5" class="stroke" />
 <path transform="matrix(2,0,0,-2,0,1241.28)" d="m206.08043 594.6016v-1.5" />
 <path transform="matrix(2,0,0,-2,0,1241.28)" d="m206.08043 594.6016v-1.5" fill="none" stroke-linejoin="round" stroke-width=".5" class="stroke" />
 <path transform="matrix(2,0,0,-2,0,1241.28)" d="m253.82546 47.186876v1.5" />
 <path transform="matrix(2,0,0,-2,0,1241.28)" d="m253.82546 47.186876v1.5" fill="none" stroke-linejoin="round" stroke-width=".5" class="stroke" />
 <path transform="matrix(2,0,0,-2,0,1241.28)" d="m253.82546 594.6016v-1.5" />
 <path transform="matrix(2,0,0,-2,0,1241.28)" d="m253.82546 594.6016v-1.5" fill="none" stroke-linejoin="round" stroke-width=".5" class="stroke" />
 <path transform="matrix(2,0,0,-2,0,1241.28)" d="m301.5705 47.186876v1.5" />
 <path transform="matrix(2,0,0,-2,0,1241.28)" d="m301.5705 47.186876v1.5" fill="none" stroke-linejoin="round" stroke-width=".5" class="stroke" />
 <path transform="matrix(2,0,0,-2,0,1241.28)" d="m301.5705 594.6016v-1.5" />
 <path transform="matrix(2,0,0,-2,0,1241.28)" d="m301.5705 594.6016v-1.5" fill="none" stroke-linejoin="round" stroke-width=".5" class="stroke" />
 <path transform="matrix(2,0,0,-2,0,1241.28)" d="m397.06056 47.186876v1.5" />
 <path transform="matrix(2,0,0,-2,0,1241.28)" d="m397.06056 47.186876v1.5" fill="none" stroke-linejoin="round" stroke-width=".5" class="stroke" />
 <path transform="matrix(2,0,0,-2,0,1241.28)" d="m397.06056 594.6016v-1.5" />
 <path transform="matrix(2,0,0,-2,0,1241.28)" d="m397.06056 594.6016v-1.5" fill="none" stroke-linejoin="round" stroke-width=".5" class="stroke" />
 <path transform="matrix(2,0,0,-2,0,1241.28)" d="m444.80558 47.186876v1.5" />
 <path transform="matrix(2,0,0,-2,0,1241.28)" d="m444.80558 47.186876v1.5" fill="none" stroke-linejoin="round" stroke-width=".5" class="stroke" />
 <path transform="matrix(2,0,0,-2,0,1241.28)" d="m444.80558 594.6016v-1.5" />
 <path transform="matrix(2,0,0,-2,0,1241.28)" d="m444.80558 594.6016v-1.5" fill="none" stroke-linejoin="round" stroke-width=".5" class="stroke" />
 <path transform="matrix(2,0,0,-2,0,1241.28)" d="m492.5506 47.186876v1.5" />
 <path transform="matrix(2,0,0,-2,0,1241.28)" d="m492.5506 47.186876v1.5" fill="none" stroke-linejoin="round" stroke-width=".5" class="stroke" />
 <path transform="matrix(2,0,0,-2,0,1241.28)" d="m492.5506 594.6016v-1.5" />
 <path transform="matrix(2,0,0,-2,0,1241.28)" d="m492.5506 594.6016v-1.5" fill="none" stroke-linejoin="round" stroke-width=".5" class="stroke" />
 <path transform="matrix(2,0,0,-2,0,1241.28)" d="m588.04067 47.186876v1.5" />
 <path transform="matrix(2,0,0,-2,0,1241.28)" d="m588.04067 47.186876v1.5" fill="none" stroke-linejoin="round" stroke-width=".5" class="stroke" />
 <path transform="matrix(2,0,0,-2,0,1241.28)" d="m588.04067 594.6016v-1.5" />
 <path transform="matrix(2,0,0,-2,0,1241.28)" d="m588.04067 594.6016v-1.5" fill="none" stroke-linejoin="round" stroke-width=".5" class="stroke" />
 <path transform="matrix(2,0,0,-2,0,1241.28)" d="m635.7857 47.186876v1.5" />
 <path transform="matrix(2,0,0,-2,0,1241.28)" d="m635.7857 47.186876v1.5" fill="none" stroke-linejoin="round" stroke-width=".5" class="stroke" />
 <path transform="matrix(2,0,0,-2,0,1241.28)" d="m635.7857 594.6016v-1.5" />
 <path transform="matrix(2,0,0,-2,0,1241.28)" d="m635.7857 594.6016v-1.5" fill="none" stroke-linejoin="round" stroke-width=".5" class="stroke" />
 <path transform="matrix(2,0,0,-2,0,1241.28)" d="m683.53079 47.186876v1.5" />
 <path transform="matrix(2,0,0,-2,0,1241.28)" d="m683.53079 47.186876v1.5" fill="none" stroke-linejoin="round" stroke-width=".5" class="stroke" />
 <path transform="matrix(2,0,0,-2,0,1241.28)" d="m683.53079 594.6016v-1.5" />
 <path transform="matrix(2,0,0,-2,0,1241.28)" d="m683.53079 594.6016v-1.5" fill="none" stroke-linejoin="round" stroke-width=".5" class="stroke" />
 <path transform="matrix(2,0,0,-2,0,1241.28)" d="m779.0208 47.186876v1.5" />
 <path transform="matrix(2,0,0,-2,0,1241.28)" d="m779.0208 47.186876v1.5" fill="none" stroke-linejoin="round" stroke-width=".5" class="stroke" />
 <path transform="matrix(2,0,0,-2,0,1241.28)" d="m779.0208 594.6016v-1.5" />
 <path transform="matrix(2,0,0,-2,0,1241.28)" d="m779.0208 594.6016v-1.5" fill="none" stroke-linejoin="round" stroke-width=".5" class="stroke" />
 <path transform="matrix(2,0,0,-2,0,1241.28)" d="m826.7658 47.186876v1.5" />
 <path transform="matrix(2,0,0,-2,0,1241.28)" d="m826.7658 47.186876v1.5" fill="none" stroke-linejoin="round" stroke-width=".5" class="stroke" />
 <path transform="matrix(2,0,0,-2,0,1241.28)" d="m826.7658 594.6016v-1.5" />
 <path transform="matrix(2,0,0,-2,0,1241.28)" d="m826.7658 594.6016v-1.5" fill="none" stroke-linejoin="round" stroke-width=".5" class="stroke" />
 <path transform="matrix(2,0,0,-2,0,1241.28)" d="m874.51089 47.186876v1.5" />
 <path transform="matrix(2,0,0,-2,0,1241.28)" d="m874.51089 47.186876v1.5" fill="none" stroke-linejoin="round" stroke-width=".5" class="stroke" />
 <path transform="matrix(2,0,0,-2,0,1241.28)" d="m874.51089 594.6016v-1.5" />
 <path transform="matrix(2,0,0,-2,0,1241.28)" d="m874.51089 594.6016v-1.5" fill="none" stroke-linejoin="round" stroke-width=".5" class="stroke" />
 <path transform="matrix(2,0,0,-2,0,1241.28)" d="m970.0009 47.186876v1.5" />
 <path transform="matrix(2,0,0,-2,0,1241.28)" d="m970.0009 47.186876v1.5" fill="none" stroke-linejoin="round" stroke-width=".5" class="stroke" />
 <path transform="matrix(2,0,0,-2,0,1241.28)" d="m970.0009 594.6016v-1.5" />
 <path transform="matrix(2,0,0,-2,0,1241.28)" d="m970.0009 594.6016v-1.5" fill="none" stroke-linejoin="round" stroke-width=".5" class="stroke" />
 <path transform="matrix(2,0,0,-2,0,1241.28)" d="m1017.746 47.186876v1.5" />
 <path transform="matrix(2,0,0,-2,0,1241.28)" d="m1017.746 47.186876v1.5" fill="none" stroke-linejoin="round" stroke-width=".5" class="stroke" />
 <path transform="matrix(2,0,0,-2,0,1241.28)" d="m1017.746 594.6016v-1.5" />
 <path transform="matrix(2,0,0,-2,0,1241.28)" d="m1017.746 594.6016v-1.5" fill="none" stroke-linejoin="round" stroke-width=".5" class="stroke" />
 <path transform="matrix(2,0,0,-2,0,1241.28)" d="m1065.491 47.186876v1.5" />
 <path transform="matrix(2,0,0,-2,0,1241.28)" d="m1065.491 47.186876v1.5" fill="none" stroke-linejoin="round" stroke-width=".5" class="stroke" />
 <path transform="matrix(2,0,0,-2,0,1241.28)" d="m1065.491 594.6016v-1.5" />
 <path transform="matrix(2,0,0,-2,0,1241.28)" d="m1065.491 594.6016v-1.5" fill="none" stroke-linejoin="round" stroke-width=".5" class="stroke" />
 <text transform="matrix(2 0 -0 2 0 1241.28)" font-family="CMMI12" font-size="21.917809" font-style="italic" xml:space="preserve" class="fill"><tspan x="533.93746" y="-9.0794529" class="fill">E</tspan></text>
 <text transform="matrix(2 0 -0 2 0 1241.28)" font-family="CMMI12" font-size="15.342399" font-style="italic" xml:space="preserve" class="fill"><tspan x="549.8239" y="-5.7917935" class="fill">b</tspan></text>
 <text transform="matrix(2 0 -0 2 0 1241.28)" font-family="CMMI12" font-size="21.917809" font-style="italic" xml:space="preserve" class="fill"><tspan x="556.7093 566.23489" y="-9.0794529" class="fill">/N</tspan></text>
 <text transform="matrix(2 0 -0 2 0 1241.28)" font-family="CMR12" font-size="15.342399" xml:space="preserve" class="fill"><tspan x="583.4328" y="-5.7917935" class="fill">0</tspan></text>
 <text transform="matrix(2 0 -0 2 0 1241.28)" font-family="CMR17" font-size="21.917809" xml:space="preserve" class="fill"><tspan x="598.05899" y="-9.0794529" class="fill">(</tspan></text>
 <text transform="matrix(2 0 -0 2 0 1241.28)" font-family="CMMI12" font-size="21.917809" font-style="italic" xml:space="preserve" class="fill"><tspan x="605.82077 616.95498" y="-9.0794529" class="fill">dB</tspan></text>
 <text transform="matrix(2 0 -0 2 0 1241.28)" font-family="CMR17" font-size="21.917809" xml:space="preserve" class="fill"><tspan x="634.38217" y="-9.0794529" class="fill">)</tspan></text>
 <g clip-path="url(#ag)">
  <path transform="matrix(2,0,0,-2,0,1241.28)" d="M62.845335 47.186876H1113.236" fill="none" stroke="#808080" stroke-dasharray="1.85,.8" stroke-linejoin="round" stroke-opacity=".6" stroke-width=".5" />
 </g>
 <path transform="matrix(2,0,0,-2,0,1241.28)" d="m62.845335 47.186876h2.999995" />
 <path transform="matrix(2,0,0,-2,0,1241.28)" d="m62.845335 47.186876h2.999995" fill="none" stroke-linejoin="round" stroke-width=".5" class="stroke" />
 <path transform="matrix(2,0,0,-2,0,1241.28)" d="m1113.236 47.186876h-3" />
 <path transform="matrix(2,0,0,-2,0,1241.28)" d="m1113.236 47.186876h-3" fill="none" stroke-linejoin="round" stroke-width=".5" class="stroke" />
 <text transform="matrix(2 0 -0 2 0 1241.28)" font-family="CMR12" font-size="15.940224" xml:space="preserve" class="fill"><tspan x="29.479743 37.274515" y="-41.652078" class="fill">10</tspan></text>
 <text transform="matrix(2 0 -0 2 0 1241.28)" font-family="CMSY10" font-size="11.158108" font-style="italic" xml:space="preserve" class="fill"><tspan x="45.087717" y="-47.43666" class="fill">&#8722;</tspan></text>
 <text transform="matrix(2 0 -0 2 0 1241.28)" font-family="CMR10" font-size="11.158108" xml:space="preserve" class="fill"><tspan x="53.766263" y="-47.43666" class="fill">5</tspan></text>
 <g clip-path="url(#v)">
  <path transform="matrix(2,0,0,-2,0,1241.28)" d="M62.845335 156.66983H1113.236" fill="none" stroke="#808080" stroke-dasharray="1.85,.8" stroke-linejoin="round" stroke-opacity=".6" stroke-width=".5" />
 </g>
 <path transform="matrix(2,0,0,-2,0,1241.28)" d="m62.845335 156.66983h2.999995" />
 <path transform="matrix(2,0,0,-2,0,1241.28)" d="m62.845335 156.66983h2.999995" fill="none" stroke-linejoin="round" stroke-width=".5" class="stroke" />
 <path transform="matrix(2,0,0,-2,0,1241.28)" d="m1113.236 156.66983h-3" />
 <path transform="matrix(2,0,0,-2,0,1241.28)" d="m1113.236 156.66983h-3" fill="none" stroke-linejoin="round" stroke-width=".5" class="stroke" />
 <text transform="matrix(2 0 -0 2 0 1241.28)" font-family="CMR12" font-size="15.940224" xml:space="preserve" class="fill"><tspan x="29.479743 37.274515" y="-151.13503" class="fill">10</tspan></text>
 <text transform="matrix(2 0 -0 2 0 1241.28)" font-family="CMSY10" font-size="11.158108" font-style="italic" xml:space="preserve" class="fill"><tspan x="45.087717" y="-156.9196" class="fill">&#8722;</tspan></text>
 <text transform="matrix(2 0 -0 2 0 1241.28)" font-family="CMR10" font-size="11.158108" xml:space="preserve" class="fill"><tspan x="53.766263" y="-156.9196" class="fill">4</tspan></text>
 <g clip-path="url(#k)">
  <path transform="matrix(2,0,0,-2,0,1241.28)" d="M62.845335 266.15278H1113.236" fill="none" stroke="#808080" stroke-dasharray="1.85,.8" stroke-linejoin="round" stroke-opacity=".6" stroke-width=".5" />
 </g>
 <path transform="matrix(2,0,0,-2,0,1241.28)" d="m62.845335 266.15278h2.999995" />
 <path transform="matrix(2,0,0,-2,0,1241.28)" d="m62.845335 266.15278h2.999995" fill="none" stroke-linejoin="round" stroke-width=".5" class="stroke" />
 <path transform="matrix(2,0,0,-2,0,1241.28)" d="m1113.236 266.15278h-3" />
 <path transform="matrix(2,0,0,-2,0,1241.28)" d="m1113.236 266.15278h-3" fill="none" stroke-linejoin="round" stroke-width=".5" class="stroke" />
 <text transform="matrix(2 0 -0 2 0 1241.28)" font-family="CMR12" font-size="15.940224" xml:space="preserve" class="fill"><tspan x="29.479743 37.274515" y="-260.61799" class="fill">10</tspan></text>
 <text transform="matrix(2 0 -0 2 0 1241.28)" font-family="CMSY10" font-size="11.158108" font-style="italic" xml:space="preserve" class="fill"><tspan x="45.087717" y="-266.40257" class="fill">&#8722;</tspan></text>
 <text transform="matrix(2 0 -0 2 0 1241.28)" font-family="CMR10" font-size="11.158108" xml:space="preserve" class="fill"><tspan x="53.766263" y="-266.40257" class="fill">3</tspan></text>
 <g clip-path="url(#df)">
  <path transform="matrix(2,0,0,-2,0,1241.28)" d="M62.845335 375.63575H1113.236" fill="none" stroke="#808080" stroke-dasharray="1.85,.8" stroke-linejoin="round" stroke-opacity=".6" stroke-width=".5" />
 </g>
 <path transform="matrix(2,0,0,-2,0,1241.28)" d="m62.845335 375.63575h2.999995" />
 <path transform="matrix(2,0,0,-2,0,1241.28)" d="m62.845335 375.63575h2.999995" fill="none" stroke-linejoin="round" stroke-width=".5" class="stroke" />
 <path transform="matrix(2,0,0,-2,0,1241.28)" d="m1113.236 375.63575h-3" />
 <path transform="matrix(2,0,0,-2,0,1241.28)" d="m1113.236 375.63575h-3" fill="none" stroke-linejoin="round" stroke-width=".5" class="stroke" />
 <text transform="matrix(2 0 -0 2 0 1241.28)" font-family="CMR12" font-size="15.940224" xml:space="preserve" class="fill"><tspan x="29.479743 37.274515" y="-370.10096" class="fill">10</tspan></text>
 <text transform="matrix(2 0 -0 2 0 1241.28)" font-family="CMSY10" font-size="11.158108" font-style="italic" xml:space="preserve" class="fill"><tspan x="45.087717" y="-375.88554" class="fill">&#8722;</tspan></text>
 <text transform="matrix(2 0 -0 2 0 1241.28)" font-family="CMR10" font-size="11.158108" xml:space="preserve" class="fill"><tspan x="53.766263" y="-375.88554" class="fill">2</tspan></text>
 <g clip-path="url(#cu)">
  <path transform="matrix(2,0,0,-2,0,1241.28)" d="M62.845335 485.11869H1113.236" fill="none" stroke="#808080" stroke-dasharray="1.85,.8" stroke-linejoin="round" stroke-opacity=".6" stroke-width=".5" />
 </g>
 <path transform="matrix(2,0,0,-2,0,1241.28)" d="m62.845335 485.11869h2.999995" />
 <path transform="matrix(2,0,0,-2,0,1241.28)" d="m62.845335 485.11869h2.999995" fill="none" stroke-linejoin="round" stroke-width=".5" class="stroke" />
 <path transform="matrix(2,0,0,-2,0,1241.28)" d="m1113.236 485.11869h-3" />
 <path transform="matrix(2,0,0,-2,0,1241.28)" d="m1113.236 485.11869h-3" fill="none" stroke-linejoin="round" stroke-width=".5" class="stroke" />
 <text transform="matrix(2 0 -0 2 0 1241.28)" font-family="CMR12" font-size="15.940224" xml:space="preserve" class="fill"><tspan x="29.479743 37.274515" y="-479.5839" class="fill">10</tspan></text>
 <text transform="matrix(2 0 -0 2 0 1241.28)" font-family="CMSY10" font-size="11.158108" font-style="italic" xml:space="preserve" class="fill"><tspan x="45.087717" y="-485.36848" class="fill">&#8722;</tspan></text>
 <text transform="matrix(2 0 -0 2 0 1241.28)" font-family="CMR10" font-size="11.158108" xml:space="preserve" class="fill"><tspan x="53.766263" y="-485.36848" class="fill">1</tspan></text>
 <g clip-path="url(#cr)">
  <path transform="matrix(2,0,0,-2,0,1241.28)" d="M62.845335 594.6016H1113.236" fill="none" stroke="#808080" stroke-dasharray="1.85,.8" stroke-linejoin="round" stroke-opacity=".6" stroke-width=".5" />
 </g>
 <path transform="matrix(2,0,0,-2,0,1241.28)" d="m62.845335 594.6016h2.999995" />
 <path transform="matrix(2,0,0,-2,0,1241.28)" d="m62.845335 594.6016h2.999995" fill="none" stroke-linejoin="round" stroke-width=".5" class="stroke" />
 <path transform="matrix(2,0,0,-2,0,1241.28)" d="m1113.236 594.6016h-3" />
 <path transform="matrix(2,0,0,-2,0,1241.28)" d="m1113.236 594.6016h-3" fill="none" stroke-linejoin="round" stroke-width=".5" class="stroke" />
 <text transform="matrix(2 0 -0 2 0 1241.28)" font-family="CMR12" font-size="15.940224" xml:space="preserve" class="fill"><tspan x="38.158288 45.953058" y="-589.06686" class="fill">10</tspan></text>
 <text transform="matrix(2 0 -0 2 0 1241.28)" font-family="CMR10" font-size="11.158108" xml:space="preserve" class="fill"><tspan x="53.766263" y="-594.85147" class="fill">0</tspan></text>
 <g clip-path="url(#cq)">
  <path transform="matrix(2,0,0,-2,0,1241.28)" d="M62.845335 80.14452H1113.236" fill="none" stroke="#808080" stroke-dasharray="1.85,.8" stroke-linejoin="round" stroke-opacity=".6" stroke-width=".5" />
 </g>
 <path transform="matrix(2,0,0,-2,0,1241.28)" d="m62.845335 80.14452h1.499995" />
 <path transform="matrix(2,0,0,-2,0,1241.28)" d="m62.845335 80.14452h1.499995" fill="none" stroke-linejoin="round" stroke-width=".5" class="stroke" />
 <path transform="matrix(2,0,0,-2,0,1241.28)" d="m1113.236 80.14452h-1.5" />
 <path transform="matrix(2,0,0,-2,0,1241.28)" d="m1113.236 80.14452h-1.5" fill="none" stroke-linejoin="round" stroke-width=".5" class="stroke" />
 <g clip-path="url(#cp)">
  <path transform="matrix(2,0,0,-2,0,1241.28)" d="M62.845335 99.423519H1113.236" fill="none" stroke="#808080" stroke-dasharray="1.85,.8" stroke-linejoin="round" stroke-opacity=".6" stroke-width=".5" />
 </g>
 <path transform="matrix(2,0,0,-2,0,1241.28)" d="m62.845335 99.423519h1.499995" />
 <path transform="matrix(2,0,0,-2,0,1241.28)" d="m62.845335 99.423519h1.499995" fill="none" stroke-linejoin="round" stroke-width=".5" class="stroke" />
 <path transform="matrix(2,0,0,-2,0,1241.28)" d="m1113.236 99.423519h-1.5" />
 <path transform="matrix(2,0,0,-2,0,1241.28)" d="m1113.236 99.423519h-1.5" fill="none" stroke-linejoin="round" stroke-width=".5" class="stroke" />
 <g clip-path="url(#co)">
  <path transform="matrix(2,0,0,-2,0,1241.28)" d="M62.845335 113.10218H1113.236" fill="none" stroke="#808080" stroke-dasharray="1.85,.8" stroke-linejoin="round" stroke-opacity=".6" stroke-width=".5" />
 </g>
 <path transform="matrix(2,0,0,-2,0,1241.28)" d="m62.845335 113.10218h1.499995" />
 <path transform="matrix(2,0,0,-2,0,1241.28)" d="m62.845335 113.10218h1.499995" fill="none" stroke-linejoin="round" stroke-width=".5" class="stroke" />
 <path transform="matrix(2,0,0,-2,0,1241.28)" d="m1113.236 113.10218h-1.5" />
 <path transform="matrix(2,0,0,-2,0,1241.28)" d="m1113.236 113.10218h-1.5" fill="none" stroke-linejoin="round" stroke-width=".5" class="stroke" />
 <g clip-path="url(#cn)">
  <path transform="matrix(2,0,0,-2,0,1241.28)" d="M62.845335 123.71217H1113.236" fill="none" stroke="#808080" stroke-dasharray="1.85,.8" stroke-linejoin="round" stroke-opacity=".6" stroke-width=".5" />
 </g>
 <path transform="matrix(2,0,0,-2,0,1241.28)" d="m62.845335 123.71217h1.499995" />
 <path transform="matrix(2,0,0,-2,0,1241.28)" d="m62.845335 123.71217h1.499995" fill="none" stroke-linejoin="round" stroke-width=".5" class="stroke" />
 <path transform="matrix(2,0,0,-2,0,1241.28)" d="m1113.236 123.71217h-1.5" />
 <path transform="matrix(2,0,0,-2,0,1241.28)" d="m1113.236 123.71217h-1.5" fill="none" stroke-linejoin="round" stroke-width=".5" class="stroke" />
 <g clip-path="url(#cm)">
  <path transform="matrix(2,0,0,-2,0,1241.28)" d="M62.845335 132.38117H1113.236" fill="none" stroke="#808080" stroke-dasharray="1.85,.8" stroke-linejoin="round" stroke-opacity=".6" stroke-width=".5" />
 </g>
 <path transform="matrix(2,0,0,-2,0,1241.28)" d="m62.845335 132.38117h1.499995" />
 <path transform="matrix(2,0,0,-2,0,1241.28)" d="m62.845335 132.38117h1.499995" fill="none" stroke-linejoin="round" stroke-width=".5" class="stroke" />
 <path transform="matrix(2,0,0,-2,0,1241.28)" d="m1113.236 132.38117h-1.5" />
 <path transform="matrix(2,0,0,-2,0,1241.28)" d="m1113.236 132.38117h-1.5" fill="none" stroke-linejoin="round" stroke-width=".5" class="stroke" />
 <g clip-path="url(#cl)">
  <path transform="matrix(2,0,0,-2,0,1241.28)" d="M62.845335 139.71071H1113.236" fill="none" stroke="#808080" stroke-dasharray="1.85,.8" stroke-linejoin="round" stroke-opacity=".6" stroke-width=".5" />
 </g>
 <path transform="matrix(2,0,0,-2,0,1241.28)" d="m62.845335 139.71071h1.499995" />
 <path transform="matrix(2,0,0,-2,0,1241.28)" d="m62.845335 139.71071h1.499995" fill="none" stroke-linejoin="round" stroke-width=".5" class="stroke" />
 <path transform="matrix(2,0,0,-2,0,1241.28)" d="m1113.236 139.71071h-1.5" />
 <path transform="matrix(2,0,0,-2,0,1241.28)" d="m1113.236 139.71071h-1.5" fill="none" stroke-linejoin="round" stroke-width=".5" class="stroke" />
 <g clip-path="url(#ck)">
  <path transform="matrix(2,0,0,-2,0,1241.28)" d="M62.845335 146.05983H1113.236" fill="none" stroke="#808080" stroke-dasharray="1.85,.8" stroke-linejoin="round" stroke-opacity=".6" stroke-width=".5" />
 </g>
 <path transform="matrix(2,0,0,-2,0,1241.28)" d="m62.845335 146.05983h1.499995" />
 <path transform="matrix(2,0,0,-2,0,1241.28)" d="m62.845335 146.05983h1.499995" fill="none" stroke-linejoin="round" stroke-width=".5" class="stroke" />
 <path transform="matrix(2,0,0,-2,0,1241.28)" d="m1113.236 146.05983h-1.5" />
 <path transform="matrix(2,0,0,-2,0,1241.28)" d="m1113.236 146.05983h-1.5" fill="none" stroke-linejoin="round" stroke-width=".5" class="stroke" />
 <g clip-path="url(#ci)">
  <path transform="matrix(2,0,0,-2,0,1241.28)" d="M62.845335 151.66016H1113.236" fill="none" stroke="#808080" stroke-dasharray="1.85,.8" stroke-linejoin="round" stroke-opacity=".6" stroke-width=".5" />
 </g>
 <path transform="matrix(2,0,0,-2,0,1241.28)" d="m62.845335 151.66016h1.499995" />
 <path transform="matrix(2,0,0,-2,0,1241.28)" d="m62.845335 151.66016h1.499995" fill="none" stroke-linejoin="round" stroke-width=".5" class="stroke" />
 <path transform="matrix(2,0,0,-2,0,1241.28)" d="m1113.236 151.66016h-1.5" />
 <path transform="matrix(2,0,0,-2,0,1241.28)" d="m1113.236 151.66016h-1.5" fill="none" stroke-linejoin="round" stroke-width=".5" class="stroke" />
 <g clip-path="url(#ch)">
  <path transform="matrix(2,0,0,-2,0,1241.28)" d="M62.845335 189.62749H1113.236" fill="none" stroke="#808080" stroke-dasharray="1.85,.8" stroke-linejoin="round" stroke-opacity=".6" stroke-width=".5" />
 </g>
 <path transform="matrix(2,0,0,-2,0,1241.28)" d="m62.845335 189.62749h1.499995" />
 <path transform="matrix(2,0,0,-2,0,1241.28)" d="m62.845335 189.62749h1.499995" fill="none" stroke-linejoin="round" stroke-width=".5" class="stroke" />
 <path transform="matrix(2,0,0,-2,0,1241.28)" d="m1113.236 189.62749h-1.5" />
 <path transform="matrix(2,0,0,-2,0,1241.28)" d="m1113.236 189.62749h-1.5" fill="none" stroke-linejoin="round" stroke-width=".5" class="stroke" />
 <g clip-path="url(#cg)">
  <path transform="matrix(2,0,0,-2,0,1241.28)" d="M62.845335 208.90647H1113.236" fill="none" stroke="#808080" stroke-dasharray="1.85,.8" stroke-linejoin="round" stroke-opacity=".6" stroke-width=".5" />
 </g>
 <path transform="matrix(2,0,0,-2,0,1241.28)" d="m62.845335 208.90647h1.499995" />
 <path transform="matrix(2,0,0,-2,0,1241.28)" d="m62.845335 208.90647h1.499995" fill="none" stroke-linejoin="round" stroke-width=".5" class="stroke" />
 <path transform="matrix(2,0,0,-2,0,1241.28)" d="m1113.236 208.90647h-1.5" />
 <path transform="matrix(2,0,0,-2,0,1241.28)" d="m1113.236 208.90647h-1.5" fill="none" stroke-linejoin="round" stroke-width=".5" class="stroke" />
 <g clip-path="url(#cf)">
  <path transform="matrix(2,0,0,-2,0,1241.28)" d="M62.845335 222.58513H1113.236" fill="none" stroke="#808080" stroke-dasharray="1.85,.8" stroke-linejoin="round" stroke-opacity=".6" stroke-width=".5" />
 </g>
 <path transform="matrix(2,0,0,-2,0,1241.28)" d="m62.845335 222.58513h1.499995" />
 <path transform="matrix(2,0,0,-2,0,1241.28)" d="m62.845335 222.58513h1.499995" fill="none" stroke-linejoin="round" stroke-width=".5" class="stroke" />
 <path transform="matrix(2,0,0,-2,0,1241.28)" d="m1113.236 222.58513h-1.5" />
 <path transform="matrix(2,0,0,-2,0,1241.28)" d="m1113.236 222.58513h-1.5" fill="none" stroke-linejoin="round" stroke-width=".5" class="stroke" />
 <g clip-path="url(#ce)">
  <path transform="matrix(2,0,0,-2,0,1241.28)" d="M62.845335 233.19513H1113.236" fill="none" stroke="#808080" stroke-dasharray="1.85,.8" stroke-linejoin="round" stroke-opacity=".6" stroke-width=".5" />
 </g>
 <path transform="matrix(2,0,0,-2,0,1241.28)" d="m62.845335 233.19513h1.499995" />
 <path transform="matrix(2,0,0,-2,0,1241.28)" d="m62.845335 233.19513h1.499995" fill="none" stroke-linejoin="round" stroke-width=".5" class="stroke" />
 <path transform="matrix(2,0,0,-2,0,1241.28)" d="m1113.236 233.19513h-1.5" />
 <path transform="matrix(2,0,0,-2,0,1241.28)" d="m1113.236 233.19513h-1.5" fill="none" stroke-linejoin="round" stroke-width=".5" class="stroke" />
 <g clip-path="url(#cd)">
  <path transform="matrix(2,0,0,-2,0,1241.28)" d="M62.845335 241.86412H1113.236" fill="none" stroke="#808080" stroke-dasharray="1.85,.8" stroke-linejoin="round" stroke-opacity=".6" stroke-width=".5" />
 </g>
 <path transform="matrix(2,0,0,-2,0,1241.28)" d="m62.845335 241.86412h1.499995" />
 <path transform="matrix(2,0,0,-2,0,1241.28)" d="m62.845335 241.86412h1.499995" fill="none" stroke-linejoin="round" stroke-width=".5" class="stroke" />
 <path transform="matrix(2,0,0,-2,0,1241.28)" d="m1113.236 241.86412h-1.5" />
 <path transform="matrix(2,0,0,-2,0,1241.28)" d="m1113.236 241.86412h-1.5" fill="none" stroke-linejoin="round" stroke-width=".5" class="stroke" />
 <g clip-path="url(#cc)">
  <path transform="matrix(2,0,0,-2,0,1241.28)" d="M62.845335 249.19367H1113.236" fill="none" stroke="#808080" stroke-dasharray="1.85,.8" stroke-linejoin="round" stroke-opacity=".6" stroke-width=".5" />
 </g>
 <path transform="matrix(2,0,0,-2,0,1241.28)" d="m62.845335 249.19367h1.499995" />
 <path transform="matrix(2,0,0,-2,0,1241.28)" d="m62.845335 249.19367h1.499995" fill="none" stroke-linejoin="round" stroke-width=".5" class="stroke" />
 <path transform="matrix(2,0,0,-2,0,1241.28)" d="m1113.236 249.19367h-1.5" />
 <path transform="matrix(2,0,0,-2,0,1241.28)" d="m1113.236 249.19367h-1.5" fill="none" stroke-linejoin="round" stroke-width=".5" class="stroke" />
 <g clip-path="url(#cb)">
  <path transform="matrix(2,0,0,-2,0,1241.28)" d="M62.845335 255.54279H1113.236" fill="none" stroke="#808080" stroke-dasharray="1.85,.8" stroke-linejoin="round" stroke-opacity=".6" stroke-width=".5" />
 </g>
 <path transform="matrix(2,0,0,-2,0,1241.28)" d="m62.845335 255.54279h1.499995" />
 <path transform="matrix(2,0,0,-2,0,1241.28)" d="m62.845335 255.54279h1.499995" fill="none" stroke-linejoin="round" stroke-width=".5" class="stroke" />
 <path transform="matrix(2,0,0,-2,0,1241.28)" d="m1113.236 255.54279h-1.5" />
 <path transform="matrix(2,0,0,-2,0,1241.28)" d="m1113.236 255.54279h-1.5" fill="none" stroke-linejoin="round" stroke-width=".5" class="stroke" />
 <g clip-path="url(#ca)">
  <path transform="matrix(2,0,0,-2,0,1241.28)" d="M62.845335 261.14314H1113.236" fill="none" stroke="#808080" stroke-dasharray="1.85,.8" stroke-linejoin="round" stroke-opacity=".6" stroke-width=".5" />
 </g>
 <path transform="matrix(2,0,0,-2,0,1241.28)" d="m62.845335 261.14314h1.499995" />
 <path transform="matrix(2,0,0,-2,0,1241.28)" d="m62.845335 261.14314h1.499995" fill="none" stroke-linejoin="round" stroke-width=".5" class="stroke" />
 <path transform="matrix(2,0,0,-2,0,1241.28)" d="m1113.236 261.14314h-1.5" />
 <path transform="matrix(2,0,0,-2,0,1241.28)" d="m1113.236 261.14314h-1.5" fill="none" stroke-linejoin="round" stroke-width=".5" class="stroke" />
 <g clip-path="url(#bz)">
  <path transform="matrix(2,0,0,-2,0,1241.28)" d="M62.845335 299.11045H1113.236" fill="none" stroke="#808080" stroke-dasharray="1.85,.8" stroke-linejoin="round" stroke-opacity=".6" stroke-width=".5" />
 </g>
 <path transform="matrix(2,0,0,-2,0,1241.28)" d="m62.845335 299.11045h1.499995" />
 <path transform="matrix(2,0,0,-2,0,1241.28)" d="m62.845335 299.11045h1.499995" fill="none" stroke-linejoin="round" stroke-width=".5" class="stroke" />
 <path transform="matrix(2,0,0,-2,0,1241.28)" d="m1113.236 299.11045h-1.5" />
 <path transform="matrix(2,0,0,-2,0,1241.28)" d="m1113.236 299.11045h-1.5" fill="none" stroke-linejoin="round" stroke-width=".5" class="stroke" />
 <g clip-path="url(#bx)">
  <path transform="matrix(2,0,0,-2,0,1241.28)" d="M62.845335 318.38945H1113.236" fill="none" stroke="#808080" stroke-dasharray="1.85,.8" stroke-linejoin="round" stroke-opacity=".6" stroke-width=".5" />
 </g>
 <path transform="matrix(2,0,0,-2,0,1241.28)" d="m62.845335 318.38945h1.499995" />
 <path transform="matrix(2,0,0,-2,0,1241.28)" d="m62.845335 318.38945h1.499995" fill="none" stroke-linejoin="round" stroke-width=".5" class="stroke" />
 <path transform="matrix(2,0,0,-2,0,1241.28)" d="m1113.236 318.38945h-1.5" />
 <path transform="matrix(2,0,0,-2,0,1241.28)" d="m1113.236 318.38945h-1.5" fill="none" stroke-linejoin="round" stroke-width=".5" class="stroke" />
 <g clip-path="url(#bw)">
  <path transform="matrix(2,0,0,-2,0,1241.28)" d="M62.845335 332.06809H1113.236" fill="none" stroke="#808080" stroke-dasharray="1.85,.8" stroke-linejoin="round" stroke-opacity=".6" stroke-width=".5" />
 </g>
 <path transform="matrix(2,0,0,-2,0,1241.28)" d="m62.845335 332.06809h1.499995" />
 <path transform="matrix(2,0,0,-2,0,1241.28)" d="m62.845335 332.06809h1.499995" fill="none" stroke-linejoin="round" stroke-width=".5" class="stroke" />
 <path transform="matrix(2,0,0,-2,0,1241.28)" d="m1113.236 332.06809h-1.5" />
 <path transform="matrix(2,0,0,-2,0,1241.28)" d="m1113.236 332.06809h-1.5" fill="none" stroke-linejoin="round" stroke-width=".5" class="stroke" />
 <g clip-path="url(#bv)">
  <path transform="matrix(2,0,0,-2,0,1241.28)" d="M62.845335 342.67808H1113.236" fill="none" stroke="#808080" stroke-dasharray="1.85,.8" stroke-linejoin="round" stroke-opacity=".6" stroke-width=".5" />
 </g>
 <path transform="matrix(2,0,0,-2,0,1241.28)" d="m62.845335 342.67808h1.499995" />
 <path transform="matrix(2,0,0,-2,0,1241.28)" d="m62.845335 342.67808h1.499995" fill="none" stroke-linejoin="round" stroke-width=".5" class="stroke" />
 <path transform="matrix(2,0,0,-2,0,1241.28)" d="m1113.236 342.67808h-1.5" />
 <path transform="matrix(2,0,0,-2,0,1241.28)" d="m1113.236 342.67808h-1.5" fill="none" stroke-linejoin="round" stroke-width=".5" class="stroke" />
 <g clip-path="url(#bu)">
  <path transform="matrix(2,0,0,-2,0,1241.28)" d="M62.845335 351.34709H1113.236" fill="none" stroke="#808080" stroke-dasharray="1.85,.8" stroke-linejoin="round" stroke-opacity=".6" stroke-width=".5" />
 </g>
 <path transform="matrix(2,0,0,-2,0,1241.28)" d="m62.845335 351.34709h1.499995" />
 <path transform="matrix(2,0,0,-2,0,1241.28)" d="m62.845335 351.34709h1.499995" fill="none" stroke-linejoin="round" stroke-width=".5" class="stroke" />
 <path transform="matrix(2,0,0,-2,0,1241.28)" d="m1113.236 351.34709h-1.5" />
 <path transform="matrix(2,0,0,-2,0,1241.28)" d="m1113.236 351.34709h-1.5" fill="none" stroke-linejoin="round" stroke-width=".5" class="stroke" />
 <g clip-path="url(#bt)">
  <path transform="matrix(2,0,0,-2,0,1241.28)" d="M62.845335 358.6766H1113.236" fill="none" stroke="#808080" stroke-dasharray="1.85,.8" stroke-linejoin="round" stroke-opacity=".6" stroke-width=".5" />
 </g>
 <path transform="matrix(2,0,0,-2,0,1241.28)" d="m62.845335 358.6766h1.499995" />
 <path transform="matrix(2,0,0,-2,0,1241.28)" d="m62.845335 358.6766h1.499995" fill="none" stroke-linejoin="round" stroke-width=".5" class="stroke" />
 <path transform="matrix(2,0,0,-2,0,1241.28)" d="m1113.236 358.6766h-1.5" />
 <path transform="matrix(2,0,0,-2,0,1241.28)" d="m1113.236 358.6766h-1.5" fill="none" stroke-linejoin="round" stroke-width=".5" class="stroke" />
 <g clip-path="url(#bs)">
  <path transform="matrix(2,0,0,-2,0,1241.28)" d="M62.845335 365.02574H1113.236" fill="none" stroke="#808080" stroke-dasharray="1.85,.8" stroke-linejoin="round" stroke-opacity=".6" stroke-width=".5" />
 </g>
 <path transform="matrix(2,0,0,-2,0,1241.28)" d="m62.845335 365.02574h1.499995" />
 <path transform="matrix(2,0,0,-2,0,1241.28)" d="m62.845335 365.02574h1.499995" fill="none" stroke-linejoin="round" stroke-width=".5" class="stroke" />
 <path transform="matrix(2,0,0,-2,0,1241.28)" d="m1113.236 365.02574h-1.5" />
 <path transform="matrix(2,0,0,-2,0,1241.28)" d="m1113.236 365.02574h-1.5" fill="none" stroke-linejoin="round" stroke-width=".5" class="stroke" />
 <g clip-path="url(#br)">
  <path transform="matrix(2,0,0,-2,0,1241.28)" d="M62.845335 370.62608H1113.236" fill="none" stroke="#808080" stroke-dasharray="1.85,.8" stroke-linejoin="round" stroke-opacity=".6" stroke-width=".5" />
 </g>
 <path transform="matrix(2,0,0,-2,0,1241.28)" d="m62.845335 370.62608h1.499995" />
 <path transform="matrix(2,0,0,-2,0,1241.28)" d="m62.845335 370.62608h1.499995" fill="none" stroke-linejoin="round" stroke-width=".5" class="stroke" />
 <path transform="matrix(2,0,0,-2,0,1241.28)" d="m1113.236 370.62608h-1.5" />
 <path transform="matrix(2,0,0,-2,0,1241.28)" d="m1113.236 370.62608h-1.5" fill="none" stroke-linejoin="round" stroke-width=".5" class="stroke" />
 <g clip-path="url(#bq)">
  <path transform="matrix(2,0,0,-2,0,1241.28)" d="M62.845335 408.59339H1113.236" fill="none" stroke="#808080" stroke-dasharray="1.85,.8" stroke-linejoin="round" stroke-opacity=".6" stroke-width=".5" />
 </g>
 <path transform="matrix(2,0,0,-2,0,1241.28)" d="m62.845335 408.59339h1.499995" />
 <path transform="matrix(2,0,0,-2,0,1241.28)" d="m62.845335 408.59339h1.499995" fill="none" stroke-linejoin="round" stroke-width=".5" class="stroke" />
 <path transform="matrix(2,0,0,-2,0,1241.28)" d="m1113.236 408.59339h-1.5" />
 <path transform="matrix(2,0,0,-2,0,1241.28)" d="m1113.236 408.59339h-1.5" fill="none" stroke-linejoin="round" stroke-width=".5" class="stroke" />
 <g clip-path="url(#bp)">
  <path transform="matrix(2,0,0,-2,0,1241.28)" d="M62.845335 427.87239H1113.236" fill="none" stroke="#808080" stroke-dasharray="1.85,.8" stroke-linejoin="round" stroke-opacity=".6" stroke-width=".5" />
 </g>
 <path transform="matrix(2,0,0,-2,0,1241.28)" d="m62.845335 427.87239h1.499995" />
 <path transform="matrix(2,0,0,-2,0,1241.28)" d="m62.845335 427.87239h1.499995" fill="none" stroke-linejoin="round" stroke-width=".5" class="stroke" />
 <path transform="matrix(2,0,0,-2,0,1241.28)" d="m1113.236 427.87239h-1.5" />
 <path transform="matrix(2,0,0,-2,0,1241.28)" d="m1113.236 427.87239h-1.5" fill="none" stroke-linejoin="round" stroke-width=".5" class="stroke" />
 <g clip-path="url(#bo)">
  <path transform="matrix(2,0,0,-2,0,1241.28)" d="M62.845335 441.55107H1113.236" fill="none" stroke="#808080" stroke-dasharray="1.85,.8" stroke-linejoin="round" stroke-opacity=".6" stroke-width=".5" />
 </g>
 <path transform="matrix(2,0,0,-2,0,1241.28)" d="m62.845335 441.55107h1.499995" />
 <path transform="matrix(2,0,0,-2,0,1241.28)" d="m62.845335 441.55107h1.499995" fill="none" stroke-linejoin="round" stroke-width=".5" class="stroke" />
 <path transform="matrix(2,0,0,-2,0,1241.28)" d="m1113.236 441.55107h-1.5" />
 <path transform="matrix(2,0,0,-2,0,1241.28)" d="m1113.236 441.55107h-1.5" fill="none" stroke-linejoin="round" stroke-width=".5" class="stroke" />
 <g clip-path="url(#bm)">
  <path transform="matrix(2,0,0,-2,0,1241.28)" d="M62.845335 452.16105H1113.236" fill="none" stroke="#808080" stroke-dasharray="1.85,.8" stroke-linejoin="round" stroke-opacity=".6" stroke-width=".5" />
 </g>
 <path transform="matrix(2,0,0,-2,0,1241.28)" d="m62.845335 452.16105h1.499995" />
 <path transform="matrix(2,0,0,-2,0,1241.28)" d="m62.845335 452.16105h1.499995" fill="none" stroke-linejoin="round" stroke-width=".5" class="stroke" />
 <path transform="matrix(2,0,0,-2,0,1241.28)" d="m1113.236 452.16105h-1.5" />
 <path transform="matrix(2,0,0,-2,0,1241.28)" d="m1113.236 452.16105h-1.5" fill="none" stroke-linejoin="round" stroke-width=".5" class="stroke" />
 <g clip-path="url(#bl)">
  <path transform="matrix(2,0,0,-2,0,1241.28)" d="M62.845335 460.83006H1113.236" fill="none" stroke="#808080" stroke-dasharray="1.85,.8" stroke-linejoin="round" stroke-opacity=".6" stroke-width=".5" />
 </g>
 <path transform="matrix(2,0,0,-2,0,1241.28)" d="m62.845335 460.83006h1.499995" />
 <path transform="matrix(2,0,0,-2,0,1241.28)" d="m62.845335 460.83006h1.499995" fill="none" stroke-linejoin="round" stroke-width=".5" class="stroke" />
 <path transform="matrix(2,0,0,-2,0,1241.28)" d="m1113.236 460.83006h-1.5" />
 <path transform="matrix(2,0,0,-2,0,1241.28)" d="m1113.236 460.83006h-1.5" fill="none" stroke-linejoin="round" stroke-width=".5" class="stroke" />
 <g clip-path="url(#bk)">
  <path transform="matrix(2,0,0,-2,0,1241.28)" d="M62.845335 468.15959H1113.236" fill="none" stroke="#808080" stroke-dasharray="1.85,.8" stroke-linejoin="round" stroke-opacity=".6" stroke-width=".5" />
 </g>
 <path transform="matrix(2,0,0,-2,0,1241.28)" d="m62.845335 468.15959h1.499995" />
 <path transform="matrix(2,0,0,-2,0,1241.28)" d="m62.845335 468.15959h1.499995" fill="none" stroke-linejoin="round" stroke-width=".5" class="stroke" />
 <path transform="matrix(2,0,0,-2,0,1241.28)" d="m1113.236 468.15959h-1.5" />
 <path transform="matrix(2,0,0,-2,0,1241.28)" d="m1113.236 468.15959h-1.5" fill="none" stroke-linejoin="round" stroke-width=".5" class="stroke" />
 <g clip-path="url(#bj)">
  <path transform="matrix(2,0,0,-2,0,1241.28)" d="M62.845335 474.5087H1113.236" fill="none" stroke="#808080" stroke-dasharray="1.85,.8" stroke-linejoin="round" stroke-opacity=".6" stroke-width=".5" />
 </g>
 <path transform="matrix(2,0,0,-2,0,1241.28)" d="m62.845335 474.5087h1.499995" />
 <path transform="matrix(2,0,0,-2,0,1241.28)" d="m62.845335 474.5087h1.499995" fill="none" stroke-linejoin="round" stroke-width=".5" class="stroke" />
 <path transform="matrix(2,0,0,-2,0,1241.28)" d="m1113.236 474.5087h-1.5" />
 <path transform="matrix(2,0,0,-2,0,1241.28)" d="m1113.236 474.5087h-1.5" fill="none" stroke-linejoin="round" stroke-width=".5" class="stroke" />
 <g clip-path="url(#bi)">
  <path transform="matrix(2,0,0,-2,0,1241.28)" d="M62.845335 480.109H1113.236" fill="none" stroke="#808080" stroke-dasharray="1.85,.8" stroke-linejoin="round" stroke-opacity=".6" stroke-width=".5" />
 </g>
 <path transform="matrix(2,0,0,-2,0,1241.28)" d="m62.845335 480.109h1.499995" />
 <path transform="matrix(2,0,0,-2,0,1241.28)" d="m62.845335 480.109h1.499995" fill="none" stroke-linejoin="round" stroke-width=".5" class="stroke" />
 <path transform="matrix(2,0,0,-2,0,1241.28)" d="m1113.236 480.109h-1.5" />
 <path transform="matrix(2,0,0,-2,0,1241.28)" d="m1113.236 480.109h-1.5" fill="none" stroke-linejoin="round" stroke-width=".5" class="stroke" />
 <g clip-path="url(#bh)">
  <path transform="matrix(2,0,0,-2,0,1241.28)" d="M62.845335 518.07638H1113.236" fill="none" stroke="#808080" stroke-dasharray="1.85,.8" stroke-linejoin="round" stroke-opacity=".6" stroke-width=".5" />
 </g>
 <path transform="matrix(2,0,0,-2,0,1241.28)" d="m62.845335 518.07638h1.499995" />
 <path transform="matrix(2,0,0,-2,0,1241.28)" d="m62.845335 518.07638h1.499995" fill="none" stroke-linejoin="round" stroke-width=".5" class="stroke" />
 <path transform="matrix(2,0,0,-2,0,1241.28)" d="m1113.236 518.07638h-1.5" />
 <path transform="matrix(2,0,0,-2,0,1241.28)" d="m1113.236 518.07638h-1.5" fill="none" stroke-linejoin="round" stroke-width=".5" class="stroke" />
 <g clip-path="url(#bg)">
  <path transform="matrix(2,0,0,-2,0,1241.28)" d="M62.845335 537.35537H1113.236" fill="none" stroke="#808080" stroke-dasharray="1.85,.8" stroke-linejoin="round" stroke-opacity=".6" stroke-width=".5" />
 </g>
 <path transform="matrix(2,0,0,-2,0,1241.28)" d="m62.845335 537.35537h1.499995" />
 <path transform="matrix(2,0,0,-2,0,1241.28)" d="m62.845335 537.35537h1.499995" fill="none" stroke-linejoin="round" stroke-width=".5" class="stroke" />
 <path transform="matrix(2,0,0,-2,0,1241.28)" d="m1113.236 537.35537h-1.5" />
 <path transform="matrix(2,0,0,-2,0,1241.28)" d="m1113.236 537.35537h-1.5" fill="none" stroke-linejoin="round" stroke-width=".5" class="stroke" />
 <g clip-path="url(#bf)">
  <path transform="matrix(2,0,0,-2,0,1241.28)" d="M62.845335 551.034H1113.236" fill="none" stroke="#808080" stroke-dasharray="1.85,.8" stroke-linejoin="round" stroke-opacity=".6" stroke-width=".5" />
 </g>
 <path transform="matrix(2,0,0,-2,0,1241.28)" d="m62.845335 551.034h1.499995" />
 <path transform="matrix(2,0,0,-2,0,1241.28)" d="m62.845335 551.034h1.499995" fill="none" stroke-linejoin="round" stroke-width=".5" class="stroke" />
 <path transform="matrix(2,0,0,-2,0,1241.28)" d="m1113.236 551.034h-1.5" />
 <path transform="matrix(2,0,0,-2,0,1241.28)" d="m1113.236 551.034h-1.5" fill="none" stroke-linejoin="round" stroke-width=".5" class="stroke" />
 <g clip-path="url(#be)">
  <path transform="matrix(2,0,0,-2,0,1241.28)" d="M62.845335 561.644H1113.236" fill="none" stroke="#808080" stroke-dasharray="1.85,.8" stroke-linejoin="round" stroke-opacity=".6" stroke-width=".5" />
 </g>
 <path transform="matrix(2,0,0,-2,0,1241.28)" d="m62.845335 561.644h1.499995" />
 <path transform="matrix(2,0,0,-2,0,1241.28)" d="m62.845335 561.644h1.499995" fill="none" stroke-linejoin="round" stroke-width=".5" class="stroke" />
 <path transform="matrix(2,0,0,-2,0,1241.28)" d="m1113.236 561.644h-1.5" />
 <path transform="matrix(2,0,0,-2,0,1241.28)" d="m1113.236 561.644h-1.5" fill="none" stroke-linejoin="round" stroke-width=".5" class="stroke" />
 <g clip-path="url(#bd)">
  <path transform="matrix(2,0,0,-2,0,1241.28)" d="M62.845335 570.313H1113.236" fill="none" stroke="#808080" stroke-dasharray="1.85,.8" stroke-linejoin="round" stroke-opacity=".6" stroke-width=".5" />
 </g>
 <path transform="matrix(2,0,0,-2,0,1241.28)" d="m62.845335 570.313h1.499995" />
 <path transform="matrix(2,0,0,-2,0,1241.28)" d="m62.845335 570.313h1.499995" fill="none" stroke-linejoin="round" stroke-width=".5" class="stroke" />
 <path transform="matrix(2,0,0,-2,0,1241.28)" d="m1113.236 570.313h-1.5" />
 <path transform="matrix(2,0,0,-2,0,1241.28)" d="m1113.236 570.313h-1.5" fill="none" stroke-linejoin="round" stroke-width=".5" class="stroke" />
 <g clip-path="url(#bb)">
  <path transform="matrix(2,0,0,-2,0,1241.28)" d="M62.845335 577.6425H1113.236" fill="none" stroke="#808080" stroke-dasharray="1.85,.8" stroke-linejoin="round" stroke-opacity=".6" stroke-width=".5" />
 </g>
 <path transform="matrix(2,0,0,-2,0,1241.28)" d="m62.845335 577.6425h1.499995" />
 <path transform="matrix(2,0,0,-2,0,1241.28)" d="m62.845335 577.6425h1.499995" fill="none" stroke-linejoin="round" stroke-width=".5" class="stroke" />
 <path transform="matrix(2,0,0,-2,0,1241.28)" d="m1113.236 577.6425h-1.5" />
 <path transform="matrix(2,0,0,-2,0,1241.28)" d="m1113.236 577.6425h-1.5" fill="none" stroke-linejoin="round" stroke-width=".5" class="stroke" />
 <g clip-path="url(#ba)">
  <path transform="matrix(2,0,0,-2,0,1241.28)" d="M62.845335 583.99166H1113.236" fill="none" stroke="#808080" stroke-dasharray="1.85,.8" stroke-linejoin="round" stroke-opacity=".6" stroke-width=".5" />
 </g>
 <path transform="matrix(2,0,0,-2,0,1241.28)" d="m62.845335 583.99166h1.499995" />
 <path transform="matrix(2,0,0,-2,0,1241.28)" d="m62.845335 583.99166h1.499995" fill="none" stroke-linejoin="round" stroke-width=".5" class="stroke" />
 <path transform="matrix(2,0,0,-2,0,1241.28)" d="m1113.236 583.99166h-1.5" />
 <path transform="matrix(2,0,0,-2,0,1241.28)" d="m1113.236 583.99166h-1.5" fill="none" stroke-linejoin="round" stroke-width=".5" class="stroke" />
 <g clip-path="url(#az)">
  <path transform="matrix(2,0,0,-2,0,1241.28)" d="M62.845335 589.592H1113.236" fill="none" stroke="#808080" stroke-dasharray="1.85,.8" stroke-linejoin="round" stroke-opacity=".6" stroke-width=".5" />
 </g>
 <path transform="matrix(2,0,0,-2,0,1241.28)" d="m62.845335 589.592h1.499995" />
 <path transform="matrix(2,0,0,-2,0,1241.28)" d="m62.845335 589.592h1.499995" fill="none" stroke-linejoin="round" stroke-width=".5" class="stroke" />
 <path transform="matrix(2,0,0,-2,0,1241.28)" d="m1113.236 589.592h-1.5" />
 <path transform="matrix(2,0,0,-2,0,1241.28)" d="m1113.236 589.592h-1.5" fill="none" stroke-linejoin="round" stroke-width=".5" class="stroke" />
 <text transform="matrix(0 -2 2 0 0 1241.28)" font-family="CMR17" font-size="21.917809" xml:space="preserve" class="fill"><tspan x="219.50125 233.8355 239.29303 253.66866 267.43305 275.19197 282.95088 292.98924 307.36485 322.26896 332.3073 340.06623 355.58155" y="20.018624" class="fill">BitErrorRate(</tspan></text>
 <text transform="matrix(0 -2 2 0 0 1241.28)" font-family="CMMI12" font-size="21.917809" font-style="italic" xml:space="preserve" class="fill"><tspan x="363.42875 380.81974 397.9731" y="20.018624" class="fill">BER</tspan></text>
 <text transform="matrix(0 -2 2 0 0 1241.28)" font-family="CMR17" font-size="21.917809" xml:space="preserve" class="fill"><tspan x="414.5255" y="20.018624" class="fill">)</tspan></text>
 <g clip-path="url(#ay)">
  <path transform="matrix(2,0,0,-2,0,1241.28)" d="m158.33539 550.613 47.74504-4.7588 47.74503-11.9695 47.74504-10.7068 47.74503-14.82517 47.74503-17.84103 47.74502-29.5314 47.74502-28.97684 47.74508-36.72849 47.74499-40.03872 47.74503-45.1767 47.74509-45.72675 47.74499-40.53296 47.74502-46.08989 47.745-45.09319 47.74509-42.59348 47.74499-41.575822 47.74502-42.914443 9.00236-6.533015" fill="none" stroke="#0c5da5" stroke-linecap="square" stroke-linejoin="round" stroke-width="2" />
  <g clip-path="url(#ax)">
   <path transform="matrix(2,0,0,-2,316.67079,140.05408)" d="M0-3C.795609-3 1.55874-2.683901 2.12132-2.12132 2.683901-1.55874 3-.795609 3 0 3 .795609 2.683901 1.55874 2.12132 2.12132 1.55874 2.683901 .795609 3 0 3-.795609 3-1.55874 2.683901-2.12132 2.12132-2.683901 1.55874-3 .795609-3 0-3-.795609-2.683901-1.55874-2.12132-2.12132-1.55874-2.683901-.795609-3 0-3Z" fill="#0c5da5" />
   <path transform="matrix(2,0,0,-2,316.67079,140.05408)" d="M0-3C.795609-3 1.55874-2.683901 2.12132-2.12132 2.683901-1.55874 3-.795609 3 0 3 .795609 2.683901 1.55874 2.12132 2.12132 1.55874 2.683901 .795609 3 0 3-.795609 3-1.55874 2.683901-2.12132 2.12132-2.683901 1.55874-3 .795609-3 0-3-.795609-2.683901-1.55874-2.12132-2.12132-1.55874-2.683901-.795609-3 0-3Z" fill="none" stroke="#0c5da5" stroke-linejoin="round" />
  </g>
  <g clip-path="url(#aw)">
   <path transform="matrix(2,0,0,-2,412.16084,149.57158)" d="M0-3C.795609-3 1.55874-2.683901 2.12132-2.12132 2.683901-1.55874 3-.795609 3 0 3 .795609 2.683901 1.55874 2.12132 2.12132 1.55874 2.683901 .795609 3 0 3-.795609 3-1.55874 2.683901-2.12132 2.12132-2.683901 1.55874-3 .795609-3 0-3-.795609-2.683901-1.55874-2.12132-2.12132-1.55874-2.683901-.795609-3 0-3Z" fill="#0c5da5" />
   <path transform="matrix(2,0,0,-2,412.16084,149.57158)" d="M0-3C.795609-3 1.55874-2.683901 2.12132-2.12132 2.683901-1.55874 3-.795609 3 0 3 .795609 2.683901 1.55874 2.12132 2.12132 1.55874 2.683901 .795609 3 0 3-.795609 3-1.55874 2.683901-2.12132 2.12132-2.683901 1.55874-3 .795609-3 0-3-.795609-2.683901-1.55874-2.12132-2.12132-1.55874-2.683901-.795609-3 0-3Z" fill="none" stroke="#0c5da5" stroke-linejoin="round" />
  </g>
  <g clip-path="url(#av)">
   <path transform="matrix(2,0,0,-2,507.65089,173.51058)" d="M0-3C.795609-3 1.55874-2.683901 2.12132-2.12132 2.683901-1.55874 3-.795609 3 0 3 .795609 2.683901 1.55874 2.12132 2.12132 1.55874 2.683901 .795609 3 0 3-.795609 3-1.55874 2.683901-2.12132 2.12132-2.683901 1.55874-3 .795609-3 0-3-.795609-2.683901-1.55874-2.12132-2.12132-1.55874-2.683901-.795609-3 0-3Z" fill="#0c5da5" />
   <path transform="matrix(2,0,0,-2,507.65089,173.51058)" d="M0-3C.795609-3 1.55874-2.683901 2.12132-2.12132 2.683901-1.55874 3-.795609 3 0 3 .795609 2.683901 1.55874 2.12132 2.12132 1.55874 2.683901 .795609 3 0 3-.795609 3-1.55874 2.683901-2.12132 2.12132-2.683901 1.55874-3 .795609-3 0-3-.795609-2.683901-1.55874-2.12132-2.12132-1.55874-2.683901-.795609-3 0-3Z" fill="none" stroke="#0c5da5" stroke-linejoin="round" />
  </g>
  <g clip-path="url(#au)">
   <path transform="matrix(2,0,0,-2,603.1409,194.92415)" d="M0-3C.795609-3 1.55874-2.683901 2.12132-2.12132 2.683901-1.55874 3-.795609 3 0 3 .795609 2.683901 1.55874 2.12132 2.12132 1.55874 2.683901 .795609 3 0 3-.795609 3-1.55874 2.683901-2.12132 2.12132-2.683901 1.55874-3 .795609-3 0-3-.795609-2.683901-1.55874-2.12132-2.12132-1.55874-2.683901-.795609-3 0-3Z" fill="#0c5da5" />
   <path transform="matrix(2,0,0,-2,603.1409,194.92415)" d="M0-3C.795609-3 1.55874-2.683901 2.12132-2.12132 2.683901-1.55874 3-.795609 3 0 3 .795609 2.683901 1.55874 2.12132 2.12132 1.55874 2.683901 .795609 3 0 3-.795609 3-1.55874 2.683901-2.12132 2.12132-2.683901 1.55874-3 .795609-3 0-3-.795609-2.683901-1.55874-2.12132-2.12132-1.55874-2.683901-.795609-3 0-3Z" fill="none" stroke="#0c5da5" stroke-linejoin="round" />
  </g>
  <g clip-path="url(#at)">
   <path transform="matrix(2,0,0,-2,698.631,224.57456)" d="M0-3C.795609-3 1.55874-2.683901 2.12132-2.12132 2.683901-1.55874 3-.795609 3 0 3 .795609 2.683901 1.55874 2.12132 2.12132 1.55874 2.683901 .795609 3 0 3-.795609 3-1.55874 2.683901-2.12132 2.12132-2.683901 1.55874-3 .795609-3 0-3-.795609-2.683901-1.55874-2.12132-2.12132-1.55874-2.683901-.795609-3 0-3Z" fill="#0c5da5" />
   <path transform="matrix(2,0,0,-2,698.631,224.57456)" d="M0-3C.795609-3 1.55874-2.683901 2.12132-2.12132 2.683901-1.55874 3-.795609 3 0 3 .795609 2.683901 1.55874 2.12132 2.12132 1.55874 2.683901 .795609 3 0 3-.795609 3-1.55874 2.683901-2.12132 2.12132-2.683901 1.55874-3 .795609-3 0-3-.795609-2.683901-1.55874-2.12132-2.12132-1.55874-2.683901-.795609-3 0-3Z" fill="none" stroke="#0c5da5" stroke-linejoin="round" />
  </g>
  <g clip-path="url(#as)">
   <path transform="matrix(2,0,0,-2,794.12106,260.25663)" d="M0-3C.795609-3 1.55874-2.683901 2.12132-2.12132 2.683901-1.55874 3-.795609 3 0 3 .795609 2.683901 1.55874 2.12132 2.12132 1.55874 2.683901 .795609 3 0 3-.795609 3-1.55874 2.683901-2.12132 2.12132-2.683901 1.55874-3 .795609-3 0-3-.795609-2.683901-1.55874-2.12132-2.12132-1.55874-2.683901-.795609-3 0-3Z" fill="#0c5da5" />
   <path transform="matrix(2,0,0,-2,794.12106,260.25663)" d="M0-3C.795609-3 1.55874-2.683901 2.12132-2.12132 2.683901-1.55874 3-.795609 3 0 3 .795609 2.683901 1.55874 2.12132 2.12132 1.55874 2.683901 .795609 3 0 3-.795609 3-1.55874 2.683901-2.12132 2.12132-2.683901 1.55874-3 .795609-3 0-3-.795609-2.683901-1.55874-2.12132-2.12132-1.55874-2.683901-.795609-3 0-3Z" fill="none" stroke="#0c5da5" stroke-linejoin="round" />
  </g>
  <g clip-path="url(#aq)">
   <path transform="matrix(2,0,0,-2,889.6111,319.31947)" d="M0-3C.795609-3 1.55874-2.683901 2.12132-2.12132 2.683901-1.55874 3-.795609 3 0 3 .795609 2.683901 1.55874 2.12132 2.12132 1.55874 2.683901 .795609 3 0 3-.795609 3-1.55874 2.683901-2.12132 2.12132-2.683901 1.55874-3 .795609-3 0-3-.795609-2.683901-1.55874-2.12132-2.12132-1.55874-2.683901-.795609-3 0-3Z" fill="#0c5da5" />
   <path transform="matrix(2,0,0,-2,889.6111,319.31947)" d="M0-3C.795609-3 1.55874-2.683901 2.12132-2.12132 2.683901-1.55874 3-.795609 3 0 3 .795609 2.683901 1.55874 2.12132 2.12132 1.55874 2.683901 .795609 3 0 3-.795609 3-1.55874 2.683901-2.12132 2.12132-2.683901 1.55874-3 .795609-3 0-3-.795609-2.683901-1.55874-2.12132-2.12132-1.55874-2.683901-.795609-3 0-3Z" fill="none" stroke="#0c5da5" stroke-linejoin="round" />
  </g>
  <g clip-path="url(#ap)">
   <path transform="matrix(2,0,0,-2,985.10116,377.2731)" d="M0-3C.795609-3 1.55874-2.683901 2.12132-2.12132 2.683901-1.55874 3-.795609 3 0 3 .795609 2.683901 1.55874 2.12132 2.12132 1.55874 2.683901 .795609 3 0 3-.795609 3-1.55874 2.683901-2.12132 2.12132-2.683901 1.55874-3 .795609-3 0-3-.795609-2.683901-1.55874-2.12132-2.12132-1.55874-2.683901-.795609-3 0-3Z" fill="#0c5da5" />
   <path transform="matrix(2,0,0,-2,985.10116,377.2731)" d="M0-3C.795609-3 1.55874-2.683901 2.12132-2.12132 2.683901-1.55874 3-.795609 3 0 3 .795609 2.683901 1.55874 2.12132 2.12132 1.55874 2.683901 .795609 3 0 3-.795609 3-1.55874 2.683901-2.12132 2.12132-2.683901 1.55874-3 .795609-3 0-3-.795609-2.683901-1.55874-2.12132-2.12132-1.55874-2.683901-.795609-3 0-3Z" fill="none" stroke="#0c5da5" stroke-linejoin="round" />
  </g>
  <g clip-path="url(#ao)">
   <path transform="matrix(2,0,0,-2,1080.5912,450.73008)" d="M0-3C.795609-3 1.55874-2.683901 2.12132-2.12132 2.683901-1.55874 3-.795609 3 0 3 .795609 2.683901 1.55874 2.12132 2.12132 1.55874 2.683901 .795609 3 0 3-.795609 3-1.55874 2.683901-2.12132 2.12132-2.683901 1.55874-3 .795609-3 0-3-.795609-2.683901-1.55874-2.12132-2.12132-1.55874-2.683901-.795609-3 0-3Z" fill="#0c5da5" />
   <path transform="matrix(2,0,0,-2,1080.5912,450.73008)" d="M0-3C.795609-3 1.55874-2.683901 2.12132-2.12132 2.683901-1.55874 3-.795609 3 0 3 .795609 2.683901 1.55874 2.12132 2.12132 1.55874 2.683901 .795609 3 0 3-.795609 3-1.55874 2.683901-2.12132 2.12132-2.683901 1.55874-3 .795609-3 0-3-.795609-2.683901-1.55874-2.12132-2.12132-1.55874-2.683901-.795609-3 0-3Z" fill="none" stroke="#0c5da5" stroke-linejoin="round" />
  </g>
  <g clip-path="url(#an)">
   <path transform="matrix(2,0,0,-2,1176.0813,530.80758)" d="M0-3C.795609-3 1.55874-2.683901 2.12132-2.12132 2.683901-1.55874 3-.795609 3 0 3 .795609 2.683901 1.55874 2.12132 2.12132 1.55874 2.683901 .795609 3 0 3-.795609 3-1.55874 2.683901-2.12132 2.12132-2.683901 1.55874-3 .795609-3 0-3-.795609-2.683901-1.55874-2.12132-2.12132-1.55874-2.683901-.795609-3 0-3Z" fill="#0c5da5" />
   <path transform="matrix(2,0,0,-2,1176.0813,530.80758)" d="M0-3C.795609-3 1.55874-2.683901 2.12132-2.12132 2.683901-1.55874 3-.795609 3 0 3 .795609 2.683901 1.55874 2.12132 2.12132 1.55874 2.683901 .795609 3 0 3-.795609 3-1.55874 2.683901-2.12132 2.12132-2.683901 1.55874-3 .795609-3 0-3-.795609-2.683901-1.55874-2.12132-2.12132-1.55874-2.683901-.795609-3 0-3Z" fill="none" stroke="#0c5da5" stroke-linejoin="round" />
  </g>
  <g clip-path="url(#am)">
   <path transform="matrix(2,0,0,-2,1271.5714,621.16098)" d="M0-3C.795609-3 1.55874-2.683901 2.12132-2.12132 2.683901-1.55874 3-.795609 3 0 3 .795609 2.683901 1.55874 2.12132 2.12132 1.55874 2.683901 .795609 3 0 3-.795609 3-1.55874 2.683901-2.12132 2.12132-2.683901 1.55874-3 .795609-3 0-3-.795609-2.683901-1.55874-2.12132-2.12132-1.55874-2.683901-.795609-3 0-3Z" fill="#0c5da5" />
   <path transform="matrix(2,0,0,-2,1271.5714,621.16098)" d="M0-3C.795609-3 1.55874-2.683901 2.12132-2.12132 2.683901-1.55874 3-.795609 3 0 3 .795609 2.683901 1.55874 2.12132 2.12132 1.55874 2.683901 .795609 3 0 3-.795609 3-1.55874 2.683901-2.12132 2.12132-2.683901 1.55874-3 .795609-3 0-3-.795609-2.683901-1.55874-2.12132-2.12132-1.55874-2.683901-.795609-3 0-3Z" fill="none" stroke="#0c5da5" stroke-linejoin="round" />
  </g>
  <g clip-path="url(#al)">
   <path transform="matrix(2,0,0,-2,1367.0615,712.61447)" d="M0-3C.795609-3 1.55874-2.683901 2.12132-2.12132 2.683901-1.55874 3-.795609 3 0 3 .795609 2.683901 1.55874 2.12132 2.12132 1.55874 2.683901 .795609 3 0 3-.795609 3-1.55874 2.683901-2.12132 2.12132-2.683901 1.55874-3 .795609-3 0-3-.795609-2.683901-1.55874-2.12132-2.12132-1.55874-2.683901-.795609-3 0-3Z" fill="#0c5da5" />
   <path transform="matrix(2,0,0,-2,1367.0615,712.61447)" d="M0-3C.795609-3 1.55874-2.683901 2.12132-2.12132 2.683901-1.55874 3-.795609 3 0 3 .795609 2.683901 1.55874 2.12132 2.12132 1.55874 2.683901 .795609 3 0 3-.795609 3-1.55874 2.683901-2.12132 2.12132-2.683901 1.55874-3 .795609-3 0-3-.795609-2.683901-1.55874-2.12132-2.12132-1.55874-2.683901-.795609-3 0-3Z" fill="none" stroke="#0c5da5" stroke-linejoin="round" />
  </g>
  <g clip-path="url(#ak)">
   <path transform="matrix(2,0,0,-2,1462.5516,793.68038)" d="M0-3C.795609-3 1.55874-2.683901 2.12132-2.12132 2.683901-1.55874 3-.795609 3 0 3 .795609 2.683901 1.55874 2.12132 2.12132 1.55874 2.683901 .795609 3 0 3-.795609 3-1.55874 2.683901-2.12132 2.12132-2.683901 1.55874-3 .795609-3 0-3-.795609-2.683901-1.55874-2.12132-2.12132-1.55874-2.683901-.795609-3 0-3Z" fill="#0c5da5" />
   <path transform="matrix(2,0,0,-2,1462.5516,793.68038)" d="M0-3C.795609-3 1.55874-2.683901 2.12132-2.12132 2.683901-1.55874 3-.795609 3 0 3 .795609 2.683901 1.55874 2.12132 2.12132 1.55874 2.683901 .795609 3 0 3-.795609 3-1.55874 2.683901-2.12132 2.12132-2.683901 1.55874-3 .795609-3 0-3-.795609-2.683901-1.55874-2.12132-2.12132-1.55874-2.683901-.795609-3 0-3Z" fill="none" stroke="#0c5da5" stroke-linejoin="round" />
  </g>
  <g clip-path="url(#aj)">
   <path transform="matrix(2,0,0,-2,1558.0418,885.86019)" d="M0-3C.795609-3 1.55874-2.683901 2.12132-2.12132 2.683901-1.55874 3-.795609 3 0 3 .795609 2.683901 1.55874 2.12132 2.12132 1.55874 2.683901 .795609 3 0 3-.795609 3-1.55874 2.683901-2.12132 2.12132-2.683901 1.55874-3 .795609-3 0-3-.795609-2.683901-1.55874-2.12132-2.12132-1.55874-2.683901-.795609-3 0-3Z" fill="#0c5da5" />
   <path transform="matrix(2,0,0,-2,1558.0418,885.86019)" d="M0-3C.795609-3 1.55874-2.683901 2.12132-2.12132 2.683901-1.55874 3-.795609 3 0 3 .795609 2.683901 1.55874 2.12132 2.12132 1.55874 2.683901 .795609 3 0 3-.795609 3-1.55874 2.683901-2.12132 2.12132-2.683901 1.55874-3 .795609-3 0-3-.795609-2.683901-1.55874-2.12132-2.12132-1.55874-2.683901-.795609-3 0-3Z" fill="none" stroke="#0c5da5" stroke-linejoin="round" />
  </g>
  <g clip-path="url(#ai)">
   <path transform="matrix(2,0,0,-2,1653.5319,976.0466)" d="M0-3C.795609-3 1.55874-2.683901 2.12132-2.12132 2.683901-1.55874 3-.795609 3 0 3 .795609 2.683901 1.55874 2.12132 2.12132 1.55874 2.683901 .795609 3 0 3-.795609 3-1.55874 2.683901-2.12132 2.12132-2.683901 1.55874-3 .795609-3 0-3-.795609-2.683901-1.55874-2.12132-2.12132-1.55874-2.683901-.795609-3 0-3Z" fill="#0c5da5" />
   <path transform="matrix(2,0,0,-2,1653.5319,976.0466)" d="M0-3C.795609-3 1.55874-2.683901 2.12132-2.12132 2.683901-1.55874 3-.795609 3 0 3 .795609 2.683901 1.55874 2.12132 2.12132 1.55874 2.683901 .795609 3 0 3-.795609 3-1.55874 2.683901-2.12132 2.12132-2.683901 1.55874-3 .795609-3 0-3-.795609-2.683901-1.55874-2.12132-2.12132-1.55874-2.683901-.795609-3 0-3Z" fill="none" stroke="#0c5da5" stroke-linejoin="round" />
  </g>
  <g clip-path="url(#ah)">
   <path transform="matrix(2,0,0,-2,1749.022,1061.2335)" d="M0-3C.795609-3 1.55874-2.683901 2.12132-2.12132 2.683901-1.55874 3-.795609 3 0 3 .795609 2.683901 1.55874 2.12132 2.12132 1.55874 2.683901 .795609 3 0 3-.795609 3-1.55874 2.683901-2.12132 2.12132-2.683901 1.55874-3 .795609-3 0-3-.795609-2.683901-1.55874-2.12132-2.12132-1.55874-2.683901-.795609-3 0-3Z" fill="#0c5da5" />
   <path transform="matrix(2,0,0,-2,1749.022,1061.2335)" d="M0-3C.795609-3 1.55874-2.683901 2.12132-2.12132 2.683901-1.55874 3-.795609 3 0 3 .795609 2.683901 1.55874 2.12132 2.12132 1.55874 2.683901 .795609 3 0 3-.795609 3-1.55874 2.683901-2.12132 2.12132-2.683901 1.55874-3 .795609-3 0-3-.795609-2.683901-1.55874-2.12132-2.12132-1.55874-2.683901-.795609-3 0-3Z" fill="none" stroke="#0c5da5" stroke-linejoin="round" />
  </g>
  <g clip-path="url(#af)">
   <path transform="matrix(2,0,0,-2,1844.5121,1144.3851)" d="M0-3C.795609-3 1.55874-2.683901 2.12132-2.12132 2.683901-1.55874 3-.795609 3 0 3 .795609 2.683901 1.55874 2.12132 2.12132 1.55874 2.683901 .795609 3 0 3-.795609 3-1.55874 2.683901-2.12132 2.12132-2.683901 1.55874-3 .795609-3 0-3-.795609-2.683901-1.55874-2.12132-2.12132-1.55874-2.683901-.795609-3 0-3Z" fill="#0c5da5" />
   <path transform="matrix(2,0,0,-2,1844.5121,1144.3851)" d="M0-3C.795609-3 1.55874-2.683901 2.12132-2.12132 2.683901-1.55874 3-.795609 3 0 3 .795609 2.683901 1.55874 2.12132 2.12132 1.55874 2.683901 .795609 3 0 3-.795609 3-1.55874 2.683901-2.12132 2.12132-2.683901 1.55874-3 .795609-3 0-3-.795609-2.683901-1.55874-2.12132-2.12132-1.55874-2.683901-.795609-3 0-3Z" fill="none" stroke="#0c5da5" stroke-linejoin="round" />
  </g>
  <g clip-path="url(#ae)">
   <path transform="matrix(2,0,0,-2,1940.0022,1230.214)" d="M0-3C.795609-3 1.55874-2.683901 2.12132-2.12132 2.683901-1.55874 3-.795609 3 0 3 .795609 2.683901 1.55874 2.12132 2.12132 1.55874 2.683901 .795609 3 0 3-.795609 3-1.55874 2.683901-2.12132 2.12132-2.683901 1.55874-3 .795609-3 0-3-.795609-2.683901-1.55874-2.12132-2.12132-1.55874-2.683901-.795609-3 0-3Z" fill="#0c5da5" />
   <path transform="matrix(2,0,0,-2,1940.0022,1230.214)" d="M0-3C.795609-3 1.55874-2.683901 2.12132-2.12132 2.683901-1.55874 3-.795609 3 0 3 .795609 2.683901 1.55874 2.12132 2.12132 1.55874 2.683901 .795609 3 0 3-.795609 3-1.55874 2.683901-2.12132 2.12132-2.683901 1.55874-3 .795609-3 0-3-.795609-2.683901-1.55874-2.12132-2.12132-1.55874-2.683901-.795609-3 0-3Z" fill="none" stroke="#0c5da5" stroke-linejoin="round" />
  </g>
 </g>
 <g clip-path="url(#ad)">
  <path transform="matrix(2,0,0,-2,0,1241.28)" d="m158.33539 473.73283 47.74504-7.52323 47.74503-8.37673 47.74504-9.13501 47.74503-10.16436 47.74503-11.2174 47.74502-12.1764 47.74502-13.9636 47.74508-14.8137 47.74499-17.03506 47.74503-18.27124 47.74509-20.2136 47.74499-23.29003 47.74502-25.21957 47.745-28.0157 47.74509-31.36204 47.74499-37.28768 47.74502-36.77505 47.7451-46.18845" fill="none" stroke="#00b945" stroke-linecap="square" stroke-linejoin="round" stroke-width="2" />
  <g clip-path="url(#ac)">
   <path transform="matrix(2,0,0,-2,316.67079,293.8144)" d="m-3-3h6v6h-6z" fill="#00b945" />
   <path transform="matrix(2,0,0,-2,316.67079,293.8144)" d="m-3-3h6v6h-6z" fill="none" stroke="#00b945" stroke-miterlimit="10" />
  </g>
  <g clip-path="url(#ab)">
   <path transform="matrix(2,0,0,-2,412.16084,308.86085)" d="m-3-3h6v6h-6z" fill="#00b945" />
   <path transform="matrix(2,0,0,-2,412.16084,308.86085)" d="m-3-3h6v6h-6z" fill="none" stroke="#00b945" stroke-miterlimit="10" />
  </g>
  <g clip-path="url(#aa)">
   <path transform="matrix(2,0,0,-2,507.65089,325.61433)" d="m-3-3h6v6h-6z" fill="#00b945" />
   <path transform="matrix(2,0,0,-2,507.65089,325.61433)" d="m-3-3h6v6h-6z" fill="none" stroke="#00b945" stroke-miterlimit="10" />
  </g>
  <g clip-path="url(#z)">
   <path transform="matrix(2,0,0,-2,603.1409,343.88435)" d="m-3-3h6v6h-6z" fill="#00b945" />
   <path transform="matrix(2,0,0,-2,603.1409,343.88435)" d="m-3-3h6v6h-6z" fill="none" stroke="#00b945" stroke-miterlimit="10" />
  </g>
  <g clip-path="url(#y)">
   <path transform="matrix(2,0,0,-2,698.631,364.213)" d="m-3-3h6v6h-6z" fill="#00b945" />
   <path transform="matrix(2,0,0,-2,698.631,364.213)" d="m-3-3h6v6h-6z" fill="none" stroke="#00b945" stroke-miterlimit="10" />
  </g>
  <g clip-path="url(#x)">
   <path transform="matrix(2,0,0,-2,794.12106,386.64784)" d="m-3-3h6v6h-6z" fill="#00b945" />
   <path transform="matrix(2,0,0,-2,794.12106,386.64784)" d="m-3-3h6v6h-6z" fill="none" stroke="#00b945" stroke-miterlimit="10" />
  </g>
  <g clip-path="url(#w)">
   <path transform="matrix(2,0,0,-2,889.6111,411.00059)" d="m-3-3h6v6h-6z" fill="#00b945" />
   <path transform="matrix(2,0,0,-2,889.6111,411.00059)" d="m-3-3h6v6h-6z" fill="none" stroke="#00b945" stroke-miterlimit="10" />
  </g>
  <g clip-path="url(#u)">
   <path transform="matrix(2,0,0,-2,985.10116,438.92784)" d="m-3-3h6v6h-6z" fill="#00b945" />
   <path transform="matrix(2,0,0,-2,985.10116,438.92784)" d="m-3-3h6v6h-6z" fill="none" stroke="#00b945" stroke-miterlimit="10" />
  </g>
  <g clip-path="url(#t)">
   <path transform="matrix(2,0,0,-2,1080.5912,468.5552)" d="m-3-3h6v6h-6z" fill="#00b945" />
   <path transform="matrix(2,0,0,-2,1080.5912,468.5552)" d="m-3-3h6v6h-6z" fill="none" stroke="#00b945" stroke-miterlimit="10" />
  </g>
  <g clip-path="url(#s)">
   <path transform="matrix(2,0,0,-2,1176.0813,502.62538)" d="m-3-3h6v6h-6z" fill="#00b945" />
   <path transform="matrix(2,0,0,-2,1176.0813,502.62538)" d="m-3-3h6v6h-6z" fill="none" stroke="#00b945" stroke-miterlimit="10" />
  </g>
  <g clip-path="url(#r)">
   <path transform="matrix(2,0,0,-2,1271.5714,539.16787)" d="m-3-3h6v6h-6z" fill="#00b945" />
   <path transform="matrix(2,0,0,-2,1271.5714,539.16787)" d="m-3-3h6v6h-6z" fill="none" stroke="#00b945" stroke-miterlimit="10" />
  </g>
  <g clip-path="url(#q)">
   <path transform="matrix(2,0,0,-2,1367.0615,579.59506)" d="m-3-3h6v6h-6z" fill="#00b945" />
   <path transform="matrix(2,0,0,-2,1367.0615,579.59506)" d="m-3-3h6v6h-6z" fill="none" stroke="#00b945" stroke-miterlimit="10" />
  </g>
  <g clip-path="url(#p)">
   <path transform="matrix(2,0,0,-2,1462.5516,626.1751)" d="m-3-3h6v6h-6z" fill="#00b945" />
   <path transform="matrix(2,0,0,-2,1462.5516,626.1751)" d="m-3-3h6v6h-6z" fill="none" stroke="#00b945" stroke-miterlimit="10" />
  </g>
  <g clip-path="url(#o)">
   <path transform="matrix(2,0,0,-2,1558.0418,676.61428)" d="m-3-3h6v6h-6z" fill="#00b945" />
   <path transform="matrix(2,0,0,-2,1558.0418,676.61428)" d="m-3-3h6v6h-6z" fill="none" stroke="#00b945" stroke-miterlimit="10" />
  </g>
  <g clip-path="url(#n)">
   <path transform="matrix(2,0,0,-2,1653.5319,732.6457)" d="m-3-3h6v6h-6z" fill="#00b945" />
   <path transform="matrix(2,0,0,-2,1653.5319,732.6457)" d="m-3-3h6v6h-6z" fill="none" stroke="#00b945" stroke-miterlimit="10" />
  </g>
  <g clip-path="url(#m)">
   <path transform="matrix(2,0,0,-2,1749.022,795.36978)" d="m-3-3h6v6h-6z" fill="#00b945" />
   <path transform="matrix(2,0,0,-2,1749.022,795.36978)" d="m-3-3h6v6h-6z" fill="none" stroke="#00b945" stroke-miterlimit="10" />
  </g>
  <g clip-path="url(#l)">
   <path transform="matrix(2,0,0,-2,1844.5121,869.9451)" d="m-3-3h6v6h-6z" fill="#00b945" />
   <path transform="matrix(2,0,0,-2,1844.5121,869.9451)" d="m-3-3h6v6h-6z" fill="none" stroke="#00b945" stroke-miterlimit="10" />
  </g>
  <g clip-path="url(#j)">
   <path transform="matrix(2,0,0,-2,1940.0022,943.49526)" d="m-3-3h6v6h-6z" fill="#00b945" />
   <path transform="matrix(2,0,0,-2,1940.0022,943.49526)" d="m-3-3h6v6h-6z" fill="none" stroke="#00b945" stroke-miterlimit="10" />
  </g>
  <g clip-path="url(#i)">
   <path transform="matrix(2,0,0,-2,2035.4923,1035.8722)" d="m-3-3h6v6h-6z" fill="#00b945" />
   <path transform="matrix(2,0,0,-2,2035.4923,1035.8722)" d="m-3-3h6v6h-6z" fill="none" stroke="#00b945" stroke-miterlimit="10" />
  </g>
 </g>
 <g clip-path="url(#h)">
  <path transform="matrix(2,0,0,-2,0,1241.28)" d="m158.33539 473.69926 47.74504-7.57617 47.74503-8.33472 47.74504-9.17897 47.74503-10.11925 47.74503-11.16726 47.74502-12.33615 47.74502-13.6406 47.74508-15.09729 47.74499-16.72476 47.74503-18.54401 47.74509-20.57849 47.74499-22.8547 47.74502-25.4022 47.745-28.25435 47.74509-31.4485 47.74499-35.02662 47.74502-39.03578 47.7451-43.52887" fill="none" stroke="#ff9500" stroke-dasharray="2,3.3" stroke-linejoin="round" stroke-width="2" />
  <g clip-path="url(#g)">
   <path transform="matrix(2,0,0,-2,316.67079,293.88154)" d="m-3-3 6 6m-6 0 6-6" fill="#ff9500" />
   <path transform="matrix(2,0,0,-2,316.67079,293.88154)" d="m-3-3 6 6m-6 0 6-6" fill="none" stroke="#ff9500" stroke-linejoin="round" />
  </g>
  <g clip-path="url(#f)">
   <path transform="matrix(2,0,0,-2,412.16084,309.0338)" d="m-3-3 6 6m-6 0 6-6" fill="#ff9500" />
   <path transform="matrix(2,0,0,-2,412.16084,309.0338)" d="m-3-3 6 6m-6 0 6-6" fill="none" stroke="#ff9500" stroke-linejoin="round" />
  </g>
  <g clip-path="url(#e)">
   <path transform="matrix(2,0,0,-2,507.65089,325.70329)" d="m-3-3 6 6m-6 0 6-6" fill="#ff9500" />
   <path transform="matrix(2,0,0,-2,507.65089,325.70329)" d="m-3-3 6 6m-6 0 6-6" fill="none" stroke="#ff9500" stroke-linejoin="round" />
  </g>
  <g clip-path="url(#d)">
   <path transform="matrix(2,0,0,-2,603.1409,344.06123)" d="m-3-3 6 6m-6 0 6-6" fill="#ff9500" />
   <path transform="matrix(2,0,0,-2,603.1409,344.06123)" d="m-3-3 6 6m-6 0 6-6" fill="none" stroke="#ff9500" stroke-linejoin="round" />
  </g>
  <g clip-path="url(#c)">
   <path transform="matrix(2,0,0,-2,698.631,364.29975)" d="m-3-3 6 6m-6 0 6-6" fill="#ff9500" />
   <path transform="matrix(2,0,0,-2,698.631,364.29975)" d="m-3-3 6 6m-6 0 6-6" fill="none" stroke="#ff9500" stroke-linejoin="round" />
  </g>
  <g clip-path="url(#b)">
   <path transform="matrix(2,0,0,-2,794.12106,386.63429)" d="m-3-3 6 6m-6 0 6-6" fill="#ff9500" />
   <path transform="matrix(2,0,0,-2,794.12106,386.63429)" d="m-3-3 6 6m-6 0 6-6" fill="none" stroke="#ff9500" stroke-linejoin="round" />
  </g>
  <g clip-path="url(#a)">
   <path transform="matrix(2,0,0,-2,889.6111,411.30656)" d="m-3-3 6 6m-6 0 6-6" fill="#ff9500" />
   <path transform="matrix(2,0,0,-2,889.6111,411.30656)" d="m-3-3 6 6m-6 0 6-6" fill="none" stroke="#ff9500" stroke-linejoin="round" />
  </g>
  <g clip-path="url(#de)">
   <path transform="matrix(2,0,0,-2,985.10116,438.58778)" d="m-3-3 6 6m-6 0 6-6" fill="#ff9500" />
   <path transform="matrix(2,0,0,-2,985.10116,438.58778)" d="m-3-3 6 6m-6 0 6-6" fill="none" stroke="#ff9500" stroke-linejoin="round" />
  </g>
  <g clip-path="url(#dd)">
   <path transform="matrix(2,0,0,-2,1080.5912,468.78233)" d="m-3-3 6 6m-6 0 6-6" fill="#ff9500" />
   <path transform="matrix(2,0,0,-2,1080.5912,468.78233)" d="m-3-3 6 6m-6 0 6-6" fill="none" stroke="#ff9500" stroke-linejoin="round" />
  </g>
  <g clip-path="url(#dc)">
   <path transform="matrix(2,0,0,-2,1176.0813,502.23185)" d="m-3-3 6 6m-6 0 6-6" fill="#ff9500" />
   <path transform="matrix(2,0,0,-2,1176.0813,502.23185)" d="m-3-3 6 6m-6 0 6-6" fill="none" stroke="#ff9500" stroke-linejoin="round" />
  </g>
  <g clip-path="url(#db)">
   <path transform="matrix(2,0,0,-2,1271.5714,539.3198)" d="m-3-3 6 6m-6 0 6-6" fill="#ff9500" />
   <path transform="matrix(2,0,0,-2,1271.5714,539.3198)" d="m-3-3 6 6m-6 0 6-6" fill="none" stroke="#ff9500" stroke-linejoin="round" />
  </g>
  <g clip-path="url(#da)">
   <path transform="matrix(2,0,0,-2,1367.0615,580.4768)" d="m-3-3 6 6m-6 0 6-6" fill="#ff9500" />
   <path transform="matrix(2,0,0,-2,1367.0615,580.4768)" d="m-3-3 6 6m-6 0 6-6" fill="none" stroke="#ff9500" stroke-linejoin="round" />
  </g>
  <g clip-path="url(#cz)">
   <path transform="matrix(2,0,0,-2,1462.5516,626.18618)" d="m-3-3 6 6m-6 0 6-6" fill="#ff9500" />
   <path transform="matrix(2,0,0,-2,1462.5516,626.18618)" d="m-3-3 6 6m-6 0 6-6" fill="none" stroke="#ff9500" stroke-linejoin="round" />
  </g>
  <g clip-path="url(#cy)">
   <path transform="matrix(2,0,0,-2,1558.0418,676.99057)" d="m-3-3 6 6m-6 0 6-6" fill="#ff9500" />
   <path transform="matrix(2,0,0,-2,1558.0418,676.99057)" d="m-3-3 6 6m-6 0 6-6" fill="none" stroke="#ff9500" stroke-linejoin="round" />
  </g>
  <g clip-path="url(#cx)">
   <path transform="matrix(2,0,0,-2,1653.5319,733.4992)" d="m-3-3 6 6m-6 0 6-6" fill="#ff9500" />
   <path transform="matrix(2,0,0,-2,1653.5319,733.4992)" d="m-3-3 6 6m-6 0 6-6" fill="none" stroke="#ff9500" stroke-linejoin="round" />
  </g>
  <g clip-path="url(#cw)">
   <path transform="matrix(2,0,0,-2,1749.022,796.3962)" d="m-3-3 6 6m-6 0 6-6" fill="#ff9500" />
   <path transform="matrix(2,0,0,-2,1749.022,796.3962)" d="m-3-3 6 6m-6 0 6-6" fill="none" stroke="#ff9500" stroke-linejoin="round" />
  </g>
  <g clip-path="url(#cv)">
   <path transform="matrix(2,0,0,-2,1844.5121,866.4494)" d="m-3-3 6 6m-6 0 6-6" fill="#ff9500" />
   <path transform="matrix(2,0,0,-2,1844.5121,866.4494)" d="m-3-3 6 6m-6 0 6-6" fill="none" stroke="#ff9500" stroke-linejoin="round" />
  </g>
  <g clip-path="url(#ct)">
   <path transform="matrix(2,0,0,-2,1940.0022,944.521)" d="m-3-3 6 6m-6 0 6-6" fill="#ff9500" />
   <path transform="matrix(2,0,0,-2,1940.0022,944.521)" d="m-3-3 6 6m-6 0 6-6" fill="none" stroke="#ff9500" stroke-linejoin="round" />
  </g>
  <g clip-path="url(#cs)">
   <path transform="matrix(2,0,0,-2,2035.4923,1031.5787)" d="m-3-3 6 6m-6 0 6-6" fill="#ff9500" />
   <path transform="matrix(2,0,0,-2,2035.4923,1031.5787)" d="m-3-3 6 6m-6 0 6-6" fill="none" stroke="#ff9500" stroke-linejoin="round" />
  </g>
 </g>
 <path transform="matrix(2,0,0,-2,0,1241.28)" d="M62.845335 47.186876V594.6016" fill="none" stroke-linecap="square" stroke-miterlimit="10" stroke-width=".5" class="stroke" />
 <path transform="matrix(2,0,0,-2,0,1241.28)" d="M1113.236 47.186876V594.6016" fill="none" stroke-linecap="square" stroke-miterlimit="10" stroke-width=".5" class="stroke" />
 <path transform="matrix(2,0,0,-2,0,1241.28)" d="M62.845335 47.186876H1113.236" fill="none" stroke-linecap="square" stroke-miterlimit="10" stroke-width=".5" class="stroke" />
 <path transform="matrix(2,0,0,-2,0,1241.28)" d="M62.845335 594.6016H1113.236" fill="none" stroke-linecap="square" stroke-miterlimit="10" stroke-width=".5" class="stroke" />
 <text transform="matrix(2 0 -0 2 0 1241.28)" font-family="CMR17" font-size="21.917809" xml:space="preserve" class="fill"><tspan x="522.158 536.49227 550.25668 571.77749 582.3857" y="-600.6016" class="fill">BERvs</tspan></text>
 <text transform="matrix(2 0 -0 2 0 1241.28)" font-family="CMMI12" font-size="21.917809" font-style="italic" xml:space="preserve" class="fill"><tspan x="596.9167" y="-600.6016" class="fill">E</tspan></text>
 <text transform="matrix(2 0 -0 2 0 1241.28)" font-family="CMMI12" font-size="15.342399" font-style="italic" xml:space="preserve" class="fill"><tspan x="612.80319" y="-597.31399" class="fill">b</tspan></text>
 <text transform="matrix(2 0 -0 2 0 1241.28)" font-family="CMMI12" font-size="21.917809" font-style="italic" xml:space="preserve" class="fill"><tspan x="619.68856 629.2141" y="-600.6016" class="fill">/N</tspan></text>
 <text transform="matrix(2 0 -0 2 0 1241.28)" font-family="CMR12" font-size="15.342399" xml:space="preserve" class="fill"><tspan x="646.41207" y="-597.31399" class="fill">0</tspan></text>
 <path transform="matrix(2,0,0,-2,0,1241.28)" d="m978.80996 534.8279h126.02604c1.6 0 2.4 0.79999 2.4 2.39997v48.97382c0 1.59997-0.8 2.39991-2.4 2.39991h-126.02604c-1.59997 0-2.39996-0.79994-2.39996-2.39991v-48.97382c0-1.59998 0.79999-2.39997 2.39996-2.39997z" fill="#fff" />
 <path transform="matrix(2,0,0,-2,0,1241.28)" d="m978.80996 534.8279h126.02604c1.6 0 2.4 0.79999 2.4 2.39997v48.97382c0 1.59997-0.8 2.39991-2.4 2.39991h-126.02604c-1.59997 0-2.39996-0.79994-2.39996-2.39991v-48.97382c0-1.59998 0.79999-2.39997 2.39996-2.39997z" fill="none" stroke-miterlimit="10" class="stroke" />
 <path transform="matrix(2,0,0,-2,0,1241.28)" d="m981.20999 579.6016h24" fill="none" stroke="#0c5da5" stroke-linecap="square" stroke-linejoin="round" stroke-width="2" />
 <path transform="matrix(2,0,0,-2,0,1241.28)" d="m993.20999 576.6016c0.79559 0 1.55871 0.3161 2.12131 0.87877 0.56259 0.56253 0.87869 1.32563 0.87869 2.12123 0 0.7957-0.3161 1.5588-0.87869 2.12139-0.5626 0.56251-1.32572 0.87861-2.12131 0.87861-0.7956 0-1.55872-0.3161-2.12139-0.87861-0.56251-0.56259-0.87861-1.32569-0.87861-2.12139 0-0.7956 0.3161-1.5587 0.87861-2.12123 0.56267-0.56267 1.32579-0.87877 2.12139-0.87877z" fill="#0c5da5" />
 <path transform="matrix(2,0,0,-2,0,1241.28)" d="m993.20999 576.6016c0.79559 0 1.55871 0.3161 2.12131 0.87877 0.56259 0.56253 0.87869 1.32563 0.87869 2.12123 0 0.7957-0.3161 1.5588-0.87869 2.12139-0.5626 0.56251-1.32572 0.87861-2.12131 0.87861-0.7956 0-1.55872-0.3161-2.12139-0.87861-0.56251-0.56259-0.87861-1.32569-0.87861-2.12139 0-0.7956 0.3161-1.5587 0.87861-2.12123 0.56267-0.56267 1.32579-0.87877 2.12139-0.87877z" fill="none" stroke="#0c5da5" stroke-linejoin="round" />
 <text transform="matrix(2 0 -0 2 0 1241.28)" font-family="CMR12" font-size="11.955168" xml:space="preserve" ><tspan x="1014.80996 1023.585 1031.8676 1041.0491 1050.147 1056.6387 1060.536" y="-575.4017" >ARGOS-3</tspan></text>
 <path transform="matrix(2,0,0,-2,0,1241.28)" d="m981.20999 562.8771h24" fill="none" stroke="#00b945" stroke-linecap="square" stroke-linejoin="round" stroke-width="2" />
 <path transform="matrix(2,0,0,-2,0,1241.28)" d="m990.20999 559.8771h6v6h-6z" fill="#00b945" />
 <path transform="matrix(2,0,0,-2,0,1241.28)" d="m990.20999 559.8771h6v6h-6z" fill="none" stroke="#00b945" stroke-miterlimit="10" />
 <text transform="matrix(2 0 -0 2 0 1241.28)" font-family="CMR12" font-size="11.955168" xml:space="preserve" ><tspan x="1014.80996 1023.90786 1031.87 1038.3617 1051.3616 1057.8533 1061.0932 1070.5114 1077.003 1080.2429 1086.089 1090.632 1095.8324" y="-558.67709" >QPSKSimulated</tspan></text>
 <path transform="matrix(2,0,0,-2,0,1241.28)" d="m981.20999 546.15249h24" fill="none" stroke="#ff9500" stroke-dasharray="2,3.3" stroke-linejoin="round" stroke-width="2" />
 <path transform="matrix(2,0,0,-2,0,1241.28)" d="m990.20999 543.15249 6 6m-6 0 6-6" fill="#ff9500" />
 <path transform="matrix(2,0,0,-2,0,1241.28)" d="m990.20999 543.15249 6 6m-6 0 6-6" fill="none" stroke="#ff9500" stroke-linejoin="round" />
 <text transform="matrix(2 0 -0 2 0 1241.28)" font-family="CMR12" font-size="11.955168" xml:space="preserve" ><tspan x="1014.80996 1023.90786 1031.87 1038.3617 1051.3616 1055.5818 1062.0735 1067.2739 1073.12" y="-541.95248" >QPSKIdeal</tspan></text>
</svg>