<svg xmlns="http://www.w3.org/2000/svg" width="3e3" height="941.75997" version="1.1" viewBox="0 0 3e3 941.75997">
 <style>
          .fill { fill: black; }
          .stroke { stroke: black; }
          @media (prefers-color-scheme: dark) {
            .fill { fill: white; }
            .stroke { stroke: white; }
          }
        </style><defs>
  <clipPath id="a">
   <path transform="scale(.48)" d="M78.125 21.875H6175V1940.625H78.125Z" clip-rule="evenodd" />
  </clipPath>
 </defs>
 <g clip-path="url(#a)">
  <path transform="matrix(1.4023467,0,0,1.4023467,-9325.858,3815.164)" d="m6777.5-2710h1885c1.596 2e-4 3.19 0.0392 4.784 0.1174 1.594 0.0783 3.185 0.1958 4.773 0.352 1.587 0.1566 3.17 0.3521 4.749 0.5862 1.577 0.2341 3.149 0.5068 4.7149 0.8181 1.5651 0.3113 3.1211 0.6609 4.6681 1.0483 1.548 0.388 3.086 0.8133 4.613 1.2764 1.526 0.4631 3.041 0.9636 4.544 1.501 1.503 0.5378 2.991 1.1121 4.465 1.7226 1.473 0.611 2.932 1.2574 4.375 1.9393 1.442 0.6823 2.868 1.3997 4.275 2.1518 1.407 0.7522 2.795 1.5386 4.163 2.3587 1.368 0.8205 2.716 1.6738 4.043 2.5603 1.327 0.8864 2.631 1.8049 3.912 2.7553 1.282 0.9506 2.54 1.9319 3.774 2.9441 1.233 1.0125 2.44 2.0545 3.623 3.126 1.182 1.0715 2.338 2.1716 3.466 3.2998 1.128 1.1284 2.229 2.2837 3.3 3.4658 1.071 1.1822 2.113 2.3899 3.126 3.6236 1.013 1.2336 1.993 2.4913 2.944 3.7727 0.95 1.2817 1.869 2.5859 2.755 3.9126 0.887 1.327 1.741 2.6745 2.56 4.0432 0.82 1.3684 1.606 2.7563 2.359 4.1635 0.753 1.4073 1.47 2.8323 2.152 4.2749 0.682 1.4427 1.329 2.9009 1.939 4.375 0.6109 1.4744 1.185 2.9627 1.723 4.4649 0.538 1.5025 1.038 3.0171 1.502 4.5439 0.463 1.5271 0.888 3.0646 1.276 4.6123 0.388 1.5479 0.737 3.1043 1.049 4.6693 0.3109 1.565 0.583 3.1364 0.818 4.7148 0.235 1.5783 0.43 3.1616 0.586 4.7495 0.1569 1.5879 0.274 3.1787 0.352 4.7724 0.078 1.5938 0.117 3.1885 0.117 4.7843v455c0 1.5956-0.039 3.1904-0.117 4.7841-0.078 1.5939-0.1951 3.1846-0.352 4.7725-0.156 1.5879-0.351 3.1711-0.586 4.7495-0.235 1.5783-0.5071 3.1499-0.818 4.7151-0.312 1.5652-0.662 3.1216-1.05 4.6692-0.388 1.5478-0.812 3.0852-1.275 4.6123-0.464 1.5268-0.964 3.0415-1.501 4.5443-0.538 1.5025-1.1131 2.991-1.724 4.465-0.61 1.4741-1.258 2.9323-1.94 4.375-0.681 1.4423-1.398 2.8671-2.151 4.2744-0.753 1.4076-1.539 2.7954-2.359 4.164-0.82 1.3687-1.674 2.7163-2.561 4.043-0.885 1.3266-1.804 2.6308-2.754 3.9123-0.951 1.2818-1.931 2.5393-2.944 3.7727-1.013 1.2336-2.055 2.4412-3.126 3.6236s-2.172 2.3376-3.3 3.466c-1.128 1.1282-2.283 2.2281-3.465 3.2996-1.183 1.0715-2.391 2.1135-3.623 3.1257-1.234 1.0125-2.492 1.9939-3.774 2.9444-1.281 0.9509-2.585 1.8694-3.912 2.7558-1.327 0.8865-2.675 1.74-4.043 2.5605-1.368 0.8201-2.756 1.6063-4.163 2.3585s-2.833 1.4695-4.275 2.1515c-1.444 0.6822-2.902 1.329-4.375 1.9395-1.474 0.6106-2.963 1.1846-4.466 1.7222-1.502 0.5374-3.017 1.0379-4.543 1.501-1.528 0.4633-3.065 0.8887-4.613 1.2764-1.547 0.3879-3.104 0.7373-4.6691 1.0485-1.5659 0.3114-3.1379 0.5838-4.7149 0.8179-1.579 0.2341-3.162 0.4295-4.749 0.5859-1.588 0.1566-3.179 0.2737-4.773 0.3521-1.594 0.0785-3.188 0.1175-4.784 0.1175h-1885c-1.596 0-3.191-0.039-4.7845-0.1175-1.5937-0.0784-3.1845-0.1955-4.7719-0.3521-1.5886-0.1564-3.1716-0.3514-4.7496-0.5856-1.579-0.2342-3.151-0.5068-4.716-0.8182-1.565-0.3112-3.1214-0.6606-4.669-1.0485-1.5481-0.3875-3.0852-0.813-4.612-1.2761-1.527-0.4634-3.042-0.9639-4.5445-1.5013-1.5025-0.5376-2.9907-1.1116-4.4648-1.7222-1.4741-0.6105-2.9327-1.257-4.375-1.9394-1.4427-0.6821-2.8672-1.3994-4.2739-2.1516-1.4078-0.7522-2.7959-1.5384-4.1651-2.3585-1.3687-0.8205-2.7158-1.674-4.0427-2.5605-1.3264-0.8864-2.631-1.8049-3.9123-2.7558-1.2818-0.9505-2.5391-1.9317-3.772-2.9441-1.2339-1.0125-2.4419-2.0542-3.624-3.1256-1.1832-1.0717-2.3387-2.1718-3.4667-3.3-1.1281-1.1284-2.2282-2.2836-3.2995-3.466-1.0717-1.182-2.1135-2.3899-3.1255-3.6233-1.0122-1.2337-1.9941-2.4912-2.945-3.773-0.9505-1.2815-1.869-2.5857-2.7551-3.9123-0.8863-1.3267-1.7399-2.6743-2.5609-4.043-0.8195-1.3686-1.606-2.7564-2.3581-4.164-0.7519-1.4073-1.4689-2.8321-2.1509-4.2744-0.6831-1.4427-1.3296-2.9009-1.94-4.375-0.611-1.474-1.185-2.9625-1.723-4.465-0.5372-1.5028-1.0372-3.0175-1.5-4.5443-0.463-1.5271-0.889-3.0645-1.276-4.6123-0.3881-1.5476-0.738-3.104-1.0492-4.6692-0.3111-1.5652-0.584-3.1368-0.8179-4.7151-0.2339-1.5784-0.4289-3.1616-0.5859-4.7495-0.156-1.5879-0.273-3.1786-0.352-4.7725-0.078-1.5937-0.117-3.1885-0.117-4.7841v-455c0-1.5958 0.039-3.1905 0.1179-4.7843 0.0781-1.5937 0.1951-3.1845 0.352-4.7724 0.1561-1.5879 0.3516-3.1712 0.5851-4.7495 0.234-1.5784 0.5067-3.1498 0.8178-4.7148 0.3112-1.565 0.6611-3.1214 1.0488-4.6693 0.3874-1.5477 0.8134-3.0852 1.2764-4.6123 0.4628-1.5268 0.9628-3.0414 1.5-4.5439 0.538-1.5022 1.112-2.9905 1.723-4.4649 0.6104-1.4741 1.2569-2.9323 1.9395-4.375 0.6822-1.4426 1.3995-2.8676 2.1514-4.2749 0.7521-1.4072 1.5386-2.7951 2.3581-4.1635 0.821-1.3684 1.6746-2.7161 2.5609-4.043 0.8861-1.3269 1.8051-2.6311 2.7558-3.9128 0.9503-1.2814 1.9321-2.5389 2.9443-3.7724 1.012-1.2337 2.0538-2.4415 3.1255-3.6239 1.0713-1.1821 2.1714-2.3374 3.2995-3.4658 1.128-1.1282 2.2835-2.2283 3.4667-3.2998 1.1821-1.0718 2.3893-2.1138 3.6233-3.1262 1.233-1.012 2.49-1.9933 3.772-2.9439 1.2819-0.9504 2.586-1.8689 3.9128-2.7553 1.3262-0.8865 2.6742-1.7398 4.0429-2.5603 1.3683-0.8201 2.7569-1.6065 4.1643-2.3587 1.4075-0.7521 2.832-1.4691 4.2747-2.1516 1.4423-0.6821 2.9009-1.3285 4.375-1.9395 1.4741-0.6105 2.9623-1.1848 4.4648-1.7226 1.5025-0.5374 3.0175-1.0379 4.5445-1.501 1.5268-0.4631 3.0639-0.8884 4.612-1.2761 1.5476-0.3877 3.104-0.7373 4.669-1.0486s3.1369-0.584 4.7156-0.8181c1.5784-0.2341 3.1614-0.4296 4.75-0.5862 1.5874-0.1562 3.1782-0.2737 4.7719-0.352 1.5935-0.0782 3.1885-0.1172 4.7845-0.1174z" fill="none" stroke-width="3" class="stroke" />
  <text transform="matrix(1.4023467 0 0 1.4023467 -9326.56 3814.463)" font-family="Tinos" font-size="50" xml:space="preserve" class="fill"><tspan x="7449.828 7480.378 7513.728 7549.828 7585.928 7613.728 7658.178 7674.828 7702.628 7730.4279 7747.0778 7783.1779 7819.278 7831.778 7865.128 7901.228 7937.328 7953.978" y="-2656" class="fill">TRANSMISSION CHAIN</tspan></text>
  <path transform="matrix(1.4023467,0,0,1.4023467,-9325.858,3815.164)" d="m6840.63-2389.64 0.07 56.54-0.06 44.16" fill="none" stroke-miterlimit="10" stroke-width="3" class="stroke" />
  <path transform="matrix(1.4023467,0,0,1.4023467,-9325.858,3815.164)" d="m6840.63-2279.94-4.49-9.01 9 0.01-4.51 9z" />
  <path transform="matrix(1.4023467,0,0,1.4023467,-9325.858,3815.164)" d="m6840.63-2279.94-4.49-9.01 9 0.01-4.51 9z" fill="none" stroke-miterlimit="10" stroke-width="3" class="stroke" />
  <text transform="matrix(1.4023467 0 0 1.4023467 -9326.56 3814.463)" font-family="Tinos" font-size="26" xml:space="preserve" class="fill"><tspan x="6822.4689" y="-2417.7813" class="fill">u</tspan></text>
  <text transform="matrix(1.4023467 0 0 1.4023467 -9326.56 3814.463)" font-family="Tinos" font-size="18.05" xml:space="preserve" class="fill"><tspan x="6835.4689" y="-2412.6719" class="fill">t</tspan></text>
  <text transform="matrix(1.4023467 0 0 1.4023467 -9326.56 3814.463)" font-family="Tinos" font-size="18.05" xml:space="preserve" class="fill"><tspan x="6840.4846 6846.494 6855.5178" y="-2426.2188" class="fill">(0)</tspan></text>
  <path transform="matrix(1.4023467,0,0,1.4023467,-9325.858,3815.164)" d="m6961.25-2246.59h106.89" fill="none" stroke-miterlimit="10" stroke-width="3" class="stroke" />
  <path transform="matrix(1.4023467,0,0,1.4023467,-9325.858,3815.164)" d="m7077.14-2246.59-9 4.5v-9l9 4.5z" />
  <path transform="matrix(1.4023467,0,0,1.4023467,-9325.858,3815.164)" d="m7077.14-2246.59-9 4.5v-9l9 4.5z" fill="none" stroke-miterlimit="10" stroke-width="3" class="stroke" />
  <path transform="matrix(1.4023467,0,0,1.4023467,-9325.858,3815.164)" d="m6961.25-2186.59h106.89" fill="none" stroke-miterlimit="10" stroke-width="3" class="stroke" />
  <path transform="matrix(1.4023467,0,0,1.4023467,-9325.858,3815.164)" d="m7077.14-2186.59-9 4.5v-9l9 4.5z" />
  <path transform="matrix(1.4023467,0,0,1.4023467,-9325.858,3815.164)" d="m7077.14-2186.59-9 4.5v-9l9 4.5z" fill="none" stroke-miterlimit="10" stroke-width="3" class="stroke" />
  <path transform="matrix(1.4023467,0,0,1.4023467,-9325.858,3815.164)" d="m6720-2276.59h241.25v120h-241.25z" fill="none" stroke-width="3" class="stroke" />
  <text transform="matrix(1.4023467 0 0 1.4023467 -9326.56 3814.463)" font-family="Tinos" font-size="26" xml:space="preserve" class="fill"><tspan x="6728.5627 6745.9045 6764.6765 6783.448 6802.22 6820.992 6836.8786 6855.6506 6871.5368 6880.195 6898.967 6917.739 6936.5109" y="-2224" class="fill">CONVOLUTIONAL</tspan></text>
  <text transform="matrix(1.4023467 0 0 1.4023467 -9326.56 3814.463)" font-family="Tinos" font-size="26" xml:space="preserve" class="fill"><tspan x="6779.0939 6794.98 6813.752 6831.0939 6849.8659 6868.6379 6884.524" y="-2192" class="fill">ENCODER</tspan></text>
  <path transform="matrix(1.4023467,0,0,1.4023467,-9325.858,3815.164)" d="m7321.74-2246.59 59.86-0.01 47.3-0.08" fill="none" stroke-miterlimit="10" stroke-width="3" class="stroke" />
  <path transform="matrix(1.4023467,0,0,1.4023467,-9325.858,3815.164)" d="m7437.9-2246.7-9 4.52-0.01-9 9.01 4.48z" />
  <path transform="matrix(1.4023467,0,0,1.4023467,-9325.858,3815.164)" d="m7437.9-2246.7-9 4.52-0.01-9 9.01 4.48z" fill="none" stroke-miterlimit="10" stroke-width="3" class="stroke" />
  <path transform="matrix(1.4023467,0,0,1.4023467,-9325.858,3815.164)" d="m7321.74-2186.59 59.86-0.01 47.3-0.08" fill="none" stroke-miterlimit="10" stroke-width="3" class="stroke" />
  <path transform="matrix(1.4023467,0,0,1.4023467,-9325.858,3815.164)" d="m7437.9-2186.7-9 4.52-0.01-9 9.01 4.48z" />
  <path transform="matrix(1.4023467,0,0,1.4023467,-9325.858,3815.164)" d="m7437.9-2186.7-9 4.52-0.01-9 9.01 4.48z" fill="none" stroke-miterlimit="10" stroke-width="3" class="stroke" />
  <path transform="matrix(1.4023467,0,0,1.4023467,-9325.858,3815.164)" d="m7080.49-2276.59h241.25v120h-241.25z" fill="none" stroke-width="3" class="stroke" />
  <text transform="matrix(1.4023467 0 0 1.4023467 -9326.56 3814.463)" font-family="Tinos" font-size="26" xml:space="preserve" class="fill"><tspan x="7121.75 7136.206 7153.548 7170.8898 7189.6618 7212.7756 7230.117 7246.0036 7261.8898" y="-2208" class="fill">SCRAMBLER</tspan></text>
  <text transform="matrix(1.4023467 0 0 1.4023467 -9326.56 3814.463)" font-family="Tinos" font-size="26" xml:space="preserve" class="fill"><tspan x="7001.4689" y="-2264.7813" class="fill">v</tspan></text>
  <text transform="matrix(1.4023467 0 0 1.4023467 -9326.56 3814.463)" font-family="Tinos" font-size="18.05" xml:space="preserve" class="fill"><tspan x="7014.4689" y="-2259.6719" class="fill">t</tspan></text>
  <text transform="matrix(1.4023467 0 0 1.4023467 -9326.56 3814.463)" font-family="Tinos" font-size="18.05" xml:space="preserve" class="fill"><tspan x="7019.4846 7025.494 7034.5178" y="-2273.2188" class="fill">(0)</tspan></text>
  <text transform="matrix(1.4023467 0 0 1.4023467 -9326.56 3814.463)" font-family="Tinos" font-size="26" xml:space="preserve" class="fill"><tspan x="7001.4689" y="-2154.7813" class="fill">v</tspan></text>
  <text transform="matrix(1.4023467 0 0 1.4023467 -9326.56 3814.463)" font-family="Tinos" font-size="18.05" xml:space="preserve" class="fill"><tspan x="7014.4689" y="-2149.6719" class="fill">t</tspan></text>
  <text transform="matrix(1.4023467 0 0 1.4023467 -9326.56 3814.463)" font-family="Tinos" font-size="18.05" xml:space="preserve" class="fill"><tspan x="7019.4846 7025.494 7034.5178" y="-2163.2188" class="fill">(1)</tspan></text>
  <path transform="matrix(0,1.4023467,-1.4023467,0,-2135.1009,-9978.094)" d="m7281.75-2314.09 37-80h326l37 80h-400z" fill="none" stroke-miterlimit="10" stroke-width="3" class="stroke" />
  <text transform="matrix(0 1.4023467 -1.4023467 0 -2135.802 -9978.795)" font-family="Tinos" font-size="26" xml:space="preserve" class="fill"><tspan x="7392.922 7416.0358 7434.8078 7448.3117 7464.1979 7472.856 7487.312 7503.198 7519.0847 7537.8566 7553.7429" y="-2345" class="fill">MULTIPLEXER</tspan></text>
  <path transform="matrix(1.4023467,0,0,1.4023467,-9325.858,3815.164)" d="m7321.75-2529.59 59.85-0.01 47.3 0.01" fill="none" stroke-miterlimit="10" stroke-width="3" class="stroke" />
  <path transform="matrix(1.4023467,0,0,1.4023467,-9325.858,3815.164)" d="m7437.9-2529.59-9 4.5v-9l9 4.5z" />
  <path transform="matrix(1.4023467,0,0,1.4023467,-9325.858,3815.164)" d="m7437.9-2529.59-9 4.5v-9l9 4.5z" fill="none" stroke-miterlimit="10" stroke-width="3" class="stroke" />
  <path transform="matrix(1.4023467,0,0,1.4023467,-9325.858,3815.164)" d="m7321.75-2469.59 59.85-0.01 47.3 0.1" fill="none" stroke-miterlimit="10" stroke-width="3" class="stroke" />
  <path transform="matrix(1.4023467,0,0,1.4023467,-9325.858,3815.164)" d="m7437.9-2469.49-9.01 4.49 0.02-9 8.99 4.51z" />
  <path transform="matrix(1.4023467,0,0,1.4023467,-9325.858,3815.164)" d="m7437.9-2469.49-9.01 4.49 0.02-9 8.99 4.51z" fill="none" stroke-miterlimit="10" stroke-width="3" class="stroke" />
  <path transform="matrix(1.4023467,0,0,1.4023467,-9325.858,3815.164)" d="m7080.5-2559.59h241.25v120h-241.25z" fill="none" stroke-width="3" class="stroke" />
  <text transform="matrix(1.4023467 0 0 1.4023467 -9326.56 3814.463)" font-family="Tinos" font-size="26" xml:space="preserve" class="fill"><tspan x="7132.1564 7146.6125 7163.954 7179.8405 7198.6125 7221.726 7239.068 7254.954" y="-2491" class="fill">PREAMBLE</tspan></text>
  <path transform="matrix(1.4023467,0,0,1.4023467,-9325.858,3815.164)" d="m7641.25-2414.09h241.25v120h-241.25z" fill="none" stroke-width="3" class="stroke" />
  <text transform="matrix(1.4023467 0 0 1.4023467 -9326.56 3814.463)" font-family="Tinos" font-size="26" xml:space="preserve" class="fill"><tspan x="7728.6408 7744.527 7753.185 7771.957" y="-2361" class="fill">LINE</tspan></text>
  <text transform="matrix(1.4023467 0 0 1.4023467 -9326.56 3814.463)" font-family="Tinos" font-size="26" xml:space="preserve" class="fill"><tspan x="7787.8435" y="-2361" class="fill"> </tspan></text>
  <text transform="matrix(1.4023467 0 0 1.4023467 -9326.56 3814.463)" font-family="Tinos" font-size="26" xml:space="preserve" class="fill"><tspan x="7700.1096 7715.9958 7734.7678 7752.1096 7770.8815 7789.6535 7805.5397" y="-2329" class="fill">ENCODER</tspan></text>
  <path transform="matrix(1.4023467,0,0,1.4023467,-9325.858,3815.164)" d="m7882.5-2324.09 59.5-0.01v70l46.9 0.01" fill="none" stroke-miterlimit="10" stroke-width="3" class="stroke" />
  <path transform="matrix(1.4023467,0,0,1.4023467,-9325.858,3815.164)" d="m7997.9-2254.09-9 4.5v-9l9 4.5z" />
  <path transform="matrix(1.4023467,0,0,1.4023467,-9325.858,3815.164)" d="m7997.9-2254.09-9 4.5v-9l9 4.5z" fill="none" stroke-miterlimit="10" stroke-width="3" class="stroke" />
  <path transform="matrix(1.4023467,0,0,1.4023467,-9325.858,3815.164)" d="m8242.5-2453.59 60.3-0.01v70.6l47.85-0.03" fill="none" stroke-miterlimit="10" stroke-width="3" class="stroke" />
  <path transform="matrix(1.4023467,0,0,1.4023467,-9325.858,3815.164)" d="m8359.65-2383.04-9 4.51-0.01-9 9.01 4.49z" />
  <path transform="matrix(1.4023467,0,0,1.4023467,-9325.858,3815.164)" d="m8359.65-2383.04-9 4.51-0.01-9 9.01 4.49z" fill="none" stroke-miterlimit="10" stroke-width="3" class="stroke" />
  <path transform="matrix(1.4023467,0,0,1.4023467,-9325.858,3815.164)" d="m8001.25-2513.59h241.25v120h-241.25z" fill="none" stroke-width="3" class="stroke" />
  <text transform="matrix(1.4023467 0 0 1.4023467 -9326.56 3814.463)" font-family="Tinos" font-size="26" xml:space="preserve" class="fill"><tspan x="8078.5158 8092.9719 8111.7438 8127.63 8142.086" y="-2461" class="fill">PULSE</tspan></text>
  <text transform="matrix(1.4023467 0 0 1.4023467 -9326.56 3814.463)" font-family="Tinos" font-size="26" xml:space="preserve" class="fill"><tspan x="8157.972" y="-2461" class="fill"> </tspan></text>
  <text transform="matrix(1.4023467 0 0 1.4023467 -9326.56 3814.463)" font-family="Tinos" font-size="26" xml:space="preserve" class="fill"><tspan x="8050 8073.114 8091.8859 8110.6579 8129.4299 8145.316 8161.2238 8177.11" y="-2429" class="fill">MODULATE</tspan></text>
  <path transform="matrix(1.4023467,0,0,1.4023467,-9325.858,3815.164)" d="m7882.5-2384.09 59.5-0.01v-69.5l46.9 0.01" fill="none" stroke-miterlimit="10" stroke-width="3" class="stroke" />
  <path transform="matrix(1.4023467,0,0,1.4023467,-9325.858,3815.164)" d="m7997.9-2453.59-9 4.5v-9l9 4.5z" />
  <path transform="matrix(1.4023467,0,0,1.4023467,-9325.858,3815.164)" d="m7997.9-2453.59-9 4.5v-9l9 4.5z" fill="none" stroke-miterlimit="10" stroke-width="3" class="stroke" />
  <path transform="matrix(1.4023467,0,0,1.4023467,-9325.858,3815.164)" d="m8242.5-2254.09 60.3-0.01v-68.9l47.85-0.03" fill="none" stroke-miterlimit="10" stroke-width="3" class="stroke" />
  <path transform="matrix(1.4023467,0,0,1.4023467,-9325.858,3815.164)" d="m8359.65-2323.04-9 4.51-0.01-9 9.01 4.49z" />
  <path transform="matrix(1.4023467,0,0,1.4023467,-9325.858,3815.164)" d="m8359.65-2323.04-9 4.51-0.01-9 9.01 4.49z" fill="none" stroke-miterlimit="10" stroke-width="3" class="stroke" />
  <path transform="matrix(1.4023467,0,0,1.4023467,-9325.858,3815.164)" d="m8001.25-2314.09h241.25v120h-241.25z" fill="none" stroke-width="3" class="stroke" />
  <text transform="matrix(1.4023467 0 0 1.4023467 -9326.56 3814.463)" font-family="Tinos" font-size="26" xml:space="preserve" class="fill"><tspan x="8078.5158 8092.9719 8111.7438 8127.63 8142.086" y="-2261" class="fill">PULSE</tspan></text>
  <text transform="matrix(1.4023467 0 0 1.4023467 -9326.56 3814.463)" font-family="Tinos" font-size="26" xml:space="preserve" class="fill"><tspan x="8157.972" y="-2261" class="fill"> </tspan></text>
  <text transform="matrix(1.4023467 0 0 1.4023467 -9326.56 3814.463)" font-family="Tinos" font-size="26" xml:space="preserve" class="fill"><tspan x="8050 8073.114 8091.8859 8110.6579 8129.4299 8145.316 8161.2238 8177.11" y="-2229" class="fill">MODULATE</tspan></text>
  <path transform="matrix(1.4023467,0,0,1.4023467,-9325.858,3815.164)" d="m8603-2353.04 56.6 0.04 44.18 0.32" fill="none" stroke-miterlimit="10" stroke-width="3" class="stroke" />
  <path transform="matrix(1.4023467,0,0,1.4023467,-9325.858,3815.164)" d="m8712.78-2352.61-9.04 4.43 0.07-9 8.97 4.57z" />
  <path transform="matrix(1.4023467,0,0,1.4023467,-9325.858,3815.164)" d="m8712.78-2352.61-9.04 4.43 0.07-9 8.97 4.57z" fill="none" stroke-miterlimit="10" stroke-width="3" class="stroke" />
  <path transform="matrix(1.4023467,0,0,1.4023467,-9325.858,3815.164)" d="m8363-2413.04h240v120h-240z" fill="none" stroke-width="3" class="stroke" />
  <text transform="matrix(1.4023467 0 0 1.4023467 -9326.56 3814.463)" font-family="Tinos" font-size="26" xml:space="preserve" class="fill"><tspan x="8416.266 8433.607 8452.38 8471.152 8489.925 8502.01 8520.782 8535.238" y="-2360" class="fill">BANDPASS</tspan></text>
  <text transform="matrix(1.4023467 0 0 1.4023467 -9326.56 3814.463)" font-family="Tinos" font-size="26" xml:space="preserve" class="fill"><tspan x="8411.5 8434.614 8453.387 8472.159 8490.932 8506.817 8522.724 8538.609" y="-2328" class="fill">MODULATE</tspan></text>
  <text transform="matrix(1.4023467 0 0 1.4023467 -9326.56 3814.463)" font-family="Tinos" font-size="26" xml:space="preserve" class="fill"><tspan x="8703.5 8717.956 8726.614 8733.842" y="-2374" class="fill">S(t)</tspan></text>
  <path transform="matrix(1.4023467,0,0,1.4023467,-9325.858,3815.164)" d="m8729.885-2352.59c0 0.4513-0.044 0.8985-0.132 1.3411-0.089 0.4432-0.219 0.8731-0.392 1.2901-0.173 0.4172-0.385 0.8132-0.636 1.1885s-0.536 0.7224-0.855 1.0415c-0.319 0.3193-0.666 0.6045-1.041 0.8552-0.376 0.2507-0.771 0.4626-1.188 0.6356-0.417 0.1725-0.848 0.303-1.29 0.391-0.443 0.088-0.89 0.132-1.341 0.132-0.452 0-0.9-0.044-1.342-0.1322-0.442-0.0878-0.873-0.2183-1.29-0.3908-0.417-0.173-0.814-0.3846-1.189-0.6354-0.376-0.2509-0.722-0.5361-1.042-0.8554-0.319-0.3191-0.604-0.6662-0.855-1.0415s-0.462-0.7713-0.635-1.1885c-0.173-0.417-0.303-0.8469-0.391-1.2898-0.087-0.4429-0.131-0.8901-0.131-1.3414 0-0.4516 0.044-0.8986 0.132-1.3412 0.087-0.4428 0.217-0.8728 0.39-1.2898s0.385-0.8133 0.636-1.1887c0.251-0.3753 0.535-0.7227 0.854-1.0418 0.32-0.3191 0.666-0.604 1.041-0.8547 0.376-0.251 0.772-0.4628 1.189-0.6355 0.417-0.1726 0.847-0.303 1.29-0.3911 0.443-0.0882 0.891-0.1322 1.343-0.1322 0.451 0 0.898 0.044 1.341 0.1322 0.442 0.0881 0.873 0.2185 1.29 0.3911 0.417 0.1727 0.812 0.3845 1.188 0.6355 0.375 0.2507 0.722 0.5356 1.041 0.8547s0.604 0.6665 0.855 1.0418c0.251 0.3754 0.4629 0.7717 0.635 1.1887 0.173 0.417 0.304 0.847 0.393 1.2898 0.088 0.4426 0.132 0.8896 0.132 1.3412z" fill="none" stroke-width="3" class="stroke" />
  <text transform="matrix(1.4023467 0 0 1.4023467 -9326.56 3814.463)" font-family="Tinos" font-size="26" xml:space="preserve" class="fill"><tspan x="7356.453 7375.225 7383.8835 7396.8835" y="-2263" class="fill">X[n]</tspan></text>
  <text transform="matrix(1.4023467 0 0 1.4023467 -9326.56 3814.463)" font-family="Tinos" font-size="26" xml:space="preserve" class="fill"><tspan x="7356.453 7375.225 7383.8835 7396.8835" y="-2153" class="fill">Y[n]</tspan></text>
  <text transform="matrix(1.4023467 0 0 1.4023467 -9326.56 3814.463)" font-family="Tinos" font-size="26" xml:space="preserve" class="fill"><tspan x="7355.578" y="-2549" class="fill">S</tspan></text>
  <text transform="matrix(1.4023467 0 0 1.4023467 -9326.56 3814.463)" font-family="Tinos" font-size="21.66" xml:space="preserve" class="fill"><tspan x="7370.047" y="-2542.8126" class="fill">i</tspan></text>
  <text transform="matrix(1.4023467 0 0 1.4023467 -9326.56 3814.463)" font-family="Tinos" font-size="26" xml:space="preserve" class="fill"><tspan x="7376.078 7384.7365 7397.7365" y="-2549" class="fill">[n]</tspan></text>
  <text transform="matrix(1.4023467 0 0 1.4023467 -9326.56 3814.463)" font-family="Tinos" font-size="26" xml:space="preserve" class="fill"><tspan x="7353.1877" y="-2439" class="fill">S</tspan></text>
  <text transform="matrix(1.4023467 0 0 1.4023467 -9326.56 3814.463)" font-family="Tinos" font-size="21.66" xml:space="preserve" class="fill"><tspan x="7367.6564" y="-2432.8126" class="fill">q</tspan></text>
  <text transform="matrix(1.4023467 0 0 1.4023467 -9326.56 3814.463)" font-family="Tinos" font-size="26" xml:space="preserve" class="fill"><tspan x="7378.4846 7387.1428 7400.1428" y="-2439" class="fill">[n]</tspan></text>
  <text transform="matrix(1.4023467 0 0 1.4023467 -9326.56 3814.463)" font-family="Tinos" font-size="26" xml:space="preserve" class="fill"><tspan x="7556.453 7575.225 7583.8835 7596.8835" y="-2400" class="fill">X[n]</tspan></text>
  <path transform="matrix(1.4023467,0,0,1.4023467,-9325.858,3815.164)" d="m7628.9-2384.09-47.3-0.01-61.13 0.41" fill="none" stroke-miterlimit="10" stroke-width="3" class="stroke" />
  <path transform="matrix(1.4023467,0,0,1.4023467,-9325.858,3815.164)" d="m7637.9-2384.09-9 4.5v-9l9 4.5z" />
  <path transform="matrix(1.4023467,0,0,1.4023467,-9325.858,3815.164)" d="m7637.9-2384.09-9 4.5v-9l9 4.5z" fill="none" stroke-miterlimit="10" stroke-width="3" class="stroke" />
  <path transform="matrix(1.4023467,0,0,1.4023467,-9325.858,3815.164)" d="m7628.9-2324.09-47.3-0.01-59.61 0.41" fill="none" stroke-miterlimit="10" stroke-width="3" class="stroke" />
  <path transform="matrix(1.4023467,0,0,1.4023467,-9325.858,3815.164)" d="m7637.9-2324.09-9 4.5v-9l9 4.5z" />
  <path transform="matrix(1.4023467,0,0,1.4023467,-9325.858,3815.164)" d="m7637.9-2324.09-9 4.5v-9l9 4.5z" fill="none" stroke-miterlimit="10" stroke-width="3" class="stroke" />
  <text transform="matrix(1.4023467 0 0 1.4023467 -9326.56 3814.463)" font-family="Tinos" font-size="26" xml:space="preserve" class="fill"><tspan x="7556.453 7575.225 7583.8835 7596.8835" y="-2293" class="fill">Y[n]</tspan></text>
  <text transform="matrix(1.4023467 0 0 1.4023467 -9326.56 3814.463)" font-family="Tinos" font-size="26" xml:space="preserve" class="fill"><tspan x="7947 7955.658 7964.3166 7977.3166" y="-2469" class="fill">I[n]</tspan></text>
  <text transform="matrix(1.4023467 0 0 1.4023467 -9326.56 3814.463)" font-family="Tinos" font-size="26" xml:space="preserve" class="fill"><tspan x="7941.953 7960.725 7969.3835 7982.3835" y="-2223" class="fill">Q[n]</tspan></text>
  <text transform="matrix(1.4023467 0 0 1.4023467 -9326.56 3814.463)" font-family="Tinos" font-size="26" xml:space="preserve" class="fill"><tspan x="8254.328 8267.328 8286.101 8294.759 8301.986" y="-2223" class="fill">dQ(t)</tspan></text>
  <text transform="matrix(1.4023467 0 0 1.4023467 -9326.56 3814.463)" font-family="Tinos" font-size="26" xml:space="preserve" class="fill"><tspan x="8259.391 8272.391 8281.049 8289.707 8296.935" y="-2466" class="fill">dI(t)</tspan></text>
  <path transform="matrix(1.4023467,0,0,1.4023467,-9325.858,3815.164)" d="m6847.505-2396.52c-4e-4 0.4513-0.0444 0.8986-0.133 1.3415-0.0881 0.4426-0.2185 0.8725-0.3913 1.2895-0.1729 0.4172-0.3848 0.8135-0.6357 1.1887-0.251 0.3753-0.5352 0.7227-0.8541 1.0418-0.3199 0.3195-0.667 0.6045-1.0429 0.8552-0.3751 0.2507-0.771 0.4627-1.1876 0.6353-0.4169 0.1726-0.8474 0.303-1.2904 0.391-0.442 0.0877-0.889 0.1317-1.34 0.132-0.452-3e-4 -0.899-0.0443-1.342-0.132-0.443-0.0883-0.8723-0.2187-1.29-0.3913-0.417-0.1726-0.8132-0.3843-1.189-0.635-0.375-0.2507-0.722-0.5357-1.041-0.8552-0.3191-0.3191-0.6042-0.6665-0.8552-1.0418-0.2508-0.3752-0.4628-0.7712-0.6348-1.1884-0.1733-0.417-0.304-0.847-0.3921-1.2898-0.0874-0.4429-0.1313-0.8902-0.1309-1.3415-4e-4 -0.4515 0.0435-0.8985 0.1309-1.341 0.0881-0.4428 0.2188-0.8727 0.3916-1.2897 0.1724-0.417 0.3843-0.8132 0.6353-1.1883 0.251-0.3757 0.5361-0.723 0.8552-1.042 0.319-0.3193 0.666-0.6044 1.0418-0.8554 0.3752-0.2506 0.7712-0.4626 1.1889-0.6353 0.417-0.1726 0.8472-0.3029 1.2901-0.3911 0.4422-0.0881 0.8892-0.1322 1.3412-0.1322 0.451 0 0.898 0.0441 1.34 0.1322 0.443 0.0882 0.873 0.2185 1.29 0.3914 0.417 0.1726 0.8129 0.3845 1.1879 0.6354 0.3751 0.2506 0.7231 0.5357 1.043 0.855 0.3189 0.319 0.6031 0.6663 0.8541 1.042 0.2509 0.3751 0.4628 0.7713 0.636 1.188 0.1725 0.417 0.3029 0.847 0.391 1.2896 0.0886 0.4426 0.1326 0.8899 0.133 1.3414z" fill="none" stroke-width="3" class="stroke" />
 </g>
</svg>