<svg xmlns="http://www.w3.org/2000/svg" width="4328.1599" height="1172.16" version="1.1" viewBox="0 0 4328.1599 1172.16">
 <style>
          .fill { fill: black; }
          .stroke { stroke: black; }
          @media (prefers-color-scheme: dark) {
            .fill { fill: white; }
            .stroke { stroke: white; }
          }
        </style><defs>
  <clipPath id="a">
   <path transform="scale(.48)" d="M78.125 18.75H8937.5V2425H78.125Z" clip-rule="evenodd" />
  </clipPath>
 </defs>
 <g clip-path="url(#a)">
  <text transform="matrix(1.4139905 0 0 1.4139905 -8952.519 5640.3039)" font-family="Tinos" font-size="26" xml:space="preserve" class="fill"><tspan x="6445.297" y="-3666" class="fill">s</tspan></text>
  <text transform="matrix(1.4139905 0 0 1.4139905 -8952.519 5640.3039)" font-family="Tinos" font-size="18.05" xml:space="preserve" class="fill"><tspan x="6455.422 6461.4318 6466.446 6472.4558 6476.9675 6487.145 6491.6569 6497.6667 6503.6765 6508.6906" y="-3666" class="fill">(t) + r(t)</tspan></text>
  <path transform="matrix(1.4139905,0,0,1.4139905,-8951.812,5641.0104)" d="m6480.23-3636.25 0.07 38.45v25.95" fill="none" stroke-miterlimit="10" stroke-width="3" class="stroke" />
  <path transform="matrix(1.4139905,0,0,1.4139905,-8951.812,5641.0104)" d="m6480.3-3562.85-4.5-9h9l-4.5 9z" />
  <path transform="matrix(1.4139905,0,0,1.4139905,-8951.812,5641.0104)" d="m6480.3-3562.85-4.5-9h9l-4.5 9z" fill="none" stroke-miterlimit="10" stroke-width="3" class="stroke" />
  <path transform="matrix(1.4139905,0,0,1.4139905,-8951.812,5641.0104)" d="m6487.105-3643.13c0 0.4515-0.044 0.8987-0.1321 1.342-0.0884 0.4425-0.2193 0.8724-0.3921 1.2896-0.1728 0.417-0.3843 0.8134-0.6353 1.1885-0.2505 0.3753-0.5355 0.7227-0.8545 1.0419-0.3193 0.319-0.667 0.6041-1.0425 0.855-0.375 0.2506-0.771 0.4625-1.188 0.6351-0.4175 0.1726-0.8475 0.303-1.29 0.3909-0.4425 0.0881-0.8895 0.132-1.3405 0.132-0.4515 0-0.899-0.0439-1.342-0.1318-0.4425-0.0881-0.873-0.2182-1.29-0.3909-0.417-0.1726-0.813-0.3843-1.1881-0.6353-0.3759-0.2509-0.7229-0.536-1.0419-0.855-0.319-0.3192-0.6041-0.6666-0.855-1.0419-0.251-0.3751-0.4625-0.7715-0.635-1.1887-0.1722-0.417-0.303-0.8469-0.391-1.2898s-0.132-0.8901-0.132-1.3416c0-0.4514 0.044-0.8984 0.1315-1.3408 0.0884-0.4426 0.2185-0.8725 0.3911-1.2895 0.1729-0.4167 0.3843-0.813 0.6344-1.1885 0.2519-0.3752 0.537-0.7227 0.856-1.042 0.319-0.3191 0.666-0.6042 1.0419-0.855 0.3751-0.2507 0.7711-0.4626 1.1889-0.6355 0.4162-0.1726 0.8467-0.3032 1.2901-0.3913 0.4428-0.0882 0.8896-0.1324 1.3411-0.1324 0.451 0 0.898 0.0442 1.3405 0.1326 0.4424 0.0881 0.8721 0.2188 1.2895 0.3914 0.417 0.1726 0.813 0.3845 1.1885 0.6352 0.3755 0.2508 0.7232 0.5359 1.0425 0.855 0.319 0.3193 0.604 0.6665 0.8545 1.0418 0.2515 0.3754 0.4634 0.7717 0.6355 1.1884 0.173 0.417 0.304 0.847 0.392 1.2896s0.132 0.8896 0.132 1.341z" fill="none" stroke-width="3" class="stroke" />
  <path transform="matrix(1.4139905,0,0,1.4139905,-8951.812,5641.0104)" d="m6600-3529.5 107.65 0.01" fill="none" stroke-miterlimit="10" stroke-width="3" class="stroke" />
  <path transform="matrix(1.4139905,0,0,1.4139905,-8951.812,5641.0104)" d="m6716.65-3529.49-9 4.5v-9l9 4.5z" />
  <path transform="matrix(1.4139905,0,0,1.4139905,-8951.812,5641.0104)" d="m6716.65-3529.49-9 4.5v-9l9 4.5z" fill="none" stroke-miterlimit="10" stroke-width="3" class="stroke" />
  <path transform="matrix(1.4139905,0,0,1.4139905,-8951.812,5641.0104)" d="m6360.49-3559.5h239.51v120h-239.51z" fill="none" stroke-width="3" class="stroke" />
  <text transform="matrix(1.4139905 0 0 1.4139905 -8952.519 5640.3039)" font-family="Tinos" font-size="26" xml:space="preserve" class="fill"><tspan x="6390.078 6408.85 6424.7365 6440.6228 6456.509 6473.8508 6491.1926 6509.9645 6528.7365 6535.2365 6554.0085" y="-3506" class="fill">DETEC&#199;&#195;O DE</tspan></text>
  <text transform="matrix(1.4139905 0 0 1.4139905 -8952.519 5640.3039)" font-family="Tinos" font-size="26" xml:space="preserve" class="fill"><tspan x="6402.3596 6416.8156 6435.5876 6451.376 6465.176 6483.9479 6502.7199 6521.4919 6538.8337" y="-3474" class="fill">PORTADORA</tspan></text>
  <path transform="matrix(1.4139905,0,0,1.4139905,-8951.812,5641.0104)" d="m6960-3529.49 107.65-0.01" fill="none" stroke-miterlimit="10" stroke-width="3" class="stroke" />
  <path transform="matrix(1.4139905,0,0,1.4139905,-8951.812,5641.0104)" d="m7076.65-3529.5-9 4.5v-9l9 4.5z" />
  <path transform="matrix(1.4139905,0,0,1.4139905,-8951.812,5641.0104)" d="m7076.65-3529.5-9 4.5v-9l9 4.5z" fill="none" stroke-miterlimit="10" stroke-width="3" class="stroke" />
  <path transform="matrix(1.4139905,0,0,1.4139905,-8951.812,5641.0104)" d="m6960-3469.49 107.65-0.01" fill="none" stroke-miterlimit="10" stroke-width="3" class="stroke" />
  <path transform="matrix(1.4139905,0,0,1.4139905,-8951.812,5641.0104)" d="m7076.65-3469.5-9 4.5v-9l9 4.5z" />
  <path transform="matrix(1.4139905,0,0,1.4139905,-8951.812,5641.0104)" d="m7076.65-3469.5-9 4.5v-9l9 4.5z" fill="none" stroke-miterlimit="10" stroke-width="3" class="stroke" />
  <path transform="matrix(1.4139905,0,0,1.4139905,-8951.812,5641.0104)" d="m6720-3559.49h240v120h-240z" fill="none" stroke-width="3" class="stroke" />
  <text transform="matrix(1.4139905 0 0 1.4139905 -8952.519 5640.3039)" font-family="Tinos" font-size="26" xml:space="preserve" class="fill"><tspan x="6738.1564 6756.928 6772.8146 6795.928 6814.7 6833.472 6852.244 6868.1306 6886.9025 6905.6745 6924.4465" y="-3506" class="fill">DEMODULADOR</tspan></text>
  <text transform="matrix(1.4139905 0 0 1.4139905 -8952.519 5640.3039)" font-family="Tinos" font-size="26" xml:space="preserve" class="fill"><tspan x="6726.6877 6744.0295 6762.8015 6781.573 6800.345 6817.7 6824.2 6836.2736 6855.0456 6869.5017 6883.9577 6902.7297 6921.5017 6937.3879" y="-3474" class="fill">BANDA PASSANTE</tspan></text>
  <text transform="matrix(1.4139905 0 0 1.4139905 -8952.519 5640.3039)" font-family="Tinos" font-size="26" xml:space="preserve" class="fill"><tspan x="6644.0627 6654.1765" y="-3551" class="fill">s'</tspan></text>
  <text transform="matrix(1.4139905 0 0 1.4139905 -8952.519 5640.3039)" font-family="Tinos" font-size="18.05" xml:space="preserve" class="fill"><tspan x="6658.875 6664.885 6669.899" y="-3551" class="fill">(t)</tspan></text>
  <path transform="matrix(1.4139905,0,0,1.4139905,-8951.812,5641.0104)" d="m6600-3469.5 107.65 0.01" fill="none" stroke-miterlimit="10" stroke-width="3" class="stroke" />
  <path transform="matrix(1.4139905,0,0,1.4139905,-8951.812,5641.0104)" d="m6716.65-3469.49-9 4.5v-9l9 4.5z" />
  <path transform="matrix(1.4139905,0,0,1.4139905,-8951.812,5641.0104)" d="m6716.65-3469.49-9 4.5v-9l9 4.5z" fill="none" stroke-miterlimit="10" stroke-width="3" class="stroke" />
  <text transform="matrix(1.4139905 0 0 1.4139905 -8952.519 5640.3039)" font-family="Tinos" font-size="26" xml:space="preserve" class="fill"><tspan x="6644.797 6653.455" y="-3429" class="fill">f'</tspan></text>
  <text transform="matrix(1.4139905 0 0 1.4139905 -8952.519 5640.3039)" font-family="Tinos" font-size="18.05" xml:space="preserve" class="fill"><tspan x="6658.1408 6664.1506 6669.1647" y="-3429" class="fill">(t)</tspan></text>
  <path transform="matrix(1.4139905,0,0,1.4139905,-8951.812,5641.0104)" d="m7200.63-3559.5-0.03-100.5h108.3" fill="none" stroke-miterlimit="10" stroke-width="3" class="stroke" />
  <path transform="matrix(1.4139905,0,0,1.4139905,-8951.812,5641.0104)" d="m7317.9-3660-9 3v-6l9 3z" />
  <path transform="matrix(1.4139905,0,0,1.4139905,-8951.812,5641.0104)" d="m7317.9-3660-9 3v-6l9 3z" fill="none" stroke-miterlimit="10" stroke-width="3" class="stroke" />
  <path transform="matrix(1.4139905,0,0,1.4139905,-8951.812,5641.0104)" d="m7200.63-3439.5-0.03 99.5 108.3 0.01" fill="none" stroke-miterlimit="10" stroke-width="3" class="stroke" />
  <path transform="matrix(1.4139905,0,0,1.4139905,-8951.812,5641.0104)" d="m7317.9-3339.99-9 3v-6l9 3z" />
  <path transform="matrix(1.4139905,0,0,1.4139905,-8951.812,5641.0104)" d="m7317.9-3339.99-9 3v-6l9 3z" fill="none" stroke-miterlimit="10" stroke-width="3" class="stroke" />
  <path transform="matrix(1.4139905,0,0,1.4139905,-8951.812,5641.0104)" d="m7080-3559.5h241.25v120h-241.25z" fill="none" stroke-width="3" class="stroke" />
  <text transform="matrix(1.4139905 0 0 1.4139905 -8952.519 5640.3039)" font-family="Tinos" font-size="26" xml:space="preserve" class="fill"><tspan x="7152.922 7167.378 7176.036 7189.535 7205.4216 7222.763" y="-3506" class="fill">FILTRO</tspan></text>
  <text transform="matrix(1.4139905 0 0 1.4139905 -8952.519 5640.3039)" font-family="Tinos" font-size="26" xml:space="preserve" class="fill"><tspan x="7241.535" y="-3506" class="fill"> </tspan></text>
  <text transform="matrix(1.4139905 0 0 1.4139905 -8952.519 5640.3039)" font-family="Tinos" font-size="26" xml:space="preserve" class="fill"><tspan x="7117.5158 7129.589 7148.361 7162.817 7177.273 7194.627 7201.127 7218.4689 7237.2409 7245.899 7264.671" y="-3474" class="fill">PASSA BAIXA</tspan></text>
  <text transform="matrix(1.4139905 0 0 1.4139905 -8952.519 5640.3039)" font-family="Tinos" font-size="26" xml:space="preserve" class="fill"><tspan x="6998.7346 7011.7346 7030.5065" y="-3551" class="fill">dX'</tspan></text>
  <text transform="matrix(1.4139905 0 0 1.4139905 -8952.519 5640.3039)" font-family="Tinos" font-size="18.05" xml:space="preserve" class="fill"><tspan x="7035.203 7041.213 7046.227" y="-3551" class="fill">(t)</tspan></text>
  <text transform="matrix(1.4139905 0 0 1.4139905 -8952.519 5640.3039)" font-family="Tinos" font-size="26" xml:space="preserve" class="fill"><tspan x="6998.7346 7011.7346 7030.5065" y="-3429" class="fill">dY'</tspan></text>
  <text transform="matrix(1.4139905 0 0 1.4139905 -8952.519 5640.3039)" font-family="Tinos" font-size="18.05" xml:space="preserve" class="fill"><tspan x="7035.203 7041.213 7046.227" y="-3429" class="fill">(t)</tspan></text>
  <path transform="matrix(1.4139905,0,0,1.4139905,-8951.812,5641.0104)" d="m7441.88-3600 0.02 70.5h185.75" fill="none" stroke-miterlimit="10" stroke-width="3" class="stroke" />
  <path transform="matrix(1.4139905,0,0,1.4139905,-8951.812,5641.0104)" d="m7636.65-3529.5-9 3v-6l9 3z" />
  <path transform="matrix(1.4139905,0,0,1.4139905,-8951.812,5641.0104)" d="m7636.65-3529.5-9 3v-6l9 3z" fill="none" stroke-miterlimit="10" stroke-width="3" class="stroke" />
  <path transform="matrix(1.4139905,0,0,1.4139905,-8951.812,5641.0104)" d="m7321.25-3720h241.25v120h-241.25z" fill="none" stroke-width="3" class="stroke" />
  <text transform="matrix(1.4139905 0 0 1.4139905 -8952.519 5640.3039)" font-family="Tinos" font-size="26" xml:space="preserve" class="fill"><tspan x="7397.172 7411.628 7420.286 7433.785 7449.6716 7467.013" y="-3667" class="fill">FILTRO</tspan></text>
  <text transform="matrix(1.4139905 0 0 1.4139905 -8952.519 5640.3039)" font-family="Tinos" font-size="26" xml:space="preserve" class="fill"><tspan x="7388.0314 7405.373 7424.145 7438.601 7457.373 7476.145" y="-3635" class="fill">CASADO</tspan></text>
  <path transform="matrix(1.4139905,0,0,1.4139905,-8951.812,5641.0104)" d="m7441.88-3399.99 0.02-69.51h185.75" fill="none" stroke-miterlimit="10" stroke-width="3" class="stroke" />
  <path transform="matrix(1.4139905,0,0,1.4139905,-8951.812,5641.0104)" d="m7636.65-3469.5-9 3v-6l9 3z" />
  <path transform="matrix(1.4139905,0,0,1.4139905,-8951.812,5641.0104)" d="m7636.65-3469.5-9 3v-6l9 3z" fill="none" stroke-miterlimit="10" stroke-width="3" class="stroke" />
  <path transform="matrix(1.4139905,0,0,1.4139905,-8951.812,5641.0104)" d="m7321.25-3399.99h241.25v120h-241.25z" fill="none" stroke-width="3" class="stroke" />
  <text transform="matrix(1.4139905 0 0 1.4139905 -8952.519 5640.3039)" font-family="Tinos" font-size="26" xml:space="preserve" class="fill"><tspan x="7397.172 7411.628 7420.286 7433.785 7449.6716 7467.013" y="-3347" class="fill">FILTRO</tspan></text>
  <text transform="matrix(1.4139905 0 0 1.4139905 -8952.519 5640.3039)" font-family="Tinos" font-size="26" xml:space="preserve" class="fill"><tspan x="7388.0314 7405.373 7424.145 7438.601 7457.373 7476.145" y="-3315" class="fill">CASADO</tspan></text>
  <text transform="matrix(1.4139905 0 0 1.4139905 -8952.519 5640.3039)" font-family="Tinos" font-size="26" xml:space="preserve" class="fill"><tspan x="7237.0939 7250.0939 7258.752" y="-3675" class="fill">dI'</tspan></text>
  <text transform="matrix(1.4139905 0 0 1.4139905 -8952.519 5640.3039)" font-family="Tinos" font-size="21.66" xml:space="preserve" class="fill"><tspan x="7263.4377 7270.6496 7276.666" y="-3668.8126" class="fill">(t)</tspan></text>
  <text transform="matrix(1.4139905 0 0 1.4139905 -8952.519 5640.3039)" font-family="Tinos" font-size="26" xml:space="preserve" class="fill"><tspan x="7231.0314 7244.0314 7262.803" y="-3295" class="fill">dQ'</tspan></text>
  <text transform="matrix(1.4139905 0 0 1.4139905 -8952.519 5640.3039)" font-family="Tinos" font-size="21.66" xml:space="preserve" class="fill"><tspan x="7267.5 7274.712 7280.7287" y="-3288.8126" class="fill">(t)</tspan></text>
  <path transform="matrix(1.4139905,0,0,1.4139905,-8951.812,5641.0104)" d="m7881.25-3529.5 106.4 0.01" fill="none" stroke-miterlimit="10" stroke-width="3" class="stroke" />
  <path transform="matrix(1.4139905,0,0,1.4139905,-8951.812,5641.0104)" d="m7996.65-3529.49-9 4.5v-9l9 4.5z" />
  <path transform="matrix(1.4139905,0,0,1.4139905,-8951.812,5641.0104)" d="m7996.65-3529.49-9 4.5v-9l9 4.5z" fill="none" stroke-miterlimit="10" stroke-width="3" class="stroke" />
  <path transform="matrix(1.4139905,0,0,1.4139905,-8951.812,5641.0104)" d="m7881.25-3469.5 106.4 0.01" fill="none" stroke-miterlimit="10" stroke-width="3" class="stroke" />
  <path transform="matrix(1.4139905,0,0,1.4139905,-8951.812,5641.0104)" d="m7996.65-3469.49-9 4.5v-9l9 4.5z" />
  <path transform="matrix(1.4139905,0,0,1.4139905,-8951.812,5641.0104)" d="m7996.65-3469.49-9 4.5v-9l9 4.5z" fill="none" stroke-miterlimit="10" stroke-width="3" class="stroke" />
  <path transform="matrix(1.4139905,0,0,1.4139905,-8951.812,5641.0104)" d="m7760.63-3439.5-0.03 79.5h360l0.02-67.14" fill="none" stroke-miterlimit="10" stroke-width="3" class="stroke" />
  <path transform="matrix(1.4139905,0,0,1.4139905,-8951.812,5641.0104)" d="m8120.62-3436.14 4.5 9.01-9-0.01 4.5-9z" />
  <path transform="matrix(1.4139905,0,0,1.4139905,-8951.812,5641.0104)" d="m8120.62-3436.14 4.5 9.01-9-0.01 4.5-9z" fill="none" stroke-miterlimit="10" stroke-width="3" class="stroke" />
  <path transform="matrix(1.4139905,0,0,1.4139905,-8951.812,5641.0104)" d="m7640-3559.5h241.25v120h-241.25z" fill="none" stroke-width="3" class="stroke" />
  <text transform="matrix(1.4139905 0 0 1.4139905 -8952.519 5640.3039)" font-family="Tinos" font-size="26" xml:space="preserve" class="fill"><tspan x="7654.328 7668.784 7677.4426 7696.2145 7713.556 7730.898 7749.67 7768.442 7777.1 7792.9865 7811.7585 7830.5305 7849.3024" y="-3490" class="fill">SINCRONIZADOR</tspan></text>
  <path transform="matrix(1.4139905,0,0,1.4139905,-8951.812,5641.0104)" d="m7700.31-3690v118.15" fill="none" stroke-miterlimit="10" stroke-width="3" class="stroke" />
  <path transform="matrix(1.4139905,0,0,1.4139905,-8951.812,5641.0104)" d="m7700.31-3562.85-3-9h6l-3 9z" />
  <path transform="matrix(1.4139905,0,0,1.4139905,-8951.812,5641.0104)" d="m7700.31-3562.85-3-9h6l-3 9z" fill="none" stroke-miterlimit="10" stroke-width="3" class="stroke" />
  <path transform="matrix(1.4139905,0,0,1.4139905,-8951.812,5641.0104)" d="m7820.94-3690v118.15" fill="none" stroke-miterlimit="10" stroke-width="3" class="stroke" />
  <path transform="matrix(1.4139905,0,0,1.4139905,-8951.812,5641.0104)" d="m7820.94-3562.85-3-9h6l-3 9z" />
  <path transform="matrix(1.4139905,0,0,1.4139905,-8951.812,5641.0104)" d="m7820.94-3562.85-3-9h6l-3 9z" fill="none" stroke-miterlimit="10" stroke-width="3" class="stroke" />
  <path transform="matrix(1.4139905,0,0,1.4139905,-8951.812,5641.0104)" d="m7640-3810h241.25v120h-241.25z" fill="none" stroke-width="3" class="stroke" />
  <text transform="matrix(1.4139905 0 0 1.4139905 -8952.519 5640.3039)" font-family="Tinos" font-size="26" xml:space="preserve" class="fill"><tspan x="7717.3908 7736.1628 7752.049 7767.461 7786.233" y="-3757" class="fill">VETOR</tspan></text>
  <text transform="matrix(1.4139905 0 0 1.4139905 -8952.519 5640.3039)" font-family="Tinos" font-size="26" xml:space="preserve" class="fill"><tspan x="7670.922 7685.378 7694.036 7712.808 7730.15 7747.4919 7766.2639 7785.0358 7793.694 7808.15 7831.2639" y="-3725" class="fill">SINCRONISMO</tspan></text>
  <path transform="matrix(1.4139905,0,0,1.4139905,-8951.812,5641.0104)" d="m8241.25-3529.49h106.4" fill="none" stroke-miterlimit="10" stroke-width="3" class="stroke" />
  <path transform="matrix(1.4139905,0,0,1.4139905,-8951.812,5641.0104)" d="m8356.65-3529.49-9 4.5v-9l9 4.5z" />
  <path transform="matrix(1.4139905,0,0,1.4139905,-8951.812,5641.0104)" d="m8356.65-3529.49-9 4.5v-9l9 4.5z" fill="none" stroke-miterlimit="10" stroke-width="3" class="stroke" />
  <path transform="matrix(1.4139905,0,0,1.4139905,-8951.812,5641.0104)" d="m8241.25-3469.49h106.4" fill="none" stroke-miterlimit="10" stroke-width="3" class="stroke" />
  <path transform="matrix(1.4139905,0,0,1.4139905,-8951.812,5641.0104)" d="m8356.65-3469.49-9 4.5v-9l9 4.5z" />
  <path transform="matrix(1.4139905,0,0,1.4139905,-8951.812,5641.0104)" d="m8356.65-3469.49-9 4.5v-9l9 4.5z" fill="none" stroke-miterlimit="10" stroke-width="3" class="stroke" />
  <path transform="matrix(1.4139905,0,0,1.4139905,-8951.812,5641.0104)" d="m8e3 -3559.49h241.25v120h-241.25z" fill="none" stroke-width="3" class="stroke" />
  <text transform="matrix(1.4139905 0 0 1.4139905 -8952.519 5640.3039)" font-family="Tinos" font-size="26" xml:space="preserve" class="fill"><tspan x="8016.8439 8035.6159 8058.7297 8077.5017 8091.9577 8107.8439 8125.1857 8143.9577 8162.7297 8178.6159 8201.7299 8208.2299" y="-3506" class="fill">AMOSTRAGEM E</tspan></text>
  <text transform="matrix(1.4139905 0 0 1.4139905 -8952.519 5640.3039)" font-family="Tinos" font-size="26" xml:space="preserve" class="fill"><tspan x="8064.1564 8082.928 8098.8146 8116.1564 8124.8146 8139.2707 8158.0427" y="-3474" class="fill">DECIS&#195;O</tspan></text>
  <text transform="matrix(1.4139905 0 0 1.4139905 -8952.519 5640.3039)" font-family="Tinos" font-size="26" xml:space="preserve" class="fill"><tspan x="7525.0939 7533.752" y="-3545" class="fill">I'</tspan></text>
  <text transform="matrix(1.4139905 0 0 1.4139905 -8952.519 5640.3039)" font-family="Tinos" font-size="21.66" xml:space="preserve" class="fill"><tspan x="7538.4377 7545.6496 7551.666" y="-3538.8126" class="fill">(t)</tspan></text>
  <text transform="matrix(1.4139905 0 0 1.4139905 -8952.519 5640.3039)" font-family="Tinos" font-size="26" xml:space="preserve" class="fill"><tspan x="7520.0314 7538.803" y="-3435" class="fill">Q'</tspan></text>
  <text transform="matrix(1.4139905 0 0 1.4139905 -8952.519 5640.3039)" font-family="Tinos" font-size="21.66" xml:space="preserve" class="fill"><tspan x="7543.5 7550.712 7556.7287" y="-3428.8126" class="fill">(t)</tspan></text>
  <text transform="matrix(1.4139905 0 0 1.4139905 -8952.519 5640.3039)" font-family="Tinos" font-size="26" xml:space="preserve" class="fill"><tspan x="7648.922 7663.378" y="-3615" class="fill">Si</tspan></text>
  <text transform="matrix(1.4139905 0 0 1.4139905 -8952.519 5640.3039)" font-family="Tinos" font-size="21.66" xml:space="preserve" class="fill"><tspan x="7670.6096 7677.8215 7683.838" y="-3608.8126" class="fill">(t)</tspan></text>
  <text transform="matrix(1.4139905 0 0 1.4139905 -8952.519 5640.3039)" font-family="Tinos" font-size="26" xml:space="preserve" class="fill"><tspan x="7827.0314 7841.4875" y="-3615" class="fill">Sq</tspan></text>
  <text transform="matrix(1.4139905 0 0 1.4139905 -8952.519 5640.3039)" font-family="Tinos" font-size="21.66" xml:space="preserve" class="fill"><tspan x="7854.5 7861.712 7867.7287" y="-3608.8126" class="fill">(t)</tspan></text>
  <text transform="matrix(1.4139905 0 0 1.4139905 -8952.519 5640.3039)" font-family="Tinos" font-size="26" xml:space="preserve" class="fill"><tspan x="7922.0939 7930.752" y="-3550" class="fill">I'</tspan></text>
  <text transform="matrix(1.4139905 0 0 1.4139905 -8952.519 5640.3039)" font-family="Tinos" font-size="21.66" xml:space="preserve" class="fill"><tspan x="7935.4377 7942.6496 7948.666" y="-3543.8126" class="fill">(t)</tspan></text>
  <text transform="matrix(1.4139905 0 0 1.4139905 -8952.519 5640.3039)" font-family="Tinos" font-size="26" xml:space="preserve" class="fill"><tspan x="7917.0314 7935.803" y="-3440" class="fill">Q'</tspan></text>
  <text transform="matrix(1.4139905 0 0 1.4139905 -8952.519 5640.3039)" font-family="Tinos" font-size="21.66" xml:space="preserve" class="fill"><tspan x="7940.5 7947.712 7953.7287" y="-3433.8126" class="fill">(t)</tspan></text>
  <text transform="matrix(1.4139905 0 0 1.4139905 -8952.519 5640.3039)" font-family="Tinos" font-size="26" xml:space="preserve" class="fill"><tspan x="7782.0627 7800.8347 7816.7209 7832.607 7848.992 7866.8039 7873.3039 7892.0759 7907.962 7913.0275 7931.7995 7954.913 7973.685 7988.141 8004.0275 8021.369 8040.141 8058.913 8074.7995" y="-3331" class="fill">DELAY DE AMOSTRAGEM</tspan></text>
  <path transform="matrix(1.4139905,0,0,1.4139905,-8951.812,5641.0104)" d="m8601.25-3529.49h106.4" fill="none" stroke-miterlimit="10" stroke-width="3" class="stroke" />
  <path transform="matrix(1.4139905,0,0,1.4139905,-8951.812,5641.0104)" d="m8716.65-3529.49-9 4.5v-9l9 4.5z" />
  <path transform="matrix(1.4139905,0,0,1.4139905,-8951.812,5641.0104)" d="m8716.65-3529.49-9 4.5v-9l9 4.5z" fill="none" stroke-miterlimit="10" stroke-width="3" class="stroke" />
  <path transform="matrix(1.4139905,0,0,1.4139905,-8951.812,5641.0104)" d="m8601.25-3469.49h106.4" fill="none" stroke-miterlimit="10" stroke-width="3" class="stroke" />
  <path transform="matrix(1.4139905,0,0,1.4139905,-8951.812,5641.0104)" d="m8716.65-3469.49-9 4.5v-9l9 4.5z" />
  <path transform="matrix(1.4139905,0,0,1.4139905,-8951.812,5641.0104)" d="m8716.65-3469.49-9 4.5v-9l9 4.5z" fill="none" stroke-miterlimit="10" stroke-width="3" class="stroke" />
  <path transform="matrix(1.4139905,0,0,1.4139905,-8951.812,5641.0104)" d="m8360-3559.49h241.25v120h-241.25z" fill="none" stroke-width="3" class="stroke" />
  <text transform="matrix(1.4139905 0 0 1.4139905 -8952.519 5640.3039)" font-family="Tinos" font-size="26" xml:space="preserve" class="fill"><tspan x="8374.328 8393.101 8408.986 8426.328 8445.101 8463.873 8472.531 8486.987 8495.6459 8512.987 8531.76 8550.532 8569.305" y="-3506" class="fill">DECODIFICADOR</tspan></text>
  <text transform="matrix(1.4139905 0 0 1.4139905 -8952.519 5640.3039)" font-family="Tinos" font-size="26" xml:space="preserve" class="fill"><tspan x="8415.141 8433.913 8449.799 8456.299 8473.641 8492.413 8511.186 8529.958" y="-3474" class="fill">DE CANAL</tspan></text>
  <text transform="matrix(1.4139905 0 0 1.4139905 -8952.519 5640.3039)" font-family="Tinos" font-size="26" xml:space="preserve" class="fill"><tspan x="8283.328 8291.986" y="-3548" class="fill">I'</tspan></text>
  <text transform="matrix(1.4139905 0 0 1.4139905 -8952.519 5640.3039)" font-family="Tinos" font-size="18" xml:space="preserve" class="fill"><tspan x="8296.672 8302.666 8311.666" y="-3548" class="fill">[n]</tspan></text>
  <text transform="matrix(1.4139905 0 0 1.4139905 -8952.519 5640.3039)" font-family="Tinos" font-size="26" xml:space="preserve" class="fill"><tspan x="8278.266 8297.038" y="-3433" class="fill">Q'</tspan></text>
  <text transform="matrix(1.4139905 0 0 1.4139905 -8952.519 5640.3039)" font-family="Tinos" font-size="18" xml:space="preserve" class="fill"><tspan x="8301.734 8307.729 8316.729" y="-3433" class="fill">[n]</tspan></text>
  <path transform="matrix(1.4139905,0,0,1.4139905,-8951.812,5641.0104)" d="m9e3 -3529.49h107.65" fill="none" stroke-miterlimit="10" stroke-width="3" class="stroke" />
  <path transform="matrix(1.4139905,0,0,1.4139905,-8951.812,5641.0104)" d="m9116.65-3529.49-9 4.5v-9l9 4.5z" />
  <path transform="matrix(1.4139905,0,0,1.4139905,-8951.812,5641.0104)" d="m9116.65-3529.49-9 4.5v-9l9 4.5z" fill="none" stroke-miterlimit="10" stroke-width="3" class="stroke" />
  <path transform="matrix(1.4139905,0,0,1.4139905,-8951.812,5641.0104)" d="m9e3 -3469.49h107.65" fill="none" stroke-miterlimit="10" stroke-width="3" class="stroke" />
  <path transform="matrix(1.4139905,0,0,1.4139905,-8951.812,5641.0104)" d="m9116.65-3469.49-9 4.5v-9l9 4.5z" />
  <path transform="matrix(1.4139905,0,0,1.4139905,-8951.812,5641.0104)" d="m9116.65-3469.49-9 4.5v-9l9 4.5z" fill="none" stroke-miterlimit="10" stroke-width="3" class="stroke" />
  <path transform="matrix(1.4139905,0,0,1.4139905,-8951.812,5641.0104)" d="m8720-3559.49h280v120h-280z" fill="none" stroke-width="3" class="stroke" />
  <text transform="matrix(1.4139905 0 0 1.4139905 -8952.519 5640.3039)" font-family="Tinos" font-size="26" xml:space="preserve" class="fill"><tspan x="8725.656 8744.429 8760.314 8774.7709 8790.656 8813.7709 8831.112 8849.885 8867.227 8885.999 8901.885 8920.657 8939.43 8958.202 8976.975" y="-3490" class="fill">DESEMBARALHADOR</tspan></text>
  <text transform="matrix(1.4139905 0 0 1.4139905 -8952.519 5640.3039)" font-family="Tinos" font-size="26" xml:space="preserve" class="fill"><tspan x="8637.266 8656.038" y="-3548" class="fill">X'</tspan></text>
  <text transform="matrix(1.4139905 0 0 1.4139905 -8952.519 5640.3039)" font-family="Tinos" font-size="18" xml:space="preserve" class="fill"><tspan x="8660.734 8666.729 8675.729" y="-3548" class="fill">[n]</tspan></text>
  <text transform="matrix(1.4139905 0 0 1.4139905 -8952.519 5640.3039)" font-family="Tinos" font-size="26" xml:space="preserve" class="fill"><tspan x="8637.266 8656.038" y="-3433" class="fill">Y'</tspan></text>
  <text transform="matrix(1.4139905 0 0 1.4139905 -8952.519 5640.3039)" font-family="Tinos" font-size="18" xml:space="preserve" class="fill"><tspan x="8660.734 8666.729 8675.729" y="-3433" class="fill">[n]</tspan></text>
  <path transform="matrix(1.4139905,0,0,1.4139905,-8951.812,5641.0104)" d="m9240.7-3559.49v-38.31l-0.05-26.1" fill="none" stroke-miterlimit="10" stroke-width="3" class="stroke" />
  <path transform="matrix(1.4139905,0,0,1.4139905,-8951.812,5641.0104)" d="m9240.63-3632.9 4.52 9-9 0.01 4.48-9.01z" />
  <path transform="matrix(1.4139905,0,0,1.4139905,-8951.812,5641.0104)" d="m9240.63-3632.9 4.52 9-9 0.01 4.48-9.01z" fill="none" stroke-miterlimit="10" stroke-width="3" class="stroke" />
  <path transform="matrix(1.4139905,0,0,1.4139905,-8951.812,5641.0104)" d="m9120-3559.49h241.25v120h-241.25z" fill="none" stroke-width="3" class="stroke" />
  <text transform="matrix(1.4139905 0 0 1.4139905 -8952.519 5640.3039)" font-family="Tinos" font-size="26" xml:space="preserve" class="fill"><tspan x="9134.328 9153.101 9168.986 9186.328 9205.101 9223.873 9232.531 9246.987 9255.6459 9272.987 9291.76 9310.532 9329.305" y="-3506" class="fill">DECODIFICADOR</tspan></text>
  <text transform="matrix(1.4139905 0 0 1.4139905 -8952.519 5640.3039)" font-family="Tinos" font-size="26" xml:space="preserve" class="fill"><tspan x="9127.828 9145.17 9163.942 9182.715 9201.487 9220.26 9236.1459 9254.918 9272.26 9280.918 9299.69 9318.463 9337.235" y="-3474" class="fill">CONVOLUCIONAL</tspan></text>
  <text transform="matrix(1.4139905 0 0 1.4139905 -8952.519 5640.3039)" font-family="Tinos" font-size="26" xml:space="preserve" class="fill"><tspan x="9038.125 9051.125" y="-3547.7813" class="fill">v'</tspan></text>
  <text transform="matrix(1.4139905 0 0 1.4139905 -8952.519 5640.3039)" font-family="Tinos" font-size="18.05" xml:space="preserve" class="fill"><tspan x="9055.8129" y="-3542.6719" class="fill">t</tspan></text>
  <text transform="matrix(1.4139905 0 0 1.4139905 -8952.519 5640.3039)" font-family="Tinos" font-size="18.05" xml:space="preserve" class="fill"><tspan x="9060.828 9066.838 9075.861" y="-3556.2188" class="fill">(0)</tspan></text>
  <text transform="matrix(1.4139905 0 0 1.4139905 -8952.519 5640.3039)" font-family="Tinos" font-size="26" xml:space="preserve" class="fill"><tspan x="9038.125 9051.125" y="-3437.7813" class="fill">v'</tspan></text>
  <text transform="matrix(1.4139905 0 0 1.4139905 -8952.519 5640.3039)" font-family="Tinos" font-size="18.05" xml:space="preserve" class="fill"><tspan x="9055.8129" y="-3432.6719" class="fill">t</tspan></text>
  <text transform="matrix(1.4139905 0 0 1.4139905 -8952.519 5640.3039)" font-family="Tinos" font-size="18.05" xml:space="preserve" class="fill"><tspan x="9060.828 9066.838 9075.861" y="-3446.2188" class="fill">(1)</tspan></text>
  <path transform="matrix(1.4139905,0,0,1.4139905,-8951.812,5641.0104)" d="m9247.505-3643.12c-1e-3 0.4512-0.045 0.8985-0.133 1.3411-0.088 0.4429-0.218 0.8729-0.391 1.2901-0.172 0.417-0.384 0.8132-0.634 1.1888-0.251 0.3751-0.536 0.7225-0.856 1.0416-0.319 0.3191-0.667 0.604-1.042 0.8548-0.376 0.2509-0.772 0.4626-1.189 0.6352s-0.847 0.3034-1.289 0.3914c-0.443 0.088-0.89 0.132-1.341 0.132s-0.899-0.044-1.342-0.1318c-0.442-0.0881-0.872-0.2187-1.289-0.3912-0.417-0.1727-0.812-0.3847-1.188-0.6354-0.376-0.2506-0.723-0.5359-1.042-0.855-0.32-0.3191-0.606-0.6665-0.857-1.042s-0.462-0.7716-0.635-1.1886c-0.172-0.4173-0.301-0.8473-0.39-1.2899-0.088-0.4426-0.132-0.8899-0.132-1.3411 0-0.4516 0.044-0.8986 0.132-1.3413 0.089-0.4426 0.218-0.8725 0.39-1.2895 0.173-0.417 0.384-0.8132 0.635-1.1885 0.251-0.3752 0.537-0.7226 0.857-1.042 0.319-0.3191 0.666-0.604 1.041-0.855 0.376-0.2507 0.771-0.4624 1.188-0.6352 0.417-0.1729 0.848-0.3032 1.29-0.3914 0.443-0.0881 0.891-0.132 1.342-0.1321 0.451 1e-4 0.898 0.044 1.342 0.132 0.442 0.088 0.872 0.2186 1.289 0.3915 0.417 0.1728 0.812 0.3845 1.188 0.6352 0.375 0.251 0.723 0.5359 1.042 0.855 0.32 0.3194 0.604 0.6668 0.855 1.042 0.25 0.3753 0.462 0.7715 0.634 1.1885 0.173 0.417 0.304 0.8469 0.392 1.2895 0.088 0.4427 0.132 0.8897 0.133 1.3413z" fill="none" stroke-width="3" class="stroke" />
  <text transform="matrix(1.4139905 0 0 1.4139905 -8952.519 5640.3039)" font-family="Tinos" font-size="26" xml:space="preserve" class="fill"><tspan x="9219.125 9232.125" y="-3667.7813" class="fill">u'</tspan></text>
  <text transform="matrix(1.4139905 0 0 1.4139905 -8952.519 5640.3039)" font-family="Tinos" font-size="18.05" xml:space="preserve" class="fill"><tspan x="9236.8129" y="-3662.6719" class="fill">t</tspan></text>
  <text transform="matrix(1.4139905 0 0 1.4139905 -8952.519 5640.3039)" font-family="Tinos" font-size="18.05" xml:space="preserve" class="fill"><tspan x="9241.828 9247.838 9256.861" y="-3676.2188" class="fill">(0)</tspan></text>
  <path transform="matrix(1.4139905,0,0,1.4139905,-8951.812,5641.0104)" d="m6841.5-3980h2397c1.987 0 3.975 0.0488 5.961 0.1464s3.969 0.2437 5.948 0.4386c1.98 0.195 3.952 0.4381 5.918 0.73 1.967 0.292 3.926 0.6317 5.876 1.0196 1.95 0.388 3.89 0.8234 5.818 1.3064 1.929 0.4832 3.845 1.0135 5.749 1.5906 1.902 0.5772 3.79 1.2007 5.662 1.8709 1.871 0.6699 3.725 1.3855 5.563 2.1465s3.655 1.5666 5.452 2.4165c1.798 0.8503 3.5739 1.7439 5.327 2.6811 1.753 0.9374 3.483 1.9174 5.189 2.9397 1.706 1.0222 3.386 2.0857 5.039 3.1904 1.652 1.1048 3.277 2.2493 4.875 3.4336 1.597 1.1844 3.164 2.4073 4.701 3.6687 1.536 1.2615 3.042 2.5601 4.516 3.8958 1.473 1.3352 2.913 2.7058 4.319 4.1118 1.407 1.406 2.778 2.8457 4.113 4.3191s2.634 2.9785 3.895 4.5154c1.261 1.5371 2.484 3.1042 3.669 4.7014 1.184 1.5972 2.328 3.2225 3.432 4.8757 1.105 1.6536 2.168 3.333 3.191 5.0386 1.022 1.7053 2.003 3.4348 2.94 5.1885s1.83 3.5293 2.681 5.3269 1.655 3.6148 2.416 5.4519 1.477 3.6916 2.146 5.5639c0.669 1.8724 1.293 3.76 1.872 5.6624 0.577 1.9031 1.106 3.8188 1.589 5.7478 0.484 1.929 0.919 3.8684 1.307 5.8186 0.388 1.9504 0.727 3.9089 1.019 5.8757s0.536 3.9395 0.731 5.9182c0.195 1.9791 0.342 3.9615 0.44 5.9476 0.097 1.986 0.146 3.9733 0.146 5.9617v567c0 1.9885-0.049 3.9755-0.146 5.9616-0.098 1.9861-0.245 3.9687-0.44 5.9475-0.195 1.979-0.439 3.9519-0.731 5.919-0.292 1.967-0.631 3.9255-1.019 5.8757s-0.823 3.8896-1.307 5.8183c-0.483 1.929-1.012 3.845-1.589 5.7476-0.579 1.9031-1.203 3.7905-1.872 5.6628-0.669 1.8725-1.385 3.7271-2.146 5.564s-1.565 3.6545-2.416 5.4519c-0.851 1.7971-1.744 3.5728-2.681 5.3266-0.937 1.7535-1.917 3.483-2.939 5.1888-1.023 1.7056-2.087 3.385-3.192 5.0383-1.104 1.6533-2.248 3.2786-3.432 4.8755-1.185 1.5972-2.408 3.1644-3.669 4.7014-1.261 1.5371-2.56 3.0425-3.895 4.516-1.335 1.4733-2.706 2.9127-4.113 4.3187-1.406 1.4061-2.846 2.7769-4.319 4.1123-1.474 1.335-2.979 2.6334-4.515 3.895-1.538 1.2613-3.105 2.4844-4.702 3.669-1.598 1.1846-3.223 2.3291-4.875 3.434-1.653 1.1046-3.333 2.1681-5.038 3.1903-1.706 1.0222-3.436 2.0019-5.189 2.9392-1.754 0.9372-3.53 1.8313-5.328 2.6816-1.797 0.8501-3.614 1.6556-5.452 2.4165-1.838 0.761-3.692 1.4764-5.563 2.146-1.872 0.6697-3.76 1.2934-5.662 1.8704-1.904 0.5774-3.82 1.1077-5.749 1.5906-1.928 0.4834-3.868 0.9189-5.818 1.3069-1.95 0.3879-3.909 0.7277-5.876 1.0195-1.966 0.2917-3.938 0.535-5.918 0.7297-1.979 0.1951-3.962 0.3416-5.948 0.439s-3.974 0.1463-5.961 0.1463h-2397c-1.989 0-3.976-0.0489-5.962-0.1463-1.9856-0.0974-3.968-0.2437-5.9465-0.4387-1.979-0.195-3.9525-0.4385-5.9195-0.7303-1.967-0.2917-3.9252-0.6313-5.876-1.0192-1.951-0.388-3.89-0.8235-5.8183-1.3069-1.9292-0.4829-3.8447-1.0132-5.7477-1.5906-1.903-0.577-3.7904-1.2007-5.6624-1.8704-1.8726-0.6696-3.7271-1.385-5.5646-2.146-1.8373-0.7609-3.6542-1.5664-5.4515-2.4166-1.7975-0.8505-3.5728-1.7443-5.3265-2.6818-1.754-0.9372-3.4831-1.9169-5.189-2.9389-1.7052-1.0222-3.385-2.0857-5.0382-3.1903-1.6538-1.1049-3.2789-2.2494-4.876-3.4342-1.5968-1.1844-3.1638-2.4075-4.7008-3.6688-1.537-1.2616-3.0424-2.5597-4.5155-3.8949-1.4735-1.3355-2.9135-2.7063-4.3189-4.1124-1.4057-1.406-2.7768-2.8454-4.1126-4.3187-1.3351-1.4735-2.6335-2.9789-3.895-4.516-1.2614-1.537-2.485-3.1042-3.669-4.7014-1.185-1.5972-2.3292-3.2224-3.4342-4.8756-1.1048-1.6534-2.1678-3.3329-3.1898-5.0384-1.0221-1.7056-2.0021-3.4354-2.9391-5.189-0.9379-1.7536-1.8319-3.5291-2.6819-5.3264-0.8504-1.7976-1.656-3.6148-2.417-5.4519-0.761-1.8369-1.4763-3.6913-2.147-5.5638-0.6692-1.8723-1.293-3.7597-1.8694-5.6628-0.5776-1.9026-1.1079-3.8184-1.5908-5.7473-0.4829-1.929-0.9188-3.8684-1.3061-5.8186-0.3882-1.9502-0.7281-3.9087-1.0197-5.8757-0.2914-1.9671-0.5345-3.94-0.7294-5.919-0.1956-1.9788-0.3418-3.9614-0.4389-5.9475-0.0982-1.9861-0.147-3.9731-0.1467-5.9616v-567c-3e-4 -1.9884 0.0485-3.9757 0.146-5.9617 0.0978-1.9861 0.244-3.9685 0.439-5.9476 0.195-1.9787 0.438-3.9514 0.73-5.9184 0.2916-1.9668 0.6315-3.9253 1.0197-5.8757 0.3873-1.9502 0.8232-3.8896 1.3063-5.8186 0.483-1.9288 1.013-3.8445 1.5906-5.7476 0.5764-1.9024 1.2002-3.79 1.8702-5.6624 0.6699-1.8718 1.3852-3.7265 2.1462-5.5637 0.761-1.8371 1.5666-3.6545 2.417-5.4519 0.85-1.7974 1.7439-3.5734 2.681-5.3271 0.937-1.7537 1.917-3.4832 2.939-5.1888 1.0228-1.7053 2.086-3.3847 3.1908-5.038 1.105-1.6534 2.2492-3.2785 3.4342-4.8758 1.184-1.5967 2.4076-3.164 3.669-4.7014 1.2615-1.5371 2.5599-3.0422 3.895-4.5156 1.3358-1.4734 2.7069-2.9131 4.1126-4.3191 1.4054-1.406 2.8454-2.7766 4.3194-4.1121 1.473-1.3354 2.978-2.634 4.5156-3.8955 1.5364-1.2614 3.1034-2.4843 4.7004-3.6687 1.597-1.1843 3.222-2.3288 4.876-3.4336 1.6536-1.1047 3.3328-2.1682 5.038-3.1904 1.7059-1.0223 3.4359-2.0023 5.189-2.9397 1.7537-0.9372 3.5286-1.8308 5.326-2.6811 1.797-0.8499 3.6147-1.6555 5.452-2.4165 1.8375-0.761 3.692-1.4766 5.5646-2.1465 1.872-0.67 3.7594-1.2935 5.6624-1.8705 1.903-0.5775 3.8185-1.1076 5.7477-1.5907 1.9283-0.4832 3.8673-0.9187 5.8183-1.3067 1.9508-0.3879 3.909-0.7276 5.8766-1.0196 1.9672-0.2919 3.9399-0.5353 5.9189-0.7304 1.9785-0.1945 3.9609-0.3406 5.9465-0.4382 1.986-0.0976 3.973-0.1464 5.962-0.1464z" fill="none" stroke-width="3" class="stroke" />
  <text transform="matrix(1.4139905 0 0 1.4139905 -8952.519 5640.3039)" font-family="Tinos" font-size="50" xml:space="preserve" class="fill"><tspan x="7770.5314 7803.8815 7839.9816 7876.0817 7906.6315 7923.2814 7956.6398 7969.1398 8005.2399 8035.7897 8048.2897 8081.6398 8112.1896 8145.5397 8176.0895 8203.89 8237.239 8273.339" y="-3926" class="fill">CADEIA DE RECEP&#199;&#195;O</tspan></text>
 </g>
</svg>