<svg xmlns="http://www.w3.org/2000/svg" width="1974.24" height="869.76" version="1.1" viewBox="0 0 1974.24 869.76">
 <style>
          .fill { fill: black; }
          .stroke { stroke: black; }
          @media (prefers-color-scheme: dark) {
            .fill { fill: white; }
            .stroke { stroke: white; }
          }
        </style><defs>
  <clipPath id="a">
   <path transform="scale(.48)" d="m78.125 31.25h3956.25v1750h-3956.25z" clip-rule="evenodd" />
  </clipPath>
 </defs>
 <g clip-path="url(#a)">
  <path transform="matrix(1.3838011,0,0,1.3838011,-4057.0435,7104.3298)" d="m3203.26-5060h79.74v169.8l67.27-0.04" fill="none" stroke-miterlimit="10" stroke-width="3" class="stroke" />
  <path transform="matrix(1.3838011,0,0,1.3838011,-4057.0435,7104.3298)" d="m3359.27-4890.25-9 3.01-0.01-6 9.01 2.99z" />
  <path transform="matrix(1.3838011,0,0,1.3838011,-4057.0435,7104.3298)" d="m3359.27-4890.25-9 3.01-0.01-6 9.01 2.99z" fill="none" stroke-miterlimit="10" stroke-width="3" class="stroke" />
  <path transform="matrix(1.3838011,0,0,1.3838011,-4057.0435,7104.3298)" d="m2962.01-5120h241.25v120h-241.25z" fill="none" stroke-width="3" class="stroke" />
  <text transform="matrix(1.3838011 0 0 1.3838011 -4057.735 7103.6379)" font-family="Tinos" font-size="26" xml:space="preserve" class="fill"><tspan x="2974.1563 2990.0423 3007.3843 3026.1563 3044.9283 3059.3843 3082.4984 3091.1563 3107.0423 3122.9283 3138.8143 3156.1563 3162.6563 3171.3143 3177.8143" y="-5051" class="fill">TRANSMITTER - 1</tspan></text>
  <path transform="matrix(1.3838011,0,0,1.3838011,-4057.0435,7104.3298)" d="m3203.25-4860.25h147.02" fill="none" stroke-miterlimit="10" stroke-width="3" class="stroke" />
  <path transform="matrix(1.3838011,0,0,1.3838011,-4057.0435,7104.3298)" d="m3359.27-4860.25-9 3v-6l9 3z" />
  <path transform="matrix(1.3838011,0,0,1.3838011,-4057.0435,7104.3298)" d="m3359.27-4860.25-9 3v-6l9 3z" fill="none" stroke-miterlimit="10" stroke-width="3" class="stroke" />
  <path transform="matrix(1.3838011,0,0,1.3838011,-4057.0435,7104.3298)" d="m2962-4920.25h241.25v120h-241.25z" fill="none" stroke-width="3" class="stroke" />
  <text transform="matrix(1.3838011 0 0 1.3838011 -4057.735 7103.6379)" font-family="Tinos" font-size="26" xml:space="preserve" class="fill"><tspan x="2974.1563 2990.0423 3007.3843 3026.1563 3044.9283 3059.3843 3082.4984 3091.1563 3107.0423 3122.9283 3138.8143 3156.1563 3162.6563 3171.3143 3177.8143" y="-4851" class="fill">TRANSMITTER - 2</tspan></text>
  <path transform="matrix(1.3838011,0,0,1.3838011,-4057.0435,7104.3298)" d="m3203.26-4660h79.74v-170.2l67.27-0.04" fill="none" stroke-miterlimit="10" stroke-width="3" class="stroke" />
  <path transform="matrix(1.3838011,0,0,1.3838011,-4057.0435,7104.3298)" d="m3359.27-4830.25-9 3.01-0.01-6 9.01 2.99z" />
  <path transform="matrix(1.3838011,0,0,1.3838011,-4057.0435,7104.3298)" d="m3359.27-4830.25-9 3.01-0.01-6 9.01 2.99z" fill="none" stroke-miterlimit="10" stroke-width="3" class="stroke" />
  <path transform="matrix(1.3838011,0,0,1.3838011,-4057.0435,7104.3298)" d="m2962.01-4720h241.25v120h-241.25z" fill="none" stroke-width="3" class="stroke" />
  <text transform="matrix(1.3838011 0 0 1.3838011 -4057.735 7103.6379)" font-family="Tinos" font-size="26" xml:space="preserve" class="fill"><tspan x="2974.1563 2990.0423 3007.3843 3026.1563 3044.9283 3059.3843 3082.4984 3091.1563 3107.0423 3122.9283 3138.8143 3156.1563 3162.6563 3171.3143 3177.8143" y="-4651" class="fill">TRANSMITTER - n</tspan></text>
  <path transform="matrix(1.3838011,0,0,1.3838011,-4057.0435,7104.3298)" d="m3603.87-4860.25h110.41" fill="none" stroke-miterlimit="10" stroke-width="3" class="stroke" />
  <path transform="matrix(1.3838011,0,0,1.3838011,-4057.0435,7104.3298)" d="m3723.28-4860.25-9 3v-6l9 3z" />
  <path transform="matrix(1.3838011,0,0,1.3838011,-4057.0435,7104.3298)" d="m3723.28-4860.25-9 3v-6l9 3z" fill="none" stroke-miterlimit="10" stroke-width="3" class="stroke" />
  <path transform="matrix(1.3838011,0,0,1.3838011,-4057.0435,7104.3298)" d="m3362.62-4920.25h241.25v120h-241.25z" fill="none" stroke-width="3" class="stroke" />
  <text transform="matrix(1.3838011 0 0 1.3838011 -4057.735 7103.6379)" font-family="Tinos" font-size="26" xml:space="preserve" class="fill"><tspan x="3421.3907 3438.7327 3457.5047 3476.2767 3495.0487 3513.8206 3529.7066" y="-4851" class="fill">CHANNEL</tspan></text>
  <path transform="matrix(1.3838011,0,0,1.3838011,-4057.0435,7104.3298)" d="m3483.24-4640v-147.9" fill="none" stroke-miterlimit="10" stroke-width="3" class="stroke" />
  <path transform="matrix(1.3838011,0,0,1.3838011,-4057.0435,7104.3298)" d="m3483.24-4796.9 3 9h-6l3-9z" />
  <path transform="matrix(1.3838011,0,0,1.3838011,-4057.0435,7104.3298)" d="m3483.24-4796.9 3 9h-6l3-9z" fill="none" stroke-miterlimit="10" stroke-width="3" class="stroke" />
  <path transform="matrix(1.3838011,0,0,1.3838011,-4057.0435,7104.3298)" d="m3362.62-4640h241.25v120h-241.25z" fill="none" stroke-width="3" class="stroke" />
  <text transform="matrix(1.3838011 0 0 1.3838011 -4057.735 7103.6379)" font-family="Tinos" font-size="26" xml:space="preserve" class="fill"><tspan x="3445.2188 3463.9908 3482.7628 3491.4207 3505.8768" y="-4587" class="fill">NOISE</tspan></text>
  <text transform="matrix(1.3838011 0 0 1.3838011 -4057.735 7103.6379)" font-family="Tinos" font-size="26" xml:space="preserve" class="fill"><tspan x="3406.9376 3415.5955 3430.0516 3448.8236 3466.1656 3472.6656 3479.8936 3486.3936 3502.2796 3519.6217 3538.3936 3551.3936" y="-4555" class="fill">(SNR / EBN0)</tspan></text>
  <path transform="matrix(1.3838011,0,0,1.3838011,-4057.0435,7104.3298)" d="m3967.88-4890.25 59.52 0.05 47 0.16" fill="none" stroke-miterlimit="10" stroke-width="3" class="stroke" />
  <path transform="matrix(1.3838011,0,0,1.3838011,-4057.0435,7104.3298)" d="m4083.4-4890.01-9.01 2.97 0.02-6 8.99 3.03z" />
  <path transform="matrix(1.3838011,0,0,1.3838011,-4057.0435,7104.3298)" d="m4083.4-4890.01-9.01 2.97 0.02-6 8.99 3.03z" fill="none" stroke-miterlimit="10" stroke-width="3" class="stroke" />
  <path transform="matrix(1.3838011,0,0,1.3838011,-4057.0435,7104.3298)" d="m3967.88-4830.25 59.52 0.05 47 0.16" fill="none" stroke-miterlimit="10" stroke-width="3" class="stroke" />
  <path transform="matrix(1.3838011,0,0,1.3838011,-4057.0435,7104.3298)" d="m4083.4-4830.01-9.01 2.97 0.02-6 8.99 3.03z" />
  <path transform="matrix(1.3838011,0,0,1.3838011,-4057.0435,7104.3298)" d="m4083.4-4830.01-9.01 2.97 0.02-6 8.99 3.03z" fill="none" stroke-miterlimit="10" stroke-width="3" class="stroke" />
  <path transform="matrix(1.3838011,0,0,1.3838011,-4057.0435,7104.3298)" d="m3726.63-4920.25h241.25v120h-241.25z" fill="none" stroke-width="3" class="stroke" />
  <text transform="matrix(1.3838011 0 0 1.3838011 -4057.735 7103.6379)" font-family="Tinos" font-size="26" xml:space="preserve" class="fill"><tspan x="3791.1563 3808.4984 3827.2703 3844.6124 3861.9544 3870.6124 3886.4984" y="-4867" class="fill">CARRIER</tspan></text>
  <text transform="matrix(1.3838011 0 0 1.3838011 -4057.735 7103.6379)" font-family="Tinos" font-size="26" xml:space="preserve" class="fill"><tspan x="3779.8438 3798.6158 3814.5018 3830.3878 3846.2738 3863.6158 3879.0196 3897.7916" y="-4835" class="fill">DETECTOR</tspan></text>
  <path transform="matrix(1.3838011,0,0,1.3838011,-4057.0435,7104.3298)" d="m4086.75-4920h241.25v120h-241.25z" fill="none" stroke-width="3" class="stroke" />
  <text transform="matrix(1.3838011 0 0 1.3838011 -4057.735 7103.6379)" font-family="Tinos" font-size="26" xml:space="preserve" class="fill"><tspan x="4132.75 4150.092 4165.978 4183.32 4199.206 4213.662 4229.5485 4238.2067 4256.9787" y="-4867" class="fill">RECEPTION</tspan></text>
  <text transform="matrix(1.3838011 0 0 1.3838011 -4057.735 7103.6379)" font-family="Tinos" font-size="26" xml:space="preserve" class="fill"><tspan x="4275.7507" y="-4867" class="fill"> </tspan></text>
  <text transform="matrix(1.3838011 0 0 1.3838011 -4057.735 7103.6379)" font-family="Tinos" font-size="26" xml:space="preserve" class="fill"><tspan x="4166.328 4183.67 4202.442 4221.214 4229.872" y="-4835" class="fill">CHAIN</tspan></text>
  <text transform="matrix(1.3838011 0 0 1.3838011 -4057.735 7103.6379)" font-family="Tinos" font-size="26" xml:space="preserve" class="fill"><tspan x="3215.75" y="-5079" class="fill">s</tspan></text>
  <text transform="matrix(1.3838011 0 0 1.3838011 -4057.735 7103.6379)" font-family="Tinos" font-size="21.66" xml:space="preserve" class="fill"><tspan x="3225.875" y="-5072.8127" class="fill">1</tspan></text>
  <text transform="matrix(1.3838011 0 0 1.3838011 -4057.735 7103.6379)" font-family="Tinos" font-size="26" xml:space="preserve" class="fill"><tspan x="3236.7032 3245.361 3252.589" y="-5079" class="fill">(t)</tspan></text>
  <text transform="matrix(1.3838011 0 0 1.3838011 -4057.735 7103.6379)" font-family="Tinos" font-size="26" xml:space="preserve" class="fill"><tspan x="3215.75" y="-4875" class="fill">s</tspan></text>
  <text transform="matrix(1.3838011 0 0 1.3838011 -4057.735 7103.6379)" font-family="Tinos" font-size="21.66" xml:space="preserve" class="fill"><tspan x="3225.875" y="-4868.8127" class="fill">2</tspan></text>
  <text transform="matrix(1.3838011 0 0 1.3838011 -4057.735 7103.6379)" font-family="Tinos" font-size="26" xml:space="preserve" class="fill"><tspan x="3236.7032 3245.361 3252.589" y="-4875" class="fill">(t)</tspan></text>
  <text transform="matrix(1.3838011 0 0 1.3838011 -4057.735 7103.6379)" font-family="Tinos" font-size="26" xml:space="preserve" class="fill"><tspan x="3215.75" y="-4671" class="fill">s</tspan></text>
  <text transform="matrix(1.3838011 0 0 1.3838011 -4057.735 7103.6379)" font-family="Tinos" font-size="21.66" xml:space="preserve" class="fill"><tspan x="3225.875" y="-4664.8127" class="fill">n</tspan></text>
  <text transform="matrix(1.3838011 0 0 1.3838011 -4057.735 7103.6379)" font-family="Tinos" font-size="26" xml:space="preserve" class="fill"><tspan x="3236.7032 3245.361 3252.589" y="-4671" class="fill">(t)</tspan></text>
  <text transform="matrix(1.3838011 0 0 1.3838011 -4057.735 7103.6379)" font-family="Tinos" font-size="26" xml:space="preserve" class="fill"><tspan x="3502.8907 3511.5487 3520.2066 3527.4346" y="-4726" class="fill">r(t)</tspan></text>
  <text transform="matrix(1.3838011 0 0 1.3838011 -4057.735 7103.6379)" font-family="Tinos" font-size="26" xml:space="preserve" class="fill"><tspan x="3619.2344 3629.3485 3638.0064 3645.2344 3653.8924 3660.3924 3675.0565 3681.5565 3690.2144 3698.8724 3706.1004" y="-4876" class="fill">s(t) + r(t)</tspan></text>
  <text transform="matrix(1.3838011 0 0 1.3838011 -4057.735 7103.6379)" font-family="Tinos" font-size="26" xml:space="preserve" class="fill"><tspan x="4011.3282 4021.4422 4026.122 4034.78 4042.008" y="-4896" class="fill">s'(t)</tspan></text>
  <text transform="matrix(1.3838011 0 0 1.3838011 -4057.735 7103.6379)" font-family="Tinos" font-size="26" xml:space="preserve" class="fill"><tspan x="4006.2813 4014.9393 4026.4832 4031.163 4039.821 4047.049" y="-4803" class="fill">fc'(t)</tspan></text>
  <text transform="matrix(0 -1.3838011 1.3838011 0 6770.2736 4757.3337)" font-family="Tinos" font-size="26" xml:space="preserve" class="fill"><tspan x="3048.75 3055.25 3061.75 3068.25 3074.75" y="-4736" class="fill">.....</tspan></text>
 </g>
</svg>