<svg xmlns="http://www.w3.org/2000/svg" width="2322.24" height="1117.9199" version="1.1" viewBox="0 0 2322.24 1117.9199">
 <style>
          .fill { fill: black; }
          .stroke { stroke: black; }
          @media (prefers-color-scheme: dark) {
            .fill { fill: white; }
            .stroke { stroke: white; }
          }
        </style><defs>
  <clipPath id="a">
   <path transform="scale(.48)" d="M78.125 34.375H4762.5V2296.875H78.125Z" clip-rule="evenodd" />
  </clipPath>
 </defs>
 <g clip-path="url(#a)">
  <path transform="matrix(1.3918965,0,0,1.3918965,-4788.086,5375.4099)" d="m3760-3460 73 0.01" fill="none" stroke-miterlimit="10" stroke-width="3" class="stroke" />
  <path transform="matrix(1.3918965,0,0,1.3918965,-4788.086,5375.4099)" d="m3680-3520h80v120h-80z" fill="none" stroke-width="3" class="stroke" />
  <text transform="matrix(1.3918965 0 0 1.3918965 -4788.7819 5374.714)" font-family="Tinos" font-size="26" xml:space="preserve" class="fill"><tspan x="3703.0313" y="-3448" class="fill">Z</tspan></text>
  <text transform="matrix(1.3918965 0 0 1.3918965 -4788.7819 5374.714)" font-family="Tinos" font-size="21.66" xml:space="preserve" class="fill"><tspan x="3718.9219 3726.1336" y="-3457.6563" class="fill">-1</tspan></text>
  <path transform="matrix(1.3918965,0,0,1.3918965,-4788.086,5375.4099)" d="m3920-3520h80v120h-80z" fill="none" stroke-width="3" class="stroke" />
  <text transform="matrix(1.3918965 0 0 1.3918965 -4788.7819 5374.714)" font-family="Tinos" font-size="26" xml:space="preserve" class="fill"><tspan x="3943.0313" y="-3448" class="fill">Z</tspan></text>
  <text transform="matrix(1.3918965 0 0 1.3918965 -4788.7819 5374.714)" font-family="Tinos" font-size="21.66" xml:space="preserve" class="fill"><tspan x="3958.9219 3966.1336" y="-3457.6563" class="fill">-1</tspan></text>
  <path transform="matrix(1.3918965,0,0,1.3918965,-4788.086,5375.4099)" d="M3846.75-3459.99 3920-3460" fill="none" stroke-miterlimit="10" stroke-width="3" class="stroke" />
  <path transform="matrix(1.3918965,0,0,1.3918965,-4788.086,5375.4099)" d="m3846.755-3459.99c-3e-4 0.4514-0.0445 0.8986-0.1324 1.3415-0.0881 0.4429-0.2187 0.8728-0.3913 1.2898-0.1729 0.4172-0.3845 0.8135-0.6353 1.1887-0.2507 0.3753-0.536 0.7224-0.855 1.0415-0.3193 0.3195-0.6667 0.6045-1.042 0.8552-0.3752 0.2508-0.7714 0.4624-1.1884 0.635-0.417 0.1729-0.847 0.3033-1.2898 0.3913s-0.8898 0.132-1.3408 0.132c-0.4517 0-0.899-0.044-1.3416-0.1319-0.4429-0.0881-0.8728-0.2185-1.2898-0.3911-0.417-0.1729-0.8132-0.3845-1.1887-0.6353-0.3753-0.2507-0.7224-0.5357-1.0415-0.8552-0.3191-0.3191-0.6044-0.6665-0.8554-1.0417-0.251-0.3753-0.4627-0.7713-0.6353-1.1885-0.1729-0.417-0.3033-0.8469-0.3912-1.2901-0.0878-0.4426-0.1318-0.8898-0.1315-1.3412-3e-4 -0.4512 0.0437-0.8983 0.1318-1.3409s0.2185-0.8725 0.3911-1.2895 0.3845-0.8133 0.6351-1.189c0.251-0.3752 0.5363-0.7226 0.8554-1.0416 0.3191-0.3192 0.666-0.604 1.0412-0.8549 0.3753-0.2507 0.7714-0.4626 1.1888-0.6355 0.417-0.1728 0.8469-0.3034 1.2896-0.3916 0.443-0.088 0.8903-0.132 1.342-0.132 0.451 0 0.898 0.0441 1.341 0.1323 0.4426 0.0883 0.8726 0.219 1.2896 0.3917s0.8132 0.3844 1.1884 0.6351c0.3753 0.2509 0.7227 0.5357 1.042 0.8549 0.319 0.319 0.6043 0.6664 0.855 1.042 0.2508 0.3753 0.4624 0.7716 0.6353 1.1886 0.1726 0.417 0.303 0.8469 0.3911 1.2895s0.1323 0.8897 0.1326 1.3409z" fill="none" stroke-width="3" class="stroke" />
  <path transform="matrix(1.3918965,0,0,1.3918965,-4788.086,5375.4099)" d="m4e3 -3459.99 73 0.01" fill="none" stroke-miterlimit="10" stroke-width="3" class="stroke" />
  <path transform="matrix(1.3918965,0,0,1.3918965,-4788.086,5375.4099)" d="m4160-3519.99h80v120h-80z" fill="none" stroke-width="3" class="stroke" />
  <text transform="matrix(1.3918965 0 0 1.3918965 -4788.7819 5374.714)" font-family="Tinos" font-size="26" xml:space="preserve" class="fill"><tspan x="4183.0314" y="-3448" class="fill">Z</tspan></text>
  <text transform="matrix(1.3918965 0 0 1.3918965 -4788.7819 5374.714)" font-family="Tinos" font-size="21.66" xml:space="preserve" class="fill"><tspan x="4198.922 4206.134" y="-3457.6563" class="fill">-1</tspan></text>
  <path transform="matrix(1.3918965,0,0,1.3918965,-4788.086,5375.4099)" d="m4086.75-3459.98 73.25-0.01" fill="none" stroke-miterlimit="10" stroke-width="3" class="stroke" />
  <path transform="matrix(1.3918965,0,0,1.3918965,-4788.086,5375.4099)" d="m4079.88-3466.86 0.12-153.14 80-72 119.23 0.26" fill="none" stroke-miterlimit="10" stroke-width="3" class="stroke" />
  <path transform="matrix(1.3918965,0,0,1.3918965,-4788.086,5375.4099)" d="m4288.23-3691.72-9.01 4.48 0.02-9 8.99 4.52z" />
  <path transform="matrix(1.3918965,0,0,1.3918965,-4788.086,5375.4099)" d="m4288.23-3691.72-9.01 4.48 0.02-9 8.99 4.52z" fill="none" stroke-miterlimit="10" stroke-width="3" class="stroke" />
  <path transform="matrix(1.3918965,0,0,1.3918965,-4788.086,5375.4099)" d="m4079.88-3453.11 0.12 153.11 80 72 119.23-0.26" fill="none" stroke-miterlimit="10" stroke-width="3" class="stroke" />
  <path transform="matrix(1.3918965,0,0,1.3918965,-4788.086,5375.4099)" d="m4288.23-3228.28-8.99 4.52-0.02-9 9.01 4.48z" />
  <path transform="matrix(1.3918965,0,0,1.3918965,-4788.086,5375.4099)" d="m4288.23-3228.28-8.99 4.52-0.02-9 9.01 4.48z" fill="none" stroke-miterlimit="10" stroke-width="3" class="stroke" />
  <path transform="matrix(1.3918965,0,0,1.3918965,-4788.086,5375.4099)" d="m4086.755-3459.98c-3e-4 0.4516-0.0442 0.899-0.1324 1.3415-0.0881 0.4426-0.2187 0.8726-0.3913 1.2896-0.1726 0.4172-0.3845 0.8134-0.6353 1.1887-0.2507 0.3752-0.536 0.7224-0.855 1.0415-0.3193 0.3191-0.6667 0.6042-1.0422 0.855-0.3752 0.2509-0.7715 0.4628-1.1885 0.6355-0.4173 0.1726-0.8469 0.3029-1.2895 0.3912-0.4428 0.088-0.8894 0.132-1.3408 0.132-0.4517 0-0.899-0.044-1.3416-0.132-0.4429-0.0883-0.8728-0.2186-1.2898-0.3912-0.417-0.1727-0.8132-0.3846-1.1886-0.6353-0.3751-0.251-0.7225-0.5361-1.0416-0.8552s-0.6044-0.6663-0.855-1.0415c-0.251-0.3753-0.4629-0.7715-0.6355-1.1887-0.1726-0.417-0.303-0.847-0.3911-1.2896-0.0879-0.4425-0.1318-0.8899-0.1318-1.3415 0-0.4515 0.0439-0.8985 0.132-1.341 0.0879-0.4427 0.2183-0.8727 0.3909-1.2899 0.1726-0.4168 0.3845-0.813 0.6351-1.1885 0.251-0.3752 0.5363-0.7224 0.8554-1.042 0.3191-0.3191 0.6665-0.604 1.0416-0.8546 0.3754-0.2508 0.7716-0.4628 1.1886-0.6356 0.417-0.1726 0.8469-0.3032 1.2894-0.3914 0.443-0.088 0.8903-0.132 1.342-0.132 0.4514 0 0.898 0.044 1.3405 0.132 0.4425 0.0882 0.8725 0.2188 1.2898 0.3914 0.417 0.1728 0.8133 0.3848 1.1887 0.6356 0.3753 0.2506 0.7227 0.5355 1.042 0.8546 0.319 0.3196 0.6043 0.6668 0.855 1.042 0.2508 0.3755 0.4624 0.7717 0.635 1.1885 0.1729 0.4172 0.3033 0.8472 0.3914 1.2899 0.0881 0.4425 0.1323 0.8895 0.1326 1.341z" fill="none" stroke-width="3" class="stroke" />
  <path transform="matrix(1.3918965,0,0,1.3918965,-4788.086,5375.4099)" d="m4240-3460 73 0.01" fill="none" stroke-miterlimit="10" stroke-width="3" class="stroke" />
  <path transform="matrix(1.3918965,0,0,1.3918965,-4788.086,5375.4099)" d="m4400-3520h80v120h-80z" fill="none" stroke-width="3" class="stroke" />
  <text transform="matrix(1.3918965 0 0 1.3918965 -4788.7819 5374.714)" font-family="Tinos" font-size="26" xml:space="preserve" class="fill"><tspan x="4423.0314" y="-3448" class="fill">Z</tspan></text>
  <text transform="matrix(1.3918965 0 0 1.3918965 -4788.7819 5374.714)" font-family="Tinos" font-size="21.66" xml:space="preserve" class="fill"><tspan x="4438.922 4446.134" y="-3457.6563" class="fill">-1</tspan></text>
  <path transform="matrix(1.3918965,0,0,1.3918965,-4788.086,5375.4099)" d="M4326.75-3459.99 4400-3460" fill="none" stroke-miterlimit="10" stroke-width="3" class="stroke" />
  <path transform="matrix(1.3918965,0,0,1.3918965,-4788.086,5375.4099)" d="m4319.88-3453.12-0.01 200.77" fill="none" stroke-miterlimit="10" stroke-width="3" class="stroke" />
  <path transform="matrix(1.3918965,0,0,1.3918965,-4788.086,5375.4099)" d="m4319.87-3243.35-3-9h6l-3 9z" />
  <path transform="matrix(1.3918965,0,0,1.3918965,-4788.086,5375.4099)" d="m4319.87-3243.35-3-9h6l-3 9z" fill="none" stroke-miterlimit="10" stroke-width="3" class="stroke" />
  <path transform="matrix(1.3918965,0,0,1.3918965,-4788.086,5375.4099)" d="m4326.755-3459.99c-4e-4 0.4514-0.045 0.8986-0.133 1.3415-0.0881 0.4429-0.218 0.8728-0.3904 1.2898-0.1728 0.4172-0.3847 0.8135-0.6357 1.1887-0.2509 0.3753-0.5359 0.7224-0.8549 1.0415-0.3194 0.3195-0.667 0.6045-1.0421 0.8552-0.3759 0.2508-0.7715 0.4624-1.188 0.635-0.417 0.1729-0.8471 0.3033-1.29 0.3913-0.4424 0.088-0.8892 0.132-1.3409 0.132-0.452 0-0.899-0.044-1.342-0.1319-0.443-0.0881-0.8723-0.2185-1.29-0.3911-0.417-0.1729-0.813-0.3845-1.1882-0.6353-0.3758-0.2507-0.7228-0.5357-1.0418-0.8552-0.3191-0.3191-0.6042-0.6665-0.855-1.0417-0.251-0.3753-0.463-0.7713-0.6355-1.1885-0.1728-0.417-0.3035-0.8469-0.3906-1.2901-0.0879-0.4426-0.1319-0.8898-0.1319-1.3412 0-0.4512 0.044-0.8983 0.1319-1.3409 0.0871-0.4426 0.2178-0.8725 0.3906-1.2895 0.1725-0.417 0.3845-0.8133 0.6355-1.189 0.2508-0.3752 0.5359-0.7226 0.855-1.0416 0.319-0.3192 0.666-0.604 1.0418-0.8549 0.3752-0.2507 0.7712-0.4626 1.1889-0.6355 0.417-0.1728 0.8472-0.3034 1.2901-0.3916 0.4422-0.088 0.8892-0.132 1.3412-0.132 0.4517 0 0.8985 0.0441 1.3409 0.1323 0.4429 0.0883 0.873 0.219 1.29 0.3917 0.4165 0.1727 0.8121 0.3844 1.188 0.6351 0.3751 0.2509 0.7227 0.5357 1.0421 0.8549 0.319 0.319 0.604 0.6664 0.8549 1.042 0.251 0.3753 0.4629 0.7716 0.6357 1.1886 0.1724 0.417 0.3023 0.8469 0.3904 1.2895 0.088 0.4426 0.1326 0.8897 0.133 1.3409z" fill="none" stroke-width="3" class="stroke" />
  <path transform="matrix(1.3918965,0,0,1.3918965,-4788.086,5375.4099)" d="m4480-3460 73 0.01" fill="none" stroke-miterlimit="10" stroke-width="3" class="stroke" />
  <path transform="matrix(1.3918965,0,0,1.3918965,-4788.086,5375.4099)" d="m4640-3520h80v120h-80z" fill="none" stroke-width="3" class="stroke" />
  <text transform="matrix(1.3918965 0 0 1.3918965 -4788.7819 5374.714)" font-family="Tinos" font-size="26" xml:space="preserve" class="fill"><tspan x="4663.0314" y="-3448" class="fill">Z</tspan></text>
  <text transform="matrix(1.3918965 0 0 1.3918965 -4788.7819 5374.714)" font-family="Tinos" font-size="21.66" xml:space="preserve" class="fill"><tspan x="4678.922 4686.134" y="-3457.6563" class="fill">-1</tspan></text>
  <path transform="matrix(1.3918965,0,0,1.3918965,-4788.086,5375.4099)" d="M4566.75-3459.99 4640-3460" fill="none" stroke-miterlimit="10" stroke-width="3" class="stroke" />
  <path transform="matrix(1.3918965,0,0,1.3918965,-4788.086,5375.4099)" d="m4566.755-3459.99c6e-4 0.4514-0.044 0.8986-0.1322 1.3415-0.0879 0.4429-0.2183 0.8728-0.3918 1.2898-0.173 0.4172-0.385 0.8135-0.6351 1.1887-0.251 0.3753-0.5361 0.7224-0.855 1.0415-0.3193 0.3195-0.6669 0.6045-1.042 0.8552-0.3759 0.2508-0.7719 0.4624-1.1885 0.635-0.4169 0.1729-0.8466 0.3033-1.2895 0.3913-0.4424 0.088-0.8892 0.132-1.3409 0.132-0.452 0-0.8984-0.044-1.3412-0.1319-0.4429-0.0881-0.8731-0.2185-1.2901-0.3911-0.4177-0.1729-0.8137-0.3845-1.1889-0.6353-0.3758-0.2507-0.7228-0.5357-1.0418-0.8552-0.3191-0.3191-0.6042-0.6665-0.8552-1.0417-0.2508-0.3753-0.4619-0.7713-0.6348-1.1885-0.1723-0.417-0.303-0.8469-0.391-1.2901-0.088-0.4426-0.132-0.8898-0.132-1.3412 0-0.4512 0.044-0.8983 0.132-1.3409s0.2187-0.8725 0.391-1.2895c0.1729-0.417 0.384-0.8133 0.6348-1.189 0.251-0.3752 0.5361-0.7226 0.8552-1.0416 0.319-0.3192 0.666-0.604 1.0418-0.8549 0.3752-0.2507 0.7712-0.4626 1.1889-0.6355 0.417-0.1728 0.8472-0.3034 1.2901-0.3916 0.4428-0.088 0.8892-0.132 1.3412-0.132 0.4517 0 0.8985 0.0441 1.3409 0.1323 0.4429 0.0883 0.8726 0.219 1.2895 0.3917 0.4166 0.1727 0.8126 0.3844 1.1885 0.6351 0.3751 0.2509 0.7227 0.5357 1.042 0.8549 0.3189 0.319 0.604 0.6664 0.855 1.042 0.2501 0.3753 0.4621 0.7716 0.6351 1.1886 0.1735 0.417 0.3039 0.8469 0.392 1.2895 0.0886 0.4426 0.1326 0.8897 0.132 1.3409z" fill="none" stroke-width="3" class="stroke" />
  <path transform="matrix(1.3918965,0,0,1.3918965,-4788.086,5375.4099)" d="M3606.75-3459.99 3680-3460" fill="none" stroke-miterlimit="10" stroke-width="3" class="stroke" />
  <path transform="matrix(1.3918965,0,0,1.3918965,-4788.086,5375.4099)" d="m3599.88-3466.87 0.12-203.13 80-78 599.23-0.28" fill="none" stroke-miterlimit="10" stroke-width="3" class="stroke" />
  <path transform="matrix(1.3918965,0,0,1.3918965,-4788.086,5375.4099)" d="m4288.23-3748.28-9 4.5v-9l9 4.5z" />
  <path transform="matrix(1.3918965,0,0,1.3918965,-4788.086,5375.4099)" d="m4288.23-3748.28-9 4.5v-9l9 4.5z" fill="none" stroke-miterlimit="10" stroke-width="3" class="stroke" />
  <path transform="matrix(1.3918965,0,0,1.3918965,-4788.086,5375.4099)" d="m3599.88-3453.12 0.12 213.12 80 70 599.23-1.68" fill="none" stroke-miterlimit="10" stroke-width="3" class="stroke" />
  <path transform="matrix(1.3918965,0,0,1.3918965,-4788.086,5375.4099)" d="m4288.23-3171.71-8.99 4.53-0.02-9 9.01 4.47z" />
  <path transform="matrix(1.3918965,0,0,1.3918965,-4788.086,5375.4099)" d="m4288.23-3171.71-8.99 4.53-0.02-9 9.01 4.47z" fill="none" stroke-miterlimit="10" stroke-width="3" class="stroke" />
  <path transform="matrix(1.3918965,0,0,1.3918965,-4788.086,5375.4099)" d="m3606.755-3459.99c0 0.4514-0.0442 0.8986-0.1326 1.3415-0.0881 0.4429-0.2188 0.8728-0.3914 1.2898-0.1726 0.4172-0.3842 0.8135-0.635 1.1887-0.251 0.3753-0.536 0.7224-0.855 1.0415-0.3191 0.3195-0.6665 0.6045-1.0417 0.8552-0.3757 0.2508-0.772 0.4624-1.189 0.635-0.417 0.1729-0.8467 0.3033-1.2893 0.3913s-0.8896 0.132-1.341 0.132c-0.4515 0-0.8987-0.044-1.342-0.1319-0.4425-0.0881-0.8724-0.2185-1.2894-0.3911-0.4172-0.1729-0.8132-0.3845-1.1886-0.6353-0.3751-0.2507-0.7225-0.5357-1.0416-0.8552-0.3194-0.3191-0.6045-0.6665-0.8554-1.0417-0.2506-0.3753-0.4622-0.7713-0.6351-1.1885-0.1726-0.417-0.303-0.8469-0.3911-1.2901-0.0881-0.4426-0.1321-0.8898-0.1318-1.3412-3e-4 -0.4512 0.0437-0.8983 0.1318-1.3409s0.2185-0.8725 0.3911-1.2895c0.1729-0.417 0.3845-0.8133 0.6351-1.189 0.2509-0.3752 0.536-0.7226 0.8554-1.0416 0.3191-0.3192 0.6662-0.604 1.0415-0.8549 0.3751-0.2507 0.7715-0.4626 1.1887-0.6355 0.417-0.1728 0.8469-0.3034 1.2898-0.3916 0.4431-0.088 0.8901-0.132 1.3416-0.132 0.4514 0 0.898 0.0441 1.3408 0.1323 0.4426 0.0883 0.8725 0.219 1.2895 0.3917s0.8133 0.3844 1.1887 0.6351c0.3755 0.2509 0.7229 0.5357 1.042 0.8549 0.319 0.319 0.604 0.6664 0.8548 1.042 0.2507 0.3753 0.4626 0.7716 0.6352 1.1886s0.3033 0.8469 0.3916 1.2895c0.0882 0.4426 0.1324 0.8897 0.1324 1.3409z" fill="none" stroke-width="3" class="stroke" />
  <path transform="matrix(1.3918965,0,0,1.3918965,-4788.086,5375.4099)" d="m4720-3460 73 0.01" fill="none" stroke-miterlimit="10" stroke-width="3" class="stroke" />
  <path transform="matrix(1.3918965,0,0,1.3918965,-4788.086,5375.4099)" d="m4880-3520h80v120h-80z" fill="none" stroke-width="3" class="stroke" />
  <text transform="matrix(1.3918965 0 0 1.3918965 -4788.7819 5374.714)" font-family="Tinos" font-size="26" xml:space="preserve" class="fill"><tspan x="4903.0314" y="-3448" class="fill">Z</tspan></text>
  <text transform="matrix(1.3918965 0 0 1.3918965 -4788.7819 5374.714)" font-family="Tinos" font-size="21.66" xml:space="preserve" class="fill"><tspan x="4918.922 4926.134" y="-3457.6563" class="fill">-1</tspan></text>
  <path transform="matrix(1.3918965,0,0,1.3918965,-4788.086,5375.4099)" d="M4806.75-3459.99 4880-3460" fill="none" stroke-miterlimit="10" stroke-width="3" class="stroke" />
  <path transform="matrix(1.3918965,0,0,1.3918965,-4788.086,5375.4099)" d="m4799.88-3453.12 0.12 153.12-80 72-359.49-0.27" fill="none" stroke-miterlimit="10" stroke-width="3" class="stroke" />
  <path transform="matrix(1.3918965,0,0,1.3918965,-4788.086,5375.4099)" d="m4351.51-3228.28 9-4.49-0.01 9-8.99-4.51z" />
  <path transform="matrix(1.3918965,0,0,1.3918965,-4788.086,5375.4099)" d="m4351.51-3228.28 9-4.49-0.01 9-8.99-4.51z" fill="none" stroke-miterlimit="10" stroke-width="3" class="stroke" />
  <path transform="matrix(1.3918965,0,0,1.3918965,-4788.086,5375.4099)" d="m4806.755-3459.99c-4e-4 0.4514-0.0444 0.8986-0.133 1.3415-0.088 0.4429-0.218 0.8728-0.391 1.2898-0.1732 0.4172-0.385 0.8135-0.6351 1.1887-0.2509 0.3753-0.5359 0.7224-0.8549 1.0415-0.319 0.3195-0.6661 0.6045-1.042 0.8552-0.3751 0.2508-0.7716 0.4624-1.1886 0.635-0.4169 0.1729-0.8466 0.3033-1.2895 0.3913-0.4424 0.088-0.8892 0.132-1.3409 0.132-0.452 0-0.899-0.044-1.342-0.1319-0.443-0.0881-0.8723-0.2185-1.29-0.3911-0.4163-0.1729-0.813-0.3845-1.1882-0.6353-0.375-0.2507-0.7222-0.5357-1.0411-0.8552-0.3197-0.3191-0.6047-0.6665-0.8557-1.0417-0.2502-0.3753-0.4621-0.7713-0.6355-1.1885-0.1725-0.417-0.3027-0.8469-0.3915-1.2901-0.0875-0.4426-0.1314-0.8898-0.131-1.3412-4e-4 -0.4512 0.0435-0.8983 0.131-1.3409 0.0888-0.4426 0.219-0.8725 0.3915-1.2895 0.1734-0.417 0.3853-0.8133 0.6355-1.189 0.251-0.3752 0.536-0.7226 0.8557-1.0416 0.3189-0.3192 0.6661-0.604 1.0411-0.8549 0.3752-0.2507 0.7719-0.4626 1.1882-0.6355 0.4177-0.1728 0.847-0.3034 1.29-0.3916 0.443-0.088 0.89-0.132 1.342-0.132 0.4517 0 0.8985 0.0441 1.3409 0.1323 0.4429 0.0883 0.8726 0.219 1.2895 0.3917 0.417 0.1727 0.8126 0.3844 1.1885 0.6351 0.3751 0.2509 0.7231 0.5357 1.0421 0.8549 0.319 0.319 0.604 0.6664 0.8549 1.042 0.2501 0.3753 0.4619 0.7716 0.6351 1.1886 0.173 0.417 0.303 0.8469 0.391 1.2895 0.0886 0.4426 0.1326 0.8897 0.133 1.3409z" fill="none" stroke-width="3" class="stroke" />
  <path transform="matrix(1.3918965,0,0,1.3918965,-4788.086,5375.4099)" d="m4319.87-3158 0.13 38 40 39h673" fill="none" stroke-miterlimit="10" stroke-width="3" class="stroke" />
  <path transform="matrix(1.3918965,0,0,1.3918965,-4788.086,5375.4099)" d="m4359.87-3200c0 1.31-0.0641 2.617-0.1926 3.9206-0.1284 1.3039-0.3208 2.5984-0.5764 3.8834-0.2551 1.2848-0.573 2.554-0.9533 3.8075-0.3807 1.2537-0.8217 2.4856-1.3228 3.696-0.5019 1.2103-1.061 2.3931-1.6789 3.5486-0.617 1.1553-1.29 2.2776-2.018 3.3672-0.7274 1.0891-1.507 2.1402-2.338 3.1527-0.831 1.0126-1.71 1.9821-2.636 2.9086-0.9263 0.926-1.8955 1.8047-2.909 2.6357-1.012 0.8313-2.0632 1.6109-3.1525 2.3387-1.0889 0.7277-2.211 1.4004-3.3665 2.0178-1.155 0.6177-2.3381 1.1772-3.5486 1.6785-1.2099 0.5012-2.4419 0.9418-3.6958 1.322-1.2536 0.3803-2.5229 0.6985-3.8081 0.9541-1.2846 0.2553-2.5786 0.4472-3.8825 0.5757-1.3035 0.1284-2.611 0.1926-3.921 0.1929-1.31-3e-4 -2.6164-0.0645-3.9201-0.1929-1.3039-0.1285-2.5981-0.3204-3.8839-0.5757-1.2846-0.2556-2.554-0.5738-3.807-0.9541-1.2534-0.3802-2.486-0.8208-3.6963-1.322-1.21-0.5013-2.3927-1.0608-3.5487-1.6785-1.155-0.6174-2.2775-1.2901-3.367-2.0178-1.0892-0.7278-2.14-1.5074-3.153-2.3384-1.0124-0.8313-1.9821-1.71-2.9084-2.636-0.9266-0.9265-1.8046-1.896-2.6357-2.9086-0.8311-1.0128-1.6109-2.0638-2.3389-3.1529-0.7275-1.0894-1.4004-2.2117-2.018-3.3671-0.618-1.1556-1.177-2.3382-1.6783-3.5485-0.5017-1.2104-0.9418-2.4423-1.3222-3.696-0.3805-1.2535-0.6985-2.5227-0.9545-3.8075-0.255-1.285-0.4464-2.5795-0.575-3.8834-0.1282-1.3036-0.193-2.6106-0.193-3.9206 0-1.3104 0.0648-2.6173 0.193-3.9207 0.1286-1.3033 0.32-2.5977 0.575-3.8826 0.2557-1.2849 0.5736-2.5542 0.954-3.8077 0.38-1.2538 0.8208-2.4858 1.322-3.696 0.5017-1.21 1.061-2.393 1.679-3.5485 0.6176-1.1555 1.2905-2.2779 2.018-3.367 0.728-1.0893 1.5078-2.1404 2.3389-3.1531s1.7091-1.9821 2.6357-2.9084c0.9263-0.9265 1.896-1.805 2.9082-2.6362 1.0132-0.8308 2.064-1.6104 3.1532-2.3382 1.0895-0.7276 2.212-1.4006 3.367-2.018 1.156-0.6176 2.3387-1.1773 3.5487-1.6785 1.2103-0.5015 2.4429-0.9424 3.6963-1.323 1.253-0.3801 2.5224-0.6978 3.807-0.9534 1.2858-0.2556 2.58-0.4477 3.884-0.5761 1.3036-0.1285 2.61-0.1926 3.92-0.1926s2.6175 0.0641 3.921 0.1923c1.304 0.1287 2.598 0.3208 3.883 0.5764 1.2847 0.2556 2.554 0.5733 3.8076 0.9534 1.2539 0.3806 2.4859 0.8215 3.6958 1.323 1.2105 0.5012 2.3936 1.0609 3.5484 1.6785 1.1557 0.6174 2.2778 1.2904 3.3667 2.018 1.0893 0.7278 2.1405 1.5074 3.1533 2.3384 1.0127 0.831 1.9819 1.7095 2.9082 2.636 0.926 0.9263 1.805 1.8957 2.636 2.9084s1.6106 2.0638 2.338 3.1531c0.728 1.0891 1.401 2.2115 2.018 3.367 0.6179 1.1555 1.1769 2.3385 1.678 3.5485 0.5019 1.2102 0.9428 2.4422 1.323 3.696 0.3805 1.2535 0.6989 2.5228 0.954 3.8077 0.2556 1.2849 0.448 2.5793 0.5764 3.8826 0.1285 1.3034 0.1926 2.6103 0.1926 3.9207z" fill="none" stroke-width="3" class="stroke" />
  <text transform="matrix(1.3918965 0 0 1.3918965 -4788.7819 5374.714)" font-family="Tinos" font-size="50" xml:space="preserve" class="fill"><tspan x="4305.8908" y="-3182" class="fill">+</tspan></text>
  <path transform="matrix(1.3918965,0,0,1.3918965,-4788.086,5375.4099)" d="m4960-3460 73 0.01" fill="none" stroke-miterlimit="10" stroke-width="3" class="stroke" />
  <path transform="matrix(1.3918965,0,0,1.3918965,-4788.086,5375.4099)" d="m5039.88-3453.12 0.12 213.12-80 70-599.49-1.68" fill="none" stroke-miterlimit="10" stroke-width="3" class="stroke" />
  <path transform="matrix(1.3918965,0,0,1.3918965,-4788.086,5375.4099)" d="m4351.51-3171.71 9.01-4.47-0.02 9-8.99-4.53z" />
  <path transform="matrix(1.3918965,0,0,1.3918965,-4788.086,5375.4099)" d="m4351.51-3171.71 9.01-4.47-0.02 9-8.99-4.53z" fill="none" stroke-miterlimit="10" stroke-width="3" class="stroke" />
  <path transform="matrix(1.3918965,0,0,1.3918965,-4788.086,5375.4099)" d="m5039.88-3466.87 0.12-173.13-80-80h-587.78" fill="none" stroke-miterlimit="10" stroke-width="3" class="stroke" />
  <path transform="matrix(1.3918965,0,0,1.3918965,-4788.086,5375.4099)" d="m4363.22-3720 9-4.5v9l-9-4.5z" />
  <path transform="matrix(1.3918965,0,0,1.3918965,-4788.086,5375.4099)" d="m4363.22-3720 9-4.5v9l-9-4.5z" fill="none" stroke-miterlimit="10" stroke-width="3" class="stroke" />
  <path transform="matrix(1.3918965,0,0,1.3918965,-4788.086,5375.4099)" d="m5046.755-3459.99c-4e-4 0.4514-0.0444 0.8986-0.133 1.3415-0.088 0.4429-0.218 0.8728-0.3904 1.2898-0.1726 0.4172-0.3846 0.8135-0.6357 1.1887-0.2509 0.3753-0.5352 0.7224-0.8549 1.0415-0.319 0.3195-0.6661 0.6045-1.042 0.8552-0.3751 0.2508-0.7711 0.4624-1.1881 0.635-0.4174 0.1729-0.8471 0.3033-1.29 0.3913s-0.8899 0.132-1.3409 0.132c-0.452 0-0.899-0.044-1.342-0.1319-0.443-0.0881-0.8723-0.2185-1.2893-0.3911-0.417-0.1729-0.813-0.3845-1.1887-0.6353-0.3752-0.2507-0.7224-0.5357-1.0413-0.8552-0.3197-0.3191-0.6047-0.6665-0.8557-1.0417-0.2502-0.3753-0.4621-0.7713-0.635-1.1885-0.173-0.417-0.3032-0.8469-0.392-1.2901-0.087-0.4426-0.131-0.8898-0.131-1.3412 0-0.4512 0.044-0.8983 0.1319-1.3409s0.2181-0.8725 0.3911-1.2895c0.1729-0.417 0.384-0.8133 0.6348-1.189 0.2512-0.3752 0.5362-0.7226 0.8559-1.0416 0.3189-0.3192 0.6661-0.604 1.0413-0.8549 0.3757-0.2507 0.7717-0.4626 1.1887-0.6355 0.417-0.1728 0.8463-0.3034 1.2891-0.3916 0.4432-0.088 0.8902-0.132 1.3422-0.132 0.451 0 0.898 0.0441 1.3409 0.1323 0.4429 0.0883 0.8726 0.219 1.29 0.3917 0.417 0.1727 0.813 0.3844 1.1881 0.6351 0.3759 0.2509 0.723 0.5357 1.042 0.8549 0.3197 0.319 0.604 0.6664 0.8549 1.042 0.2511 0.3753 0.4631 0.7716 0.6357 1.1886 0.1724 0.417 0.3024 0.8469 0.3904 1.2895 0.0886 0.4426 0.1326 0.8897 0.133 1.3409z" fill="none" stroke-width="3" class="stroke" />
  <path transform="matrix(1.3918965,0,0,1.3918965,-4788.086,5375.4099)" d="m4319.87-3680 0.03 106.6-0.58 106.53" fill="none" stroke-miterlimit="10" stroke-width="3" class="stroke" />
  <path transform="matrix(1.3918965,0,0,1.3918965,-4788.086,5375.4099)" d="m4319.87-3760 0.13-40 40-40 662.9 0.12" fill="none" stroke-miterlimit="10" stroke-width="3" class="stroke" />
  <path transform="matrix(1.3918965,0,0,1.3918965,-4788.086,5375.4099)" d="m5029.65-3839.88-9 4.5 2.25-4.5-2.25-4.5 9 4.5z" />
  <path transform="matrix(1.3918965,0,0,1.3918965,-4788.086,5375.4099)" d="m5029.65-3839.88-9 4.5 2.25-4.5-2.25-4.5 9 4.5z" fill="none" stroke-miterlimit="10" stroke-width="3" class="stroke" />
  <path transform="matrix(1.3918965,0,0,1.3918965,-4788.086,5375.4099)" d="m4359.87-3720c0 1.3097-0.0641 2.6166-0.1926 3.9203-0.1284 1.304-0.3208 2.5984-0.5764 3.8833-0.2551 1.285-0.573 2.5544-0.9533 3.8079-0.3807 1.2537-0.8217 2.4858-1.3228 3.6963-0.5019 1.2102-1.061 2.3928-1.6789 3.5482-0.617 1.1554-1.29 2.2777-2.018 3.3671-0.7274 1.0891-1.507 2.1399-2.338 3.1529-0.831 1.0124-1.71 1.9821-2.636 2.9086-0.9263 0.926-1.8955 1.8047-2.909 2.636-1.012 0.831-2.0632 1.6106-3.1525 2.3388-1.0889 0.7276-2.211 1.4002-3.3665 2.0176-1.155 0.6175-2.3381 1.177-3.5486 1.6785-1.2099 0.501-2.4419 0.9416-3.6958 1.3218-1.2536 0.3803-2.5229 0.6985-3.8081 0.9541-1.2846 0.2553-2.5786 0.4472-3.8825 0.5757-1.3035 0.1284-2.611 0.1926-3.921 0.1929-1.31-3e-4 -2.6164-0.0645-3.9201-0.1929-1.3039-0.1285-2.5981-0.3204-3.8839-0.5757-1.2846-0.2556-2.554-0.5738-3.807-0.9539-1.2534-0.3804-2.486-0.821-3.6963-1.322-1.21-0.5015-2.3927-1.061-3.5487-1.6785-1.155-0.6174-2.2775-1.29-3.367-2.0176-1.0892-0.7282-2.14-1.5078-3.153-2.3388-1.0124-0.8313-1.9821-1.71-2.9084-2.636-0.9266-0.9265-1.8046-1.8962-2.6357-2.9086-0.8311-1.013-1.6109-2.0638-2.3389-3.1529-0.7275-1.0894-1.4004-2.2117-2.018-3.367-0.618-1.1555-1.177-2.3381-1.6783-3.5483-0.5017-1.2105-0.9418-2.4426-1.3222-3.6963-0.3805-1.2535-0.6985-2.5227-0.9545-3.8075-0.255-1.285-0.4464-2.5797-0.575-3.8837-0.1282-1.3037-0.193-2.6106-0.193-3.9203 0-1.31 0.0648-2.617 0.193-3.9205 0.1286-1.3035 0.32-2.5979 0.575-3.8825 0.2557-1.285 0.5736-2.5545 0.954-3.808 0.38-1.2538 0.8208-2.4858 1.322-3.696 0.5017-1.2104 1.061-2.3933 1.679-3.5488 0.6176-1.1552 1.2905-2.2776 2.018-3.3667 0.728-1.0895 1.5078-2.1405 2.3389-3.1533 0.8311-1.0129 1.7091-1.9824 2.6357-2.9085 0.9263-0.9265 1.896-1.8051 2.9082-2.6362 1.0132-0.831 2.064-1.6103 3.1532-2.3381 1.0895-0.7278 2.212-1.4007 3.367-2.0181 1.156-0.6173 2.3387-1.177 3.5487-1.6782 1.2103-0.5015 2.4429-0.9424 3.6963-1.3228 1.253-0.3803 2.5224-0.6982 3.807-0.9536 1.2858-0.2556 2.58-0.4477 3.884-0.5761 1.3036-0.1285 2.61-0.1926 3.92-0.1926s2.6175 0.0641 3.921 0.1923c1.304 0.1287 2.598 0.3208 3.883 0.5764 1.2847 0.2554 2.554 0.5733 3.8076 0.9536 1.2539 0.3804 2.4859 0.8213 3.6958 1.3228 1.2105 0.5012 2.3936 1.0609 3.5484 1.6782 1.1557 0.6174 2.2778 1.2903 3.3667 2.0181 1.0893 0.7278 2.1405 1.5071 3.1533 2.3381 1.0127 0.8311 1.9819 1.7097 2.9082 2.6362 0.926 0.9261 1.805 1.8956 2.636 2.9085 0.831 1.0128 1.6106 2.0638 2.338 3.1533 0.728 1.0891 1.401 2.2115 2.018 3.367 0.6179 1.1552 1.1769 2.3381 1.678 3.5485 0.5019 1.2102 0.9428 2.4422 1.323 3.696 0.3805 1.2535 0.6989 2.5228 0.954 3.8077 0.2556 1.2849 0.448 2.5793 0.5764 3.8826 0.1285 1.3037 0.1926 2.6107 0.1926 3.9207z" fill="none" stroke-width="3" class="stroke" />
  <text transform="matrix(1.3918965 0 0 1.3918965 -4788.7819 5374.714)" font-family="Tinos" font-size="50" xml:space="preserve" class="fill"><tspan x="4305.8908" y="-3702" class="fill">+</tspan></text>
  <path transform="matrix(1.3918965,0,0,1.3918965,-4788.086,5375.4099)" d="m3839.88-3466.87 0.12-173.13 80-80h347.52" fill="none" stroke-miterlimit="10" stroke-width="3" class="stroke" />
  <path transform="matrix(1.3918965,0,0,1.3918965,-4788.086,5375.4099)" d="m4276.52-3720-9 4.5v-9l9 4.5z" />
  <path transform="matrix(1.3918965,0,0,1.3918965,-4788.086,5375.4099)" d="m4276.52-3720-9 4.5v-9l9 4.5z" fill="none" stroke-miterlimit="10" stroke-width="3" class="stroke" />
  <path transform="matrix(1.3918965,0,0,1.3918965,-4788.086,5375.4099)" d="M3483.75-3459.99H3593" fill="none" stroke-miterlimit="10" stroke-width="3" class="stroke" />
  <path transform="matrix(1.3918965,0,0,1.3918965,-4788.086,5375.4099)" d="m3483.755-3459.99c0 0.4514-0.0442 0.8986-0.1324 1.3415-0.0881 0.4429-0.2186 0.8728-0.3913 1.2898-0.1729 0.4172-0.3845 0.8135-0.6353 1.1887-0.251 0.3753-0.536 0.7224-0.855 1.0415-0.3193 0.3195-0.6667 0.6045-1.042 0.8552-0.3754 0.2508-0.7717 0.4624-1.1887 0.635-0.417 0.1729-0.8469 0.3033-1.2895 0.3913-0.4428 0.088-0.8898 0.132-1.3408 0.132-0.4517 0-0.899-0.044-1.3416-0.1319-0.4429-0.0881-0.8728-0.2185-1.2895-0.3911-0.4173-0.1729-0.8135-0.3845-1.1889-0.6353-0.3751-0.2507-0.7225-0.5357-1.0416-0.8552-0.3194-0.3191-0.6045-0.6665-0.8554-1.0417-0.2506-0.3753-0.4625-0.7713-0.6351-1.1885-0.1726-0.417-0.303-0.8469-0.3911-1.2901-0.0881-0.4426-0.1321-0.8898-0.1318-1.3412-3e-4 -0.4512 0.0437-0.8983 0.132-1.3409 0.0879-0.4426 0.2183-0.8725 0.391-1.2895 0.1728-0.417 0.3844-0.8133 0.6354-1.189 0.2506-0.3752 0.5356-0.7226 0.855-1.0416 0.3191-0.3192 0.6662-0.604 1.0415-0.8549 0.3751-0.2507 0.7715-0.4626 1.1887-0.6355 0.417-0.1728 0.8469-0.3034 1.2898-0.3916 0.4426-0.088 0.8899-0.132 1.3416-0.132 0.451 0 0.898 0.0441 1.341 0.1323 0.4426 0.0883 0.8723 0.219 1.2896 0.3917 0.417 0.1727 0.8132 0.3844 1.1884 0.6351 0.3753 0.2509 0.7227 0.5357 1.042 0.8549 0.319 0.319 0.604 0.6664 0.855 1.042 0.2508 0.3753 0.4624 0.7716 0.6353 1.1886 0.1727 0.417 0.3032 0.8469 0.3913 1.2895 0.0882 0.4426 0.1324 0.8897 0.1324 1.3409z" fill="none" stroke-width="3" class="stroke" />
  <path transform="matrix(1.3918965,0,0,1.3918965,-4788.086,5375.4099)" d="m5046.755-3839.88c-4e-4 0.4517-0.0444 0.899-0.133 1.3416-0.088 0.4429-0.218 0.8728-0.3904 1.2898-0.1726 0.417-0.3846 0.8132-0.6357 1.1887-0.2509 0.3753-0.5352 0.7224-0.8549 1.0415-0.319 0.3191-0.6661 0.6044-1.042 0.855-0.3751 0.251-0.7711 0.4629-1.1881 0.6355-0.4174 0.1726-0.8471 0.3029-1.29 0.3909-0.4429 0.0881-0.8899 0.132-1.3409 0.132-0.452 0-0.899-0.0439-1.342-0.1318-0.443-0.0881-0.8723-0.2185-1.2893-0.3911s-0.813-0.3845-1.1887-0.6351c-0.3752-0.251-0.7224-0.5363-1.0413-0.8554-0.3197-0.3191-0.6047-0.666-0.8557-1.0412-0.2502-0.3753-0.4621-0.7714-0.635-1.1888-0.173-0.417-0.3032-0.8469-0.392-1.2896-0.087-0.443-0.131-0.8903-0.131-1.342 0-0.451 0.044-0.898 0.1319-1.341 0.0879-0.4426 0.2181-0.8726 0.3911-1.2896 0.1729-0.417 0.384-0.8132 0.6348-1.1884 0.2512-0.3753 0.5362-0.7227 0.8559-1.042 0.3189-0.319 0.6661-0.6043 1.0413-0.855 0.3757-0.2508 0.7717-0.4624 1.1887-0.6353 0.417-0.1726 0.8463-0.303 1.2891-0.3911 0.4432-0.0881 0.8902-0.1323 1.3422-0.1326 0.451 3e-4 0.898 0.0445 1.3409 0.1324 0.4429 0.0881 0.8726 0.2187 1.29 0.3913 0.417 0.1729 0.813 0.3845 1.1881 0.6353 0.3759 0.2507 0.723 0.536 1.042 0.855 0.3197 0.3193 0.604 0.6667 0.8549 1.042 0.2511 0.3752 0.4631 0.7714 0.6357 1.1884 0.1724 0.417 0.3024 0.847 0.3904 1.2898 0.0886 0.4428 0.1326 0.8898 0.133 1.3408z" fill="none" stroke-width="3" class="stroke" />
  <path transform="matrix(1.3918965,0,0,1.3918965,-4788.086,5375.4099)" d="m5046.755-3081.13c-4e-4 0.4515-0.0444 0.8987-0.133 1.3416-0.088 0.4426-0.218 0.8728-0.3904 1.29-0.1726 0.4174-0.3846 0.8134-0.6357 1.1885-0.2509 0.3753-0.5352 0.7227-0.8549 1.0419-0.319 0.3192-0.6661 0.6044-1.042 0.8551-0.3751 0.2509-0.7711 0.4624-1.1881 0.635-0.4174 0.1726-0.8471 0.303-1.29 0.3909-0.4429 0.0881-0.8899 0.132-1.3409 0.132-0.452 0-0.899-0.0439-1.342-0.132-0.443-0.0879-0.8723-0.2183-1.2893-0.391-0.417-0.1728-0.813-0.3847-1.1887-0.6354-0.3752-0.2505-0.7224-0.5354-1.0413-0.8546-0.3197-0.3192-0.6047-0.6666-0.8557-1.0419-0.2502-0.3751-0.4621-0.7715-0.635-1.1887-0.173-0.4172-0.3032-0.8472-0.392-1.29-0.087-0.4427-0.131-0.8899-0.131-1.3414 0-0.451 0.044-0.898 0.1319-1.341 0.0879-0.4426 0.2181-0.8723 0.3911-1.2896 0.1729-0.417 0.384-0.813 0.6348-1.1882 0.2512-0.3752 0.5362-0.7227 0.8559-1.042 0.3189-0.3191 0.6661-0.604 1.0413-0.8547 0.3757-0.2508 0.7717-0.4624 1.1887-0.6355 0.417-0.1729 0.8463-0.3035 1.2891-0.3916 0.4432-0.0882 0.8902-0.1324 1.3422-0.1324 0.451 0 0.898 0.0442 1.3409 0.1326 0.4429 0.0881 0.8726 0.2185 1.29 0.3916 0.417 0.1729 0.813 0.3845 1.1881 0.6353 0.3759 0.2507 0.723 0.5356 1.042 0.8547 0.3197 0.3193 0.604 0.6668 0.8549 1.042 0.2511 0.3752 0.4631 0.7715 0.6357 1.1885 0.1724 0.417 0.3024 0.8469 0.3904 1.2895 0.0886 0.4428 0.1326 0.8898 0.133 1.3408z" fill="none" stroke-width="3" class="stroke" />
  <text transform="matrix(1.3918965 0 0 1.3918965 -4788.7819 5374.714)" font-family="Tinos" font-size="26" xml:space="preserve" class="fill"><tspan x="3781" y="-3429" class="fill">u</tspan></text>
  <text transform="matrix(1.3918965 0 0 1.3918965 -4788.7819 5374.714)" font-family="Tinos" font-size="20" xml:space="preserve" class="fill"><tspan x="3794 3800.66 3810.66 3817.3199 3827.3199" y="-3429" class="fill">[n-1]</tspan></text>
  <text transform="matrix(1.3918965 0 0 1.3918965 -4788.7819 5374.714)" font-family="Tinos" font-size="26" xml:space="preserve" class="fill"><tspan x="3498.8282" y="-3429" class="fill">u</tspan></text>
  <text transform="matrix(1.3918965 0 0 1.3918965 -4788.7819 5374.714)" font-family="Tinos" font-size="20" xml:space="preserve" class="fill"><tspan x="3511.8282 3518.488 3528.488" y="-3429" class="fill">[n]</tspan></text>
  <text transform="matrix(1.3918965 0 0 1.3918965 -4788.7819 5374.714)" font-family="Tinos" font-size="26" xml:space="preserve" class="fill"><tspan x="4013.5" y="-3426" class="fill">u</tspan></text>
  <text transform="matrix(1.3918965 0 0 1.3918965 -4788.7819 5374.714)" font-family="Tinos" font-size="20" xml:space="preserve" class="fill"><tspan x="4026.5 4033.16 4043.16 4049.8199 4059.8199" y="-3426" class="fill">[n-2]</tspan></text>
  <text transform="matrix(1.3918965 0 0 1.3918965 -4788.7819 5374.714)" font-family="Tinos" font-size="26" xml:space="preserve" class="fill"><tspan x="4253.5" y="-3426" class="fill">u</tspan></text>
  <text transform="matrix(1.3918965 0 0 1.3918965 -4788.7819 5374.714)" font-family="Tinos" font-size="20" xml:space="preserve" class="fill"><tspan x="4266.5 4273.16 4283.16 4289.8205 4299.8205" y="-3426" class="fill">[n-3]</tspan></text>
  <text transform="matrix(1.3918965 0 0 1.3918965 -4788.7819 5374.714)" font-family="Tinos" font-size="26" xml:space="preserve" class="fill"><tspan x="4493.5" y="-3426" class="fill">u</tspan></text>
  <text transform="matrix(1.3918965 0 0 1.3918965 -4788.7819 5374.714)" font-family="Tinos" font-size="20" xml:space="preserve" class="fill"><tspan x="4506.5 4513.16 4523.16 4529.8205 4539.8205" y="-3426" class="fill">[n-4]</tspan></text>
  <text transform="matrix(1.3918965 0 0 1.3918965 -4788.7819 5374.714)" font-family="Tinos" font-size="26" xml:space="preserve" class="fill"><tspan x="4733.5" y="-3429" class="fill">u</tspan></text>
  <text transform="matrix(1.3918965 0 0 1.3918965 -4788.7819 5374.714)" font-family="Tinos" font-size="20" xml:space="preserve" class="fill"><tspan x="4746.5 4753.16 4763.16 4769.8205 4779.8205" y="-3429" class="fill">[n-5]</tspan></text>
  <text transform="matrix(1.3918965 0 0 1.3918965 -4788.7819 5374.714)" font-family="Tinos" font-size="26" xml:space="preserve" class="fill"><tspan x="4973.5" y="-3429" class="fill">u</tspan></text>
  <text transform="matrix(1.3918965 0 0 1.3918965 -4788.7819 5374.714)" font-family="Tinos" font-size="20" xml:space="preserve" class="fill"><tspan x="4986.5 4993.16 5003.16 5009.8205 5019.8205" y="-3429" class="fill">[n-6]</tspan></text>
  <text transform="matrix(1.3918965 0 0 1.3918965 -4788.7819 5374.714)" font-family="Tinos" font-size="26" xml:space="preserve" class="fill"><tspan x="5016.422" y="-3799" class="fill">v</tspan></text>
  <text transform="matrix(1.3918965 0 0 1.3918965 -4788.7819 5374.714)" font-family="Tinos" font-size="21.66" xml:space="preserve" class="fill"><tspan x="5029.422" y="-3792.8126" class="fill">0</tspan></text>
  <text transform="matrix(1.3918965 0 0 1.3918965 -4788.7819 5374.714)" font-family="Tinos" font-size="20" xml:space="preserve" class="fill"><tspan x="5040.25 5046.91 5056.91" y="-3799" class="fill">[n]</tspan></text>
  <text transform="matrix(1.3918965 0 0 1.3918965 -4788.7819 5374.714)" font-family="Tinos" font-size="26" xml:space="preserve" class="fill"><tspan x="5016.422" y="-3109" class="fill">v</tspan></text>
  <text transform="matrix(1.3918965 0 0 1.3918965 -4788.7819 5374.714)" font-family="Tinos" font-size="21.66" xml:space="preserve" class="fill"><tspan x="5029.422" y="-3102.8126" class="fill">1</tspan></text>
  <text transform="matrix(1.3918965 0 0 1.3918965 -4788.7819 5374.714)" font-family="Tinos" font-size="20" xml:space="preserve" class="fill"><tspan x="5040.25 5046.91 5056.91" y="-3109" class="fill">[n]</tspan></text>
 </g>
</svg>