<svg xmlns="http://www.w3.org/2000/svg" width="1196.16" height="538.08" version="1.1" viewBox="0 0 1196.16 538.08">
 <style>
          .fill { fill: black; }
          .stroke { stroke: black; }
          @media (prefers-color-scheme: dark) {
            .fill { fill: white; }
            .stroke { stroke: white; }
          }
        </style><defs>
  <clipPath id="a">
   <path transform="scale(.48)" d="M78.125 34.375H2412.5V1084.375H78.125Z" clip-rule="evenodd" />
  </clipPath>
 </defs>
 <g clip-path="url(#a)">
  <path transform="matrix(1.3455328,0,0,1.3455328,-5357.926,1511.5413)" d="m4029.3-1109h791.4c0.6107 0 1.215 0.0596 1.814 0.1788 0.5995 0.1192 1.1805 0.2956 1.7445 0.5293s1.1001 0.5202 1.6075 0.8594c0.508 0.3392 0.9779 0.7247 1.41 1.1565 0.4317 0.4318 0.817 0.9016 1.156 1.4093 0.3397 0.5077 0.626 1.0437 0.86 1.6079 0.2336 0.5641 0.4099 1.1456 0.529 1.7445 0.119 0.5989 0.1787 1.2036 0.179 1.8143v291.4c-3e-4 0.61064-0.06 1.21544-0.179 1.8144-0.1191 0.59892-0.2954 1.1805-0.529 1.7447-0.234 0.56412-0.5203 1.1001-0.86 1.6078-0.339 0.50771-0.7243 0.97743-1.156 1.4093-0.4321 0.4318-0.902 0.8173-1.41 1.1566-0.5074 0.33921-1.0435 0.6257-1.6075 0.8594s-1.145 0.4101-1.7445 0.52912c-0.599 0.11908-1.2033 0.17868-1.814 0.17868h-791.4c-0.6105 0-1.2155-0.0596-1.8146-0.17868-0.5989-0.11902-1.1806-0.29542-1.7448-0.52912-0.5643-0.2337-1.1004-0.52019-1.608-0.85949-0.5076-0.33921-0.9773-0.72471-1.4089-1.15651-0.4319-0.43187-0.8177-0.90159-1.157-1.4093-0.3391-0.5077-0.6255-1.04368-0.8591-1.6078-0.2337-0.5642-0.4102-1.14578-0.5291-1.7447-0.1191-0.59896-0.1787-1.20376-0.1785-1.8144v-291.4c-2e-4 -0.6107 0.0594-1.2154 0.1785-1.8143 0.1189-0.5989 0.2954-1.1804 0.5291-1.7445 0.2336-0.5642 0.52-1.1002 0.8594-1.6079 0.339-0.5077 0.7248-0.9775 1.1567-1.4093 0.4316-0.4318 0.9013-0.8174 1.4089-1.1566 0.5076-0.3393 1.0437-0.6256 1.608-0.8593 0.5642-0.2337 1.1459-0.4101 1.7448-0.5293 0.5991-0.1192 1.2041-0.1788 1.8146-0.1788z" fill="none" stroke-width="2" class="stroke" />
  <text transform="matrix(1.3455328 0 0 1.3455328 -5357.926 1511.5413)" font-family="Tinos" font-size="22" xml:space="preserve" class="fill"><tspan x="4314.3439 4330.2277 4344.9016 4360.785 4376.669 4388.901 4396.227 4407.227 4412.727 4428.611 4442.079 4453.756 4469.6398 4485.5236 4500.1975 4516.081" y="-1082" class="fill">ARGOS-3 DATAGRAM</tspan></text>
  <path transform="matrix(1.3455328,0,0,1.3455328,-5357.926,1511.5413)" d="m4277.5-1059h405c0.4929 1e-4 0.98 0.0482 1.463 0.1443 0.483 0.096 0.9517 0.2383 1.4068 0.4267 0.4551 0.1885 0.8872 0.4196 1.2969 0.6931 0.4093 0.2736 0.7883 0.5844 1.1363 0.9327 0.3486 0.3482 0.6596 0.727 0.933 1.1366 0.2735 0.4094 0.504 0.8416 0.6929 1.2966 0.1881 0.455 0.3311 0.9238 0.4271 1.4069 0.096 0.483 0.144 0.9707 0.144 1.4631v235c0 0.4925-0.048 0.9803-0.144 1.46323-0.096 0.48297-0.239 0.95197-0.4271 1.40698-0.1889 0.45502-0.4194 0.88721-0.6929 1.29669-0.2734 0.40943-0.5844 0.7883-0.933 1.1365-0.348 0.3482-0.727 0.6591-1.1363 0.93272-0.4097 0.27362-0.8418 0.50468-1.2969 0.69308s-0.9238 0.3307-1.4068 0.4267c-0.483 0.09604-0.9701 0.1441-1.463 0.1441h-405c-0.4925 0-0.9803-0.04806-1.4632-0.1441-0.4838-0.096-0.9528-0.2383-1.4072-0.4267-0.4551-0.1884-0.8876-0.41946-1.2969-0.69308-0.4097-0.27362-0.7881-0.58452-1.1362-0.93272-0.3485-0.3482-0.6595-0.727-0.9335-1.13649-0.2731-0.40949-0.504-0.84168-0.6925-1.2967-0.189-0.45501-0.331-0.92401-0.4268-1.40698-0.0961-0.48293-0.144-0.97073-0.1437-1.46323v-235c-3e-4 -0.4924 0.0476-0.9801 0.1437-1.4631 0.0958-0.4831 0.2378-0.9519 0.4268-1.4069 0.1885-0.455 0.4194-0.8872 0.6925-1.2966 0.274-0.4096 0.585-0.7884 0.9335-1.1366 0.3481-0.3483 0.7265-0.6591 1.1362-0.9327 0.4093-0.2735 0.8418-0.5046 1.2969-0.6931 0.4544-0.1884 0.9234-0.3307 1.4072-0.4267 0.4829-0.0961 0.9707-0.1442 1.4632-0.1443z" fill="none" stroke-width="2" class="stroke" />
  <text transform="matrix(1.3455328 0 0 1.3455328 -5357.926 1511.5413)" font-family="Tinos" font-size="18" xml:space="preserve" class="fill"><tspan x="4410.0314 4423.0275 4431.0197 4440.0197 4449.0197 4456.0217 4460.5217 4469.5217 4477.5139 4482.0139 4490.006 4499.006 4504.01 4509.0139 4517.006 4524.998 4532.99 4540.9826" y="-1036" class="fill">Dados de aplica&#231;&#227;o</tspan></text>
  <path transform="matrix(1.3455328,0,0,1.3455328,-5357.926,1511.5413)" d="m4020-775 810-4" fill="none" stroke-miterlimit="10" stroke-width="2" class="stroke" />
  <path transform="matrix(1.3455328,0,0,1.3455328,-5357.926,1511.5413)" d="m4019.98-779.5 0.04 9" fill="none" stroke-miterlimit="10" stroke-width="2" class="stroke" />
  <path transform="matrix(1.3455328,0,0,1.3455328,-5357.926,1511.5413)" d="m4830.02-774.5-0.04-9" fill="none" stroke-miterlimit="10" stroke-width="2" class="stroke" />
  <text transform="matrix(1.3455328 0 0 1.3455328 -5357.926 1511.5413)" font-family="Tinos" font-size="18" xml:space="preserve" class="fill"><tspan x="4373.4846 4382.4846 4391.4846 4395.9846 4400.9885 4409.9885 4414.4885 4423.4885 4432.4885 4441.4885 4445.9885 4454.9885 4459.992 4464.996" y="-748" class="fill">63 to 289 bits</tspan></text>
  <text transform="matrix(1.3455328 0 0 1.3455328 -5357.926 1511.5413)" font-family="Tinos" font-size="18" xml:space="preserve" class="fill"><tspan x="4471.998" y="-748" class="fill"> </tspan></text>
  <path transform="matrix(1.3455328,0,0,1.3455328,-5357.926,1511.5413)" d="m4284-1019h72c0.53 1e-4 1.04 0.1017 1.53 0.3046 0.4897 0.203 0.9228 0.49201 1.298 0.8671 0.3748 0.3751 0.6639 0.8077 0.867 1.2977 0.203 0.4901 0.3047 1.00024 0.305 1.5306v112c-3e-4 0.5305-0.102 1.04081-0.305 1.5309-0.2031 0.49001-0.4922 0.9226-0.867 1.2976-0.3752 0.37503-0.8083 0.6641-1.298 0.86703-0.49 0.20297-1 0.30447-1.53 0.30447h-72c-0.531 0-1.041-0.1015-1.5311-0.30447-0.4902-0.20293-0.9229-0.492-1.2973-0.86703-0.3756-0.375-0.6646-0.80759-0.8676-1.2976-0.203-0.49009-0.3043-1.0004-0.304-1.5309v-112c-3e-4 -0.53036 0.101-1.0405 0.304-1.5306 0.203-0.49 0.492-0.9226 0.8676-1.2977 0.3744-0.37509 0.8071-0.6641 1.2973-0.8671 0.4901-0.2029 1.0001-0.3045 1.5311-0.3046z" fill="none" stroke-width="2" class="stroke" />
  <text transform="matrix(1.3455328 0 0 1.3455328 -5357.926 1511.5413)" font-family="Tinos" font-size="18" xml:space="preserve" class="fill"><tspan x="4303 4315.996 4323.9885 4328.992" y="-964" class="fill">Data</tspan></text>
  <text transform="matrix(1.3455328 0 0 1.3455328 -5357.926 1511.5413)" font-family="Tinos" font-size="18" xml:space="preserve" class="fill"><tspan x="4291.75 4303.756 4308.76 4317.76 4325.752 4334.752 4339.252" y="-942" class="fill">Block 0</tspan></text>
  <text transform="matrix(1.3455328 0 0 1.3455328 -5357.926 1511.5413)" font-family="Tinos" font-size="18" xml:space="preserve" class="fill"><tspan x="4296.2346 4305.2346 4314.2346 4318.7346 4327.7346 4332.7385 4337.742" y="-838" class="fill">24 bits</tspan></text>
  <path transform="matrix(1.3455328,0,0,1.3455328,-5357.926,1511.5413)" d="m4279.5-869h80.5" fill="none" stroke-miterlimit="10" stroke-width="2" class="stroke" />
  <path transform="matrix(1.3455328,0,0,1.3455328,-5357.926,1511.5413)" d="m4279.5-873.5v9" fill="none" stroke-miterlimit="10" stroke-width="2" class="stroke" />
  <path transform="matrix(1.3455328,0,0,1.3455328,-5357.926,1511.5413)" d="m4360-864.5v-9" fill="none" stroke-miterlimit="10" stroke-width="2" class="stroke" />
  <path transform="matrix(1.3455328,0,0,1.3455328,-5357.926,1511.5413)" d="m4375.6-1019h68.8c0.742 1e-4 1.456 0.1423 2.142 0.42643 0.686 0.28418 1.292 0.68878 1.8176 1.21387 0.5249 0.52514 0.9292 1.13073 1.2134 1.81671 0.2846 0.68609 0.4267 1.40039 0.427 2.14299v108.8c-3e-4 0.74261-0.1424 1.457-0.427 2.1431-0.2842 0.6861-0.6885 1.2917-1.2134 1.81674-0.5256 0.52508-1.1316 0.92976-1.8176 1.21396-0.686 0.2841-1.4 0.4262-2.142 0.4262h-68.8c-0.7424 0-1.4572-0.1421-2.1433-0.4262-0.6867-0.2842-1.292-0.68888-1.8169-1.21396-0.5249-0.52504-0.9298-1.13064-1.2143-1.81674-0.2837-0.6861-0.4258-1.40049-0.4255-2.1431v-108.8c-3e-4 -0.7426 0.1418-1.4569 0.426-2.14299 0.284-0.68601 0.6889-1.29161 1.2138-1.81678 0.5249-0.52503 1.1302-0.92963 1.8169-1.21383 0.6861-0.2841 1.4009-0.4263 2.1433-0.4264z" fill="none" stroke-width="2" class="stroke" />
  <text transform="matrix(1.3455328 0 0 1.3455328 -5357.926 1511.5413)" font-family="Tinos" font-size="18" xml:space="preserve" class="fill"><tspan x="4393 4405.996 4413.9885 4418.992" y="-964" class="fill">Data</tspan></text>
  <text transform="matrix(1.3455328 0 0 1.3455328 -5357.926 1511.5413)" font-family="Tinos" font-size="18" xml:space="preserve" class="fill"><tspan x="4381.75 4393.756 4398.76 4407.76 4415.752 4424.752 4429.252" y="-942" class="fill">Block 1</tspan></text>
  <path transform="matrix(1.3455328,0,0,1.3455328,-5357.926,1511.5413)" d="m4468.2-1019h65.6c0.4727 4e-5 0.9409 0.0462 1.404 0.1384 0.464 0.0923 0.914 0.2289 1.3509 0.4098 0.4361 0.181 0.8515 0.4028 1.2451 0.6654 0.393 0.26263 0.7568 0.56103 1.091 0.8953 0.334 0.3343 0.6326 0.6979 0.895 1.09103 0.2625 0.39317 0.484 0.80807 0.665 1.24481 0.181 0.43677 0.3177 0.88696 0.41 1.35066 0.092 0.46361 0.1387 0.93181 0.139 1.4046v105.6c-3e-4 0.47274-0.047 0.941-0.139 1.4047-0.093 0.4637-0.2295 0.91393-0.4101 1.3507-0.1809 0.43682-0.4024 0.85174-0.6651 1.2448-0.2628 0.3931-0.561 0.75672-0.895 1.09101-0.3348 0.33429-0.6982 0.63279-1.0913 0.89539-0.3931 0.26263-0.8085 0.48443-1.2446 0.6654-0.4369 0.18091-0.8869 0.3175-1.3509 0.4097-0.4631 0.09213-0.9313 0.13821-1.404 0.1383h-65.6c-0.4723-9e-5 -0.9405-0.04617-1.405-0.1383-0.464-0.0922-0.914-0.22879-1.351-0.4097-0.437-0.18097-0.8515-0.40277-1.2441-0.6654-0.3931-0.2626-0.7569-0.5611-1.0913-0.89539-0.334-0.33429-0.6326-0.69791-0.8956-1.091-0.263-0.39307-0.4843-0.80799-0.6654-1.24481-0.1816-0.43677-0.3176-0.887-0.4097-1.3507-0.0923-0.4637-0.1382-0.93196-0.1379-1.4047v-105.6c-3e-4 -0.47279 0.0456-0.94099 0.1379-1.4046 0.0921-0.4637 0.2281-0.91389 0.4097-1.35066 0.1811-0.43674 0.4024-0.85164 0.6654-1.24481 0.263-0.39313 0.5616-0.75673 0.8956-1.09103 0.3344-0.33427 0.6974-0.63267 1.0904-0.8953 0.3935-0.2626 0.808-0.4844 1.245-0.6654 0.437-0.1809 0.887-0.3175 1.351-0.4098 0.4645-0.0922 0.9327-0.13836 1.405-0.1384z" fill="none" stroke-width="2" class="stroke" />
  <text transform="matrix(1.3455328 0 0 1.3455328 -5357.926 1511.5413)" font-family="Tinos" font-size="18" xml:space="preserve" class="fill"><tspan x="4484 4496.996 4504.9885 4509.992" y="-964" class="fill">Data</tspan></text>
  <text transform="matrix(1.3455328 0 0 1.3455328 -5357.926 1511.5413)" font-family="Tinos" font-size="18" xml:space="preserve" class="fill"><tspan x="4472.75 4484.756 4489.76 4498.76 4506.752 4515.752 4520.252" y="-942" class="fill">Block 2</tspan></text>
  <path transform="matrix(1.3455328,0,0,1.3455328,-5357.253,1512.2141)" d="m4555-959.73h1v1h-1m4-1h1v1h-1m4-1h1v1h-1m4-1h1v1h-1m4-1h1v1h-1m4-1h1v1h-1m4-1h1v1h-1m4-1h1v1h-1" />
  <path transform="matrix(1.3455328,0,0,1.3455328,-5357.926,1511.5413)" d="m4604.3-1019h70.4c0.6366 1e-4 1.248 0.12192 1.8368 0.36551 0.5879 0.2436 1.1069 0.59049 1.5571 1.04049 0.4501 0.45011 0.7969 0.9692 1.0406 1.5572 0.2435 0.5881 0.3655 1.2003 0.3655 1.8368v110.4c0 0.6366-0.122 1.2489-0.3655 1.837-0.2437 0.58804-0.5905 1.1071-1.0406 1.5572-0.4502 0.45002-0.9692 0.7969-1.5571 1.0405-0.5888 0.24351-1.2002 0.3653-1.8368 0.3653h-70.4c-0.637 0-1.249-0.12179-1.8374-0.3653-0.5886-0.2436-1.1076-0.59048-1.5571-1.0405-0.4505-0.4501-0.7969-0.96916-1.0405-1.5572-0.2432-0.5881-0.365-1.2004-0.365-1.837v-110.4c0-0.6365 0.1218-1.2487 0.365-1.8368 0.244-0.5881 0.5908-1.1071 1.041-1.55728 0.4497-0.45001 0.968-0.79682 1.5566-1.04042 0.5884-0.24358 1.2004-0.3654 1.8374-0.3655z" fill="none" stroke-width="2" class="stroke" />
  <text transform="matrix(1.3455328 0 0 1.3455328 -5357.926 1511.5413)" font-family="Tinos" font-size="18" xml:space="preserve" class="fill"><tspan x="4623 4635.996 4643.9885 4648.992" y="-964" class="fill">Data</tspan></text>
  <text transform="matrix(1.3455328 0 0 1.3455328 -5357.926 1511.5413)" font-family="Tinos" font-size="18" xml:space="preserve" class="fill"><tspan x="4611.75 4623.756 4628.76 4637.76 4645.752 4654.752 4659.252" y="-942" class="fill">Block n</tspan></text>
  <path transform="matrix(1.3455328,0,0,1.3455328,-5357.926,1511.5413)" d="m4370-869h310" fill="none" stroke-miterlimit="10" stroke-width="2" class="stroke" />
  <path transform="matrix(1.3455328,0,0,1.3455328,-5357.926,1511.5413)" d="m4370-873.5v9" fill="none" stroke-miterlimit="10" stroke-width="2" class="stroke" />
  <path transform="matrix(1.3455328,0,0,1.3455328,-5357.926,1511.5413)" d="m4680-864.5v-9" fill="none" stroke-miterlimit="10" stroke-width="2" class="stroke" />
  <text transform="matrix(1.3455328 0 0 1.3455328 -5357.926 1511.5413)" font-family="Tinos" font-size="18" xml:space="preserve" class="fill"><tspan x="4434.25 4443.25 4447.75 4452.754 4461.754 4466.254 4475.254 4484.254 4493.254 4497.754 4506.754 4511.758 4516.7619 4523.7639 4528.2639 4534.258 4543.258 4549.252 4558.252 4562.752 4571.752 4576.756 4585.756 4593.748 4602.748 4609.75" y="-838" class="fill">0 to 224 bits (0-7 blocks)</tspan></text>
  <path transform="matrix(1.3455328,0,0,1.3455328,-5357.926,1511.5413)" d="m4706-1059h108c0.3937 1e-4 0.7839 0.0386 1.17 0.1153 0.3868 0.0768 0.762 0.1907 1.126 0.3415 0.3639 0.1507 0.7096 0.3357 1.037 0.5545 0.3278 0.2189 0.631 0.4677 0.9099 0.7461 0.2781 0.2786 0.5268 0.5817 0.7461 0.9093 0.218 0.3277 0.403 0.6735 0.554 1.0374s0.2648 0.739 0.3415 1.1254c0.0771 0.3863 0.1155 0.7766 0.1155 1.1705v168c0 0.394-0.0384 0.7842-0.1155 1.1706-0.0767 0.38644-0.1905 0.7617-0.3415 1.12564-0.151 0.36396-0.336 0.70976-0.554 1.03729-0.2193 0.32758-0.468 0.63067-0.7461 0.90917-0.2789 0.2786-0.5819 0.5273-0.9092 0.7462-0.3281 0.2189-0.6738 0.40371-1.0377 0.5545-0.364 0.1507-0.7392 0.26444-1.126 0.3413-0.3861 0.07682-0.7763 0.1153-1.17 0.1153h-108c-0.394 0-0.7845-0.03848-1.1712-0.1153-0.3862-0.07686-0.7618-0.1906-1.1258-0.3413-0.3635-0.15079-0.709-0.3356-1.0363-0.5545-0.3277-0.2189-0.6309-0.4676-0.9097-0.7462-0.279-0.2785-0.5273-0.58159-0.7466-0.9091-0.2194-0.3276-0.4038-0.6734-0.5546-1.03736-0.1508-0.36394-0.2642-0.7392-0.3409-1.12564-0.0769-0.3864-0.1152-0.7766-0.1149-1.1706v-168c-3e-4 -0.3939 0.038-0.7842 0.1149-1.1705 0.0767-0.3864 0.1901-0.7615 0.3409-1.1254s0.3352-0.7097 0.5542-1.0374c0.219-0.3276 0.468-0.6307 0.747-0.9093 0.2788-0.2784 0.582-0.5271 0.9097-0.7459 0.3273-0.2189 0.6728-0.4038 1.0363-0.5546 0.364-0.1508 0.7396-0.2647 1.1258-0.3416 0.3867-0.0767 0.7772-0.1152 1.1712-0.1153z" fill="none" stroke-width="2" class="stroke" />
  <text transform="matrix(1.3455328 0 0 1.3455328 -5357.926 1511.5413)" font-family="Tinos" font-size="18" xml:space="preserve" class="fill"><tspan x="4730.875 4740.6135 4748.6057 4753.6096 4758.6135 4763.1135 4772.1135 4777.117 4782.121" y="-963" class="fill">Tail bits</tspan></text>
  <text transform="matrix(1.3455328 0 0 1.3455328 -5357.926 1511.5413)" font-family="Tinos" font-size="18" xml:space="preserve" class="fill"><tspan x="4724.2346 4733.2346 4737.7346 4742.7385 4751.7385 4756.2385 4765.2385 4769.7385 4778.7385 4783.742 4788.746" y="-843" class="fill">7 to 9 bits</tspan></text>
  <path transform="matrix(1.3455328,0,0,1.3455328,-5357.926,1511.5413)" d="m4700-869h120" fill="none" stroke-miterlimit="10" stroke-width="2" class="stroke" />
  <path transform="matrix(1.3455328,0,0,1.3455328,-5357.926,1511.5413)" d="m4700-873.5v9" fill="none" stroke-miterlimit="10" stroke-width="2" class="stroke" />
  <path transform="matrix(1.3455328,0,0,1.3455328,-5357.926,1511.5413)" d="m4820-864.5v-9" fill="none" stroke-miterlimit="10" stroke-width="2" class="stroke" />
  <path transform="matrix(1.3455328,0,0,1.3455328,-5357.926,1511.5413)" d="m4178.1-1059h73.8c0.5318 1e-4 1.058 0.052 1.58 0.1556 0.521 0.1039 1.0275 0.2576 1.519 0.4611 0.491 0.2036 0.958 0.4531 1.4006 0.7485 0.4419 0.2954 0.8511 0.6311 1.2274 1.0072 0.376 0.3761 0.7116 0.7853 1.007 1.2277 0.2959 0.4422 0.545 0.909 0.749 1.4004 0.2036 0.4913 0.3569 0.9977 0.4609 1.5193s0.1558 1.0483 0.1561 1.5802v163.8c-3e-4 0.53192-0.0521 1.0587-0.1561 1.5803-0.104 0.52163-0.2573 1.0281-0.4609 1.5195-0.204 0.4914-0.4531 0.9582-0.749 1.4004-0.2954 0.4422-0.631 0.8513-1.007 1.22734-0.3763 0.3761-0.7855 0.71196-1.2274 1.00738-0.4426 0.29548-0.9096 0.54499-1.4006 0.74858-0.4915 0.20351-0.998 0.35714-1.519 0.46083-0.522 0.10377-1.0482 0.15567-1.58 0.15567h-73.8c-0.5314 0-1.0583-0.0519-1.58-0.15567-0.522-0.10369-1.029-0.25732-1.5203-0.46083-0.4912-0.20359-0.958-0.4531-1.3999-0.74858-0.4419-0.29542-0.8511-0.63128-1.227-1.00738-0.376-0.37604-0.712-0.78514-1.0079-1.22734-0.2954-0.4422-0.5449-0.909-0.7489-1.4004-0.2032-0.4914-0.357-0.99787-0.4605-1.5195-0.104-0.5216-0.1558-1.04838-0.1555-1.5803v-163.8c-3e-4 -0.5319 0.0515-1.0586 0.155-1.5802 0.104-0.5216 0.2578-1.028 0.461-1.5193 0.204-0.4914 0.4535-0.9582 0.7489-1.4004 0.2959-0.4424 0.6319-0.8516 1.0079-1.2277 0.3759-0.3761 0.7851-0.7118 1.227-1.0072s0.9087-0.5449 1.3999-0.7485c0.4913-0.2035 0.9981-0.3572 1.5193-0.4611 0.522-0.1036 1.0496-0.1555 1.581-0.1556z" fill="none" stroke-width="2" class="stroke" />
  <text transform="matrix(1.3455328 0 0 1.3455328 -5357.926 1511.5413)" font-family="Tinos" font-size="18" xml:space="preserve" class="fill"><tspan x="4185.7346 4195.742 4207.748 4220.744 4225.244 4231.2385" y="-963" class="fill">PCD ID</tspan></text>
  <text transform="matrix(1.3455328 0 0 1.3455328 -5357.926 1511.5413)" font-family="Tinos" font-size="18" xml:space="preserve" class="fill"><tspan x="4191.2346 4200.2346 4209.2346 4213.7346 4222.7346 4227.7385 4232.742" y="-838" class="fill">28 bits</tspan></text>
  <path transform="matrix(1.3455328,0,0,1.3455328,-5357.926,1511.5413)" d="m4169-864.31h91" fill="none" stroke-miterlimit="10" stroke-width="2" class="stroke" />
  <path transform="matrix(1.3455328,0,0,1.3455328,-5357.926,1511.5413)" d="m4169-868.81v9" fill="none" stroke-miterlimit="10" stroke-width="2" class="stroke" />
  <path transform="matrix(1.3455328,0,0,1.3455328,-5357.926,1511.5413)" d="m4260-859.81v-9" fill="none" stroke-miterlimit="10" stroke-width="2" class="stroke" />
  <path transform="matrix(1.3455328,0,0,1.3455328,-5357.926,1511.5413)" d="m4036.53-1059h117.44c0.4286 1e-4 0.853 0.042 1.2738 0.1256 0.4202 0.0836 0.8287 0.2075 1.2247 0.3716 0.396 0.1642 0.7724 0.3653 1.1285 0.6035 0.357 0.2382 0.687 0.5089 0.9906 0.812 0.3032 0.3033 0.5742 0.6331 0.812 0.9896 0.2383 0.3565 0.4394 0.7328 0.6034 1.1289 0.1637 0.3962 0.2877 0.8045 0.3717 1.225 0.0833 0.4205 0.125 0.8451 0.1253 1.2738v166.94c-3e-4 0.4288-0.042 0.8535-0.1253 1.27393-0.084 0.4206-0.208 0.82898-0.3717 1.22507-0.164 0.3962-0.3651 0.77243-0.603 1.12894-0.2382 0.3565-0.5092 0.68636-0.8124 0.9895-0.3036 0.30316-0.6336 0.57386-0.9906 0.81207-0.3561 0.23822-0.7325 0.43939-1.1285 0.60349-0.396 0.16403-0.8045 0.2879-1.2247 0.3716-0.4208 0.0836-0.8452 0.1254-1.2738 0.1254h-117.44c-0.4286 0-0.8534-0.0418-1.2741-0.1255-0.4206-0.0836-0.8289-0.20747-1.2251-0.3715-0.3962-0.1641-0.7724-0.36527-1.1291-0.60349-0.3565-0.23821-0.6863-0.50891-0.9893-0.81207-0.3032-0.30314-0.5739-0.633-0.812-0.9895-0.2385-0.35644-0.4397-0.73273-0.6035-1.12891-0.1643-0.39612-0.2881-0.80443-0.3719-1.22503-0.0834-0.4205-0.1252-0.8452-0.125-1.274v-166.94c-2e-4 -0.4287 0.0416-0.8533 0.125-1.2738 0.0836-0.4205 0.2073-0.8288 0.3717-1.225 0.164-0.3961 0.3652-0.7724 0.6037-1.1289 0.2383-0.3565 0.509-0.6863 0.8123-0.9896 0.3029-0.3031 0.6328-0.5738 0.9893-0.812 0.3564-0.2382 0.7326-0.4393 1.1288-0.6035 0.3962-0.1641 0.8047-0.288 1.2252-0.3716 0.4208-0.0836 0.8454-0.1255 1.274-0.1256z" fill="none" stroke-width="2" class="stroke" />
  <text transform="matrix(1.3455328 0 0 1.3455328 -5357.926 1511.5413)" font-family="Tinos" font-size="18" xml:space="preserve" class="fill"><tspan x="4036.2657 4052.2677 4060.2596 4067.2615 4074.2635 4082.2554 4091.2554 4099.2478 4103.7478 4114.7458 4122.738 4131.738 4140.738 4145.7419" y="-963" class="fill">Message Length</tspan></text>
  <text transform="matrix(1.3455328 0 0 1.3455328 -5357.926 1511.5413)" font-family="Tinos" font-size="18" xml:space="preserve" class="fill"><tspan x="4068.2344 4077.2344 4081.7344 4090.7344 4095.7384 4100.742" y="-840" class="fill">4 bits</tspan></text>
  <path transform="matrix(1.3455328,0,0,1.3455328,-5357.926,1511.5413)" d="m4030-863.43h130" fill="none" stroke-miterlimit="10" stroke-width="2" class="stroke" />
  <path transform="matrix(1.3455328,0,0,1.3455328,-5357.926,1511.5413)" d="m4030-867.93v9" fill="none" stroke-miterlimit="10" stroke-width="2" class="stroke" />
  <path transform="matrix(1.3455328,0,0,1.3455328,-5357.926,1511.5413)" d="m4160-858.93v-9" fill="none" stroke-miterlimit="10" stroke-width="2" class="stroke" />
 </g>
</svg>