<svg xmlns="http://www.w3.org/2000/svg" width="2024.1599" height="423.84" version="1.1" viewBox="0 0 2024.1599 423.84">
 <style>
          .fill { fill: black; }
          .stroke { stroke: black; }
          @media (prefers-color-scheme: dark) {
            .fill { fill: white; }
            .stroke { stroke: white; }
          }
        </style><defs>
  <clipPath id="a">
   <path transform="scale(.48)" d="M78.125 15.625H4137.5V868.75H78.125Z" clip-rule="evenodd" />
  </clipPath>
 </defs>
 <g clip-path="url(#a)">
  <path transform="matrix(1.3846092,0,0,1.3846092,-5727.501,8788.807)" d="m4312.24-6170h241.25v120h-241.25z" fill="none" stroke-width="3" class="stroke" />
  <text transform="matrix(1.3846092 0 0 1.3846092 -5728.1936 8788.114)" font-family="Tinos" font-size="26" xml:space="preserve" class="fill"><tspan x="4384.828 4399.284 4407.9426 4426.7145 4445.4865 4464.2585" y="-6117" class="fill">SIGNAL</tspan></text>
  <text transform="matrix(1.3846092 0 0 1.3846092 -5728.1936 8788.114)" font-family="Tinos" font-size="26" xml:space="preserve" class="fill"><tspan x="4333.1564 4347.6125 4363.4987 4382.2707 4405.3845 4421.2707 4440.0427 4453.8508 4469.745 4485.6315 4494.2897 4513.0617" y="-6085" class="fill">SEGMENTATION</tspan></text>
  <text transform="matrix(1.3846092 0 0 1.3846092 -5728.1936 8788.114)" font-family="Tinos" font-size="26" xml:space="preserve" class="fill"><tspan x="4181 4195.456 4204.1145 4211.3425" y="-6136" class="fill">S(t)</tspan></text>
  <path transform="matrix(1.3846092,0,0,1.3846092,-5727.501,8788.807)" d="m4204-6110.31 54.2 0.01 41.69 0.23" fill="none" stroke-miterlimit="10" stroke-width="3" class="stroke" />
  <path transform="matrix(1.3846092,0,0,1.3846092,-5727.501,8788.807)" d="m4308.89-6110.02-9.03 4.45 0.05-9 8.98 4.55z" />
  <path transform="matrix(1.3846092,0,0,1.3846092,-5727.501,8788.807)" d="m4308.89-6110.02-9.03 4.45 0.05-9 8.98 4.55z" fill="none" stroke-miterlimit="10" stroke-width="3" class="stroke" />
  <path transform="matrix(1.3846092,0,0,1.3846092,-5727.501,8788.807)" d="m4204.005-6110.31c-4e-4 0.4514-0.0444 0.899-0.1322 1.3415-0.0888 0.4429-0.2188 0.8735-0.3912 1.2905-0.1728 0.4171-0.3847 0.8131-0.6357 1.1881s-0.5361 0.7221-0.855 1.041c-0.3193 0.3199-0.6669 0.605-1.042 0.8554-0.3759 0.251-0.7715 0.4629-1.1885 0.6355-0.4174 0.173-0.8474 0.303-1.2895 0.3904-0.4429 0.0886-0.8899 0.1326-1.3409 0.1326-0.452 0-0.899-0.044-1.342-0.132s-0.8723-0.218-1.29-0.391c-0.417-0.1726-0.813-0.3845-1.1882-0.6355-0.375-0.2504-0.7222-0.5355-1.0418-0.8554-0.3191-0.3189-0.6042-0.666-0.855-1.041-0.2512-0.375-0.4631-0.771-0.6355-1.1881-0.1725-0.417-0.3027-0.8476-0.3915-1.2905-0.0875-0.4425-0.1314-0.8901-0.131-1.3415-4e-4 -0.451 0.0435-0.898 0.131-1.3406 0.0888-0.4429 0.219-0.873 0.3915-1.29 0.1724-0.4174 0.3843-0.8134 0.6355-1.189 0.2508-0.3754 0.5359-0.7224 0.855-1.042 0.3196-0.3184 0.6668-0.604 1.0418-0.855 0.3752-0.2504 0.7719-0.4619 1.1889-0.6352 0.4173-0.1729 0.8472-0.3032 1.2893-0.3911 0.443-0.0881 0.89-0.1321 1.342-0.1321 0.451 0 0.898 0.044 1.3409 0.1321 0.4429 0.0879 0.8726 0.2182 1.29 0.3911 0.4165 0.1733 0.8121 0.3848 1.188 0.6352 0.3751 0.251 0.7227 0.5366 1.042 0.855 0.3189 0.3196 0.604 0.6666 0.8541 1.042 0.251 0.3756 0.463 0.7716 0.636 1.189 0.173 0.417 0.303 0.8467 0.3918 1.2896 0.0878 0.443 0.1318 0.89 0.1322 1.341z" fill="none" stroke-width="3" class="stroke" />
  <path transform="matrix(1.3846092,0,0,1.3846092,-5727.501,8788.807)" d="m4672.24-6170.31h120v120h-120z" fill="none" stroke-width="3" class="stroke" />
  <text transform="matrix(1.3846092 0 0 1.3846092 -5728.1936 8788.114)" font-family="Tinos" font-size="26" xml:space="preserve" class="fill"><tspan x="4709.5939 4724.05 4738.506" y="-6101" class="fill">FFT</tspan></text>
  <path transform="matrix(1.3846092,0,0,1.3846092,-5727.501,8788.807)" d="m4553.49-6110h59.41l46.99-0.25" fill="none" stroke-miterlimit="10" stroke-width="3" class="stroke" />
  <path transform="matrix(1.3846092,0,0,1.3846092,-5727.501,8788.807)" d="m4668.89-6110.29-8.98 4.54-0.05-9 9.03 4.46z" />
  <path transform="matrix(1.3846092,0,0,1.3846092,-5727.501,8788.807)" d="m4668.89-6110.29-8.98 4.54-0.05-9 9.03 4.46z" fill="none" stroke-miterlimit="10" stroke-width="3" class="stroke" />
  <text transform="matrix(1.3846092 0 0 1.3846092 -5728.1936 8788.114)" font-family="Tinos" font-size="26" xml:space="preserve" class="fill"><tspan x="4581.8127" y="-6139" class="fill">x</tspan></text>
  <text transform="matrix(1.3846092 0 0 1.3846092 -5728.1936 8788.114)" font-family="Tinos" font-size="21.66" xml:space="preserve" class="fill"><tspan x="4594.8127" y="-6132.8127" class="fill">n</tspan></text>
  <text transform="matrix(1.3846092 0 0 1.3846092 -5728.1936 8788.114)" font-family="Tinos" font-size="26" xml:space="preserve" class="fill"><tspan x="4605.6408 4614.299 4634.527" y="-6139" class="fill">[m]</tspan></text>
  <path transform="matrix(1.3846092,0,0,1.3846092,-5727.501,8788.807)" d="m4792.24-6110.31h106.65" fill="none" stroke-miterlimit="10" stroke-width="3" class="stroke" />
  <path transform="matrix(1.3846092,0,0,1.3846092,-5727.501,8788.807)" d="m4907.89-6110.31-9 4.5v-9l9 4.5z" />
  <path transform="matrix(1.3846092,0,0,1.3846092,-5727.501,8788.807)" d="m4907.89-6110.31-9 4.5v-9l9 4.5z" fill="none" stroke-miterlimit="10" stroke-width="3" class="stroke" />
  <text transform="matrix(1.3846092 0 0 1.3846092 -5728.1936 8788.114)" font-family="Tinos" font-size="26" xml:space="preserve" class="fill"><tspan x="4822.5314" y="-6139" class="fill">X</tspan></text>
  <text transform="matrix(1.3846092 0 0 1.3846092 -5728.1936 8788.114)" font-family="Tinos" font-size="21.66" xml:space="preserve" class="fill"><tspan x="4841.3127" y="-6132.8127" class="fill">n</tspan></text>
  <text transform="matrix(1.3846092 0 0 1.3846092 -5728.1936 8788.114)" font-family="Tinos" font-size="26" xml:space="preserve" class="fill"><tspan x="4852.1408 4860.799 4873.799" y="-6139" class="fill">[k]</tspan></text>
  <path transform="matrix(1.3846092,0,0,1.3846092,-5727.501,8788.807)" d="m4911.24-6170.31h161v120h-161z" fill="none" stroke-width="3" class="stroke" />
  <text transform="matrix(1.3846092 0 0 1.3846092 -5728.1936 8788.114)" font-family="Tinos" font-size="26" xml:space="preserve" class="fill"><tspan x="4929.25 4937.908 4943.1086" y="-6101" class="fill">(|X</tspan></text>
  <text transform="matrix(1.3846092 0 0 1.3846092 -5728.1936 8788.114)" font-family="Tinos" font-size="21.66" xml:space="preserve" class="fill"><tspan x="4961.8908" y="-6094.8127" class="fill">n</tspan></text>
  <text transform="matrix(1.3846092 0 0 1.3846092 -5728.1936 8788.114)" font-family="Tinos" font-size="26" xml:space="preserve" class="fill"><tspan x="4972.7189 4981.377 4994.377 5003.035" y="-6101" class="fill">[k]|</tspan></text>
  <text transform="matrix(1.3846092 0 0 1.3846092 -5728.1936 8788.114)" font-family="Tinos" font-size="21.66" xml:space="preserve" class="fill"><tspan x="5008.25" y="-6110.6564" class="fill">2</tspan></text>
  <text transform="matrix(1.3846092 0 0 1.3846092 -5728.1936 8788.114)" font-family="Tinos" font-size="26" xml:space="preserve" class="fill"><tspan x="5019.078 5027.7365 5034.9645" y="-6100.3439" class="fill">)/N</tspan></text>
  <path transform="matrix(1.3846092,0,0,1.3846092,-5727.501,8788.807)" d="m5072.24-6110h106.65" fill="none" stroke-miterlimit="10" stroke-width="3" class="stroke" />
  <path transform="matrix(1.3846092,0,0,1.3846092,-5727.501,8788.807)" d="m5187.89-6110-9 4.5v-9l9 4.5z" />
  <path transform="matrix(1.3846092,0,0,1.3846092,-5727.501,8788.807)" d="m5187.89-6110-9 4.5v-9l9 4.5z" fill="none" stroke-miterlimit="10" stroke-width="3" class="stroke" />
  <text transform="matrix(1.3846092 0 0 1.3846092 -5728.1936 8788.114)" font-family="Tinos" font-size="26" xml:space="preserve" class="fill"><tspan x="5103.6877" y="-6139" class="fill">P</tspan></text>
  <text transform="matrix(1.3846092 0 0 1.3846092 -5728.1936 8788.114)" font-family="Tinos" font-size="21.66" xml:space="preserve" class="fill"><tspan x="5118.1564" y="-6132.8127" class="fill">n</tspan></text>
  <text transform="matrix(1.3846092 0 0 1.3846092 -5728.1936 8788.114)" font-family="Tinos" font-size="26" xml:space="preserve" class="fill"><tspan x="5128.9846 5137.6428 5150.6428" y="-6139" class="fill">[k]</tspan></text>
  <path transform="matrix(1.3846092,0,0,1.3846092,-5727.501,8788.807)" d="m5291.74-6182.35v-100.15" fill="none" stroke-miterlimit="10" stroke-width="3" class="stroke" />
  <path transform="matrix(1.3846092,0,0,1.3846092,-5727.501,8788.807)" d="m5291.74-6173.35-3-9h6l-3 9z" />
  <path transform="matrix(1.3846092,0,0,1.3846092,-5727.501,8788.807)" d="m5291.74-6173.35-3-9h6l-3 9z" fill="none" stroke-miterlimit="10" stroke-width="3" class="stroke" />
  <path transform="matrix(1.3846092,0,0,1.3846092,-5727.501,8788.807)" d="m5191.24-6170h201v120h-201z" fill="none" stroke-width="3" class="stroke" />
  <text transform="matrix(1.3846092 0 0 1.3846092 -5728.1936 8788.114)" font-family="Tinos" font-size="26" xml:space="preserve" class="fill"><tspan x="5247.4377 5264.7795 5283.5515 5299.4377 5316.7795" y="-6117" class="fill">CHECK</tspan></text>
  <text transform="matrix(1.3846092 0 0 1.3846092 -5728.1936 8788.114)" font-family="Tinos" font-size="26" xml:space="preserve" class="fill"><tspan x="5213.4846 5227.9406 5245.282 5261.1687 5279.9406 5298.7126 5314.5988 5333.3708 5350.7126" y="-6085" class="fill">FREQUENCY</tspan></text>
  <text transform="matrix(1.3846092 0 0 1.3846092 -5728.1936 8788.114)" font-family="Tinos" font-size="26" xml:space="preserve" class="fill"><tspan x="5280.6564 5295.1125" y="-6316" class="fill">Pt</tspan></text>
  <path transform="matrix(1.3846092,0,0,1.3846092,-5727.501,8788.807)" d="m5298.615-6289.38c-1e-4 0.452-0.044 0.8993-0.1324 1.3422-0.0886 0.4429-0.2187 0.8728-0.3916 1.29-0.173 0.4168-0.3843 0.8128-0.635 1.188-0.251 0.3758-0.536 0.7228-0.855 1.0418-0.3191 0.3191-0.6662 0.6042-1.042 0.8552-0.3752 0.2508-0.772 0.4628-1.189 0.6353s-0.8464 0.3025-1.289 0.3906c-0.443 0.0879-0.8894 0.1319-1.341 0.1319-0.4512 0-0.8985-0.044-1.3414-0.1319-0.4428-0.0881-0.8726-0.2181-1.29-0.3906-0.417-0.1725-0.813-0.3845-1.1886-0.6353-0.3754-0.251-0.7225-0.5361-1.0414-0.8552-0.3196-0.319-0.6046-0.666-0.8556-1.0418-0.2503-0.3752-0.4623-0.7712-0.6351-1.1882-0.1729-0.417-0.3032-0.847-0.3911-1.29s-0.1319-0.89-0.1318-1.342c-1e-4 -0.451 0.0439-0.898 0.1318-1.3409 0.0879-0.4419 0.2182-0.8716 0.3911-1.2886 0.1728-0.4175 0.3848-0.8134 0.6351-1.1885 0.251-0.3759 0.536-0.723 0.8556-1.0429 0.3189-0.3191 0.666-0.604 1.0414-0.8541 0.3756-0.2519 0.7716-0.4638 1.1886-0.636 0.4174-0.173 0.8472-0.303 1.29-0.3918 0.4429-0.0882 0.8902-0.1322 1.3414-0.1322 0.4516 0 0.898 0.0444 1.341 0.133 0.4426 0.088 0.872 0.218 1.289 0.391 0.417 0.1722 0.8138 0.3841 1.189 0.636 0.3758 0.2501 0.7229 0.535 1.042 0.8541 0.319 0.3199 0.604 0.667 0.855 1.0429 0.2507 0.3751 0.462 0.771 0.635 1.188 0.1729 0.417 0.303 0.847 0.3916 1.29 0.0884 0.442 0.1323 0.889 0.1324 1.34z" fill="none" stroke-width="3" class="stroke" />
  <path transform="matrix(1.3846092,0,0,1.3846092,-5727.501,8788.807)" d="m5392.24-6110.74h106.65" fill="none" stroke-miterlimit="10" stroke-width="3" class="stroke" />
  <path transform="matrix(1.3846092,0,0,1.3846092,-5727.501,8788.807)" d="m5507.89-6110.74-9 4.5v-9l9 4.5z" />
  <path transform="matrix(1.3846092,0,0,1.3846092,-5727.501,8788.807)" d="m5507.89-6110.74-9 4.5v-9l9 4.5z" fill="none" stroke-miterlimit="10" stroke-width="3" class="stroke" />
  <text transform="matrix(1.3846092 0 0 1.3846092 -5728.1936 8788.114)" font-family="Tinos" font-size="26" xml:space="preserve" class="fill"><tspan x="5481.6877" y="-6139" class="fill">P</tspan></text>
  <text transform="matrix(1.3846092 0 0 1.3846092 -5728.1936 8788.114)" font-family="Tinos" font-size="21.66" xml:space="preserve" class="fill"><tspan x="5496.1564" y="-6132.8127" class="fill">n</tspan></text>
  <text transform="matrix(1.3846092 0 0 1.3846092 -5728.1936 8788.114)" font-family="Tinos" font-size="26" xml:space="preserve" class="fill"><tspan x="5506.9846 5515.6428 5528.6428" y="-6139" class="fill">[k]</tspan></text>
  <path transform="matrix(1.3846092,0,0,1.3846092,-5727.501,8788.807)" d="m5524.755-6110.31c0 0.4514-0.044 0.899-0.1322 1.3415-0.0888 0.4429-0.2193 0.8735-0.3921 1.2905-0.1729 0.4171-0.3848 0.8131-0.6357 1.1881-0.251 0.375-0.536 0.7221-0.855 1.041-0.319 0.3199-0.6661 0.605-1.042 0.8554-0.3751 0.251-0.771 0.4629-1.188 0.6355-0.417 0.173-0.847 0.303-1.29 0.3904-0.442 0.0886-0.889 0.1326-1.34 0.1326-0.4511 0-0.8984-0.044-1.342-0.132-0.443-0.088-0.873-0.218-1.29-0.391-0.417-0.1726-0.813-0.3845-1.1882-0.6355-0.3758-0.2504-0.7228-0.5355-1.042-0.8554-0.3189-0.3189-0.604-0.666-0.855-1.041-0.2508-0.375-0.4628-0.771-0.6353-1.1881-0.1725-0.417-0.3027-0.8476-0.3906-1.2905-0.0879-0.4425-0.1319-0.8901-0.1319-1.3415 0-0.451 0.044-0.898 0.1319-1.3406 0.0879-0.4429 0.2181-0.873 0.3906-1.29 0.1725-0.4174 0.3845-0.8134 0.6353-1.189 0.251-0.3754 0.5361-0.7224 0.855-1.042 0.3192-0.3184 0.6662-0.604 1.042-0.855 0.3752-0.2504 0.7712-0.4619 1.1882-0.6352 0.417-0.1729 0.847-0.3032 1.29-0.3911 0.4436-0.0881 0.8909-0.1321 1.342-0.1321 0.451 0 0.898 0.044 1.34 0.1321 0.443 0.0879 0.873 0.2182 1.29 0.3911 0.417 0.1733 0.8129 0.3848 1.188 0.6352 0.3759 0.251 0.723 0.5366 1.042 0.855 0.319 0.3196 0.604 0.6666 0.855 1.042 0.2509 0.3756 0.4628 0.7716 0.6357 1.189 0.1728 0.417 0.3033 0.8467 0.3921 1.2896 0.0882 0.443 0.1322 0.89 0.1322 1.341z" fill="none" stroke-width="3" class="stroke" />
 </g>
</svg>