<svg xmlns="http://www.w3.org/2000/svg" width="1416" height="668.16" version="1.1" viewBox="0 0 1416 668.16">
 <style>
          .fill { fill: black; }
          .stroke { stroke: black; }
          @media (prefers-color-scheme: dark) {
            .fill { fill: white; }
            .stroke { stroke: white; }
          }
        </style><defs>
  <clipPath id="a">
   <path transform="scale(.48)" d="M78.125 34.375H2875V1359.375H78.125Z" clip-rule="evenodd" />
  </clipPath>
 </defs>
 <g clip-path="url(#a)">
  <path transform="matrix(1.3615952,0,0,1.3615952,-6604.8786,7087.402)" d="m5300.25-4790 147.4 0.01" fill="none" stroke-miterlimit="10" stroke-width="3" class="stroke" />
  <path transform="matrix(1.3615952,0,0,1.3615952,-6604.8786,7087.402)" d="m5456.65-4789.99-9 4.5v-9l9 4.5z" />
  <path transform="matrix(1.3615952,0,0,1.3615952,-6604.8786,7087.402)" d="m5456.65-4789.99-9 4.5v-9l9 4.5z" fill="none" stroke-miterlimit="10" stroke-width="3" class="stroke" />
  <path transform="matrix(1.3615952,0,0,1.3615952,-6604.8786,7087.402)" d="m5059-4850h241.25v120h-241.25z" fill="none" stroke-width="3" class="stroke" />
  <text transform="matrix(1.3615952 0 0 1.3615952 -6605.5598 7086.721)" font-family="Tinos" font-size="26" xml:space="preserve" class="fill"><tspan x="5136.5158 5150.9719 5169.7438 5185.63 5200.086" y="-4797" class="fill">PULSE</tspan></text>
  <text transform="matrix(1.3615952 0 0 1.3615952 -6605.5598 7086.721)" font-family="Tinos" font-size="26" xml:space="preserve" class="fill"><tspan x="5215.972" y="-4797" class="fill"> </tspan></text>
  <text transform="matrix(1.3615952 0 0 1.3615952 -6605.5598 7086.721)" font-family="Tinos" font-size="26" xml:space="preserve" class="fill"><tspan x="5108 5131.114 5149.8859 5168.6579 5187.4299 5203.316 5219.2238 5235.11" y="-4765" class="fill">MODULATE</tspan></text>
  <text transform="matrix(1.3615952 0 0 1.3615952 -6605.5598 7086.721)" font-family="Tinos" font-size="26" xml:space="preserve" class="fill"><tspan x="4890.953 4909.725 4918.3835 4931.3835" y="-4756" class="fill">Q[n]</tspan></text>
  <path transform="matrix(1.3615952,0,0,1.3615952,-6604.8786,7087.402)" d="m4918.75-4789.99 127.9-0.01" fill="none" stroke-miterlimit="10" stroke-width="3" class="stroke" />
  <path transform="matrix(1.3615952,0,0,1.3615952,-6604.8786,7087.402)" d="m5055.65-4790-9 4.5v-9l9 4.5z" />
  <path transform="matrix(1.3615952,0,0,1.3615952,-6604.8786,7087.402)" d="m5055.65-4790-9 4.5v-9l9 4.5z" fill="none" stroke-miterlimit="10" stroke-width="3" class="stroke" />
  <path transform="matrix(1.3615952,0,0,1.3615952,-6604.8786,7087.402)" d="m4918.755-4789.99c0 0.4512-0.0444 0.898-0.133 1.341-0.0881 0.443-0.2185 0.873-0.3913 1.2904-0.1729 0.417-0.3848 0.813-0.6357 1.1886-0.251 0.3754-0.5352 0.7225-0.8541 1.0414-0.3189 0.3196-0.6669 0.6046-1.042 0.855-0.3759 0.2509-0.7719 0.4629-1.1889 0.6356-0.417 0.172-0.847 0.3024-1.2891 0.391-0.4424 0.088-0.8892 0.132-1.3409 0.132-0.452 0-0.8984-0.044-1.3412-0.132-0.4429-0.0886-0.8731-0.219-1.2908-0.391-0.417-0.1727-0.813-0.3847-1.1882-0.6356-0.3758-0.2504-0.7228-0.5354-1.0418-0.855-0.3191-0.3189-0.6042-0.666-0.855-1.0414-0.251-0.3756-0.463-0.7716-0.6355-1.1886-0.1728-0.4174-0.3035-0.8474-0.3906-1.2904-0.0879-0.443-0.1319-0.8898-0.1319-1.341 0-0.4516 0.044-0.898 0.1319-1.341s0.2181-0.873 0.3911-1.2898c0.172-0.4172 0.384-0.8132 0.635-1.189 0.2508-0.3752 0.5359-0.7222 0.855-1.042 0.319-0.3188 0.666-0.604 1.0418-0.8542 0.3752-0.2507 0.7712-0.4627 1.1882-0.6355 0.4177-0.1724 0.8479-0.3025 1.2908-0.3911 0.4428-0.0879 0.8892-0.1323 1.3412-0.1324 0.4517 1e-4 0.8985 0.0445 1.3409 0.1324 0.4429 0.0886 0.8726 0.2187 1.2895 0.3911 0.417 0.1728 0.8126 0.3848 1.1885 0.6355 0.3751 0.2502 0.7231 0.5354 1.042 0.8542 0.3189 0.3198 0.6031 0.6668 0.8541 1.042 0.2509 0.3758 0.4628 0.7718 0.6357 1.189 0.1728 0.4168 0.3032 0.8468 0.3913 1.2898 0.0886 0.443 0.133 0.8894 0.133 1.341z" fill="none" stroke-width="3" class="stroke" />
  <path transform="matrix(1.3615952,0,0,1.3615952,-6604.8786,7087.402)" d="m5300.25-5130h147.4" fill="none" stroke-miterlimit="10" stroke-width="3" class="stroke" />
  <path transform="matrix(1.3615952,0,0,1.3615952,-6604.8786,7087.402)" d="m5456.65-5130-9 4.5v-9l9 4.5z" />
  <path transform="matrix(1.3615952,0,0,1.3615952,-6604.8786,7087.402)" d="m5456.65-5130-9 4.5v-9l9 4.5z" fill="none" stroke-miterlimit="10" stroke-width="3" class="stroke" />
  <path transform="matrix(1.3615952,0,0,1.3615952,-6604.8786,7087.402)" d="m5059-5190h241.25v120h-241.25z" fill="none" stroke-width="3" class="stroke" />
  <text transform="matrix(1.3615952 0 0 1.3615952 -6605.5598 7086.721)" font-family="Tinos" font-size="26" xml:space="preserve" class="fill"><tspan x="5136.5158 5150.9719 5169.7438 5185.63 5200.086" y="-5137" class="fill">PULSE</tspan></text>
  <text transform="matrix(1.3615952 0 0 1.3615952 -6605.5598 7086.721)" font-family="Tinos" font-size="26" xml:space="preserve" class="fill"><tspan x="5215.972" y="-5137" class="fill"> </tspan></text>
  <text transform="matrix(1.3615952 0 0 1.3615952 -6605.5598 7086.721)" font-family="Tinos" font-size="26" xml:space="preserve" class="fill"><tspan x="5108 5131.114 5149.8859 5168.6579 5187.4299 5203.316 5219.2238 5235.11" y="-5105" class="fill">MODULATE</tspan></text>
  <text transform="matrix(1.3615952 0 0 1.3615952 -6605.5598 7086.721)" font-family="Tinos" font-size="26" xml:space="preserve" class="fill"><tspan x="4896 4904.658 4913.3166 4926.3166" y="-5156" class="fill">I[n]</tspan></text>
  <path transform="matrix(1.3615952,0,0,1.3615952,-6604.8786,7087.402)" d="m4918.75-5129.99 127.9-0.01" fill="none" stroke-miterlimit="10" stroke-width="3" class="stroke" />
  <path transform="matrix(1.3615952,0,0,1.3615952,-6604.8786,7087.402)" d="m5055.65-5130-9 4.5v-9l9 4.5z" />
  <path transform="matrix(1.3615952,0,0,1.3615952,-6604.8786,7087.402)" d="m5055.65-5130-9 4.5v-9l9 4.5z" fill="none" stroke-miterlimit="10" stroke-width="3" class="stroke" />
  <path transform="matrix(1.3615952,0,0,1.3615952,-6604.8786,7087.402)" d="m4918.755-5129.99c0 0.451-0.0444 0.898-0.133 1.3414-0.0881 0.4428-0.2185 0.8726-0.3913 1.2896-0.1729 0.417-0.3848 0.813-0.6357 1.1884-0.251 0.375-0.5352 0.7226-0.8541 1.0416s-0.6669 0.604-1.042 0.8554c-0.3759 0.2506-0.7719 0.4626-1.1889 0.6356-0.417 0.172-0.847 0.3024-1.2891 0.391-0.4424 0.088-0.8892 0.132-1.3409 0.132-0.452 0-0.8984-0.044-1.3412-0.132-0.4429-0.0886-0.8731-0.219-1.2908-0.391-0.417-0.173-0.813-0.385-1.1882-0.6356-0.3758-0.2514-0.7228-0.5364-1.0418-0.8554-0.3191-0.319-0.6042-0.6666-0.855-1.0416-0.251-0.3754-0.463-0.7714-0.6355-1.1884-0.1728-0.417-0.3035-0.8468-0.3906-1.2896-0.0879-0.4434-0.1319-0.8904-0.1319-1.3414 0-0.4516 0.044-0.898 0.1319-1.341s0.2181-0.8728 0.3911-1.2898c0.172-0.4172 0.384-0.8132 0.635-1.189 0.2508-0.3752 0.5359-0.7222 0.855-1.042 0.319-0.3188 0.666-0.604 1.0418-0.8542 0.3752-0.251 0.7712-0.463 1.1882-0.6355 0.4177-0.1725 0.8479-0.3032 1.2908-0.3911 0.4428-0.0884 0.8892-0.1324 1.3412-0.1324 0.4517 0 0.8985 0.044 1.3409 0.1324 0.4429 0.0879 0.8726 0.2186 1.2895 0.3911 0.417 0.1725 0.8126 0.3845 1.1885 0.6355 0.3751 0.2502 0.7231 0.5354 1.042 0.8542 0.3189 0.3198 0.6031 0.6668 0.8541 1.042 0.2509 0.3758 0.4628 0.7718 0.6357 1.189 0.1728 0.417 0.3032 0.8468 0.3913 1.2898 0.0886 0.443 0.133 0.8894 0.133 1.341z" fill="none" stroke-width="3" class="stroke" />
  <path transform="matrix(1.3615952,0,0,1.3615952,-6604.8786,7087.402)" d="m5540-4789.99 144.5-0.01 0.03-117.65" fill="none" stroke-miterlimit="10" stroke-width="3" class="stroke" />
  <path transform="matrix(1.3615952,0,0,1.3615952,-6604.8786,7087.402)" d="m5684.53-4916.65 4.5 9.01-9-0.01 4.5-9z" />
  <path transform="matrix(1.3615952,0,0,1.3615952,-6604.8786,7087.402)" d="m5684.53-4916.65 4.5 9.01-9-0.01 4.5-9z" fill="none" stroke-miterlimit="10" stroke-width="3" class="stroke" />
  <path transform="matrix(1.3615952,0,0,1.3615952,-6604.8786,7087.402)" d="m5540-4789.99c7e-4 1.31-0.0633 2.6163-0.192 3.92-0.1281 1.3042-0.3205 2.599-0.5764 3.884-0.2556 1.2844-0.5737 2.554-0.9541 3.8074-0.3805 1.2536-0.8215 2.4858-1.3227 3.6966-0.5018 1.2101-1.0608 2.393-1.6782 3.548-0.6177 1.156-1.2906 2.278-2.0186 3.3672-0.7275 1.0894-1.507 2.1401-2.338 3.1528-0.831 1.0122-1.71 1.982-2.6361 2.9082-0.9263 0.9263-1.896 1.8048-2.9092 2.6358-1.0122 0.8305-2.0637 1.6103-3.1528 2.3384-1.0889 0.728-2.211 1.4006-3.3662 2.018-1.1557 0.6177-2.3387 1.1776-3.5489 1.6787-1.2099 0.5019-2.4418 0.9419-3.6948 1.3213-1.254 0.3806-2.5234 0.6988-3.809 0.9546-1.2843 0.2554-2.5782 0.4473-3.8814 0.576-1.3037 0.1281-2.6109 0.193-3.9216 0.193-1.3094 0-2.616-0.0649-3.9202-0.193-1.3042-0.1287-2.5988-0.3206-3.8838-0.576-1.285-0.2558-2.5542-0.5737-3.808-0.954-1.253-0.38-2.4855-0.82-3.696-1.3219-1.21-0.5011-2.393-1.061-3.549-1.6781-1.1545-0.6178-2.2771-1.2906-3.3664-2.018-1.0889-0.728-2.1397-1.508-3.1529-2.339-1.0122-0.831-1.9819-1.7095-2.9082-2.6358-0.9265-0.9262-1.8047-1.896-2.6357-2.9087-0.8311-1.0122-1.6109-2.0629-2.3389-3.1523-0.728-1.0892-1.4004-2.2112-2.018-3.3667-0.6179-1.1555-1.1773-2.3384-1.6789-3.5485-0.5013-1.2108-0.942-2.443-1.322-3.6966-0.38-1.2534-0.698-2.523-0.954-3.8074-0.2551-1.285-0.4465-2.5798-0.575-3.884-0.1284-1.3037-0.1923-2.61-0.193-3.92 7e-4 -1.3105 0.0646-2.6176 0.193-3.921 0.1285-1.3035 0.3199-2.598 0.575-3.8827 0.256-1.2843 0.574-2.5542 0.9539-3.8081 0.3801-1.2532 0.8208-2.4848 1.3221-3.6948 0.5016-1.2104 1.061-2.3934 1.6789-3.5493 0.6176-1.1551 1.29-2.2771 2.018-3.3661 0.728-1.0895 1.5078-2.1407 2.3389-3.153 0.831-1.0136 1.7092-1.9829 2.6357-2.909 0.9263-0.926 1.896-1.805 2.9082-2.636 1.0132-0.8309 2.064-1.61 3.1529-2.338 1.0893-0.728 2.2119-1.401 3.3664-2.018 1.156-0.618 2.339-1.1776 3.549-1.679 1.2105-0.5015 2.443-0.9419 3.696-1.322 1.2538-0.3807 2.523-0.699 3.808-0.954 1.285-0.256 2.5796-0.4486 3.8838-0.577 1.3042-0.1285 2.6108-0.192 3.9202-0.192 1.3107 0 2.6179 0.0635 3.9216 0.192 1.3032 0.1284 2.5971 0.321 3.8814 0.577 1.2856 0.255 2.555 0.573 3.809 0.9532 1.253 0.3808 2.4849 0.8213 3.6948 1.3228 1.2102 0.5014 2.3932 1.061 3.5482 1.679 1.1559 0.6174 2.278 1.2902 3.3669 2.0182 1.0891 0.7278 2.1406 1.5069 3.1531 2.3379 1.0129 0.8309 1.9826 1.7099 2.9089 2.6359 0.9261 0.9261 1.8051 1.8954 2.6361 2.909 0.831 1.0123 1.6105 2.0635 2.338 3.153 0.728 1.089 1.4009 2.211 2.0186 3.367 0.6174 1.155 1.1764 2.338 1.6782 3.5484 0.5012 1.21 0.9422 2.4419 1.3227 3.6956 0.3804 1.2531 0.6983 2.523 0.9535 3.8073 0.2565 1.2847 0.448 2.5792 0.5768 3.8827 0.1282 1.3034 0.1929 2.6105 0.1922 3.921z" fill="none" stroke-width="3" class="stroke" />
  <text transform="matrix(1.3615952 0 0 1.3615952 -6605.5598 7086.721)" font-family="Tinos" font-size="50" xml:space="preserve" class="fill"><tspan x="5487.5" y="-4772" class="fill">x</tspan></text>
  <path transform="matrix(1.3615952,0,0,1.3615952,-6604.8786,7087.402)" d="m5540-5130h144.5l0.03 117.65" fill="none" stroke-miterlimit="10" stroke-width="3" class="stroke" />
  <path transform="matrix(1.3615952,0,0,1.3615952,-6604.8786,7087.402)" d="m5684.53-5003.35-4.5-9 9-0.01-4.5 9.01z" />
  <path transform="matrix(1.3615952,0,0,1.3615952,-6604.8786,7087.402)" d="m5684.53-5003.35-4.5-9 9-0.01-4.5 9.01z" fill="none" stroke-miterlimit="10" stroke-width="3" class="stroke" />
  <path transform="matrix(1.3615952,0,0,1.3615952,-6604.8786,7087.402)" d="m5540-5130c7e-4 1.31-0.0633 2.6165-0.192 3.9202-0.1281 1.3042-0.3205 2.5988-0.5764 3.8838-0.2556 1.285-0.5737 2.5542-0.9541 3.808-0.3805 1.253-0.8215 2.485-1.3227 3.6954-0.5018 1.2106-1.0608 2.3931-1.6782 3.5486-0.6177 1.155-1.2906 2.2771-2.0186 3.3665-0.7275 1.0895-1.507 2.1405-2.338 3.1528-0.831 1.0127-1.71 1.9827-2.6361 2.9087-0.9263 0.9263-1.896 1.805-2.9092 2.6362-1.0122 0.8318-2.0637 1.6109-3.1528 2.3389-1.0889 0.728-2.211 1.4004-3.3662 2.018-1.1557 0.6179-2.3387 1.1773-3.5489 1.6789-1.2099 0.501-2.4418 0.9413-3.6948 1.322-1.254 0.38-2.5234 0.6984-3.809 0.954-1.2843 0.2551-2.5782 0.4465-3.8814 0.575-1.3037 0.1284-2.6109 0.1923-3.9216 0.193-1.3094-7e-4 -2.616-0.0646-3.9202-0.193-1.3042-0.1285-2.5988-0.3199-3.8838-0.575-1.285-0.2556-2.5542-0.574-3.808-0.954-1.253-0.3807-2.4855-0.821-3.696-1.322-1.21-0.5016-2.393-1.061-3.549-1.6789-1.1545-0.6176-2.2771-1.29-3.3664-2.018-1.0889-0.728-2.1397-1.5071-3.1529-2.3389-1.0122-0.8312-1.9819-1.7099-2.9082-2.6362-0.9265-0.926-1.8047-1.896-2.6357-2.9087-0.8311-1.0123-1.6109-2.0633-2.3389-3.1528-0.728-1.0894-1.4004-2.2115-2.018-3.3665-0.6179-1.1555-1.1773-2.338-1.6789-3.5486-0.5013-1.2104-0.942-2.4424-1.322-3.6963-0.38-1.2531-0.698-2.5221-0.954-3.8071-0.2551-1.285-0.4465-2.5796-0.575-3.8838-0.1284-1.3037-0.1923-2.6102-0.193-3.9202 7e-4 -1.3107 0.0646-2.6179 0.193-3.921 0.1285-1.3038 0.3199-2.5977 0.575-3.882 0.256-1.2856 0.574-2.555 0.9539-3.8085 0.3801-1.2534 0.8208-2.4845 1.3221-3.6953 0.5016-1.2102 1.061-2.3931 1.6789-3.5489 0.6176-1.1552 1.29-2.2773 2.018-3.3663 0.728-1.09 1.5078-2.1415 2.3389-3.1537 0.831-1.0123 1.7092-1.9823 2.6357-2.9083 0.9263-0.9266 1.896-1.8055 2.9082-2.636 1.0132-0.831 2.064-1.6105 3.1529-2.3385 1.0893-0.728 2.2119-1.4005 3.3664-2.0185 1.156-0.6177 2.339-1.1768 3.549-1.678 1.2105-0.5017 2.443-0.9427 3.696-1.323 1.2538-0.38 2.523-0.6978 3.808-0.953 1.285-0.256 2.5796-0.448 3.8838-0.5768 1.3042-0.1282 2.6108-0.1922 3.9202-0.1922 1.3107 0 2.6179 0.064 3.9216 0.1922 1.3032 0.1288 2.5971 0.3208 3.8814 0.5768 1.2856 0.2552 2.555 0.573 3.809 0.953 1.253 0.3803 2.4849 0.8213 3.6948 1.323 1.2102 0.5012 2.3932 1.0603 3.5482 1.678 1.1559 0.618 2.278 1.2905 3.3669 2.0185 1.0891 0.728 2.1406 1.5075 3.1531 2.3385 1.0129 0.8305 1.9826 1.7094 2.9089 2.636 0.9261 0.926 1.8051 1.896 2.6361 2.908 0.831 1.0125 1.6105 2.064 2.338 3.154 0.728 1.089 1.4009 2.2111 2.0186 3.3663 0.6174 1.1558 1.1764 2.3387 1.6782 3.5489 0.5012 1.2108 0.9422 2.4419 1.3227 3.6953 0.3804 1.2535 0.6983 2.5229 0.9535 3.8085 0.2565 1.2843 0.448 2.5782 0.5768 3.882 0.1282 1.3031 0.1929 2.6103 0.1922 3.921z" fill="none" stroke-width="3" class="stroke" />
  <text transform="matrix(1.3615952 0 0 1.3615952 -6605.5598 7086.721)" font-family="Tinos" font-size="50" xml:space="preserve" class="fill"><tspan x="5487.5" y="-5112" class="fill">x</tspan></text>
  <text transform="matrix(1.3615952 0 0 1.3615952 -6605.5598 7086.721)" font-family="Tinos" font-size="26" xml:space="preserve" class="fill"><tspan x="5356.8908 5369.8908 5378.549 5387.207 5394.435" y="-5143" class="fill">dI(t)</tspan></text>
  <text transform="matrix(1.3615952 0 0 1.3615952 -6605.5598 7086.721)" font-family="Tinos" font-size="26" xml:space="preserve" class="fill"><tspan x="5351.828 5364.828 5383.6 5392.2585 5399.4865" y="-4753" class="fill">dQ(t)</tspan></text>
  <text transform="matrix(1.3615952 0 0 1.3615952 -6605.5598 7086.721)" font-family="Tinos" font-size="26" xml:space="preserve" class="fill"><tspan x="5322 5339.342 5352.342 5362.4558 5371.114 5384.114 5397.2438 5405.902 5417.446 5424.674" y="-4979" class="fill">Cos(2&#960;fct)</tspan></text>
  <path transform="matrix(1.3615952,0,0,1.3615952,-6604.8786,7087.402)" d="m5500-5025v-52.65" fill="none" stroke-miterlimit="10" stroke-width="3" class="stroke" />
  <path transform="matrix(1.3615952,0,0,1.3615952,-6604.8786,7087.402)" d="m5500-5086.65 4.5 9h-9l4.5-9z" />
  <path transform="matrix(1.3615952,0,0,1.3615952,-6604.8786,7087.402)" d="m5500-5086.65 4.5 9h-9l4.5-9z" fill="none" stroke-miterlimit="10" stroke-width="3" class="stroke" />
  <path transform="matrix(1.3615952,0,0,1.3615952,-6604.8786,7087.402)" d="m5500-4945v35" fill="none" stroke-miterlimit="10" stroke-width="3" class="stroke" />
  <path transform="matrix(1.3615952,0,0,1.3615952,-6604.8786,7087.402)" d="m5540-4985c7e-4 1.31-0.0633 2.617-0.192 3.921-0.1281 1.304-0.3205 2.5983-0.5764 3.8835-0.2556 1.2847-0.5737 2.5545-0.9541 3.8076-0.3805 1.2539-0.8215 2.4859-1.3227 3.6963-0.5018 1.2106-1.0608 2.3931-1.6782 3.5479-0.6177 1.1552-1.2906 2.2777-2.0186 3.3667-0.7275 1.0893-1.507 2.1401-2.338 3.153-0.831 1.0125-1.71 1.9822-2.6361 2.9085-0.9263 0.9265-1.896 1.8047-2.9092 2.6365-1.0122 0.831-2.0637 1.6101-3.1528 2.3381-1.0889 0.7279-2.211 1.3999-3.3662 2.0179-1.1557 0.6173-2.3387 1.177-3.5489 1.6784-1.2099 0.5016-2.4418 0.9419-3.6948 1.3217-1.254 0.3804-2.5234 0.6989-3.809 0.9542-1.2843 0.2557-2.5782 0.4472-3.8814 0.5757-1.3037 0.1284-2.6109 0.1923-3.9216 0.193-1.3094-7e-4 -2.616-0.0646-3.9202-0.193-1.3042-0.1285-2.5988-0.32-3.8838-0.5757-1.285-0.2553-2.5542-0.5733-3.808-0.9533-1.253-0.3807-2.4855-0.821-3.696-1.3226-1.21-0.5014-2.393-1.0611-3.549-1.6784-1.1545-0.618-2.2771-1.29-3.3664-2.0179-1.0889-0.728-2.1397-1.5071-3.1529-2.3381-1.0122-0.8318-1.9819-1.71-2.9082-2.6365-0.9265-0.9263-1.8047-1.896-2.6357-2.9092-0.8311-1.0122-1.6109-2.063-2.3389-3.1523-0.728-1.089-1.4004-2.2115-2.018-3.3667-0.6179-1.1548-1.1773-2.3373-1.6789-3.5479-0.5013-1.2104-0.942-2.4424-1.322-3.6963-0.38-1.2531-0.698-2.5229-0.954-3.8076-0.2551-1.2852-0.4465-2.5795-0.575-3.8835-0.1284-1.304-0.1923-2.611-0.193-3.921 7e-4 -1.31 0.0646-2.617 0.193-3.921 0.1285-1.3038 0.3199-2.5977 0.575-3.882 0.256-1.2856 0.574-2.5546 0.9539-3.808 0.3801-1.2535 0.8208-2.485 1.3221-3.6958 0.5016-1.2102 1.061-2.3932 1.6789-3.5489 0.6176-1.1547 1.29-2.2768 2.018-3.3662 0.728-1.0898 1.5078-2.1411 2.3389-3.1538 0.831-1.0123 1.7092-1.9819 2.6357-2.9082 0.9263-0.9261 1.896-1.8051 2.9082-2.6357 1.0132-0.8311 2.064-1.6104 3.1529-2.3384 1.0893-0.728 2.2119-1.4 3.3664-2.018 1.156-0.617 2.339-1.1768 3.549-1.678 1.2105-0.5018 2.443-0.943 3.696-1.3235 1.2538-0.3804 2.523-0.6983 3.808-0.9535 1.285-0.2555 2.5796-0.4479 3.8838-0.576 1.3042-0.1287 2.6108-0.193 3.9202-0.193 1.3107 0 2.6179 0.0643 3.9216 0.193 1.3032 0.1281 2.5971 0.3205 3.8814 0.576 1.2856 0.2552 2.555 0.5731 3.809 0.9535 1.253 0.3805 2.4849 0.8217 3.6948 1.3235 1.2102 0.5012 2.3932 1.061 3.5482 1.678 1.1559 0.618 2.278 1.2905 3.3669 2.0185 1.0891 0.728 2.1406 1.5075 3.1531 2.3379 1.0129 0.8306 1.9826 1.7096 2.9089 2.6357 0.9261 0.9263 1.8051 1.8959 2.6361 2.9089 0.831 1.012 1.6105 2.0633 2.338 3.1531 0.728 1.0894 1.4009 2.2115 2.0186 3.3662 0.6174 1.1557 1.1764 2.3387 1.6782 3.5489 0.5012 1.2108 0.9422 2.4423 1.3227 3.6958 0.3804 1.2534 0.6983 2.5224 0.9535 3.808 0.2565 1.2843 0.448 2.5782 0.5768 3.882 0.1282 1.304 0.1929 2.611 0.1922 3.921z" fill="none" stroke-width="3" class="stroke" />
  <path transform="matrix(1.3615952,0,0,1.3615952,-6604.8786,7087.402)" d="m5475.63-4985c9.92-32.82 14.59-32.99 24.37 0s14.36 33.19 24.37 0" fill="none" stroke-miterlimit="10" stroke-width="3" class="stroke" />
  <path transform="matrix(1.3615952,0,0,1.3615952,-6604.8786,7087.402)" d="m5500-4870v27.66" fill="none" stroke-miterlimit="10" stroke-width="3" class="stroke" />
  <path transform="matrix(1.3615952,0,0,1.3615952,-6604.8786,7087.402)" d="m5500-4833.34-4.5-9h9l-4.5 9z" />
  <path transform="matrix(1.3615952,0,0,1.3615952,-6604.8786,7087.402)" d="m5500-4833.34-4.5-9h9l-4.5 9z" fill="none" stroke-miterlimit="10" stroke-width="3" class="stroke" />
  <path transform="matrix(1.3615952,0,0,1.3615952,-6604.8786,7087.402)" d="m5480-4910h40v40h-40z" fill="none" class="stroke" />
  <text transform="matrix(1.3615952 0 0 1.3615952 -6605.5598 7086.721)" font-family="Tinos" font-size="18" font-weight="bold" xml:space="preserve" class="fill"><tspan x="5485.0627 5491.0568 5500.9206 5505.9245" y="-4884" class="fill">-&#960;/2</tspan></text>
  <path transform="matrix(1.3615952,0,0,1.3615952,-6604.8786,7087.402)" d="m5724.53-4960h47.77l37.6-0.12" fill="none" stroke-miterlimit="10" stroke-width="3" class="stroke" />
  <path transform="matrix(1.3615952,0,0,1.3615952,-6604.8786,7087.402)" d="m5816.65-4960.15-8.99 4.53 2.24-4.5-2.27-4.5 9.02 4.47z" />
  <path transform="matrix(1.3615952,0,0,1.3615952,-6604.8786,7087.402)" d="m5816.65-4960.15-8.99 4.53 2.24-4.5-2.27-4.5 9.02 4.47z" fill="none" stroke-miterlimit="10" stroke-width="3" class="stroke" />
  <path transform="matrix(1.3615952,0,0,1.3615952,-6604.8786,7087.402)" d="m5724.53-4960c0 1.31-0.064 2.6165-0.1924 3.921-0.1286 1.303-0.3208 2.5974-0.5767 3.8825-0.2553 1.2847-0.5732 2.5537-0.9539 3.8085-0.38 1.253-0.821 2.4855-1.3224 3.696-0.501 1.2104-1.0601 2.393-1.6778 3.548-0.6178 1.1555-1.2908 2.2781-2.0188 3.3674-0.7273 1.0896-1.5066 2.1406-2.338 3.1529-0.831 1.0122-1.71 1.9819-2.636 2.9082-0.9261 0.9265-1.8953 1.8055-2.9085 2.6357-1.0125 0.8311-2.0635 1.6108-3.1535 2.3388-1.0892 0.728-2.2113 1.4-3.3666 2.0172-1.1554 0.6181-2.3384 1.1782-3.5488 1.6798-1.2099 0.501-2.4419 0.9413-3.6956 1.322-1.254 0.38-2.5231 0.698-3.8083 0.9533-1.2847 0.2557-2.5787 0.4472-3.8818 0.5757-1.3039 0.1284-2.6109 0.193-3.9209 0.193-1.3101 0-2.617-0.0646-3.921-0.193-1.3041-0.1285-2.5986-0.32-3.884-0.5757-1.2844-0.2553-2.554-0.5733-3.8073-0.9533-1.2537-0.3807-2.4859-0.821-3.6967-1.322-1.21-0.5016-2.3922-1.0617-3.5475-1.679-1.1555-0.618-2.2778-1.29-3.3675-2.0179-1.089-0.728-2.14-1.5071-3.1525-2.3381s-1.9819-1.71-2.9087-2.6365c-0.9262-0.9263-1.8048-1.8955-2.6358-2.9075-0.831-1.013-1.611-2.064-2.339-3.1536-0.728-1.0893-1.4002-2.2114-2.018-3.3671-0.6175-1.1553-1.1771-2.3379-1.679-3.5483-0.501-1.2105-0.9415-2.443-1.322-3.6969-0.38-1.2539-0.698-2.5229-0.9534-3.8076-0.2556-1.2851-0.4468-2.5795-0.5756-3.8825-0.1281-1.3045-0.192-2.611-0.192-3.921s0.064-2.617 0.1929-3.921c0.1279-1.3038 0.3198-2.598 0.5751-3.8829 0.255-1.2851 0.573-2.5547 0.9537-3.8081 0.3798-1.253 0.8203-2.485 1.3213-3.695 0.5019-1.2108 1.0615-2.3939 1.679-3.549 0.6178-1.1549 1.29-2.277 2.0177-3.366 0.7283-1.0897 1.5083-2.141 2.3393-3.1537 0.831-1.0123 1.7096-1.9823 2.6358-2.9083 0.9268-0.9266 1.8962-1.8055 2.9087-2.6366s2.0635-1.6104 3.1525-2.3379c1.0897-0.728 2.212-1.4005 3.367-2.0185 1.1558-0.6177 2.338-1.1768 3.548-1.678 1.2108-0.502 2.443-0.943 3.6967-1.323 1.2533-0.38 2.5229-0.698 3.8073-0.9536 1.2854-0.2559 2.5799-0.4474 3.884-0.5762 1.304-0.1282 2.6109-0.1922 3.921-0.1922 1.31 0 2.617 0.064 3.9209 0.1922 1.3031 0.1288 2.5971 0.3203 3.8818 0.5762 1.2852 0.2556 2.5543 0.5736 3.8083 0.9536 1.2537 0.38 2.4857 0.821 3.6956 1.323 1.2104 0.5012 2.3934 1.0603 3.5488 1.678 1.1553 0.618 2.2774 1.2905 3.3666 2.0185 1.09 0.7275 2.141 1.5068 3.1535 2.3385 1.0132 0.8305 1.9824 1.7094 2.9085 2.636 0.926 0.926 1.805 1.896 2.6369 2.908 0.8305 1.013 1.6098 2.0643 2.3371 3.154 0.728 1.089 1.4007 2.2111 2.018 3.366 0.618 1.1551 1.1776 2.3382 1.6786 3.549 0.5014 1.21 0.9419 2.442 1.3222 3.695 0.3802 1.2534 0.6982 2.523 0.9536 3.8081 0.2564 1.2849 0.4483 2.5791 0.5766 3.8829 0.1285 1.304 0.193 2.611 0.193 3.921z" fill="none" stroke-width="3" class="stroke" />
  <text transform="matrix(1.3615952 0 0 1.3615952 -6605.5598 7086.721)" font-family="Tinos" font-size="50" xml:space="preserve" class="fill"><tspan x="5670.8908" y="-4942" class="fill">+</tspan></text>
  <path transform="matrix(1.3615952,0,0,1.3615952,-6604.8786,7087.402)" d="m5833.755-4959.99c0 0.4512-0.0444 0.898-0.133 1.341-0.0881 0.443-0.2185 0.873-0.3913 1.2904-0.1729 0.417-0.3848 0.813-0.6358 1.1886-0.2509 0.375-0.5359 0.7221-0.8549 1.0414-0.319 0.3188-0.6661 0.604-1.042 0.855-0.3751 0.2506-0.771 0.4626-1.188 0.6356-0.417 0.172-0.847 0.3024-1.29 0.391-0.442 0.0871-0.889 0.1311-1.34 0.132-0.452-9e-4 -0.8993-0.0449-1.3422-0.132-0.4429-0.0886-0.8728-0.219-1.2898-0.391-0.417-0.173-0.8132-0.385-1.189-0.6356-0.3752-0.251-0.7224-0.5362-1.0412-0.855-0.3198-0.3193-0.6048-0.6664-0.8558-1.042-0.2502-0.375-0.4621-0.771-0.6345-1.188-0.1725-0.4174-0.3027-0.8474-0.3906-1.2904-0.0884-0.443-0.1323-0.8898-0.1319-1.341-4e-4 -0.4516 0.0435-0.898 0.1319-1.341 0.0879-0.4426 0.2181-0.872 0.3906-1.289 0.1724-0.4178 0.3843-0.8138 0.6345-1.189 0.251-0.3758 0.536-0.7229 0.8558-1.042 0.3188-0.319 0.666-0.604 1.0412-0.855 0.3758-0.2507 0.772-0.4627 1.189-0.635 0.417-0.173 0.847-0.3037 1.29-0.392 0.443-0.088 0.89-0.1319 1.342-0.132 0.451 1e-4 0.898 0.044 1.3409 0.132 0.4429 0.0883 0.8726 0.219 1.2895 0.392 0.4166 0.1723 0.8125 0.3843 1.1876 0.6352 0.3759 0.2508 0.723 0.5358 1.042 0.8548 0.319 0.3191 0.604 0.6662 0.8549 1.042 0.251 0.3752 0.4629 0.7712 0.6358 1.189 0.1728 0.417 0.3032 0.8464 0.3911 1.289 0.0888 0.443 0.1332 0.8894 0.1332 1.341z" fill="none" stroke-width="3" class="stroke" />
  <text transform="matrix(1.3615952 0 0 1.3615952 -6605.5598 7086.721)" font-family="Tinos" font-size="26" xml:space="preserve" class="fill"><tspan x="5809.1564 5819.27 5827.928 5835.1564" y="-4986" class="fill">s(t)</tspan></text>
 </g>
</svg>