<svg xmlns="http://www.w3.org/2000/svg" width="1416" height="668.16" version="1.1" viewBox="0 0 1416 668.16">
 <style>
          .fill { fill: black; }
          .stroke { stroke: black; }
          @media (prefers-color-scheme: dark) {
            .fill { fill: white; }
            .stroke { stroke: white; }
          }
        </style><defs>
  <clipPath id="a">
   <path transform="scale(.48)" d="M78.125 34.375H2875V1359.375H78.125Z" clip-rule="evenodd" />
  </clipPath>
 </defs>
 <g clip-path="url(#a)">
  <path transform="matrix(1.3615952,0,0,1.3615952,-9246.373,6066.205)" d="m7240.25-4040 147.4 0.01" fill="none" stroke-miterlimit="10" stroke-width="3" class="stroke" />
  <path transform="matrix(1.3615952,0,0,1.3615952,-9246.373,6066.205)" d="m7396.65-4039.99-9 4.5v-9l9 4.5z" />
  <path transform="matrix(1.3615952,0,0,1.3615952,-9246.373,6066.205)" d="m7396.65-4039.99-9 4.5v-9l9 4.5z" fill="none" stroke-miterlimit="10" stroke-width="3" class="stroke" />
  <path transform="matrix(1.3615952,0,0,1.3615952,-9246.373,6066.205)" d="m6999-4100h241.25v120h-241.25z" fill="none" stroke-width="3" class="stroke" />
  <text transform="matrix(1.3615952 0 0 1.3615952 -9247.054 6065.5246)" font-family="Tinos" font-size="26" xml:space="preserve" class="fill"><tspan x="7014.4064 7037.52 7056.292 7075.064 7093.836 7109.722 7128.494 7147.266 7166.038 7183.38 7189.88 7208.652" y="-4047" class="fill">MODULADOR DE</tspan></text>
  <text transform="matrix(1.3615952 0 0 1.3615952 -9247.054 6065.5246)" font-family="Tinos" font-size="26" xml:space="preserve" class="fill"><tspan x="7078.3127 7092.7687 7111.5407 7127.427 7141.883" y="-4015" class="fill">PULSO</tspan></text>
  <text transform="matrix(1.3615952 0 0 1.3615952 -9247.054 6065.5246)" font-family="Tinos" font-size="26" xml:space="preserve" class="fill"><tspan x="6835.6096" y="-4002.8126" class="fill">Q</tspan></text>
  <text transform="matrix(1.3615952 0 0 1.3615952 -9247.054 6065.5246)" font-family="Tinos" font-size="18" xml:space="preserve" class="fill"><tspan x="6854.3908 6860.385 6869.385" y="-4003" class="fill">[n]</tspan></text>
  <path transform="matrix(1.3615952,0,0,1.3615952,-9246.373,6066.205)" d="m6858.75-4039.99 127.9-0.01" fill="none" stroke-miterlimit="10" stroke-width="3" class="stroke" />
  <path transform="matrix(1.3615952,0,0,1.3615952,-9246.373,6066.205)" d="m6995.65-4040-9 4.5v-9l9 4.5z" />
  <path transform="matrix(1.3615952,0,0,1.3615952,-9246.373,6066.205)" d="m6995.65-4040-9 4.5v-9l9 4.5z" fill="none" stroke-miterlimit="10" stroke-width="3" class="stroke" />
  <path transform="matrix(1.3615952,0,0,1.3615952,-9246.373,6066.205)" d="m6858.755-4039.99c0 0.4514-0.0444 0.8986-0.133 1.3415-0.088 0.4429-0.218 0.8728-0.391 1.2895-0.173 0.4173-0.385 0.8133-0.6351 1.1885-0.2509 0.3755-0.5359 0.7229-0.855 1.042-0.3189 0.3195-0.6669 0.6045-1.042 0.8552-0.3759 0.2508-0.7715 0.4624-1.1889 0.6353-0.417 0.1726-0.847 0.303-1.29 0.391-0.442 0.088-0.889 0.132-1.34 0.132-0.452 0-0.899-0.044-1.342-0.1319-0.443-0.0881-0.8723-0.2185-1.2893-0.3911-0.4177-0.1729-0.8137-0.3845-1.1889-0.6353-0.3758-0.2507-0.7228-0.5357-1.0418-0.8552-0.32-0.3191-0.605-0.6665-0.8552-1.042-0.2508-0.3752-0.4628-0.7712-0.6353-1.1885-0.1725-0.4167-0.3027-0.8466-0.3906-1.2898-0.0884-0.4426-0.1323-0.8898-0.1319-1.3412-4e-4 -0.4515 0.0435-0.8983 0.1319-1.3409 0.0879-0.4426 0.2181-0.8725 0.3906-1.2898 0.1725-0.417 0.3845-0.8132 0.6353-1.1887 0.2502-0.3752 0.5352-0.7226 0.8552-1.0416 0.319-0.3192 0.666-0.604 1.0418-0.8549 0.375-0.2507 0.771-0.4626 1.1882-0.6355 0.417-0.1726 0.847-0.303 1.29-0.3913 0.443-0.0882 0.89-0.1321 1.342-0.1323 0.451 2e-4 0.898 0.0444 1.3409 0.1325s0.8726 0.2185 1.2895 0.3911c0.4175 0.1729 0.8135 0.3848 1.1885 0.6355 0.3751 0.2509 0.7231 0.5357 1.042 0.8549 0.3191 0.319 0.6041 0.6664 0.855 1.0416 0.2501 0.3755 0.4621 0.7717 0.6348 1.1887 0.1723 0.4173 0.3023 0.8469 0.3911 1.2897 0.0888 0.4425 0.1332 0.8895 0.1332 1.341z" fill="none" stroke-width="3" class="stroke" />
  <path transform="matrix(1.3615952,0,0,1.3615952,-9246.373,6066.205)" d="m7240.25-4380h147.4" fill="none" stroke-miterlimit="10" stroke-width="3" class="stroke" />
  <path transform="matrix(1.3615952,0,0,1.3615952,-9246.373,6066.205)" d="m7396.65-4380-9 4.5v-9l9 4.5z" />
  <path transform="matrix(1.3615952,0,0,1.3615952,-9246.373,6066.205)" d="m7396.65-4380-9 4.5v-9l9 4.5z" fill="none" stroke-miterlimit="10" stroke-width="3" class="stroke" />
  <path transform="matrix(1.3615952,0,0,1.3615952,-9246.373,6066.205)" d="m6999-4440h241.25v120h-241.25z" fill="none" stroke-width="3" class="stroke" />
  <text transform="matrix(1.3615952 0 0 1.3615952 -9247.054 6065.5246)" font-family="Tinos" font-size="26" xml:space="preserve" class="fill"><tspan x="7014.4064 7037.52 7056.292 7075.064 7093.836 7109.722 7128.494 7147.266 7166.038 7183.38 7189.88 7208.652" y="-4387" class="fill">MODULADOR DE</tspan></text>
  <text transform="matrix(1.3615952 0 0 1.3615952 -9247.054 6065.5246)" font-family="Tinos" font-size="26" xml:space="preserve" class="fill"><tspan x="7078.3127 7092.7687 7111.5407 7127.427 7141.883" y="-4355" class="fill">PULSO</tspan></text>
  <text transform="matrix(1.3615952 0 0 1.3615952 -9247.054 6065.5246)" font-family="Tinos" font-size="26" xml:space="preserve" class="fill"><tspan x="6840.6564" y="-4402.8127" class="fill">I</tspan></text>
  <text transform="matrix(1.3615952 0 0 1.3615952 -9247.054 6065.5246)" font-family="Tinos" font-size="18" xml:space="preserve" class="fill"><tspan x="6849.328 6855.3225 6864.3225" y="-4403" class="fill">[n]</tspan></text>
  <path transform="matrix(1.3615952,0,0,1.3615952,-9246.373,6066.205)" d="m6858.75-4379.99 127.9-0.01" fill="none" stroke-miterlimit="10" stroke-width="3" class="stroke" />
  <path transform="matrix(1.3615952,0,0,1.3615952,-9246.373,6066.205)" d="m6995.65-4380-9 4.5v-9l9 4.5z" />
  <path transform="matrix(1.3615952,0,0,1.3615952,-9246.373,6066.205)" d="m6995.65-4380-9 4.5v-9l9 4.5z" fill="none" stroke-miterlimit="10" stroke-width="3" class="stroke" />
  <path transform="matrix(1.3615952,0,0,1.3615952,-9246.373,6066.205)" d="m6858.755-4379.99c0 0.4512-0.0444 0.898-0.133 1.341-0.088 0.443-0.218 0.873-0.391 1.29-0.173 0.4174-0.385 0.8134-0.6351 1.189-0.2509 0.3754-0.5359 0.7225-0.855 1.0414-0.3189 0.3188-0.6669 0.604-1.042 0.855-0.3759 0.2506-0.7715 0.4626-1.1889 0.6356-0.417 0.172-0.847 0.3024-1.29 0.391-0.442 0.0871-0.889 0.1311-1.34 0.132-0.452-9e-4 -0.899-0.0449-1.342-0.132-0.443-0.0886-0.8723-0.219-1.2893-0.391-0.4177-0.173-0.8137-0.385-1.1889-0.6356-0.3758-0.251-0.7228-0.5362-1.0418-0.855-0.32-0.3189-0.605-0.666-0.8552-1.0414-0.2508-0.3756-0.4628-0.7716-0.6353-1.189-0.1725-0.417-0.3027-0.847-0.3906-1.29-0.0884-0.443-0.1323-0.8898-0.1319-1.341-4e-4 -0.452 0.0435-0.8989 0.1319-1.341 0.0879-0.443 0.2181-0.8728 0.3906-1.2898s0.3845-0.8132 0.6353-1.189c0.2502-0.3752 0.5352-0.7222 0.8552-1.042 0.319-0.3192 0.666-0.604 1.0418-0.8542 0.375-0.251 0.771-0.463 1.1882-0.6355 0.417-0.1725 0.847-0.3032 1.29-0.3915 0.443-0.088 0.89-0.1319 1.342-0.132 0.451 1e-4 0.898 0.044 1.3409 0.132 0.4429 0.0883 0.8726 0.219 1.2895 0.3915 0.4175 0.1725 0.8135 0.3845 1.1885 0.6355 0.3751 0.2502 0.7231 0.535 1.042 0.8542 0.3191 0.3198 0.6041 0.6668 0.855 1.042 0.2501 0.3758 0.4621 0.772 0.6348 1.189 0.1723 0.417 0.3023 0.8468 0.3911 1.2898 0.0888 0.4421 0.1332 0.889 0.1332 1.341z" fill="none" stroke-width="3" class="stroke" />
  <path transform="matrix(1.3615952,0,0,1.3615952,-9246.373,6066.205)" d="m7480-4039.99 144.5-0.01 0.03-117.65" fill="none" stroke-miterlimit="10" stroke-width="3" class="stroke" />
  <path transform="matrix(1.3615952,0,0,1.3615952,-9246.373,6066.205)" d="m7624.53-4166.65 4.5 9.01-9-0.01 4.5-9z" />
  <path transform="matrix(1.3615952,0,0,1.3615952,-9246.373,6066.205)" d="m7624.53-4166.65 4.5 9.01-9-0.01 4.5-9z" fill="none" stroke-miterlimit="10" stroke-width="3" class="stroke" />
  <path transform="matrix(1.3615952,0,0,1.3615952,-9246.373,6066.205)" d="m7480-4039.99c7e-4 1.3098-0.064 2.617-0.1922 3.921-0.1288 1.3035-0.3208 2.598-0.5771 3.883-0.2557 1.2848-0.5737 2.554-0.9537 3.8073-0.3803 1.2537-0.8212 2.4858-1.323 3.6963-0.501 1.2102-1.0603 2.393-1.678 3.5485-0.618 1.1556-1.29 2.2779-2.018 3.3672-0.7275 1.0891-1.507 2.1399-2.338 3.1524-0.8305 1.0127-1.7094 1.9823-2.6361 2.9087-0.9263 0.9262-1.8959 1.8049-2.9079 2.6359-1.013 0.8311-2.0643 1.6107-3.1541 2.3387-1.0894 0.7278-2.2115 1.4001-3.3669 2.0175-1.1551 0.6177-2.3382 1.1773-3.549 1.6788-1.21 0.5012-2.4415 0.9419-3.695 1.322-1.2534 0.3804-2.523 0.6985-3.8081 0.9541-1.2849 0.2556-2.5789 0.4472-3.8819 0.5756-1.304 0.1285-2.611 0.1927-3.921 0.193-1.3094-3e-4 -2.616-0.0645-3.9202-0.193-1.3042-0.1284-2.5988-0.32-3.8838-0.5756s-2.5542-0.5737-3.808-0.9539c-1.253-0.3801-2.4855-0.8208-3.6964-1.322-1.2106-0.5015-2.3931-1.061-3.5488-1.6785-1.1548-0.6176-2.2778-1.2902-3.3668-2.018-1.0893-0.728-2.1401-1.5076-3.153-2.3387-1.012-0.831-1.982-1.7097-2.908-2.6359-0.9262-0.9264-1.805-1.896-2.636-2.9084-0.831-1.0128-1.6105-2.0638-2.339-3.1529-0.7271-1.0894-1.3995-2.2117-2.0171-3.3671-0.6172-1.1554-1.1769-2.3382-1.6789-3.5484-0.5013-1.2105-0.942-2.4424-1.322-3.6961-0.38-1.2535-0.698-2.5227-0.954-3.8075-0.2551-1.285-0.447-2.5795-0.5754-3.883-0.1286-1.304-0.1926-2.6112-0.1926-3.921 0-1.3104 0.064-2.6172 0.1926-3.9207 0.1284-1.3037 0.3194-2.5979 0.5752-3.8826 0.2562-1.2849 0.5742-2.5544 0.9541-3.8081 0.3801-1.2536 0.8208-2.4853 1.3221-3.6955 0.502-1.2105 1.0617-2.3934 1.6789-3.5486 0.6176-1.1553 1.29-2.2775 2.0171-3.3667 0.7285-1.0896 1.508-2.1407 2.339-3.1531 0.831-1.0129 1.7098-1.9824 2.636-2.9087 0.926-0.9265 1.896-1.8054 2.908-2.6362 1.0129-0.8311 2.0637-1.6104 3.153-2.3382 1.089-0.728 2.212-1.4008 3.367-2.0183 1.1555-0.6176 2.338-1.177 3.5486-1.6782 1.2109-0.5015 2.4434-0.9424 3.6964-1.3228 1.2538-0.3801 2.523-0.6979 3.808-0.9536 1.285-0.2556 2.5796-0.4477 3.8838-0.5764 1.3042-0.1282 2.6108-0.1923 3.9202-0.1923 1.31 0 2.617 0.0641 3.921 0.1926 1.3038 0.1284 2.5977 0.3205 3.882 0.5764 1.285 0.2556 2.5546 0.5735 3.8085 0.9536 1.2534 0.3804 2.4845 0.8214 3.6945 1.3227 1.2108 0.5013 2.3939 1.0608 3.5487 1.6783 1.1557 0.6174 2.2778 1.2904 3.3663 2.018 1.09 0.7278 2.1415 1.5071 3.1547 2.3379 1.0123 0.8311 1.9819 1.71 2.9082 2.6365 0.9267 0.9263 1.8056 1.8958 2.6367 2.9084 0.8311 1.0127 1.6104 2.0638 2.3379 3.1534 0.728 1.0892 1.4004 2.2114 2.0181 3.3667 0.6174 1.1552 1.1764 2.3381 1.6774 3.5486 0.5018 1.2102 0.9427 2.4419 1.323 3.6955 0.38 1.2537 0.698 2.5232 0.9537 3.8081 0.2563 1.2847 0.4483 2.5789 0.5771 3.8823 0.1282 1.3038 0.1929 2.6106 0.1922 3.921z" fill="none" stroke-width="3" class="stroke" />
  <text transform="matrix(1.3615952 0 0 1.3615952 -9247.054 6065.5246)" font-family="Tinos" font-size="50" xml:space="preserve" class="fill"><tspan x="7427.5" y="-4022" class="fill">x</tspan></text>
  <path transform="matrix(1.3615952,0,0,1.3615952,-9246.373,6066.205)" d="m7480-4380h144.5l0.03 117.65" fill="none" stroke-miterlimit="10" stroke-width="3" class="stroke" />
  <path transform="matrix(1.3615952,0,0,1.3615952,-9246.373,6066.205)" d="m7624.53-4253.35-4.5-9 9-0.01-4.5 9.01z" />
  <path transform="matrix(1.3615952,0,0,1.3615952,-9246.373,6066.205)" d="m7624.53-4253.35-4.5-9 9-0.01-4.5 9.01z" fill="none" stroke-miterlimit="10" stroke-width="3" class="stroke" />
  <path transform="matrix(1.3615952,0,0,1.3615952,-9246.373,6066.205)" d="m7480-4380c7e-4 1.31-0.064 2.6165-0.1922 3.921-0.1288 1.303-0.3208 2.5974-0.5771 3.8825-0.2557 1.2847-0.5737 2.5537-0.9537 3.8085-0.3803 1.253-0.8212 2.4855-1.323 3.696-0.501 1.2104-1.0603 2.393-1.678 3.548-0.618 1.1555-1.29 2.2781-2.018 3.3674-0.7275 1.0896-1.507 2.1406-2.338 3.1526-0.8305 1.0125-1.7094 1.9822-2.6361 2.9085-0.9263 0.9265-1.8959 1.8055-2.9079 2.6365-1.013 0.831-2.0643 1.6101-3.1541 2.3381-1.0894 0.7279-2.2115 1.3999-3.3669 2.0179-1.1551 0.6173-2.3382 1.177-3.549 1.6784-1.21 0.5009-2.4415 0.9419-3.695 1.3226-1.2534 0.38-2.523 0.698-3.8081 0.9533-1.2849 0.2557-2.5789 0.4472-3.8819 0.5757-1.304 0.1284-2.611 0.193-3.921 0.193-1.3094 0-2.616-0.0646-3.9202-0.193-1.3042-0.1285-2.5988-0.32-3.8838-0.5757-1.285-0.2553-2.5542-0.5733-3.808-0.9533-1.253-0.3807-2.4855-0.8217-3.6964-1.3226-1.2106-0.5014-2.3931-1.0611-3.5488-1.6784-1.1548-0.618-2.2778-1.29-3.3668-2.0179-1.0893-0.728-2.1401-1.5071-3.153-2.3381-1.012-0.831-1.982-1.71-2.908-2.6365-0.9262-0.9263-1.805-1.896-2.636-2.9082-0.831-1.0123-1.6105-2.0633-2.339-3.1529-0.7271-1.0893-1.3995-2.2114-2.0171-3.3671-0.6172-1.1553-1.1769-2.3379-1.6789-3.5483-0.5013-1.2105-0.942-2.443-1.322-3.6969s-0.698-2.5229-0.954-3.8076c-0.2551-1.2851-0.447-2.5795-0.5754-3.8825-0.1286-1.3045-0.1926-2.611-0.1926-3.921s0.064-2.617 0.1926-3.921c0.1284-1.3038 0.3194-2.598 0.5752-3.8829 0.2562-1.2851 0.5742-2.5541 0.9541-3.8076 0.3801-1.2534 0.8208-2.4845 1.3221-3.6953 0.502-1.2102 1.0617-2.3932 1.6789-3.5492 0.6176-1.1549 1.29-2.277 2.0171-3.366 0.7285-1.0897 1.508-2.1405 2.339-3.1537 0.831-1.0123 1.7098-1.9823 2.636-2.9083 0.926-0.9266 1.896-1.8055 2.908-2.6366 1.0129-0.8311 2.0637-1.6104 3.153-2.3384 1.089-0.728 2.212-1.4 3.367-2.018 1.1555-0.6177 2.338-1.1768 3.5486-1.6778 1.2109-0.5012 2.4434-0.9422 3.6964-1.3227 1.2538-0.3804 2.523-0.6985 3.808-0.9541 1.285-0.2554 2.5796-0.4474 3.8838-0.5762 1.3042-0.1282 2.6108-0.1922 3.9202-0.1922 1.31 0 2.617 0.064 3.921 0.1922 1.3038 0.1288 2.5977 0.3208 3.882 0.5762 1.285 0.2556 2.5546 0.5737 3.8085 0.9541 1.2534 0.3805 2.4845 0.8215 3.6945 1.3227 1.2108 0.501 2.3939 1.0601 3.5487 1.6778 1.1557 0.618 2.2778 1.2905 3.3663 2.0185 1.09 0.7275 2.1415 1.5068 3.1547 2.3385 1.0123 0.8305 1.9819 1.7094 2.9082 2.636 0.9267 0.926 1.8056 1.896 2.6367 2.9083 0.8311 1.0132 1.6104 2.064 2.3379 3.1537 0.728 1.089 1.4004 2.2111 2.0181 3.366 0.6174 1.1551 1.1764 2.3382 1.6774 3.549 0.5018 1.21 0.9427 2.442 1.323 3.695 0.38 1.2534 0.698 2.523 0.9537 3.8081 0.2563 1.2849 0.4483 2.5791 0.5771 3.8829 0.1282 1.304 0.1929 2.611 0.1922 3.921z" fill="none" stroke-width="3" class="stroke" />
  <text transform="matrix(1.3615952 0 0 1.3615952 -9247.054 6065.5246)" font-family="Tinos" font-size="50" xml:space="preserve" class="fill"><tspan x="7427.5" y="-4362" class="fill">x</tspan></text>
  <text transform="matrix(1.3615952 0 0 1.3615952 -9247.054 6065.5246)" font-family="Tinos" font-size="26" xml:space="preserve" class="fill"><tspan x="7298.9377 7311.9377" y="-4395" class="fill">dI</tspan></text>
  <text transform="matrix(1.3615952 0 0 1.3615952 -9247.054 6065.5246)" font-family="Tinos" font-size="21.66" xml:space="preserve" class="fill"><tspan x="7320.6096 7327.8215 7333.838" y="-4388.8127" class="fill">(t)</tspan></text>
  <text transform="matrix(1.3615952 0 0 1.3615952 -9247.054 6065.5246)" font-family="Tinos" font-size="26" xml:space="preserve" class="fill"><tspan x="7293.875 7306.875" y="-4005" class="fill">dQ</tspan></text>
  <text transform="matrix(1.3615952 0 0 1.3615952 -9247.054 6065.5246)" font-family="Tinos" font-size="21.66" xml:space="preserve" class="fill"><tspan x="7325.6564 7332.868 7338.885" y="-3998.8126" class="fill">(t)</tspan></text>
  <text transform="matrix(1.3615952 0 0 1.3615952 -9247.054 6065.5246)" font-family="Tinos" font-size="26" xml:space="preserve" class="fill"><tspan x="7262 7279.342 7292.342 7302.4558 7311.114 7324.114 7337.2438 7345.902 7357.446 7364.674" y="-4229" class="fill">Cos(2&#960;fct)</tspan></text>
  <path transform="matrix(1.3615952,0,0,1.3615952,-9246.373,6066.205)" d="m7440-4275v-52.65" fill="none" stroke-miterlimit="10" stroke-width="3" class="stroke" />
  <path transform="matrix(1.3615952,0,0,1.3615952,-9246.373,6066.205)" d="m7440-4336.65 4.5 9h-9l4.5-9z" />
  <path transform="matrix(1.3615952,0,0,1.3615952,-9246.373,6066.205)" d="m7440-4336.65 4.5 9h-9l4.5-9z" fill="none" stroke-miterlimit="10" stroke-width="3" class="stroke" />
  <path transform="matrix(1.3615952,0,0,1.3615952,-9246.373,6066.205)" d="m7440-4195v35" fill="none" stroke-miterlimit="10" stroke-width="3" class="stroke" />
  <path transform="matrix(1.3615952,0,0,1.3615952,-9246.373,6066.205)" d="m7480-4235c7e-4 1.3094-0.064 2.616-0.1922 3.9202-0.1288 1.3038-0.3208 2.5982-0.5771 3.8833-0.2557 1.2847-0.5737 2.5545-0.9537 3.8085-0.3803 1.253-0.8212 2.4855-1.323 3.696-0.501 1.2104-1.0603 2.393-1.678 3.5483-0.618 1.1552-1.29 2.2778-2.018 3.3671-0.7275 1.0896-1.507 2.1406-2.338 3.1526-0.8305 1.013-1.7094 1.9822-2.6361 2.9085-0.9263 0.9265-1.8959 1.8047-2.9079 2.6365-1.013 0.8303-2.0643 1.61-3.1541 2.338-1.0894 0.728-2.2115 1.4-3.3669 2.018-1.1551 0.6173-2.3382 1.177-3.549 1.6784-1.21 0.5009-2.4415 0.9416-3.695 1.3217-1.2534 0.3804-2.523 0.6989-3.8081 0.9542-1.2849 0.2557-2.5789 0.4477-3.8819 0.5761-1.304 0.1286-2.611 0.1926-3.921 0.1926-1.3094 0-2.616-0.064-3.9202-0.1926-1.3042-0.1284-2.5988-0.3204-3.8838-0.5761-1.285-0.2553-2.5542-0.5738-3.808-0.9542-1.253-0.3801-2.4855-0.8208-3.6964-1.3217-1.2106-0.5014-2.3931-1.0611-3.5488-1.6784-1.1548-0.6175-2.2778-1.2899-3.3668-2.0179-1.0893-0.728-2.1401-1.5078-3.153-2.3381-1.012-0.8318-1.982-1.71-2.908-2.6365-0.9262-0.9263-1.805-1.8955-2.636-2.9085-0.831-1.012-1.6105-2.063-2.339-3.1526-0.7271-1.0893-1.3995-2.2119-2.0171-3.3671-0.6172-1.1553-1.1769-2.3379-1.6789-3.5483-0.5013-1.2105-0.942-2.443-1.322-3.696-0.38-1.254-0.698-2.5238-0.954-3.8085-0.2551-1.2851-0.447-2.5795-0.5754-3.8833-0.1286-1.3042-0.1926-2.6108-0.1926-3.9202 0-1.31 0.064-2.617 0.1926-3.921 0.1284-1.304 0.3194-2.598 0.5752-3.882 0.2562-1.2856 0.5742-2.555 0.9541-3.8085 0.3801-1.2534 0.8208-2.4854 1.3221-3.6953 0.502-1.2102 1.0617-2.3932 1.6789-3.5489 0.6176-1.1547 1.29-2.2768 2.0171-3.3662 0.7285-1.0891 1.508-2.1401 2.339-3.1531 0.831-1.0129 1.7098-1.9826 2.636-2.9089 0.926-0.9261 1.896-1.8051 2.908-2.6357 1.0129-0.8314 2.0637-1.6109 3.153-2.3389 1.089-0.728 2.212-1.4005 3.367-2.0185 1.1555-0.617 2.338-1.176 3.5486-1.6778 1.2109-0.5012 2.4434-0.9422 3.6964-1.3222 1.2538-0.38 2.523-0.6988 3.808-0.954 1.285-0.256 2.5796-0.448 3.8838-0.5768 1.3042-0.1282 2.6108-0.1922 3.9202-0.1922 1.31 0 2.617 0.064 3.921 0.1922 1.3038 0.1288 2.5977 0.3208 3.882 0.5768 1.285 0.2552 2.5546 0.5731 3.8085 0.9535 1.2534 0.3805 2.4845 0.8215 3.6945 1.3227 1.2108 0.5018 2.3939 1.0608 3.5487 1.6782 1.1557 0.6177 2.2778 1.2906 3.3663 2.0186 1.09 0.728 2.1415 1.5073 3.1547 2.3384 1.0123 0.8306 1.9819 1.7096 2.9082 2.6357 0.9267 0.9263 1.8056 1.896 2.6367 2.9089 0.8311 1.013 1.6104 2.064 2.3379 3.1531 0.728 1.0894 1.4004 2.2115 2.0181 3.3662 0.6174 1.1557 1.1764 2.3387 1.6774 3.5489 0.5018 1.2099 0.9427 2.4419 1.323 3.6953 0.38 1.2535 0.698 2.5229 0.9537 3.8085 0.2563 1.284 0.4483 2.578 0.5771 3.882 0.1282 1.304 0.1929 2.611 0.1922 3.921z" fill="none" stroke-width="3" class="stroke" />
  <path transform="matrix(1.3615952,0,0,1.3615952,-9246.373,6066.205)" d="m7415.63-4235c9.92-32.82 14.59-32.99 24.37 0s14.36 33.19 24.37 0" fill="none" stroke-miterlimit="10" stroke-width="3" class="stroke" />
  <path transform="matrix(1.3615952,0,0,1.3615952,-9246.373,6066.205)" d="m7440-4120v27.66" fill="none" stroke-miterlimit="10" stroke-width="3" class="stroke" />
  <path transform="matrix(1.3615952,0,0,1.3615952,-9246.373,6066.205)" d="m7440-4083.34-4.5-9h9l-4.5 9z" />
  <path transform="matrix(1.3615952,0,0,1.3615952,-9246.373,6066.205)" d="m7440-4083.34-4.5-9h9l-4.5 9z" fill="none" stroke-miterlimit="10" stroke-width="3" class="stroke" />
  <path transform="matrix(1.3615952,0,0,1.3615952,-9246.373,6066.205)" d="m7420-4160h40v40h-40z" fill="none" class="stroke" />
  <text transform="matrix(1.3615952 0 0 1.3615952 -9247.054 6065.5246)" font-family="Tinos" font-size="18" font-weight="bold" xml:space="preserve" class="fill"><tspan x="7425.0627 7431.0568 7440.9206 7445.9245" y="-4134" class="fill">-&#960;/2</tspan></text>
  <path transform="matrix(1.3615952,0,0,1.3615952,-9246.373,6066.205)" d="m7664.53-4210h47.77l37.6-0.12" fill="none" stroke-miterlimit="10" stroke-width="3" class="stroke" />
  <path transform="matrix(1.3615952,0,0,1.3615952,-9246.373,6066.205)" d="m7756.65-4210.15-8.99 4.53 2.24-4.5-2.27-4.5 9.02 4.47z" />
  <path transform="matrix(1.3615952,0,0,1.3615952,-9246.373,6066.205)" d="m7756.65-4210.15-8.99 4.53 2.24-4.5-2.27-4.5 9.02 4.47z" fill="none" stroke-miterlimit="10" stroke-width="3" class="stroke" />
  <path transform="matrix(1.3615952,0,0,1.3615952,-9246.373,6066.205)" d="m7664.53-4210c5e-4 1.31-0.064 2.6165-0.1924 3.9202-0.1286 1.3038-0.3208 2.5982-0.5767 3.8833-0.2553 1.2847-0.5732 2.5545-0.9539 3.8085-0.38 1.253-0.8215 2.4855-1.323 3.696-0.5004 1.2104-1.06 2.393-1.678 3.5483-0.6173 1.1557-1.2902 2.2778-2.0182 3.3671-0.7271 1.0889-1.5064 2.1397-2.3379 3.1526-0.8309 1.0125-1.7099 1.9822-2.6362 2.9085-0.9267 0.9265-1.8957 1.8047-2.9082 2.6357-1.0127 0.8311-2.064 1.6109-3.1538 2.3389-1.0889 0.7279-2.211 1.4004-3.3667 2.018-1.155 0.6179-2.338 1.1769-3.5484 1.6783-1.2099 0.5016-2.4416 0.9419-3.6948 1.3226-1.2539 0.38-2.5238 0.698-3.8088 0.954-1.2845 0.2551-2.579 0.4465-3.8821 0.575-1.3039 0.1284-2.6109 0.193-3.9209 0.193-1.3101 0-2.617-0.0646-3.921-0.193-1.3041-0.1285-2.5986-0.32-3.884-0.5757-1.2844-0.2559-2.554-0.5738-3.8073-0.9542-1.2537-0.3798-2.4859-0.8201-3.6967-1.3217-1.21-0.5014-2.393-1.0604-3.5484-1.6783-1.1548-0.6176-2.2776-1.2901-3.3667-2.018-1.0889-0.728-2.1399-1.5078-3.1524-2.3389-1.0125-0.831-1.9819-1.7092-2.9087-2.6357-0.9262-0.9263-1.8048-1.896-2.6358-2.9085-0.831-1.0129-1.611-2.0637-2.339-3.1526-0.728-1.0893-1.4002-2.2114-2.018-3.3664-0.6175-1.156-1.1771-2.3386-1.679-3.549-0.501-1.2105-0.9415-2.443-1.3213-3.6969-0.3807-1.2531-0.6987-2.5229-0.9541-3.8076-0.2556-1.2851-0.4468-2.5795-0.5756-3.8833-0.1281-1.3037-0.192-2.6102-0.192-3.9202s0.0639-2.617 0.192-3.921c0.1288-1.303 0.32-2.5977 0.5756-3.882 0.2554-1.285 0.5742-2.5546 0.9544-3.8085 0.3795-1.2534 0.82-2.4845 1.321-3.6953 0.5019-1.2102 1.0615-2.3931 1.679-3.5489 0.6178-1.1552 1.29-2.2778 2.0177-3.3672 0.7283-1.0891 1.5083-2.1406 2.3393-3.1538 0.831-1.0122 1.7096-1.9813 2.6358-2.9073 0.9268-0.9266 1.896-1.8055 2.9082-2.637 1.013-0.8307 2.064-1.61 3.1529-2.338 1.0891-0.728 2.2119-1.4009 3.3671-2.018 1.1558-0.6177 2.338-1.1768 3.548-1.6778 1.2108-0.5012 2.443-0.9422 3.6967-1.3227 1.2533-0.3804 2.5229-0.6983 3.8073-0.9535 1.2854-0.256 2.5799-0.448 3.884-0.5768 1.304-0.1282 2.6109-0.1922 3.921-0.1922 1.31 0 2.617 0.064 3.9209 0.1922 1.3031 0.1288 2.5976 0.3208 3.8828 0.5768 1.2843 0.2552 2.5542 0.573 3.8081 0.953 1.2532 0.3803 2.4852 0.8213 3.6952 1.323 1.2106 0.501 2.3937 1.0603 3.5489 1.678 1.1551 0.6171 2.2771 1.29 3.3661 2.018 1.09 0.728 2.1408 1.5073 3.153 2.338 1.013 0.8315 1.982 1.7104 2.9087 2.637 0.9263 0.926 1.8053 1.8951 2.6363 2.9073 0.8314 1.0132 1.6107 2.0647 2.3378 3.1538 0.728 1.0894 1.4009 2.2119 2.0182 3.3672 0.618 1.1548 1.1776 2.3379 1.678 3.5487 0.5015 1.21 0.9425 2.442 1.3228 3.6955 0.3802 1.2535 0.6982 2.5229 0.9536 3.8085 0.2564 1.2843 0.4486 2.579 0.5772 3.882 0.1284 1.304 0.1929 2.611 0.1924 3.921z" fill="none" stroke-width="3" class="stroke" />
  <text transform="matrix(1.3615952 0 0 1.3615952 -9247.054 6065.5246)" font-family="Tinos" font-size="50" xml:space="preserve" class="fill"><tspan x="7610.8908" y="-4192" class="fill">+</tspan></text>
  <path transform="matrix(1.3615952,0,0,1.3615952,-9246.373,6066.205)" d="m7773.755-4209.99c-4e-4 0.4512-0.0444 0.898-0.133 1.341-0.0881 0.443-0.219 0.873-0.392 1.29-0.173 0.4174-0.385 0.8134-0.6351 1.1884-0.2509 0.3756-0.5359 0.7231-0.8549 1.042-0.3194 0.3196-0.667 0.604-1.042 0.8546-0.3751 0.2513-0.7715 0.4633-1.1885 0.636-0.417 0.172-0.8467 0.3024-1.2896 0.391-0.4424 0.088-0.8891 0.132-1.3399 0.132-0.452 0-0.899-0.044-1.342-0.132-0.4431-0.0886-0.8733-0.219-1.2902-0.391-0.417-0.1727-0.813-0.3847-1.1888-0.636-0.3752-0.2506-0.7224-0.535-1.0412-0.8546-0.3198-0.3189-0.6048-0.6664-0.8558-1.042-0.2502-0.375-0.4621-0.771-0.635-1.1884-0.1723-0.417-0.3022-0.847-0.391-1.29-0.087-0.443-0.131-0.8898-0.131-1.341 0-0.4516 0.044-0.898 0.131-1.341 0.0888-0.443 0.2187-0.873 0.391-1.2898 0.1729-0.417 0.3848-0.813 0.635-1.1882 0.251-0.3758 0.536-0.7229 0.8558-1.042 0.3188-0.319 0.6662-0.604 1.042-0.855 0.375-0.2507 0.771-0.4627 1.188-0.6355 0.4169-0.1724 0.8471-0.3032 1.29-0.3915 0.4432-0.088 0.8902-0.1319 1.3422-0.132 0.4508 1e-4 0.8975 0.044 1.34 0.132 0.4428 0.0883 0.8725 0.2191 1.2895 0.3915 0.417 0.1728 0.813 0.3848 1.1884 0.6355 0.3751 0.251 0.7227 0.536 1.0421 0.855 0.319 0.3191 0.604 0.6662 0.8549 1.042 0.2501 0.3752 0.4621 0.7712 0.6351 1.1882 0.173 0.4168 0.3039 0.8468 0.392 1.2898 0.0886 0.443 0.1326 0.8894 0.133 1.341z" fill="none" stroke-width="3" class="stroke" />
  <text transform="matrix(1.3615952 0 0 1.3615952 -9247.054 6065.5246)" font-family="Tinos" font-size="26" xml:space="preserve" class="fill"><tspan x="7751.203" y="-4239" class="fill">s</tspan></text>
  <text transform="matrix(1.3615952 0 0 1.3615952 -9247.054 6065.5246)" font-family="Tinos" font-size="21.66" xml:space="preserve" class="fill"><tspan x="7761.328 7768.54 7774.5568" y="-4232.8127" class="fill">(t)</tspan></text>
 </g>
</svg>