<svg xmlns="http://www.w3.org/2000/svg" width="2739.8399" height="668.16" version="1.1" viewBox="0 0 2739.8399 668.16">
 <style>
          .fill { fill: black; }
          .stroke { stroke: black; }
          @media (prefers-color-scheme: dark) {
            .fill { fill: white; }
            .stroke { stroke: white; }
          }
        </style><defs>
  <clipPath id="a">
   <path transform="scale(.48)" d="M78.125 15.625H5631.25V1375H78.125Z" clip-rule="evenodd" />
  </clipPath>
 </defs>
 <g clip-path="url(#a)">
  <path transform="matrix(1.3992363,0,0,1.3992363,-9927.754,4797.187)" d="m8154-3420h782c2.26 0 4.514 0.1108 6.763 0.3322 2.249 0.2218 4.481 0.553 6.697 0.9939 2.217 0.4407 4.406 0.989 6.568 1.645 2.163 0.656 4.288 1.4165 6.375 2.2815 2.088 0.8648 4.129 1.8298 6.122 2.895 1.994 1.0654 3.929 2.2259 5.808 3.4815 1.879 1.2551 3.691 2.5996 5.438 4.0334 1.748 1.4336 3.42 2.9495 5.018 4.5475 1.599 1.5978 3.115 3.2702 4.548 5.0172 1.4339 1.7468 2.778 3.5596 4.033 5.4388 1.256 1.879 2.416 3.815 3.482 5.808 1.065 1.9927 2.03 4.033 2.894 6.1211 0.865 2.0877 1.626 4.2129 2.281 6.3753 0.658 2.1623 1.205 4.352 1.646 6.5686 0.441 2.2163 0.773 4.449 0.995 6.6977 0.222 2.2488 0.332 4.5033 0.332 6.7633v322c0 2.2597-0.11 4.5141-0.332 6.7631s-0.554 4.4819-0.995 6.6985c-0.441 2.2164-0.988 4.4058-1.646 6.5681-0.655 2.1624-1.416 4.2876-2.281 6.3755-0.864 2.0878-1.829 4.1282-2.894 6.1213-1.066 1.993-2.226 3.9288-3.482 5.8079-1.255 1.8789-2.5991 3.6919-4.033 5.439-1.433 1.7468-2.949 3.4192-4.548 5.0171-1.598 1.5979-3.27 3.1135-5.018 4.5468-1.747 1.4339-3.559 2.7787-5.438 4.0342-1.879 1.2556-3.814 2.4158-5.808 3.481-1.993 1.0655-4.034 2.0305-6.122 2.8955-2.087 0.8647-4.212 1.625-6.374 2.281-2.163 0.656-4.352 1.2043-6.569 1.6452-2.216 0.4408-4.448 0.7718-6.697 0.9932-2.249 0.2216-4.503 0.3323-6.763 0.3326h-782c-2.26-3e-4 -4.514-0.111-6.7625-0.3328-2.2495-0.2212-4.4825-0.5522-6.6995-0.993-2.216-0.4409-4.4055-0.9892-6.5681-1.6452-2.1629-0.656-4.2881-1.4163-6.376-2.281-2.0874-0.865-4.1279-1.83-6.1209-2.8953-1.993-1.0652-3.929-2.2253-5.8083-3.4809-1.8787-1.2558-3.6917-2.6006-5.4379-4.0338-1.7468-1.434-3.4198-2.9496-5.0178-4.5475-1.5975-1.5979-3.1131-3.2705-4.547-5.0175-1.4333-1.7469-2.778-3.5597-4.034-5.4386-1.2552-1.8791-2.4154-3.8152-3.481-5.8081-1.0653-1.9929-2.031-4.0333-2.896-6.1211-0.865-2.0879-1.6243-4.2131-2.2801-6.3755-0.6559-2.1623-1.2049-4.3517-1.6459-6.5683-0.4405-2.2166-0.7711-4.4493-0.9923-6.6983s-0.332-4.5034-0.3327-6.7631v-322c7e-4 -2.26 0.1115-4.5145 0.3327-6.7633 0.2212-2.2487 0.5518-4.4814 0.9923-6.6975 0.441-2.2165 0.99-4.406 1.646-6.5686s1.4159-4.2876 2.2807-6.3752c0.8652-2.0879 1.8303-4.1284 2.8953-6.1214 1.066-1.993 2.226-3.929 3.481-5.8078 1.256-1.8792 2.6007-3.6922 4.0338-5.439 1.4341-1.747 2.9497-3.4194 4.5472-5.0172 1.598-1.598 3.2707-3.1139 5.017-4.5475 1.747-1.4338 3.5598-2.7783 5.438-4.0334 1.8797-1.2556 3.816-2.416 5.809-3.4811 1.993-1.0656 4.0335-2.0306 6.1209-2.8954 2.0879-0.865 4.2131-1.6255 6.376-2.2815 2.1626-0.656 4.3521-1.2043 6.5681-1.6451 2.217-0.441 4.45-0.7724 6.6995-0.994 2.2485-0.2215 4.5025-0.332 6.7625-0.332z" fill="none" stroke-width="3" class="stroke" />
  <text transform="matrix(1.3992363 0 0 1.3992363 -9928.453 4796.4875)" font-family="Tinos" font-size="50" xml:space="preserve" class="fill"><tspan x="8402.1879 8435.537 8471.637 8507.736 8543.836 8579.936 8610.485 8639.199" y="-3366" class="fill">CHANNEL </tspan></text>
  <text transform="matrix(1.3992363 0 0 1.3992363 -9928.453 4796.4875)" font-family="Tinos" font-size="50" font-style="italic" xml:space="preserve" class="fill"><tspan x="8651.703" y="-3366" class="fill">Q</tspan></text>
  <path transform="matrix(1.3992363,0,0,1.3992363,-9927.754,4797.187)" d="m7194-3420h782c2.26 0 4.514 0.1108 6.763 0.3322 2.2489 0.2218 4.481 0.553 6.6976 0.9939 2.2164 0.4407 4.4054 0.989 6.5684 1.645 2.1626 0.656 4.2876 1.4165 6.375 2.2815 2.0879 0.8648 4.128 1.8298 6.1216 2.895 1.9931 1.0654 3.9292 2.2259 5.8074 3.4815 1.8796 1.2551 3.6926 2.5996 5.439 4.0334 1.747 1.4336 3.4196 2.9495 5.0177 4.5475 1.5982 1.5978 3.1143 3.2702 4.5479 5.0172 1.4334 1.7468 2.7774 3.5596 4.0332 5.4388 1.2562 1.879 2.4162 3.815 3.4812 5.808 1.0657 1.9927 2.0305 4.033 2.895 6.1211 0.8655 2.0877 1.626 4.2129 2.282 6.3753 0.6558 2.1623 1.204 4.352 1.645 6.5686 0.441 2.2163 0.773 4.449 0.994 6.6977 0.222 2.2488 0.3327 4.5033 0.332 6.7633v322c7e-4 2.2597-0.11 4.5141-0.3313 6.7631-0.2217 2.249-0.5537 4.4819-0.9947 6.6985-0.441 2.2164-0.9892 4.4058-1.645 6.5681-0.656 2.1624-1.4165 4.2876-2.282 6.3755-0.8645 2.0878-1.8293 4.1282-2.895 6.1213-1.065 1.993-2.2253 3.9288-3.482 5.8079-1.255 1.8789-2.599 3.6919-4.033 5.439-1.433 1.7468-2.9491 3.4192-4.5473 5.0171-1.5981 1.5979-3.2707 3.1135-5.017 4.5468-1.7467 1.4339-3.5597 2.7787-5.439 4.0342-1.8789 1.2556-3.815 2.4158-5.8077 3.481-1.9931 1.0655-4.034 2.0305-6.1215 2.8955-2.0875 0.8647-4.2125 1.625-6.375 2.281-2.1626 0.656-4.3525 1.2043-6.5689 1.6452-2.2166 0.4408-4.4487 0.7718-6.6976 0.9932-2.249 0.2216-4.503 0.3323-6.763 0.3326h-782c-2.2591-3e-4 -4.5135-0.111-6.7625-0.3328-2.2495-0.2212-4.4829-0.5522-6.6995-0.993-2.2155-0.4409-4.405-0.9892-6.568-1.6452-2.1622-0.656-4.2872-1.4163-6.376-2.281-2.087-0.865-4.1275-1.83-6.121-2.8953-1.993-1.0652-3.929-2.2253-5.808-3.4809-1.879-1.2558-3.692-2.6006-5.4382-4.0338-1.7471-1.434-3.4198-2.9496-5.0178-4.5475s-3.114-3.2705-4.547-5.0175c-1.4333-1.7469-2.778-3.5597-4.034-5.4386-1.2552-1.8791-2.416-3.8152-3.481-5.8081-1.0653-1.9929-2.031-4.0333-2.8953-6.1211-0.8648-2.0879-1.625-4.2131-2.2808-6.3755-0.6559-2.1623-1.2049-4.3517-1.6459-6.5683-0.4405-2.2166-0.7711-4.4493-0.9923-6.6983-0.2217-2.249-0.3327-4.5034-0.3327-6.7631v-322c0-2.26 0.111-4.5145 0.3327-6.7633 0.2212-2.2487 0.5518-4.4814 0.9923-6.6975 0.441-2.2165 0.99-4.406 1.6459-6.5686 0.6558-2.1626 1.416-4.2876 2.2808-6.3752 0.8643-2.0879 1.83-4.1284 2.895-6.1214 1.0653-1.993 2.2253-3.929 3.4809-5.8078 1.2559-1.8792 2.6004-3.6922 4.0342-5.439 1.4332-1.747 2.9492-3.4194 4.5472-5.0172 1.598-1.598 3.2707-3.1139 5.0178-4.5475 1.7462-1.4338 3.5592-2.7783 5.4382-4.0334 1.879-1.2556 3.815-2.416 5.808-3.4811 1.993-1.0656 4.0335-2.0306 6.1209-2.8954 2.0881-0.865 4.2139-1.6255 6.3761-2.2815 2.163-0.656 4.352-1.2043 6.568-1.6451 2.2166-0.441 4.4495-0.7724 6.699-0.994 2.2495-0.2215 4.5039-0.332 6.763-0.332z" fill="none" stroke-width="3" class="stroke" />
  <text transform="matrix(1.3992363 0 0 1.3992363 -9928.453 4796.4875)" font-family="Tinos" font-size="50" xml:space="preserve" class="fill"><tspan x="7451.9064 7485.2565 7521.3566 7557.4567 7593.5568 7629.6569 7660.2067 7688.918" y="-3366" class="fill">CHANNEL </tspan></text>
  <text transform="matrix(1.3992363 0 0 1.3992363 -9928.453 4796.4875)" font-family="Tinos" font-size="50" font-style="italic" xml:space="preserve" class="fill"><tspan x="7701.422" y="-3366" class="fill">I</tspan></text>
  <path transform="matrix(1.3992363,0,0,1.3992363,-9927.754,4797.187)" d="m8645-3160h69.4" fill="none" stroke-miterlimit="10" stroke-width="3" class="stroke" />
  <path transform="matrix(1.3992363,0,0,1.3992363,-9927.754,4797.187)" d="m8723.4-3160-9 4.5v-9l9 4.5z" />
  <path transform="matrix(1.3992363,0,0,1.3992363,-9927.754,4797.187)" d="m8723.4-3160-9 4.5v-9l9 4.5z" fill="none" stroke-miterlimit="10" stroke-width="3" class="stroke" />
  <path transform="matrix(0,1.3992363,-1.3992363,0,-2308.9114,-11664.828)" d="m8445-3120 37-80h246l37 80h-320z" fill="none" stroke-miterlimit="10" stroke-width="3" class="stroke" />
  <text transform="matrix(0 1.3992363 -1.3992363 0 -2309.6109 -11665.528)" font-family="Tinos" font-size="26" xml:space="preserve" class="fill"><tspan x="8515.922 8539.036 8557.809 8571.312 8587.197 8595.855 8610.312 8626.197 8642.083 8660.855 8676.741" y="-3151" class="fill">MULTIPLEXER</tspan></text>
  <path transform="matrix(1.3992363,0,0,1.3992363,-9927.754,4797.187)" d="m8845-3160h100.65" fill="none" stroke-miterlimit="10" stroke-width="3" class="stroke" />
  <path transform="matrix(1.3992363,0,0,1.3992363,-9927.754,4797.187)" d="m8954.65-3160-9 4.5v-9l9 4.5z" />
  <path transform="matrix(1.3992363,0,0,1.3992363,-9927.754,4797.187)" d="m8954.65-3160-9 4.5v-9l9 4.5z" fill="none" stroke-miterlimit="10" stroke-width="3" class="stroke" />
  <path transform="matrix(1.3992363,0,0,1.3992363,-9927.754,4797.187)" d="m8726.75-3220h118.25v120h-118.25z" fill="none" stroke-width="3" class="stroke" />
  <text transform="matrix(1.3992363 0 0 1.3992363 -9928.453 4796.4875)" font-family="Tinos" font-size="26" xml:space="preserve" class="fill"><tspan x="8767.219 8780.219 8788.877 8796.1049" y="-3151" class="fill">g(t)</tspan></text>
  <path transform="matrix(1.3992363,0,0,1.3992363,-9927.754,4797.187)" d="m8480.63-3080.13 42.17 0.03 29.85 0.07" fill="none" stroke-miterlimit="10" stroke-width="3" class="stroke" />
  <path transform="matrix(1.3992363,0,0,1.3992363,-9927.754,4797.187)" d="m8561.65-3080.01-9.01 4.48 0.02-9 8.99 4.52z" />
  <path transform="matrix(1.3992363,0,0,1.3992363,-9927.754,4797.187)" d="m8561.65-3080.01-9.01 4.48 0.02-9 8.99 4.52z" fill="none" stroke-miterlimit="10" stroke-width="3" class="stroke" />
  <path transform="matrix(1.3992363,0,0,1.3992363,-9927.754,4797.187)" d="m8239.38-3140.13h241.25v120h-241.25z" fill="none" stroke-width="3" class="stroke" />
  <text transform="matrix(1.3992363 0 0 1.3992363 -9928.453 4796.4875)" font-family="Tinos" font-size="26" xml:space="preserve" class="fill"><tspan x="8276.422 8295.194 8309.65 8324.106 8342.879 8365.993 8380.449 8396.335 8404.993 8423.766" y="-3071" class="fill">UPSAMPLING</tspan></text>
  <path transform="matrix(1.3992363,0,0,1.3992363,-9927.754,4797.187)" d="m8480.63-3240h72.02" fill="none" stroke-miterlimit="10" stroke-width="3" class="stroke" />
  <path transform="matrix(1.3992363,0,0,1.3992363,-9927.754,4797.187)" d="m8561.65-3240-9 4.5v-9l9 4.5z" />
  <path transform="matrix(1.3992363,0,0,1.3992363,-9927.754,4797.187)" d="m8561.65-3240-9 4.5v-9l9 4.5z" fill="none" stroke-miterlimit="10" stroke-width="3" class="stroke" />
  <path transform="matrix(1.3992363,0,0,1.3992363,-9927.754,4797.187)" d="m8239.38-3300h241.25v120h-241.25z" fill="none" stroke-width="3" class="stroke" />
  <text transform="matrix(1.3992363 0 0 1.3992363 -9928.453 4796.4875)" font-family="Tinos" font-size="26" xml:space="preserve" class="fill"><tspan x="8267.031 8281.487 8298.829 8314.715 8329.171 8337.829 8356.602 8363.102 8378.987 8394.873 8412.215 8430.987" y="-3247" class="fill">PREFIX ZEROS</tspan></text>
  <text transform="matrix(1.3992363 0 0 1.3992363 -9928.453 4796.4875)" font-family="Tinos" font-size="26" xml:space="preserve" class="fill"><tspan x="8445.443" y="-3247" class="fill"> </tspan></text>
  <text transform="matrix(1.3992363 0 0 1.3992363 -9928.453 4796.4875)" font-family="Tinos" font-size="26" xml:space="preserve" class="fill"><tspan x="8339.641 8348.299 8352.979 8365.979 8370.658" y="-3215" class="fill">('0')</tspan></text>
  <path transform="matrix(1.3992363,0,0,1.3992363,-9927.754,4797.187)" d="m8132.13-3080.13h94.9" fill="none" stroke-miterlimit="10" stroke-width="3" class="stroke" />
  <path transform="matrix(1.3992363,0,0,1.3992363,-9927.754,4797.187)" d="m8236.03-3080.13-9 4.5v-9l9 4.5z" />
  <path transform="matrix(1.3992363,0,0,1.3992363,-9927.754,4797.187)" d="m8236.03-3080.13-9 4.5v-9l9 4.5z" fill="none" stroke-miterlimit="10" stroke-width="3" class="stroke" />
  <path transform="matrix(1.3992363,0,0,1.3992363,-9927.754,4797.187)" d="m8132.135-3080.13c-5e-4 0.4515-0.0445 0.8987-0.133 1.3416-0.0882 0.4429-0.219 0.8728-0.3915 1.2898-0.1728 0.4172-0.3845 0.8136-0.6347 1.1887-0.251 0.3753-0.5358 0.7224-0.8548 1.0415-0.3195 0.3191-0.6672 0.6044-1.043 0.855-0.3752 0.2507-0.7712 0.4626-1.1882 0.6354-0.4169 0.1725-0.8468 0.303-1.289 0.391-0.4428 0.0881-0.8892 0.132-1.3408 0.132-0.452 0-0.8995-0.0439-1.3423-0.132-0.4429-0.088-0.8727-0.2185-1.2897-0.391-0.417-0.1728-0.813-0.3847-1.1884-0.6354-0.375-0.2506-0.7221-0.5359-1.041-0.855-0.3198-0.3191-0.6049-0.6665-0.8559-1.0416-0.2517-0.3754-0.4637-0.7714-0.6358-1.1886-0.1729-0.417-0.3032-0.8469-0.3909-1.2894-0.0881-0.4433-0.1315-0.8905-0.131-1.342-5e-4 -0.4514 0.0429-0.8984 0.131-1.341 0.088-0.4426 0.2186-0.8726 0.391-1.2896 0.1728-0.417 0.3847-0.8132 0.6357-1.1887 0.251-0.3752 0.5361-0.7226 0.8559-1.0417 0.3189-0.319 0.666-0.6043 1.041-0.855 0.3754-0.2508 0.7714-0.4627 1.1884-0.6353s0.847-0.3032 1.29-0.3913c0.443-0.0882 0.89-0.1321 1.342-0.1324 0.4516 3e-4 0.898 0.0442 1.3408 0.1321 0.4422 0.0884 0.8721 0.219 1.289 0.3916 0.417 0.1726 0.813 0.3845 1.1882 0.6353 0.3758 0.2507 0.7235 0.536 1.043 0.855 0.319 0.3191 0.6038 0.6665 0.8548 1.0417 0.2502 0.3755 0.4619 0.7717 0.6347 1.1887 0.1725 0.417 0.3033 0.847 0.3915 1.2896 0.0885 0.4426 0.1325 0.8896 0.133 1.341z" fill="none" stroke-width="3" class="stroke" />
  <text transform="matrix(1.3992363 0 0 1.3992363 -9928.453 4796.4875)" font-family="Tinos" font-size="26" xml:space="preserve" class="fill"><tspan x="8160.453 8179.225 8187.8835 8200.883" y="-3096" class="fill">Q[n]</tspan></text>
  <text transform="matrix(1.3992363 0 0 1.3992363 -9928.453 4796.4875)" font-family="Tinos" font-size="26" xml:space="preserve" class="fill"><tspan x="8936.828 8949.828 8968.601 8977.259 8984.486" y="-3186" class="fill">dQ(t)</tspan></text>
  <path transform="matrix(1.3992363,0,0,1.3992363,-9927.754,4797.187)" d="m8971.755-3159.99c0 0.4516-0.044 0.899-0.133 1.3415-0.087 0.4429-0.218 0.8728-0.391 1.29-0.172 0.417-0.383 0.813-0.634 1.1883-0.251 0.3755-0.536 0.7226-0.856 1.0417-0.319 0.3191-0.667 0.6043-1.043 0.8552-0.375 0.2508-0.771 0.4627-1.188 0.6353s-0.847 0.3027-1.289 0.391c-0.443 0.088-0.89 0.132-1.341 0.132-0.452 0-0.899-0.044-1.341-0.132-0.443-0.088-0.873-0.218-1.29-0.3908-0.417-0.1726-0.813-0.3845-1.188-0.6357-0.376-0.2507-0.723-0.5359-1.042-0.855-0.32-0.3191-0.606-0.6662-0.857-1.0415-0.25-0.3755-0.462-0.7717-0.635-1.1887-0.1721-0.4173-0.302-0.8472-0.391-1.2898-0.088-0.4425-0.132-0.8899-0.131-1.3415-1e-3 -0.4515 0.043-0.8987 0.131-1.3414 0.089-0.4426 0.2189-0.8725 0.391-1.2895 0.173-0.417 0.385-0.8131 0.635-1.1885 0.251-0.3752 0.537-0.7226 0.857-1.0416 0.319-0.3192 0.666-0.604 1.042-0.855 0.375-0.2509 0.77-0.4625 1.187-0.6354 0.417-0.1726 0.847-0.303 1.29-0.3911 0.442-0.0881 0.89-0.1323 1.342-0.1325 0.451 2e-4 0.898 0.0444 1.342 0.1325 0.442 0.0881 0.872 0.2185 1.289 0.3915 0.417 0.1727 0.813 0.3846 1.188 0.6354 0.376 0.2507 0.723 0.5354 1.042 0.8546 0.32 0.319 0.604 0.6664 0.855 1.0416 0.251 0.3754 0.463 0.7715 0.634 1.1885 0.173 0.417 0.304 0.8469 0.392 1.2895 0.089 0.4427 0.133 0.8899 0.133 1.3414z" fill="none" stroke-width="3" class="stroke" />
  <path transform="matrix(1.3992363,0,0,1.3992363,-9927.754,4797.187)" d="m7685-3160h69.4" fill="none" stroke-miterlimit="10" stroke-width="3" class="stroke" />
  <path transform="matrix(1.3992363,0,0,1.3992363,-9927.754,4797.187)" d="m7763.4-3160-9 4.5v-9l9 4.5z" />
  <path transform="matrix(1.3992363,0,0,1.3992363,-9927.754,4797.187)" d="m7763.4-3160-9 4.5v-9l9 4.5z" fill="none" stroke-miterlimit="10" stroke-width="3" class="stroke" />
  <path transform="matrix(0,1.3992363,-1.3992363,0,-3652.1783,-10321.562)" d="m7485-3120 37-80h246l37 80h-320z" fill="none" stroke-miterlimit="10" stroke-width="3" class="stroke" />
  <text transform="matrix(0 1.3992363 -1.3992363 0 -3652.8778 -10322.261)" font-family="Tinos" font-size="26" xml:space="preserve" class="fill"><tspan x="7555.922 7579.0358 7597.8078 7611.3117 7627.1979 7635.856 7650.312 7666.198 7682.0847 7700.8566 7716.7429" y="-3151" class="fill">MULTIPLEXER</tspan></text>
  <path transform="matrix(1.3992363,0,0,1.3992363,-9927.754,4797.187)" d="m7885-3160h100.65" fill="none" stroke-miterlimit="10" stroke-width="3" class="stroke" />
  <path transform="matrix(1.3992363,0,0,1.3992363,-9927.754,4797.187)" d="m7994.65-3160-9 4.5v-9l9 4.5z" />
  <path transform="matrix(1.3992363,0,0,1.3992363,-9927.754,4797.187)" d="m7994.65-3160-9 4.5v-9l9 4.5z" fill="none" stroke-miterlimit="10" stroke-width="3" class="stroke" />
  <path transform="matrix(1.3992363,0,0,1.3992363,-9927.754,4797.187)" d="m7766.75-3220h118.25v120h-118.25z" fill="none" stroke-width="3" class="stroke" />
  <text transform="matrix(1.3992363 0 0 1.3992363 -9928.453 4796.4875)" font-family="Tinos" font-size="26" xml:space="preserve" class="fill"><tspan x="7807.2189 7820.2189 7828.877 7836.105" y="-3151" class="fill">g(t)</tspan></text>
  <path transform="matrix(1.3992363,0,0,1.3992363,-9927.754,4797.187)" d="m7520.63-3080.13 42.27 0.03 29.75 0.07" fill="none" stroke-miterlimit="10" stroke-width="3" class="stroke" />
  <path transform="matrix(1.3992363,0,0,1.3992363,-9927.754,4797.187)" d="m7601.65-3080.01-9.01 4.48 0.02-9 8.99 4.52z" />
  <path transform="matrix(1.3992363,0,0,1.3992363,-9927.754,4797.187)" d="m7601.65-3080.01-9.01 4.48 0.02-9 8.99 4.52z" fill="none" stroke-miterlimit="10" stroke-width="3" class="stroke" />
  <path transform="matrix(1.3992363,0,0,1.3992363,-9927.754,4797.187)" d="m7279.38-3140.13h241.25v120h-241.25z" fill="none" stroke-width="3" class="stroke" />
  <text transform="matrix(1.3992363 0 0 1.3992363 -9928.453 4796.4875)" font-family="Tinos" font-size="26" xml:space="preserve" class="fill"><tspan x="7316.422 7335.194 7349.65 7364.106 7382.878 7405.9919 7420.4479 7436.334 7444.992 7463.764" y="-3071" class="fill">UPSAMPLING</tspan></text>
  <path transform="matrix(1.3992363,0,0,1.3992363,-9927.754,4797.187)" d="m7520.63-3240h72.02" fill="none" stroke-miterlimit="10" stroke-width="3" class="stroke" />
  <path transform="matrix(1.3992363,0,0,1.3992363,-9927.754,4797.187)" d="m7601.65-3240-9 4.5v-9l9 4.5z" />
  <path transform="matrix(1.3992363,0,0,1.3992363,-9927.754,4797.187)" d="m7601.65-3240-9 4.5v-9l9 4.5z" fill="none" stroke-miterlimit="10" stroke-width="3" class="stroke" />
  <path transform="matrix(1.3992363,0,0,1.3992363,-9927.754,4797.187)" d="m7279.38-3300h241.25v120h-241.25z" fill="none" stroke-width="3" class="stroke" />
  <text transform="matrix(1.3992363 0 0 1.3992363 -9928.453 4796.4875)" font-family="Tinos" font-size="26" xml:space="preserve" class="fill"><tspan x="7314.25 7328.706 7346.048 7361.934 7376.39 7385.0485 7403.8205 7410.3205 7429.0925 7447.8645 7463.7507" y="-3247" class="fill">PREFIX ONES</tspan></text>
  <text transform="matrix(1.3992363 0 0 1.3992363 -9928.453 4796.4875)" font-family="Tinos" font-size="26" xml:space="preserve" class="fill"><tspan x="7478.2067" y="-3247" class="fill"> </tspan></text>
  <text transform="matrix(1.3992363 0 0 1.3992363 -9928.453 4796.4875)" font-family="Tinos" font-size="26" xml:space="preserve" class="fill"><tspan x="7379.6408 7388.299 7392.979 7405.979 7410.659" y="-3215" class="fill">('1')</tspan></text>
  <path transform="matrix(1.3992363,0,0,1.3992363,-9927.754,4797.187)" d="m7172.13-3080.13h94.9" fill="none" stroke-miterlimit="10" stroke-width="3" class="stroke" />
  <path transform="matrix(1.3992363,0,0,1.3992363,-9927.754,4797.187)" d="m7276.03-3080.13-9 4.5v-9l9 4.5z" />
  <path transform="matrix(1.3992363,0,0,1.3992363,-9927.754,4797.187)" d="m7276.03-3080.13-9 4.5v-9l9 4.5z" fill="none" stroke-miterlimit="10" stroke-width="3" class="stroke" />
  <path transform="matrix(1.3992363,0,0,1.3992363,-9927.754,4797.187)" d="m7172.135-3080.13c0 0.4515-0.0445 0.8987-0.133 1.3416-0.088 0.4429-0.2181 0.8728-0.391 1.2898-0.173 0.4172-0.385 0.8136-0.6352 1.1887-0.2508 0.3753-0.5358 0.7224-0.855 1.0415-0.3193 0.3191-0.667 0.6044-1.0428 0.855-0.3752 0.2507-0.7712 0.4626-1.1882 0.6354-0.4178 0.1725-0.8471 0.303-1.2898 0.391-0.4421 0.0881-0.889 0.132-1.34 0.132-0.452 0-0.899-0.0439-1.342-0.132-0.443-0.088-0.873-0.2185-1.2894-0.391-0.4176-0.1728-0.814-0.3847-1.189-0.6354-0.3756-0.2506-0.7226-0.5359-1.0416-0.855-0.32-0.3191-0.605-0.6665-0.856-1.0416-0.2503-0.3754-0.462-0.7714-0.635-1.1886-0.1724-0.417-0.303-0.8469-0.391-1.2894-0.088-0.4433-0.1315-0.8905-0.131-1.342-5e-4 -0.4514 0.043-0.8984 0.1318-1.341 0.0879-0.4426 0.2182-0.8726 0.3911-1.2896 0.1721-0.417 0.3841-0.8132 0.6348-1.1887 0.2503-0.3752 0.5353-0.7226 0.8553-1.0417 0.319-0.319 0.6657-0.6043 1.041-0.855 0.3756-0.2508 0.7716-0.4627 1.189-0.6353 0.417-0.1726 0.8468-0.3032 1.2897-0.3913 0.4428-0.0882 0.8903-0.1321 1.3423-0.1324 0.451 3e-4 0.8979 0.0442 1.34 0.1321 0.443 0.0884 0.8729 0.219 1.29 0.3916 0.417 0.1726 0.813 0.3845 1.1888 0.6353 0.3752 0.2507 0.7227 0.536 1.042 0.855 0.3192 0.3191 0.6042 0.6665 0.855 1.0417 0.2502 0.3755 0.4622 0.7717 0.6352 1.1887 0.1729 0.417 0.303 0.847 0.391 1.2896 0.0885 0.4426 0.133 0.8896 0.133 1.341z" fill="none" stroke-width="3" class="stroke" />
  <text transform="matrix(1.3992363 0 0 1.3992363 -9928.453 4796.4875)" font-family="Tinos" font-size="26" xml:space="preserve" class="fill"><tspan x="7205.5 7214.158 7222.8166 7235.8166" y="-3096" class="fill">I[n]</tspan></text>
  <text transform="matrix(1.3992363 0 0 1.3992363 -9928.453 4796.4875)" font-family="Tinos" font-size="26" xml:space="preserve" class="fill"><tspan x="7981.8908 7994.8908 8003.549 8012.207 8019.435" y="-3186" class="fill">dI(t)</tspan></text>
  <path transform="matrix(1.3992363,0,0,1.3992363,-9927.754,4797.187)" d="m8011.755-3159.99c-4e-4 0.4516-0.045 0.899-0.1332 1.3415-0.0879 0.4429-0.2183 0.8728-0.3911 1.29-0.1729 0.417-0.3848 0.813-0.6358 1.1883-0.2509 0.3755-0.5359 0.7226-0.8549 1.0417s-0.6661 0.6043-1.042 0.8552c-0.3751 0.2508-0.771 0.4627-1.1885 0.6353-0.417 0.1726-0.8467 0.3027-1.2895 0.391-0.442 0.088-0.889 0.132-1.34 0.132-0.4521 0-0.8993-0.044-1.3422-0.132s-0.8728-0.218-1.2898-0.3908c-0.417-0.1726-0.813-0.3845-1.1882-0.6357-0.3758-0.2507-0.7232-0.5359-1.042-0.855-0.3189-0.3191-0.604-0.6662-0.8558-1.0415-0.2502-0.3755-0.4621-0.7717-0.635-1.1887-0.1723-0.4173-0.303-0.8472-0.3911-1.2898-0.0874-0.4425-0.1313-0.8899-0.1309-1.3415-4e-4 -0.4515 0.0435-0.8987 0.131-1.3414 0.088-0.4426 0.2187-0.8725 0.3915-1.2895 0.1725-0.417 0.3845-0.8131 0.6353-1.1885 0.251-0.3752 0.5361-0.7226 0.855-1.0416 0.3188-0.3192 0.6662-0.604 1.042-0.855 0.3752-0.2509 0.7712-0.4625 1.188-0.6354 0.4169-0.1726 0.8462-0.303 1.2892-0.3911s0.8909-0.1323 1.343-0.1325c0.451 2e-4 0.898 0.0444 1.34 0.1325 0.4428 0.0881 0.8725 0.2185 1.29 0.3915 0.417 0.1727 0.8129 0.3846 1.188 0.6354 0.3759 0.2507 0.723 0.5354 1.042 0.8546 0.319 0.319 0.604 0.6664 0.855 1.0416 0.2509 0.3754 0.4628 0.7715 0.635 1.1885 0.1735 0.417 0.3039 0.8469 0.3918 1.2895 0.0882 0.4427 0.1328 0.8899 0.1332 1.3414z" fill="none" stroke-width="3" class="stroke" />
  <path transform="matrix(1.3992363,0,0,1.3992363,-9927.754,4797.187)" d="m7172.13-3240.13 53.47 0.03 41.05 0.08" fill="none" stroke-miterlimit="10" stroke-width="3" class="stroke" />
  <path transform="matrix(1.3992363,0,0,1.3992363,-9927.754,4797.187)" d="m7275.65-3240.01-9.01 4.49 0.01-9 9 4.51z" />
  <path transform="matrix(1.3992363,0,0,1.3992363,-9927.754,4797.187)" d="m7275.65-3240.01-9.01 4.49 0.01-9 9 4.51z" fill="none" stroke-miterlimit="10" stroke-width="3" class="stroke" />
  <path transform="matrix(1.3992363,0,0,1.3992363,-9927.754,4797.187)" d="m7172.135-3240.13c0 0.4515-0.0445 0.8987-0.133 1.3414-0.088 0.4426-0.2181 0.8726-0.391 1.2897-0.173 0.4173-0.385 0.8135-0.6352 1.1889-0.2508 0.3751-0.5358 0.7225-0.855 1.0416-0.3193 0.3194-0.667 0.6044-1.0428 0.855-0.3752 0.2507-0.7712 0.4626-1.1882 0.6354-0.4178 0.1725-0.8471 0.303-1.2898 0.391-0.4421 0.0881-0.889 0.132-1.34 0.132-0.452 0-0.899-0.0439-1.342-0.132-0.443-0.088-0.873-0.2185-1.2894-0.391-0.4176-0.1728-0.814-0.3847-1.189-0.6354-0.3756-0.2506-0.7226-0.5356-1.0416-0.855-0.32-0.3191-0.605-0.6665-0.856-1.0416-0.2503-0.3754-0.462-0.7714-0.635-1.1886-0.1724-0.4172-0.303-0.8472-0.391-1.2898-0.088-0.4429-0.1315-0.8901-0.131-1.3416-5e-4 -0.4514 0.043-0.898 0.1318-1.3408 0.0879-0.4426 0.2182-0.8725 0.3911-1.2898 0.1721-0.417 0.3841-0.8132 0.6348-1.1887 0.2503-0.3752 0.5353-0.7226 0.8553-1.042 0.319-0.3191 0.6657-0.6042 1.041-0.855 0.3756-0.2507 0.7716-0.4624 1.189-0.635 0.417-0.1727 0.8468-0.3034 1.2897-0.3916 0.4428-0.0881 0.8903-0.1321 1.3423-0.1321 0.451 0 0.8979 0.044 1.34 0.1321 0.443 0.0882 0.8729 0.2189 1.29 0.3916 0.417 0.1726 0.813 0.3845 1.1888 0.6353 0.3752 0.2507 0.7227 0.5356 1.042 0.8547 0.3192 0.3194 0.6042 0.6668 0.855 1.042 0.2502 0.3755 0.4622 0.7717 0.6352 1.1887 0.1729 0.4173 0.303 0.8472 0.391 1.2898 0.0885 0.4428 0.133 0.8894 0.133 1.3408z" fill="none" stroke-width="3" class="stroke" />
  <text transform="matrix(1.3992363 0 0 1.3992363 -9928.453 4796.4875)" font-family="Tinos" font-size="26" xml:space="preserve" class="fill"><tspan x="7211.2658 7225.7219" y="-3256" class="fill">Pd</tspan></text>
  <path transform="matrix(1.3992363,0,0,1.3992363,-9927.754,4797.187)" d="m8132.13-3240.13 53.47 0.03 41.05 0.08" fill="none" stroke-miterlimit="10" stroke-width="3" class="stroke" />
  <path transform="matrix(1.3992363,0,0,1.3992363,-9927.754,4797.187)" d="m8235.65-3240.01-9.01 4.49 0.01-9 9 4.51z" />
  <path transform="matrix(1.3992363,0,0,1.3992363,-9927.754,4797.187)" d="m8235.65-3240.01-9.01 4.49 0.01-9 9 4.51z" fill="none" stroke-miterlimit="10" stroke-width="3" class="stroke" />
  <path transform="matrix(1.3992363,0,0,1.3992363,-9927.754,4797.187)" d="m8132.135-3240.13c-5e-4 0.4515-0.0445 0.8987-0.133 1.3414-0.0882 0.4426-0.219 0.8726-0.3915 1.2897-0.1728 0.4173-0.3845 0.8135-0.6347 1.1889-0.251 0.3751-0.5358 0.7225-0.8548 1.0416-0.3195 0.3194-0.6672 0.6044-1.043 0.855-0.3752 0.2507-0.7712 0.4626-1.1882 0.6354-0.4169 0.1725-0.8468 0.303-1.289 0.391-0.4428 0.0881-0.8892 0.132-1.3408 0.132-0.452 0-0.8995-0.0439-1.3423-0.132-0.4429-0.088-0.8727-0.2185-1.2897-0.391-0.417-0.1728-0.813-0.3847-1.1884-0.6354-0.375-0.2506-0.7221-0.5356-1.041-0.855-0.3198-0.3191-0.6049-0.6665-0.8559-1.0416-0.2517-0.3754-0.4637-0.7714-0.6358-1.1886-0.1729-0.4172-0.3032-0.8472-0.3909-1.2898-0.0881-0.4429-0.1315-0.8901-0.131-1.3416-5e-4 -0.4514 0.0429-0.898 0.131-1.3408 0.088-0.4426 0.2186-0.8725 0.391-1.2898 0.1728-0.417 0.3847-0.8132 0.6357-1.1887 0.251-0.3752 0.5361-0.7226 0.8559-1.042 0.3189-0.3191 0.666-0.6042 1.041-0.855 0.3754-0.2507 0.7714-0.4624 1.1884-0.635 0.417-0.1727 0.847-0.3034 1.29-0.3916 0.443-0.0881 0.89-0.1321 1.342-0.1321 0.4516 0 0.898 0.044 1.3408 0.1321 0.4422 0.0882 0.8721 0.2189 1.289 0.3916 0.417 0.1726 0.813 0.3845 1.1882 0.6353 0.3758 0.2507 0.7235 0.5356 1.043 0.8547 0.319 0.3194 0.6038 0.6668 0.8548 1.042 0.2502 0.3755 0.4619 0.7717 0.6347 1.1887 0.1725 0.4173 0.3033 0.8472 0.3915 1.2898 0.0885 0.4428 0.1325 0.8894 0.133 1.3408z" fill="none" stroke-width="3" class="stroke" />
  <text transform="matrix(1.3992363 0 0 1.3992363 -9928.453 4796.4875)" font-family="Tinos" font-size="26" xml:space="preserve" class="fill"><tspan x="8171.2658 8185.7219" y="-3256" class="fill">Pd</tspan></text>
 </g>
</svg>