<svg xmlns="http://www.w3.org/2000/svg" width="3915.8399" height="1128" version="1.1" viewBox="0 0 3915.8399 1128">
 <style>
          .fill { fill: black; }
          .stroke { stroke: black; }
          @media (prefers-color-scheme: dark) {
            .fill { fill: white; }
            .stroke { stroke: white; }
          }
        </style><defs>
  <clipPath id="a">
   <path transform="scale(.48)" d="m78.125 18.75h8e3v2312.5h-8e3z" clip-rule="evenodd" />
  </clipPath>
 </defs>
 <g clip-path="url(#a)">
  <path transform="matrix(1.4112094,0,0,1.4112094,-9111.795,8819.269)" d="m6962.88-6240h2120.12c1.915 3e-4 3.828 0.0472 5.74 0.1414 1.912 0.0938 3.822 0.2346 5.727 0.4219 1.905 0.188 3.804 0.4227 5.699 0.7031 1.895 0.2816 3.78 0.6086 5.658 0.9819 1.878 0.3737 3.746 0.793 5.604 1.2587 1.857 0.465 3.702 0.976 5.535 1.532 1.832 0.5555 3.649 1.156 5.453 1.801 1.803 0.6452 3.589 1.3341 5.357 2.067 1.769 0.733 3.519 1.509 5.249 2.328 1.732 0.818 3.442 1.6784 5.131 2.581s3.354 1.846 4.996 2.8303c1.642 0.9849 3.259 2.0088 4.852 3.0727 1.593 1.064 3.157 2.1661 4.694 3.307 1.539 1.14 3.049 2.3176 4.529 3.5324 1.48 1.2156 2.929 2.4658 4.348 3.7516 1.419 1.2855 2.805 2.605 4.159 3.959 1.355 1.354 2.674 2.7401 3.96 4.159 1.287 1.419 2.537 2.8682 3.751 4.3482s2.392 2.9892 3.533 4.5273c1.14 1.5385 2.243 3.103 3.307 4.6955 1.064 1.5921 2.088 3.2093 3.0729 4.8514 0.9841 1.6421 1.9271 3.3076 2.8301 4.9961 0.903 1.689 1.763 3.3989 2.582 5.1299 0.818 1.7309 1.593 3.4809 2.327 5.25 0.732 1.769 1.421 3.5547 2.065 5.3576 0.646 1.803 1.246 3.6204 1.803 5.453 0.556 1.832 1.065 3.677 1.53 5.535 0.466 1.8565 0.885 3.7242 1.259 5.603 0.374 1.8775 0.701 3.7633 0.982 5.6573 0.282 1.8941 0.516 3.794 0.704 5.6992 0.187 1.9058 0.328 3.8145 0.421 5.7275 0.095 1.9122 0.142 3.826 0.142 5.741v546c0 1.915-0.047 3.8284-0.142 5.741-0.093 1.913-0.234 3.8213-0.421 5.7271-0.188 1.9059-0.422 3.8059-0.704 5.7002-0.281 1.894-0.608 3.7797-0.982 5.6577s-0.793 3.746-1.259 5.6025c-0.465 1.8579-0.974 3.7027-1.53 5.5355-0.557 1.8322-1.157 3.6501-1.803 5.4533-0.644 1.8027-1.333 3.5887-2.065 5.3577-0.734 1.769-1.509 3.5183-2.327 5.2492-0.819 1.731-1.679 3.4408-2.582 5.1298s-1.846 3.3541-2.8301 4.997c-0.9849 1.6423-2.0089 3.2595-3.0729 4.8512-1.064 1.5923-2.167 3.1573-3.307 4.6949-1.141 1.5379-2.319 3.0469-3.533 4.5269s-2.464 2.93-3.751 4.3486c-1.286 1.4184-2.605 2.8054-3.96 4.1594-1.354 1.354-2.74 2.674-4.159 3.9592-1.419 1.2861-2.868 2.5368-4.348 3.751-1.48 1.2148-2.99 2.3928-4.529 3.5328-1.537 1.141-3.101 2.2431-4.694 3.307-1.593 1.0635-3.21 2.0874-4.852 3.0723-1.642 0.9847-3.307 1.9277-4.996 2.8307s-3.399 1.763-5.131 2.582c-1.73 0.819-3.48 1.5941-5.249 2.327-1.768 0.733-3.554 1.4214-5.357 2.066-1.804 0.645-3.621 1.246-5.453 1.8012-1.833 0.5562-3.678 1.0668-5.535 1.5318-1.858 0.4653-3.726 0.8852-5.604 1.259-1.878 0.3733-3.763 0.7004-5.658 0.9812s-3.794 0.5151-5.699 0.7031c-1.905 0.1877-3.815 0.3287-5.727 0.4229-1.912 0.0938-3.825 0.1408-5.74 0.1408h-2120.12c-1.915 0-3.8285-0.047-5.7411-0.1408-1.9129-0.0942-3.8213-0.2352-5.7261-0.4229-1.9058-0.188-3.8058-0.4223-5.6998-0.7031-1.8944-0.2808-3.781-0.6079-5.659-0.9812-1.878-0.3738-3.746-0.7937-5.6031-1.259-1.8574-0.465-3.7022-0.9756-5.5342-1.5318-1.8327-0.5552-3.6499-1.1562-5.4531-1.8012-1.8036-0.6446-3.5889-1.333-5.3579-2.066-1.7691-0.7329-3.5191-1.508-5.25-2.3266-1.731-0.8189-3.4407-1.6794-5.1297-2.5824s-3.3542-1.846-4.9963-2.8307c-1.6421-0.9843-3.2598-2.0083-4.8521-3.0718-1.5918-1.0639-3.1567-2.166-4.6948-3.3065-1.5378-1.141-3.0468-2.319-4.5264-3.5338-1.4804-1.2142-2.9304-2.4649-4.3494-3.7502-1.419-1.286-2.805-2.606-4.1584-3.96-1.3546-1.354-2.6748-2.741-3.9606-4.1594-1.2855-1.4186-2.536-2.8686-3.7503-4.3486-1.2148-1.48-2.3927-2.989-3.5332-4.5269-1.1415-1.5376-2.2435-3.1026-3.3075-4.6949-1.064-1.5917-2.0875-3.2089-3.072-4.8512-0.9843-1.6429-1.928-3.308-2.83-4.997-0.903-1.689-1.764-3.3988-2.5825-5.1298-0.8185-1.7309-1.5938-3.4802-2.3267-5.2492s-1.4218-3.555-2.0669-5.358c-0.645-1.803-1.2451-3.621-1.8009-5.4538-0.556-1.8322-1.0672-3.6772-1.5326-5.5347-0.4654-1.8565-0.8844-3.7245-1.2578-5.6025-0.3736-1.878-0.7006-3.7637-0.9819-5.6577-0.2808-1.8943-0.5147-3.7943-0.7021-5.7002-0.1876-1.9058-0.3287-3.815-0.4229-5.7276-0.0937-1.9121-0.1407-3.8255-0.1407-5.7405v-546c0-1.915 0.047-3.8288 0.141-5.741 0.094-1.913 0.235-3.8217 0.4226-5.7275 0.1874-1.9052 0.4213-3.8051 0.7021-5.6992 0.2813-1.894 0.6083-3.7798 0.9819-5.6573 0.3734-1.8788 0.793-3.7465 1.2583-5.603 0.4651-1.8578 0.9761-3.7026 1.5321-5.535 0.5558-1.8326 1.1559-3.65 1.8009-5.4527 0.6451-1.8028 1.334-3.5883 2.0669-5.3573s1.5082-3.5197 2.3272-5.2506c0.8188-1.731 1.6797-3.4409 2.5825-5.1299 0.9024-1.6885 1.8455-3.354 2.8301-4.9961 0.9839-1.6421 2.0074-3.2593 3.0714-4.8514 1.064-1.5925 2.166-3.157 3.307-4.6955 1.141-1.5381 2.3189-3.0473 3.5337-4.5273 1.2143-1.48 2.4648-2.9292 3.7503-4.3482 1.2858-1.4189 2.606-2.805 3.9606-4.159 1.3534-1.354 2.7394-2.674 4.1584-3.9596 1.419-1.2854 2.869-2.5354 4.349-3.751 1.4799-1.2148 2.9887-2.3924 4.5268-3.5332 1.5381-1.1401 3.103-2.2422 4.6948-3.3062 1.5923-1.0639 3.21-2.0878 4.8521-3.072 1.6423-0.985 3.3081-1.9284 4.9971-2.831 1.6882-0.9026 3.3979-1.763 5.1289-2.5818 1.7309-0.8182 3.4803-1.5942 5.2493-2.3272 1.769-0.7329 3.5549-1.4218 5.3576-2.0669 1.8032-0.645 3.6214-1.2456 5.4541-1.8017 1.832-0.5562 3.6768-1.0664 5.5342-1.5314 1.8569-0.4657 3.7251-0.885 5.6031-1.2587 1.878-0.3733 3.7646-0.7003 5.6586-0.9813s3.7944-0.5157 5.7002-0.7037c1.9048-0.1873 3.814-0.3281 5.7262-0.4219 1.9125-0.0942 3.826-0.1411 5.741-0.1414z" fill="none" stroke-width="3" class="stroke" />
  <text transform="matrix(1.4112094 0 0 1.4112094 -9112.5 8818.5629)" font-family="Tinos" font-size="50" xml:space="preserve" class="fill"><tspan x="7488.7346 7522.0847 7552.6345 7585.9846 7616.534 7644.334 7674.884 7691.5339 7727.634 7763.734 7776.234 7809.584 7845.684 7881.784 7898.434 7934.534 7947.034 7963.684 7999.784 8016.434 8046.984 8077.5339 8110.884 8144.234 8160.884 8173.384 8201.184 8237.283 8265.083 8294.765 8307.265 8343.364 8373.914 8407.264 8423.914 8451.714 8468.364 8504.464 8540.563" y="-6186" class="fill">RECEPTION CHAIN (VITERBI SOFT DECISION)</tspan></text>
  <text transform="matrix(1.4112094 0 0 1.4112094 -9112.5 8818.5629)" font-family="Tinos" font-size="26" xml:space="preserve" class="fill"><tspan x="6556.5627 6571.0187 6579.677 6586.905 6595.563 6602.063 6616.727 6623.227 6631.8854 6640.5437 6647.7717" y="-5906" class="fill">S(t) + r(t)</tspan></text>
  <path transform="matrix(1.4112094,0,0,1.4112094,-9111.795,8819.269)" d="m6606.11-5876.25-0.01 38.45 0.07 25.95" fill="none" stroke-miterlimit="10" stroke-width="3" class="stroke" />
  <path transform="matrix(1.4112094,0,0,1.4112094,-9111.795,8819.269)" d="m6606.19-5802.85-4.52-8.99 9-0.03-4.48 9.02z" />
  <path transform="matrix(1.4112094,0,0,1.4112094,-9111.795,8819.269)" d="m6606.19-5802.85-4.52-8.99 9-0.03-4.48 9.02z" fill="none" stroke-miterlimit="10" stroke-width="3" class="stroke" />
  <path transform="matrix(1.4112094,0,0,1.4112094,-9111.795,8819.269)" d="m6612.985-5883.13c-4e-4 0.452-0.0444 0.899-0.133 1.342-0.088 0.443-0.218 0.8723-0.391 1.29-0.173 0.417-0.385 0.8132-0.636 1.189-0.2501 0.375-0.5353 0.722-0.8541 1.041-0.3193 0.3191-0.6669 0.6042-1.042 0.8552-0.3759 0.2508-0.7719 0.4628-1.189 0.6353-0.417 0.1728-0.8469 0.3035-1.2899 0.3915-0.442 0.087-0.889 0.131-1.34 0.131-0.452 0-0.899-0.044-1.342-0.1319-0.443-0.0871-0.8723-0.2178-1.2893-0.3906-0.417-0.1725-0.813-0.3845-1.1887-0.6353-0.3753-0.251-0.723-0.5361-1.042-0.8552-0.319-0.319-0.604-0.666-0.8552-1.0418-0.2508-0.3752-0.4628-0.7712-0.6353-1.1882-0.1725-0.4177-0.3027-0.8479-0.3915-1.2908-0.0875-0.4428-0.1314-0.8892-0.131-1.3412-4e-4 -0.4517 0.0435-0.8985 0.1319-1.3409 0.0879-0.4421 0.2181-0.8721 0.3911-1.2891 0.1729-0.4174 0.3848-0.813 0.635-1.1889 0.251-0.3751 0.536-0.7227 0.855-1.042 0.319-0.3191 0.6667-0.6041 1.042-0.855 0.3757-0.2501 0.7717-0.4619 1.188-0.6348 0.417-0.1733 0.8469-0.3033 1.2898-0.3913 0.4428-0.0886 0.8902-0.1326 1.3422-0.133 0.451 4e-4 0.898 0.0444 1.3409 0.133 0.4421 0.088 0.872 0.218 1.2891 0.3913 0.417 0.1729 0.813 0.3848 1.1889 0.6357 0.3751 0.2501 0.7227 0.535 1.042 0.8541 0.3188 0.3193 0.604 0.6669 0.855 1.042 0.2501 0.3759 0.4621 0.7715 0.6347 1.1889 0.1734 0.417 0.3034 0.847 0.3914 1.2891 0.0886 0.4424 0.1326 0.8892 0.133 1.3409z" fill="none" stroke-width="3" class="stroke" />
  <path transform="matrix(1.4112094,0,0,1.4112094,-9111.795,8819.269)" d="m6725.88-5769.5 107.65 0.01" fill="none" stroke-miterlimit="10" stroke-width="3" class="stroke" />
  <path transform="matrix(1.4112094,0,0,1.4112094,-9111.795,8819.269)" d="m6842.53-5769.49-9 4.5v-9l9 4.5z" />
  <path transform="matrix(1.4112094,0,0,1.4112094,-9111.795,8819.269)" d="m6842.53-5769.49-9 4.5v-9l9 4.5z" fill="none" stroke-miterlimit="10" stroke-width="3" class="stroke" />
  <path transform="matrix(1.4112094,0,0,1.4112094,-9111.795,8819.269)" d="m6486.37-5799.5h239.51v120h-239.51z" fill="none" stroke-width="3" class="stroke" />
  <text transform="matrix(1.4112094 0 0 1.4112094 -9112.5 8818.5629)" font-family="Tinos" font-size="26" xml:space="preserve" class="fill"><tspan x="6549.6564 6566.998 6585.77 6603.112 6620.4538 6629.112 6644.998" y="-5746" class="fill">CARRIER</tspan></text>
  <text transform="matrix(1.4112094 0 0 1.4112094 -9112.5 8818.5629)" font-family="Tinos" font-size="26" xml:space="preserve" class="fill"><tspan x="6538.3439 6557.1159 6573.002 6588.888 6604.7746 6622.116 6637.5197 6656.2917" y="-5714" class="fill">DETECTOR</tspan></text>
  <path transform="matrix(1.4112094,0,0,1.4112094,-9111.795,8819.269)" d="m7085.88-5769.49 107.65-0.01" fill="none" stroke-miterlimit="10" stroke-width="3" class="stroke" />
  <path transform="matrix(1.4112094,0,0,1.4112094,-9111.795,8819.269)" d="m7202.53-5769.5-9 4.5v-9l9 4.5z" />
  <path transform="matrix(1.4112094,0,0,1.4112094,-9111.795,8819.269)" d="m7202.53-5769.5-9 4.5v-9l9 4.5z" fill="none" stroke-miterlimit="10" stroke-width="3" class="stroke" />
  <path transform="matrix(1.4112094,0,0,1.4112094,-9111.795,8819.269)" d="m7085.88-5709.49 107.65-0.01" fill="none" stroke-miterlimit="10" stroke-width="3" class="stroke" />
  <path transform="matrix(1.4112094,0,0,1.4112094,-9111.795,8819.269)" d="m7202.53-5709.5-9 4.5v-9l9 4.5z" />
  <path transform="matrix(1.4112094,0,0,1.4112094,-9111.795,8819.269)" d="m7202.53-5709.5-9 4.5v-9l9 4.5z" fill="none" stroke-miterlimit="10" stroke-width="3" class="stroke" />
  <path transform="matrix(1.4112094,0,0,1.4112094,-9111.795,8819.269)" d="m6845.88-5799.49h240v120h-240z" fill="none" stroke-width="3" class="stroke" />
  <text transform="matrix(1.4112094 0 0 1.4112094 -9112.5 8818.5629)" font-family="Tinos" font-size="26" xml:space="preserve" class="fill"><tspan x="6899.2658 6916.6076 6935.3796 6954.1516 6972.9235 6985.01 7003.7819 7018.238" y="-5746" class="fill">BANDPASS</tspan></text>
  <text transform="matrix(1.4112094 0 0 1.4112094 -9112.5 8818.5629)" font-family="Tinos" font-size="26" xml:space="preserve" class="fill"><tspan x="6877.172 6895.944 6911.83 6934.944 6953.716 6972.488 6991.26 7007.146 7023.0539 7038.94" y="-5714" class="fill">DEMODULATE</tspan></text>
  <text transform="matrix(1.4112094 0 0 1.4112094 -9112.5 8818.5629)" font-family="Tinos" font-size="26" xml:space="preserve" class="fill"><tspan x="6766.328 6776.442 6781.122 6789.7805 6797.0085" y="-5791" class="fill">s'(t)</tspan></text>
  <path transform="matrix(1.4112094,0,0,1.4112094,-9111.795,8819.269)" d="m6725.88-5709.5 107.65 0.01" fill="none" stroke-miterlimit="10" stroke-width="3" class="stroke" />
  <path transform="matrix(1.4112094,0,0,1.4112094,-9111.795,8819.269)" d="m6842.53-5709.49-9 4.5v-9l9 4.5z" />
  <path transform="matrix(1.4112094,0,0,1.4112094,-9111.795,8819.269)" d="m6842.53-5709.49-9 4.5v-9l9 4.5z" fill="none" stroke-miterlimit="10" stroke-width="3" class="stroke" />
  <text transform="matrix(1.4112094 0 0 1.4112094 -9112.5 8818.5629)" font-family="Tinos" font-size="26" xml:space="preserve" class="fill"><tspan x="6761.2814 6769.9396 6781.4836 6786.1638 6794.822 6802.05" y="-5669" class="fill">fc'(t)</tspan></text>
  <path transform="matrix(1.4112094,0,0,1.4112094,-9111.795,8819.269)" d="m7326.51-5799.5-0.01-100.5h108.28" fill="none" stroke-miterlimit="10" stroke-width="3" class="stroke" />
  <path transform="matrix(1.4112094,0,0,1.4112094,-9111.795,8819.269)" d="m7443.78-5900-9 3v-6l9 3z" />
  <path transform="matrix(1.4112094,0,0,1.4112094,-9111.795,8819.269)" d="m7443.78-5900-9 3v-6l9 3z" fill="none" stroke-miterlimit="10" stroke-width="3" class="stroke" />
  <path transform="matrix(1.4112094,0,0,1.4112094,-9111.795,8819.269)" d="m7326.51-5679.5-0.01 99.5 108.28 0.01" fill="none" stroke-miterlimit="10" stroke-width="3" class="stroke" />
  <path transform="matrix(1.4112094,0,0,1.4112094,-9111.795,8819.269)" d="m7443.78-5579.99-9 3v-6l9 3z" />
  <path transform="matrix(1.4112094,0,0,1.4112094,-9111.795,8819.269)" d="m7443.78-5579.99-9 3v-6l9 3z" fill="none" stroke-miterlimit="10" stroke-width="3" class="stroke" />
  <path transform="matrix(1.4112094,0,0,1.4112094,-9111.795,8819.269)" d="m7205.88-5799.5h241.25v120h-241.25z" fill="none" stroke-width="3" class="stroke" />
  <text transform="matrix(1.4112094 0 0 1.4112094 -9112.5 8818.5629)" font-family="Tinos" font-size="26" xml:space="preserve" class="fill"><tspan x="7260.75 7276.636 7295.408 7319.4787 7325.9787 7338.052 7356.8239 7371.28" y="-5746" class="fill">LOW PASS</tspan></text>
  <text transform="matrix(1.4112094 0 0 1.4112094 -9112.5 8818.5629)" font-family="Tinos" font-size="26" xml:space="preserve" class="fill"><tspan x="7385.736" y="-5746" class="fill"> </tspan></text>
  <text transform="matrix(1.4112094 0 0 1.4112094 -9112.5 8818.5629)" font-family="Tinos" font-size="26" xml:space="preserve" class="fill"><tspan x="7283.6408 7298.0969 7306.755 7320.254 7336.14 7352.0266" y="-5714" class="fill">FILTER</tspan></text>
  <text transform="matrix(1.4112094 0 0 1.4112094 -9112.5 8818.5629)" font-family="Tinos" font-size="26" xml:space="preserve" class="fill"><tspan x="7120.9846 7133.9846 7152.7565 7157.4367 7166.0949 7173.3229" y="-5791" class="fill">dX'(t)</tspan></text>
  <text transform="matrix(1.4112094 0 0 1.4112094 -9112.5 8818.5629)" font-family="Tinos" font-size="26" xml:space="preserve" class="fill"><tspan x="7120.9846 7133.9846 7152.7565 7157.4367 7166.0949 7173.3229" y="-5669" class="fill">dY'(t)</tspan></text>
  <path transform="matrix(1.4112094,0,0,1.4112094,-9111.795,8819.269)" d="m7567.76-5840 0.04 70 160.95 0.01" fill="none" stroke-miterlimit="10" stroke-width="3" class="stroke" />
  <path transform="matrix(1.4112094,0,0,1.4112094,-9111.795,8819.269)" d="m7447.13-5960h241.25v120h-241.25z" fill="none" stroke-width="3" class="stroke" />
  <text transform="matrix(1.4112094 0 0 1.4112094 -9112.5 8818.5629)" font-family="Tinos" font-size="26" xml:space="preserve" class="fill"><tspan x="7501.4064 7524.52 7540.419 7556.305 7573.647 7592.419 7608.305" y="-5907" class="fill">MATCHED</tspan></text>
  <text transform="matrix(1.4112094 0 0 1.4112094 -9112.5 8818.5629)" font-family="Tinos" font-size="26" xml:space="preserve" class="fill"><tspan x="7627.077" y="-5907" class="fill"> </tspan></text>
  <text transform="matrix(1.4112094 0 0 1.4112094 -9112.5 8818.5629)" font-family="Tinos" font-size="26" xml:space="preserve" class="fill"><tspan x="7524.625 7539.081 7547.7395 7561.2385 7577.1247 7593.0109" y="-5875" class="fill">FILTER</tspan></text>
  <path transform="matrix(1.4112094,0,0,1.4112094,-9111.795,8819.269)" d="m7447.13-5639.99h241.25v120h-241.25z" fill="none" stroke-width="3" class="stroke" />
  <text transform="matrix(1.4112094 0 0 1.4112094 -9112.5 8818.5629)" font-family="Tinos" font-size="26" xml:space="preserve" class="fill"><tspan x="7501.4064 7524.52 7540.419 7556.305 7573.647 7592.419 7608.305" y="-5587" class="fill">MATCHED</tspan></text>
  <text transform="matrix(1.4112094 0 0 1.4112094 -9112.5 8818.5629)" font-family="Tinos" font-size="26" xml:space="preserve" class="fill"><tspan x="7627.077" y="-5587" class="fill"> </tspan></text>
  <text transform="matrix(1.4112094 0 0 1.4112094 -9112.5 8818.5629)" font-family="Tinos" font-size="26" xml:space="preserve" class="fill"><tspan x="7524.625 7539.081 7547.7395 7561.2385 7577.1247 7593.0109" y="-5555" class="fill">FILTER</tspan></text>
  <text transform="matrix(1.4112094 0 0 1.4112094 -9112.5 8818.5629)" font-family="Tinos" font-size="26" xml:space="preserve" class="fill"><tspan x="7361.047 7374.047 7382.705 7387.3854 7396.0437 7403.2717" y="-5913" class="fill">dI'(t)</tspan></text>
  <text transform="matrix(1.4112094 0 0 1.4112094 -9112.5 8818.5629)" font-family="Tinos" font-size="26" xml:space="preserve" class="fill"><tspan x="7354.9846 7367.9846 7386.7565 7391.4367 7400.0949 7407.3229" y="-5533" class="fill">dQ'(t)</tspan></text>
  <path transform="matrix(1.4112094,0,0,1.4112094,-9111.795,8819.269)" d="m7826.4-6030.24-90.8 0.04 0.03 253.33" fill="none" stroke-miterlimit="10" stroke-width="3" class="stroke" />
  <path transform="matrix(1.4112094,0,0,1.4112094,-9111.795,8819.269)" d="m7835.4-6030.25-9 3.01-0.01-6 9.01 2.99z" />
  <path transform="matrix(1.4112094,0,0,1.4112094,-9111.795,8819.269)" d="m7835.4-6030.25-9 3.01-0.01-6 9.01 2.99z" fill="none" stroke-miterlimit="10" stroke-width="3" class="stroke" />
  <path transform="matrix(1.4112094,0,0,1.4112094,-9111.795,8819.269)" d="m7826.4-5970.24-40.8 0.04 0.03 254.2" fill="none" stroke-miterlimit="10" stroke-width="3" class="stroke" />
  <path transform="matrix(1.4112094,0,0,1.4112094,-9111.795,8819.269)" d="m7835.4-5970.25-9 3.01-0.01-6 9.01 2.99z" />
  <path transform="matrix(1.4112094,0,0,1.4112094,-9111.795,8819.269)" d="m7835.4-5970.25-9 3.01-0.01-6 9.01 2.99z" fill="none" stroke-miterlimit="10" stroke-width="3" class="stroke" />
  <path transform="matrix(1.4112094,0,0,1.4112094,-9111.795,8819.269)" d="m7959.38-5940.25 0.02 70.05-0.02 58.11" fill="none" stroke-miterlimit="10" stroke-width="3" class="stroke" />
  <path transform="matrix(1.4112094,0,0,1.4112094,-9111.795,8819.269)" d="m7959.38-5803.09-3-9.01 6 0.01-3 9z" />
  <path transform="matrix(1.4112094,0,0,1.4112094,-9111.795,8819.269)" d="m7959.38-5803.09-3-9.01 6 0.01-3 9z" fill="none" stroke-miterlimit="10" stroke-width="3" class="stroke" />
  <path transform="matrix(1.4112094,0,0,1.4112094,-9111.795,8819.269)" d="m7838.75-6060.25h241.25v120h-241.25z" fill="none" stroke-width="3" class="stroke" />
  <text transform="matrix(1.4112094 0 0 1.4112094 -9112.5 8818.5629)" font-family="Tinos" font-size="26" xml:space="preserve" class="fill"><tspan x="7859.0939 7873.55 7892.322 7911.0939 7928.4357 7947.2077 7964.5495 7983.3215 8002.0935 8010.7517 8026.6379 8042.524" y="-5991" class="fill">SYNCHRONIZER</tspan></text>
  <path transform="matrix(1.4112094,0,0,1.4112094,-9111.795,8819.269)" d="m8200-6030.25h-107.65" fill="none" stroke-miterlimit="10" stroke-width="3" class="stroke" />
  <path transform="matrix(1.4112094,0,0,1.4112094,-9111.795,8819.269)" d="m8083.35-6030.25 9-3v6l-9-3z" />
  <path transform="matrix(1.4112094,0,0,1.4112094,-9111.795,8819.269)" d="m8083.35-6030.25 9-3v6l-9-3z" fill="none" stroke-miterlimit="10" stroke-width="3" class="stroke" />
  <path transform="matrix(1.4112094,0,0,1.4112094,-9111.795,8819.269)" d="m8200-5970.25h-107.65" fill="none" stroke-miterlimit="10" stroke-width="3" class="stroke" />
  <path transform="matrix(1.4112094,0,0,1.4112094,-9111.795,8819.269)" d="m8083.35-5970.25 9-3v6l-9-3z" />
  <path transform="matrix(1.4112094,0,0,1.4112094,-9111.795,8819.269)" d="m8083.35-5970.25 9-3v6l-9-3z" fill="none" stroke-miterlimit="10" stroke-width="3" class="stroke" />
  <path transform="matrix(1.4112094,0,0,1.4112094,-9111.795,8819.269)" d="m8200-6060.25h280v120h-280z" fill="none" stroke-width="3" class="stroke" />
  <text transform="matrix(1.4112094 0 0 1.4112094 -9112.5 8818.5629)" font-family="Tinos" font-size="26" xml:space="preserve" class="fill"><tspan x="8217.219 8231.675 8250.447 8269.22 8286.562 8305.334 8322.676 8341.448 8360.221 8368.879 8384.765 8400.679 8416.564 8425.223 8443.995" y="-6007" class="fill">SYNCHRONIZATION</tspan></text>
  <text transform="matrix(1.4112094 0 0 1.4112094 -9112.5 8818.5629)" font-family="Tinos" font-size="26" xml:space="preserve" class="fill"><tspan x="8288.234 8307.007 8322.893 8340.234 8355.646 8374.419" y="-5975" class="fill">VECTOR</tspan></text>
  <path transform="matrix(1.4112094,0,0,1.4112094,-9111.795,8819.269)" d="m8080-5769.74h107.65" fill="none" stroke-miterlimit="10" stroke-width="3" class="stroke" />
  <path transform="matrix(1.4112094,0,0,1.4112094,-9111.795,8819.269)" d="m8196.65-5769.74-9 4.5v-9l9 4.5z" />
  <path transform="matrix(1.4112094,0,0,1.4112094,-9111.795,8819.269)" d="m8196.65-5769.74-9 4.5v-9l9 4.5z" fill="none" stroke-miterlimit="10" stroke-width="3" class="stroke" />
  <path transform="matrix(1.4112094,0,0,1.4112094,-9111.795,8819.269)" d="m8080-5709.74h107.65" fill="none" stroke-miterlimit="10" stroke-width="3" class="stroke" />
  <path transform="matrix(1.4112094,0,0,1.4112094,-9111.795,8819.269)" d="m8196.65-5709.74-9 4.5v-9l9 4.5z" />
  <path transform="matrix(1.4112094,0,0,1.4112094,-9111.795,8819.269)" d="m8196.65-5709.74-9 4.5v-9l9 4.5z" fill="none" stroke-miterlimit="10" stroke-width="3" class="stroke" />
  <path transform="matrix(1.4112094,0,0,1.4112094,-9111.795,8819.269)" d="m7826.4-5709.72-10.7 0.02-23.2 0.57" fill="none" stroke-miterlimit="10" stroke-width="3" class="stroke" />
  <path transform="matrix(1.4112094,0,0,1.4112094,-9111.795,8819.269)" d="m7835.4-5709.73-9 3.01-0.01-6 9.01 2.99z" />
  <path transform="matrix(1.4112094,0,0,1.4112094,-9111.795,8819.269)" d="m7835.4-5709.73-9 3.01-0.01-6 9.01 2.99z" fill="none" stroke-miterlimit="10" stroke-width="3" class="stroke" />
  <path transform="matrix(1.4112094,0,0,1.4112094,-9111.795,8819.269)" d="m7838.75-5799.74h241.25v120h-241.25z" fill="none" stroke-width="3" class="stroke" />
  <text transform="matrix(1.4112094 0 0 1.4112094 -9112.5 8818.5629)" font-family="Tinos" font-size="26" xml:space="preserve" class="fill"><tspan x="7868.828 7883.284 7902.056 7925.17 7939.626 7955.512 7971.3986 7988.74 7993.8137 8012.5856 8031.3576" y="-5747" class="fill">SAMPLER AND</tspan></text>
  <text transform="matrix(1.4112094 0 0 1.4112094 -9112.5 8818.5629)" font-family="Tinos" font-size="26" xml:space="preserve" class="fill"><tspan x="7885.1096 7903.8815 7922.6535 7941.4255 7960.1975 7976.0837 7984.7419 8000.628 8016.514" y="-5715" class="fill">QUANTIZER</tspan></text>
  <text transform="matrix(1.4112094 0 0 1.4112094 -9112.5 8818.5629)" font-family="Tinos" font-size="26" xml:space="preserve" class="fill"><tspan x="7610.547 7619.205 7623.8854 7632.5437 7639.7717" y="-5780" class="fill">I'(t)</tspan></text>
  <text transform="matrix(1.4112094 0 0 1.4112094 -9112.5 8818.5629)" font-family="Tinos" font-size="26" xml:space="preserve" class="fill"><tspan x="7600.9846 7619.7565 7624.4367 7633.0949 7640.3229" y="-5675" class="fill">Q'(t)</tspan></text>
  <text transform="matrix(1.4112094 0 0 1.4112094 -9112.5 8818.5629)" font-family="Tinos" font-size="26" xml:space="preserve" class="fill"><tspan x="8117.6564 8126.3146 8130.9948 8139.653 8152.653" y="-5791" class="fill">I'[n]</tspan></text>
  <text transform="matrix(1.4112094 0 0 1.4112094 -9112.5 8818.5629)" font-family="Tinos" font-size="26" xml:space="preserve" class="fill"><tspan x="8112.6096 8131.3815 8136.0617 8144.7199 8157.7199" y="-5676" class="fill">Q'[n]</tspan></text>
  <path transform="matrix(1.4112094,0,0,1.4112094,-9111.795,8819.269)" d="m8480-5769.74h110.03" fill="none" stroke-miterlimit="10" stroke-width="3" class="stroke" />
  <path transform="matrix(1.4112094,0,0,1.4112094,-9111.795,8819.269)" d="m8599.03-5769.74-9 4.5v-9l9 4.5z" />
  <path transform="matrix(1.4112094,0,0,1.4112094,-9111.795,8819.269)" d="m8599.03-5769.74-9 4.5v-9l9 4.5z" fill="none" stroke-miterlimit="10" stroke-width="3" class="stroke" />
  <path transform="matrix(1.4112094,0,0,1.4112094,-9111.795,8819.269)" d="m8480-5709.74h110.03" fill="none" stroke-miterlimit="10" stroke-width="3" class="stroke" />
  <path transform="matrix(1.4112094,0,0,1.4112094,-9111.795,8819.269)" d="m8599.03-5709.74-9 4.5v-9l9 4.5z" />
  <path transform="matrix(1.4112094,0,0,1.4112094,-9111.795,8819.269)" d="m8599.03-5709.74-9 4.5v-9l9 4.5z" fill="none" stroke-miterlimit="10" stroke-width="3" class="stroke" />
  <path transform="matrix(1.4112094,0,0,1.4112094,-9111.795,8819.269)" d="m8200-5799.74h280v120h-280z" fill="none" stroke-width="3" class="stroke" />
  <text transform="matrix(1.4112094 0 0 1.4112094 -9112.5 8818.5629)" font-family="Tinos" font-size="26" xml:space="preserve" class="fill"><tspan x="8259.828 8278.601 8297.373 8311.829 8329.171 8346.513 8362.398 8386.942 8402.828" y="-5731" class="fill">UNSCREWER</tspan></text>
  <path transform="matrix(1.4112094,0,0,1.4112094,-9111.795,8819.269)" d="m8843.63-5739.74h104.02" fill="none" stroke-miterlimit="10" stroke-width="3" class="stroke" />
  <path transform="matrix(1.4112094,0,0,1.4112094,-9111.795,8819.269)" d="m8956.65-5739.74-9 4.5v-9l9 4.5z" />
  <path transform="matrix(1.4112094,0,0,1.4112094,-9111.795,8819.269)" d="m8956.65-5739.74-9 4.5v-9l9 4.5z" fill="none" stroke-miterlimit="10" stroke-width="3" class="stroke" />
  <path transform="matrix(1.4112094,0,0,1.4112094,-9111.795,8819.269)" d="m8602.38-5799.74h241.25v120h-241.25z" fill="none" stroke-width="3" class="stroke" />
  <text transform="matrix(1.4112094 0 0 1.4112094 -9112.5 8818.5629)" font-family="Tinos" font-size="26" xml:space="preserve" class="fill"><tspan x="8610.5629 8627.904 8646.677 8665.449 8684.222 8702.994 8718.88 8737.652 8753.538 8762.196 8780.969 8799.741 8818.514" y="-5747" class="fill">CONVOLUTIONAL</tspan></text>
  <text transform="matrix(1.4112094 0 0 1.4112094 -9112.5 8818.5629)" font-family="Tinos" font-size="26" xml:space="preserve" class="fill"><tspan x="8661.109 8679.882 8695.768 8713.109 8731.882 8750.654 8766.54" y="-5715" class="fill">DECODER</tspan></text>
  <text transform="matrix(1.4112094 0 0 1.4112094 -9112.5 8818.5629)" font-family="Tinos" font-size="26" xml:space="preserve" class="fill"><tspan x="8517.234 8536.007" y="-5784.7814" class="fill">V'</tspan></text>
  <text transform="matrix(1.4112094 0 0 1.4112094 -9112.5 8818.5629)" font-family="Tinos" font-size="18.05" xml:space="preserve" class="fill"><tspan x="8540.703" y="-5779.672" class="fill">t</tspan></text>
  <text transform="matrix(1.4112094 0 0 1.4112094 -9112.5 8818.5629)" font-family="Tinos" font-size="18.05" xml:space="preserve" class="fill"><tspan x="8545.719 8551.729 8560.752" y="-5793.2189" class="fill">(0)</tspan></text>
  <text transform="matrix(1.4112094 0 0 1.4112094 -9112.5 8818.5629)" font-family="Tinos" font-size="26" xml:space="preserve" class="fill"><tspan x="8517.234 8536.007" y="-5674.7814" class="fill">V'</tspan></text>
  <text transform="matrix(1.4112094 0 0 1.4112094 -9112.5 8818.5629)" font-family="Tinos" font-size="18.05" xml:space="preserve" class="fill"><tspan x="8540.703" y="-5669.672" class="fill">t</tspan></text>
  <text transform="matrix(1.4112094 0 0 1.4112094 -9112.5 8818.5629)" font-family="Tinos" font-size="18.05" xml:space="preserve" class="fill"><tspan x="8545.719 8551.729 8560.752" y="-5683.2189" class="fill">(1)</tspan></text>
  <path transform="matrix(1.4112094,0,0,1.4112094,-9112.5,8818.5629)" d="m9087.255-5883.38c0 0.452-0.044 0.899-0.133 1.342-0.088 0.443-0.218 0.8723-0.391 1.2893-0.172 0.4177-0.384 0.8137-0.635 1.1889-0.251 0.3758-0.536 0.7228-0.856 1.0418-0.319 0.3191-0.667 0.6042-1.042 0.855-0.376 0.251-0.771 0.463-1.188 0.6355s-0.847 0.3027-1.29 0.3906-0.889 0.1319-1.34 0.1319c-0.452 0-0.9-0.044-1.342-0.1319-0.443-0.0879-0.873-0.2181-1.29-0.3911-0.417-0.1729-0.813-0.3848-1.189-0.635-0.375-0.2508-0.722-0.5359-1.041-0.855-0.32-0.319-0.605-0.666-0.855-1.0418-0.251-0.375-0.464-0.771-0.637-1.1882-0.172-0.417-0.302-0.847-0.39-1.29s-0.132-0.89-0.131-1.342c-1e-3 -0.451 0.043-0.898 0.132-1.3409 0.087-0.4429 0.217-0.8726 0.389-1.2895 0.173-0.417 0.385-0.8126 0.636-1.1885 0.251-0.3751 0.536-0.7231 0.856-1.042 0.319-0.3189 0.666-0.604 1.041-0.855 0.375-0.2501 0.771-0.4621 1.188-0.6348 0.417-0.1728 0.848-0.3033 1.291-0.3921 0.442-0.0882 0.89-0.1322 1.342-0.1322 0.451 0 0.897 0.044 1.34 0.1322 0.443 0.0888 0.873 0.2188 1.29 0.3918s0.812 0.385 1.188 0.6351c0.375 0.251 0.723 0.5361 1.042 0.855 0.32 0.3189 0.605 0.6669 0.855 1.042 0.251 0.3759 0.463 0.7719 0.635 1.1889 0.173 0.417 0.303 0.847 0.392 1.29 0.089 0.442 0.133 0.889 0.133 1.34z" fill="none" stroke-width="4" class="stroke" />
  <text transform="matrix(1.4112094 0 0 1.4112094 -9112.5 8818.5629)" font-family="Tinos" font-size="26" xml:space="preserve" class="fill"><tspan x="8877.234 8896.007" y="-5754.7814" class="fill">U'</tspan></text>
  <text transform="matrix(1.4112094 0 0 1.4112094 -9112.5 8818.5629)" font-family="Tinos" font-size="18.05" xml:space="preserve" class="fill"><tspan x="8900.703" y="-5749.672" class="fill">t</tspan></text>
  <text transform="matrix(1.4112094 0 0 1.4112094 -9112.5 8818.5629)" font-family="Tinos" font-size="18.05" xml:space="preserve" class="fill"><tspan x="8905.719 8911.729 8920.752" y="-5763.2189" class="fill">(0)</tspan></text>
  <text transform="matrix(1.4112094 0 0 1.4112094 -9112.5 8818.5629)" font-family="Tinos" font-size="26" xml:space="preserve" class="fill"><tspan x="7968.3127 7987.0847 8002.9709 8018.857 8035.242 8053.0539 8059.5539 8078.3259 8094.212 8099.2775 8118.0495 8141.163 8159.935 8174.391 8190.2775 8207.619 8226.392 8245.164 8261.05" y="-5882" class="fill">DELAY DE AMOSTRAGEM</tspan></text>
  <text transform="matrix(1.4112094 0 0 1.4112094 -9112.5 8818.5629)" font-family="Tinos" font-size="26" xml:space="preserve" class="fill"><tspan x="8284.164" y="-5882" class="fill"> </tspan></text>
  <text transform="matrix(1.4112094 0 0 1.4112094 -9112.5 8818.5629)" font-family="Tinos" font-size="26" xml:space="preserve" class="fill"><tspan x="8012.4689 8021.127 8029.785 8048.557 8063.013 8076.8215 8095.5935 8114.365 8130.2517 8146.1379 8152.6379 8171.4099 8187.296 8195.954 8219.068 8237.841" y="-5850" class="fill">(INSTANTE &#211;TIMO)</tspan></text>
  <path transform="matrix(1.4112094,0,0,1.4112094,-9111.795,8819.269)" d="m7742.5-5769.99 48.2-0.01 35.7 0.19" fill="none" stroke-miterlimit="10" stroke-width="3" class="stroke" />
  <path transform="matrix(1.4112094,0,0,1.4112094,-9111.795,8819.269)" d="m7835.4-5769.76-9.02 2.95 0.03-6 8.99 3.05z" />
  <path transform="matrix(1.4112094,0,0,1.4112094,-9111.795,8819.269)" d="m7835.4-5769.76-9.02 2.95 0.03-6 8.99 3.05z" fill="none" stroke-miterlimit="10" stroke-width="3" class="stroke" />
  <path transform="matrix(1.4112094,0,0,1.4112094,-9111.795,8819.269)" d="m7742.505-5769.99c-4e-4 0.4512-0.045 0.8985-0.133 1.341-0.0881 0.443-0.218 0.873-0.3904 1.2904-0.1728 0.417-0.3847 0.813-0.6356 1.1886-0.251 0.3754-0.536 0.7225-0.855 1.0414-0.319 0.3196-0.6661 0.6046-1.042 0.8556-0.3751 0.2503-0.7711 0.4623-1.1881 0.6351-0.4174 0.1724-0.8479 0.3029-1.2909 0.3909-0.442 0.088-0.889 0.132-1.34 0.132-0.452 0-0.899-0.044-1.342-0.1328-0.443-0.0878-0.873-0.2182-1.29-0.3902-0.4172-0.1727-0.8132-0.3847-1.189-0.6356-0.3752-0.2504-0.723-0.5354-1.042-0.855-0.3191-0.3189-0.6042-0.666-0.8552-1.0414-0.2508-0.3756-0.4628-0.7716-0.6348-1.1886-0.1723-0.4174-0.303-0.8472-0.3911-1.29-0.0874-0.4429-0.1309-0.8902-0.1309-1.3414 0-0.4516 0.044-0.898 0.131-1.341 0.088-0.443 0.2187-0.8728 0.3915-1.29 0.1724-0.4168 0.3835-0.813 0.6343-1.1888 0.251-0.375 0.5361-0.7221 0.8552-1.0412 0.319-0.319 0.6668-0.604 1.042-0.855 0.375-0.2507 0.771-0.4627 1.1888-0.6355 0.4172-0.1724 0.8472-0.3025 1.291-0.3911 0.4428-0.0884 0.8892-0.1323 1.3412-0.1324 0.451 1e-4 0.898 0.044 1.34 0.132 0.443 0.0883 0.8735 0.219 1.2909 0.391 0.417 0.173 0.813 0.385 1.1881 0.636 0.3759 0.251 0.723 0.536 1.042 0.855 0.319 0.3191 0.6039 0.6662 0.854 1.0412 0.2519 0.376 0.4638 0.7728 0.6366 1.189 0.1724 0.4178 0.3023 0.8472 0.3904 1.2898 0.088 0.443 0.1326 0.8894 0.133 1.341z" fill="none" stroke-width="3" class="stroke" />
  <path transform="matrix(1.4112094,0,0,1.4112094,-9111.795,8819.269)" d="m7778.75-5709.13-210.95 0.03-0.04 69.11" fill="none" stroke-miterlimit="10" stroke-width="3" class="stroke" />
  <path transform="matrix(1.4112094,0,0,1.4112094,-9111.795,8819.269)" d="m7792.505-5709.13c-4e-4 0.452-0.045 0.899-0.1332 1.342-0.0879 0.4431-0.2183 0.8733-0.3911 1.2902-0.1729 0.417-0.3848 0.813-0.6358 1.1888-0.2509 0.375-0.5359 0.722-0.8549 1.041s-0.6661 0.604-1.042 0.8552c-0.3751 0.2508-0.771 0.4619-1.1885 0.6343-0.417 0.1725-0.8467 0.3027-1.2895 0.3915-0.442 0.0875-0.889 0.1314-1.34 0.132-0.4521-6e-4 -0.8993-0.0445-1.3422-0.1319-0.4429-0.0879-0.8728-0.2181-1.2898-0.3906s-0.813-0.3845-1.1882-0.6353c-0.3758-0.2512-0.7228-0.5362-1.042-0.8552-0.3189-0.319-0.604-0.666-0.855-1.0418-0.2508-0.375-0.4628-0.771-0.6358-1.188-0.1723-0.4169-0.303-0.8471-0.3911-1.29-0.0874-0.4432-0.1313-0.8902-0.1309-1.3422-4e-4 -0.4508 0.0435-0.8975 0.131-1.34 0.088-0.443 0.2187-0.873 0.3915-1.2904 0.1725-0.417 0.3845-0.8126 0.6353-1.1885 0.251-0.3751 0.5361-0.7227 0.855-1.042 0.3192-0.3189 0.6662-0.604 1.042-0.8541 0.3752-0.251 0.7712-0.463 1.188-0.6357 0.4169-0.1728 0.8462-0.3033 1.2892-0.3921 0.443-0.0878 0.8909-0.1318 1.343-0.1322 0.451 4e-4 0.898 0.0444 1.34 0.1322 0.4428 0.0888 0.8725 0.2188 1.29 0.3918 0.417 0.173 0.8129 0.385 1.188 0.636 0.3759 0.2501 0.723 0.5352 1.042 0.8541 0.319 0.3193 0.604 0.6669 0.855 1.042 0.2509 0.3759 0.4628 0.7715 0.635 1.1889 0.1735 0.417 0.3039 0.8472 0.3918 1.2901 0.0882 0.4424 0.1328 0.8891 0.1332 1.3399z" fill="none" stroke-width="3" class="stroke" />
  <text transform="matrix(1.4112094 0 0 1.4112094 -9112.5 8818.5629)" font-family="Tinos" font-size="26" xml:space="preserve" class="fill"><tspan x="8118.4689" y="-6049" class="fill">S</tspan></text>
  <text transform="matrix(1.4112094 0 0 1.4112094 -9112.5 8818.5629)" font-family="Tinos" font-size="21.66" xml:space="preserve" class="fill"><tspan x="8132.9377" y="-6042.8127" class="fill">i</tspan></text>
  <text transform="matrix(1.4112094 0 0 1.4112094 -9112.5 8818.5629)" font-family="Tinos" font-size="26" xml:space="preserve" class="fill"><tspan x="8138.9689 8147.627 8154.855" y="-6049" class="fill">(t)</tspan></text>
  <text transform="matrix(1.4112094 0 0 1.4112094 -9112.5 8818.5629)" font-family="Tinos" font-size="26" xml:space="preserve" class="fill"><tspan x="8116.078" y="-5943" class="fill">S</tspan></text>
  <text transform="matrix(1.4112094 0 0 1.4112094 -9112.5 8818.5629)" font-family="Tinos" font-size="21.66" xml:space="preserve" class="fill"><tspan x="8130.547" y="-5936.8127" class="fill">q</tspan></text>
  <text transform="matrix(1.4112094 0 0 1.4112094 -9112.5 8818.5629)" font-family="Tinos" font-size="26" xml:space="preserve" class="fill"><tspan x="8141.375 8150.033 8157.261" y="-5943" class="fill">(t)</tspan></text>
  <path transform="matrix(1.4112094,0,0,1.4112094,-9111.795,8819.269)" d="m9080.63-5799.74-0.03-38.26-0.15-26.15" fill="none" stroke-miterlimit="10" stroke-width="3" class="stroke" />
  <path transform="matrix(1.4112094,0,0,1.4112094,-9111.795,8819.269)" d="m9080.39-5873.15 4.56 8.98-9 0.05 4.44-9.03z" />
  <path transform="matrix(1.4112094,0,0,1.4112094,-9111.795,8819.269)" d="m9080.39-5873.15 4.56 8.98-9 0.05 4.44-9.03z" fill="none" stroke-miterlimit="10" stroke-width="3" class="stroke" />
  <path transform="matrix(1.4112094,0,0,1.4112094,-9111.795,8819.269)" d="m8960-5799.74h241.25v120h-241.25z" fill="none" stroke-width="3" class="stroke" />
  <text transform="matrix(1.4112094 0 0 1.4112094 -9112.5 8818.5629)" font-family="Tinos" font-size="26" xml:space="preserve" class="fill"><tspan x="9018.391 9035.732 9054.505 9073.277 9092.05 9110.822 9126.708" y="-5747" class="fill">CHANNEL</tspan></text>
  <text transform="matrix(1.4112094 0 0 1.4112094 -9112.5 8818.5629)" font-family="Tinos" font-size="26" xml:space="preserve" class="fill"><tspan x="9019.109 9037.882 9053.768 9071.109 9089.882 9108.654 9124.54" y="-5715" class="fill">DECODER</tspan></text>
  <text transform="matrix(1.4112094 0 0 1.4112094 -9112.5 8818.5629)" font-family="Tinos" font-size="26" xml:space="preserve" class="fill"><tspan x="9058.125 9071.125" y="-5917.7814" class="fill">u'</tspan></text>
  <text transform="matrix(1.4112094 0 0 1.4112094 -9112.5 8818.5629)" font-family="Tinos" font-size="18.05" xml:space="preserve" class="fill"><tspan x="9075.8129" y="-5912.672" class="fill">t</tspan></text>
  <text transform="matrix(1.4112094 0 0 1.4112094 -9112.5 8818.5629)" font-family="Tinos" font-size="18.05" xml:space="preserve" class="fill"><tspan x="9080.828 9086.838 9095.861" y="-5926.2189" class="fill">(0)</tspan></text>
 </g>
</svg>