<svg xmlns="http://www.w3.org/2000/svg" width="3913.92" height="1071.84" version="1.1" viewBox="0 0 3913.92 1071.84">
 <style>
          .fill { fill: black; }
          .stroke { stroke: black; }
          @media (prefers-color-scheme: dark) {
            .fill { fill: white; }
            .stroke { stroke: white; }
          }
        </style><defs>
  <clipPath id="a">
   <path transform="scale(.48)" d="M78.125 18.75H8075V2215.625H78.125Z" clip-rule="evenodd" />
  </clipPath>
 </defs>
 <g clip-path="url(#a)">
  <path transform="matrix(1.4113183,0,0,1.4113183,-9114.259,7408.631)" d="m6958.13-5240h2130.87c1.816 3e-4 3.632 0.045 5.445 0.134 1.816 0.0885 3.627 0.222 5.436 0.4 1.807 0.1782 3.609 0.401 5.405 0.6675 1.797 0.2666 3.586 0.5775 5.368 0.9316 1.782 0.3549 3.554 0.7524 5.317 1.1934 1.76 0.4415 3.51 0.9257 5.25 1.4526 1.738 0.5279 3.462 1.0979 5.172 1.7099 1.711 0.612 3.405 1.266 5.084 1.9605 1.677 0.6955 3.337 1.4315 4.98 2.2075 1.642 0.777 3.265 1.5933 4.867 2.4493 1.603 0.8567 3.183 1.7519 4.74 2.686 1.559 0.9341 3.093 1.9057 4.604 2.915 1.511 1.0097 2.995 2.0552 4.454 3.1372 1.458 1.0825 2.89 2.1995 4.295 3.3516 1.404 1.1523 2.779 2.3389 4.125 3.5591s2.661 2.4721 3.946 3.7563c1.284 1.2847 2.536 2.5996 3.756 3.9458s2.406 2.7212 3.559 4.125c1.152 1.4048 2.269 2.8367 3.351 4.2957 1.083 1.4592 2.129 2.9441 3.138 4.4543 1.009 1.5107 1.981 3.0449 2.916 4.6031 0.934 1.5581 1.829 3.1381 2.686 4.7406 0.856 1.602 1.672 3.224 2.449 4.866 0.776 1.642 1.512 3.3025 2.208 4.981 0.694 1.678 1.348 3.3723 1.961 5.083 0.612 1.7102 1.181 3.4343 1.709 5.173 0.526 1.738 1.01 3.4884 1.453 5.251 0.441 1.762 0.839 3.534 1.193 5.3155 0.355 1.7817 0.665 3.5715 0.932 5.3685 0.266 1.7961 0.488 3.5983 0.667 5.406 0.177 1.808 0.31 3.6191 0.4 5.433 0.089 1.815 0.134 3.6304 0.134 5.447v518c0 1.817-0.045 3.6321-0.134 5.4471-0.09 1.8139-0.223 3.625-0.4 5.4329-0.179 1.808-0.401 3.6105-0.667 5.4074-0.267 1.7976-0.577 3.5866-0.932 5.3686-0.354 1.7813-0.752 3.5533-1.193 5.3155-0.443 1.7625-0.927 3.5125-1.453 5.2505-0.528 1.739-1.097 3.4634-1.709 5.174-0.613 1.7103-1.267 3.405-1.961 5.083-0.696 1.678-1.432 3.3382-2.208 4.9803-0.777 1.6421-1.593 3.2641-2.449 4.8662-0.857 1.602-1.752 3.1825-2.686 4.7405-0.935 1.558-1.907 3.0925-2.916 4.603s-2.055 2.9954-3.138 4.4543c-1.082 1.459-2.199 2.8907-3.351 4.295-1.153 1.4038-2.339 2.7788-3.559 4.125s-2.472 2.6611-3.756 3.9458c-1.285 1.2849-2.6 2.5369-3.946 3.7563-1.346 1.2206-2.721 2.4066-4.125 3.5586-1.405 1.153-2.837 2.27-4.295 3.3525-1.459 1.0825-2.943 2.128-4.454 3.1375-1.511 1.009-3.045 1.981-4.604 2.914-1.557 0.934-3.137 1.8294-4.74 2.6854-1.602 0.8566-3.225 1.6736-4.867 2.4502-1.643 0.7768-3.303 1.5127-4.98 2.2075-1.679 0.6953-3.373 1.3491-5.084 1.9609-1.71 0.612-3.434 1.182-5.172 1.7085-1.74 0.5278-3.49 1.0125-5.25 1.4536-1.763 0.4409-3.535 0.8389-5.317 1.1934s-3.571 0.665-5.368 0.9315c-1.796 0.2662-3.598 0.4884-5.405 0.6661-1.809 0.1783-3.62 0.312-5.436 0.4014-1.813 0.0889-3.629 0.1335-5.445 0.1335h-2130.87c-1.817 0-3.6322-0.0446-5.447-0.1335-1.814-0.0894-3.625-0.2231-5.4323-0.4014-1.8081-0.1777-3.6109-0.3999-5.4077-0.6661-1.7974-0.2665-3.587-0.577-5.369-0.9315-1.7814-0.3545-3.553-0.7525-5.3151-1.1934-1.7622-0.4411-3.5122-0.9258-5.251-1.4536-1.7383-0.5265-3.4629-1.0965-5.1733-1.7085-1.7106-0.6118-3.4048-1.2656-5.083-1.9609-1.6786-0.6948-3.3386-1.4311-4.9806-2.208-1.6425-0.7769-3.2646-1.5931-4.8661-2.4501-1.6021-0.856-3.1821-1.751-4.7403-2.685-1.5581-0.9338-3.0927-1.9055-4.6036-2.9147-1.511-1.0093-2.9955-2.0552-4.4545-3.1373-1.4585-1.0825-2.8905-2.1997-4.2945-3.3525-1.405-1.1515-2.78-2.3375-4.126-3.5581-1.3461-1.2194-2.661-2.4714-3.946-3.7563-1.2843-1.2847-2.5363-2.5996-3.7565-3.9451-1.2205-1.3464-2.4065-2.7219-3.5585-4.1257-1.1524-1.4043-2.2701-2.836-3.3521-4.2953-1.0829-1.4586-2.128-2.9435-3.1373-4.454-1.0096-1.5105-1.9809-3.045-2.9146-4.603-0.934-1.558-1.829-3.1385-2.685-4.7405-0.8564-1.6021-1.6733-3.2241-2.4502-4.8662-0.7768-1.6421-1.5128-3.3023-2.208-4.9803-0.6953-1.678-1.3491-3.3727-1.9609-5.083-0.6119-1.7106-1.1812-3.4348-1.708-5.1735-0.5274-1.7385-1.0119-3.4885-1.4531-5.251-0.4418-1.7622-0.8398-3.5342-1.1938-5.3155-0.3541-1.782-0.6641-3.571-0.9303-5.3686-0.2667-1.7969-0.4887-3.5994-0.6667-5.4074-0.178-1.8079-0.3123-3.619-0.402-5.4329-0.0885-1.815-0.133-3.6301-0.133-5.4471v-518c0-1.8166 0.0445-3.632 0.133-5.447 0.0897-1.8139 0.2235-3.625 0.4017-5.433 0.1778-1.8077 0.3999-3.6099 0.6663-5.406 0.266-1.797 0.5769-3.5868 0.931-5.3685 0.3549-1.7815 0.7528-3.5535 1.1938-5.3155 0.4419-1.7626 0.9262-3.513 1.4532-5.251 0.527-1.7387 1.097-3.4628 1.7089-5.173 0.6118-1.7107 1.2651-3.405 1.9601-5.083 0.6956-1.6785 1.4315-3.339 2.208-4.981 0.777-1.642 1.594-3.2649 2.4505-4.8669 0.856-1.6021 1.751-3.1816 2.6851-4.7397 0.9331-1.5582 1.9044-3.0924 2.914-4.6031 1.0093-1.5102 2.0544-2.9951 3.1373-4.4543 1.082-1.459 2.1997-2.8909 3.3521-4.2957 1.152-1.4038 2.338-2.7788 3.5585-4.125 1.2202-1.3462 2.4722-2.6611 3.7565-3.9458 1.285-1.2842 2.5999-2.5361 3.946-3.7563 1.346-1.2202 2.721-2.4068 4.126-3.5591 1.404-1.1521 2.836-2.2691 4.295-3.3516 1.4585-1.082 2.943-2.1275 4.454-3.1372 1.5109-1.0093 3.0455-1.9809 4.6036-2.915 1.5582-0.9341 3.1382-1.8293 4.7403-2.686 1.6015-0.856 3.2236-1.6723 4.8661-2.4493 1.642-0.776 3.302-1.512 4.9806-2.2075 1.6782-0.6945 3.373-1.3485 5.0834-1.9605 1.7105-0.612 3.4346-1.182 5.173-1.7099 1.7387-0.5269 3.4887-1.0111 5.2509-1.4526 1.7621-0.441 3.5337-0.8385 5.3151-1.1934 1.782-0.3541 3.5716-0.665 5.3685-0.9316 1.7973-0.2665 3.6001-0.4893 5.4082-0.6675 1.8073-0.178 3.6183-0.3115 5.4323-0.4 1.8148-0.089 3.63-0.1337 5.447-0.134z" fill="none" stroke-width="3" class="stroke" />
  <text transform="matrix(1.4113183 0 0 1.4113183 -9114.965 7407.926)" font-family="Tinos" font-size="50" xml:space="preserve" class="fill"><tspan x="7479.078 7512.428 7542.978 7576.328 7606.878 7634.6779 7665.2277 7681.8776 7717.9777 7754.0778 7766.5778 7799.9279 7836.028 7872.128 7888.778 7924.878 7937.378 7954.028 7990.128 8006.778 8037.3278 8067.8776 8101.2277 8134.5778 8151.2277 8163.7277 8199.827 8235.927 8269.276 8305.376 8317.876 8353.976 8384.525 8417.875 8434.525 8462.325 8478.976 8515.075 8551.175" y="-5186" class="fill">RECEPTION CHAIN (VITERBI HARD DECISION)</tspan></text>
  <text transform="matrix(1.4113183 0 0 1.4113183 -9114.965 7407.926)" font-family="Tinos" font-size="26" xml:space="preserve" class="fill"><tspan x="6557.5627 6572.0187 6580.677 6587.905 6596.563 6603.063 6617.727 6624.227 6632.8854 6641.5437 6648.7717" y="-4926" class="fill">S(t) + r(t)</tspan></text>
  <path transform="matrix(1.4113183,0,0,1.4113183,-9114.259,7408.631)" d="m6607.36-4896.25 0.04 38.45v25.95" fill="none" stroke-miterlimit="10" stroke-width="3" class="stroke" />
  <path transform="matrix(1.4113183,0,0,1.4113183,-9114.259,7408.631)" d="m6607.4-4822.85-4.5-9h9l-4.5 9z" />
  <path transform="matrix(1.4113183,0,0,1.4113183,-9114.259,7408.631)" d="m6607.4-4822.85-4.5-9h9l-4.5 9z" fill="none" stroke-miterlimit="10" stroke-width="3" class="stroke" />
  <path transform="matrix(1.4113183,0,0,1.4113183,-9114.259,7408.631)" d="m6614.235-4903.13c0 0.452-0.0444 0.8984-0.133 1.3412-0.0881 0.4429-0.219 0.8731-0.3914 1.2908-0.1728 0.417-0.3847 0.813-0.6356 1.1882-0.2501 0.3758-0.5353 0.7228-0.8541 1.0418-0.3189 0.3191-0.6669 0.6042-1.0429 0.855-0.3751 0.251-0.7711 0.463-1.1881 0.6355s-0.8469 0.3027-1.2899 0.3906c-0.442 0.0879-0.889 0.1319-1.34 0.1319-0.452 0-0.899-0.044-1.342-0.1319-0.443-0.0881-0.873-0.2188-1.29-0.3911-0.4173-0.172-0.8133-0.384-1.1883-0.635-0.3757-0.2508-0.7227-0.5359-1.0417-0.855-0.3191-0.319-0.6043-0.666-0.855-1.0418-0.2512-0.3752-0.4631-0.7712-0.6355-1.1882-0.1728-0.4177-0.3035-0.8479-0.3915-1.2908-0.0875-0.4428-0.1314-0.8892-0.131-1.3412-4e-4 -0.451 0.0435-0.898 0.1319-1.3409 0.0871-0.4429 0.2178-0.8726 0.3906-1.2891 0.1724-0.417 0.3843-0.8129 0.6355-1.188 0.2507-0.3759 0.5359-0.723 0.855-1.0429 0.319-0.3189 0.666-0.604 1.0417-0.855 0.375-0.2501 0.771-0.4619 1.1883-0.6348 0.417-0.1728 0.8469-0.3032 1.2898-0.3913 0.4428-0.0886 0.8902-0.1326 1.3422-0.133 0.451 4e-4 0.898 0.0444 1.3409 0.1322 0.4421 0.0888 0.872 0.2193 1.289 0.3918 0.417 0.173 0.813 0.385 1.1881 0.6351 0.376 0.251 0.724 0.5361 1.0429 0.855 0.3188 0.3199 0.604 0.667 0.8541 1.0429 0.2509 0.3751 0.4628 0.771 0.6356 1.188 0.1724 0.4165 0.3033 0.8462 0.3914 1.2891 0.0886 0.4429 0.133 0.8899 0.133 1.3409z" fill="none" stroke-width="3" class="stroke" />
  <path transform="matrix(1.4113183,0,0,1.4113183,-9114.259,7408.631)" d="m6727.13-4789.5 107.65 0.01" fill="none" stroke-miterlimit="10" stroke-width="3" class="stroke" />
  <path transform="matrix(1.4113183,0,0,1.4113183,-9114.259,7408.631)" d="m6843.78-4789.49-9 4.5v-9l9 4.5z" />
  <path transform="matrix(1.4113183,0,0,1.4113183,-9114.259,7408.631)" d="m6843.78-4789.49-9 4.5v-9l9 4.5z" fill="none" stroke-miterlimit="10" stroke-width="3" class="stroke" />
  <path transform="matrix(1.4113183,0,0,1.4113183,-9114.259,7408.631)" d="m6487.62-4819.5h239.51v120h-239.51z" fill="none" stroke-width="3" class="stroke" />
  <text transform="matrix(1.4113183 0 0 1.4113183 -9114.965 7407.926)" font-family="Tinos" font-size="26" xml:space="preserve" class="fill"><tspan x="6551.6564 6568.998 6587.77 6605.112 6622.4538 6631.112 6646.998" y="-4766" class="fill">CARRIER</tspan></text>
  <text transform="matrix(1.4113183 0 0 1.4113183 -9114.965 7407.926)" font-family="Tinos" font-size="26" xml:space="preserve" class="fill"><tspan x="6540.3439 6559.1159 6575.002 6590.888 6606.7746 6624.116 6639.5197 6658.2917" y="-4734" class="fill">DETECTOR</tspan></text>
  <path transform="matrix(1.4113183,0,0,1.4113183,-9114.259,7408.631)" d="m7087.13-4789.49 107.65-0.01" fill="none" stroke-miterlimit="10" stroke-width="3" class="stroke" />
  <path transform="matrix(1.4113183,0,0,1.4113183,-9114.259,7408.631)" d="m7203.78-4789.5-9 4.5v-9l9 4.5z" />
  <path transform="matrix(1.4113183,0,0,1.4113183,-9114.259,7408.631)" d="m7203.78-4789.5-9 4.5v-9l9 4.5z" fill="none" stroke-miterlimit="10" stroke-width="3" class="stroke" />
  <path transform="matrix(1.4113183,0,0,1.4113183,-9114.259,7408.631)" d="m7087.13-4729.49 107.65-0.01" fill="none" stroke-miterlimit="10" stroke-width="3" class="stroke" />
  <path transform="matrix(1.4113183,0,0,1.4113183,-9114.259,7408.631)" d="m7203.78-4729.5-9 4.5v-9l9 4.5z" />
  <path transform="matrix(1.4113183,0,0,1.4113183,-9114.259,7408.631)" d="m7203.78-4729.5-9 4.5v-9l9 4.5z" fill="none" stroke-miterlimit="10" stroke-width="3" class="stroke" />
  <path transform="matrix(1.4113183,0,0,1.4113183,-9114.259,7408.631)" d="m6847.13-4819.49h240v120h-240z" fill="none" stroke-width="3" class="stroke" />
  <text transform="matrix(1.4113183 0 0 1.4113183 -9114.965 7407.926)" font-family="Tinos" font-size="26" xml:space="preserve" class="fill"><tspan x="6900.2658 6917.6076 6936.3796 6955.1516 6973.9235 6986.01 7004.7819 7019.238" y="-4766" class="fill">BANDPASS</tspan></text>
  <text transform="matrix(1.4113183 0 0 1.4113183 -9114.965 7407.926)" font-family="Tinos" font-size="26" xml:space="preserve" class="fill"><tspan x="6878.172 6896.944 6912.83 6935.944 6954.716 6973.488 6992.26 7008.146 7024.0539 7039.94" y="-4734" class="fill">DEMODULATE</tspan></text>
  <text transform="matrix(1.4113183 0 0 1.4113183 -9114.965 7407.926)" font-family="Tinos" font-size="26" xml:space="preserve" class="fill"><tspan x="6767.328 6777.442 6782.122 6790.7805 6798.0085" y="-4811" class="fill">s'(t)</tspan></text>
  <path transform="matrix(1.4113183,0,0,1.4113183,-9114.259,7408.631)" d="m6727.13-4729.5 107.65 0.01" fill="none" stroke-miterlimit="10" stroke-width="3" class="stroke" />
  <path transform="matrix(1.4113183,0,0,1.4113183,-9114.259,7408.631)" d="m6843.78-4729.49-9 4.5v-9l9 4.5z" />
  <path transform="matrix(1.4113183,0,0,1.4113183,-9114.259,7408.631)" d="m6843.78-4729.49-9 4.5v-9l9 4.5z" fill="none" stroke-miterlimit="10" stroke-width="3" class="stroke" />
  <text transform="matrix(1.4113183 0 0 1.4113183 -9114.965 7407.926)" font-family="Tinos" font-size="26" xml:space="preserve" class="fill"><tspan x="6762.2814 6770.9396 6782.4836 6787.1638 6795.822 6803.05" y="-4689" class="fill">fc'(t)</tspan></text>
  <path transform="matrix(1.4113183,0,0,1.4113183,-9114.259,7408.631)" d="m7327.76-4819.5 0.04-100.5h108.23" fill="none" stroke-miterlimit="10" stroke-width="3" class="stroke" />
  <path transform="matrix(1.4113183,0,0,1.4113183,-9114.259,7408.631)" d="m7445.03-4920-9 3v-6l9 3z" />
  <path transform="matrix(1.4113183,0,0,1.4113183,-9114.259,7408.631)" d="m7445.03-4920-9 3v-6l9 3z" fill="none" stroke-miterlimit="10" stroke-width="3" class="stroke" />
  <path transform="matrix(1.4113183,0,0,1.4113183,-9114.259,7408.631)" d="m7327.76-4699.5 0.04 99.5 108.23 0.01" fill="none" stroke-miterlimit="10" stroke-width="3" class="stroke" />
  <path transform="matrix(1.4113183,0,0,1.4113183,-9114.259,7408.631)" d="m7445.03-4599.99-9 3v-6l9 3z" />
  <path transform="matrix(1.4113183,0,0,1.4113183,-9114.259,7408.631)" d="m7445.03-4599.99-9 3v-6l9 3z" fill="none" stroke-miterlimit="10" stroke-width="3" class="stroke" />
  <path transform="matrix(1.4113183,0,0,1.4113183,-9114.259,7408.631)" d="m7207.13-4819.5h241.25v120h-241.25z" fill="none" stroke-width="3" class="stroke" />
  <text transform="matrix(1.4113183 0 0 1.4113183 -9114.965 7407.926)" font-family="Tinos" font-size="26" xml:space="preserve" class="fill"><tspan x="7261.75 7277.636 7296.408 7320.4787 7326.9787 7339.052 7357.8239 7372.28" y="-4766" class="fill">LOW PASS</tspan></text>
  <text transform="matrix(1.4113183 0 0 1.4113183 -9114.965 7407.926)" font-family="Tinos" font-size="26" xml:space="preserve" class="fill"><tspan x="7386.736" y="-4766" class="fill"> </tspan></text>
  <text transform="matrix(1.4113183 0 0 1.4113183 -9114.965 7407.926)" font-family="Tinos" font-size="26" xml:space="preserve" class="fill"><tspan x="7284.6408 7299.0969 7307.755 7321.254 7337.14 7353.0266" y="-4734" class="fill">FILTER</tspan></text>
  <text transform="matrix(1.4113183 0 0 1.4113183 -9114.965 7407.926)" font-family="Tinos" font-size="26" xml:space="preserve" class="fill"><tspan x="7121.9846 7134.9846 7153.7565 7158.4367 7167.0949 7174.3229" y="-4811" class="fill">dX'(t)</tspan></text>
  <text transform="matrix(1.4113183 0 0 1.4113183 -9114.965 7407.926)" font-family="Tinos" font-size="26" xml:space="preserve" class="fill"><tspan x="7121.9846 7134.9846 7153.7565 7158.4367 7167.0949 7174.3229" y="-4689" class="fill">dY'(t)</tspan></text>
  <path transform="matrix(1.4113183,0,0,1.4113183,-9114.259,7408.631)" d="m7569.01-4860-0.01 70 161 0.01" fill="none" stroke-miterlimit="10" stroke-width="3" class="stroke" />
  <path transform="matrix(1.4113183,0,0,1.4113183,-9114.259,7408.631)" d="m7448.38-4980h241.25v120h-241.25z" fill="none" stroke-width="3" class="stroke" />
  <text transform="matrix(1.4113183 0 0 1.4113183 -9114.965 7407.926)" font-family="Tinos" font-size="26" xml:space="preserve" class="fill"><tspan x="7502.4064 7525.52 7541.419 7557.305 7574.647 7593.419 7609.305" y="-4927" class="fill">MATCHED</tspan></text>
  <text transform="matrix(1.4113183 0 0 1.4113183 -9114.965 7407.926)" font-family="Tinos" font-size="26" xml:space="preserve" class="fill"><tspan x="7628.077" y="-4927" class="fill"> </tspan></text>
  <text transform="matrix(1.4113183 0 0 1.4113183 -9114.965 7407.926)" font-family="Tinos" font-size="26" xml:space="preserve" class="fill"><tspan x="7525.625 7540.081 7548.7395 7562.2385 7578.1247 7594.0109" y="-4895" class="fill">FILTER</tspan></text>
  <path transform="matrix(1.4113183,0,0,1.4113183,-9114.259,7408.631)" d="m7448.38-4659.99h241.25v120h-241.25z" fill="none" stroke-width="3" class="stroke" />
  <text transform="matrix(1.4113183 0 0 1.4113183 -9114.965 7407.926)" font-family="Tinos" font-size="26" xml:space="preserve" class="fill"><tspan x="7502.4064 7525.52 7541.419 7557.305 7574.647 7593.419 7609.305" y="-4607" class="fill">MATCHED</tspan></text>
  <text transform="matrix(1.4113183 0 0 1.4113183 -9114.965 7407.926)" font-family="Tinos" font-size="26" xml:space="preserve" class="fill"><tspan x="7628.077" y="-4607" class="fill"> </tspan></text>
  <text transform="matrix(1.4113183 0 0 1.4113183 -9114.965 7407.926)" font-family="Tinos" font-size="26" xml:space="preserve" class="fill"><tspan x="7525.625 7540.081 7548.7395 7562.2385 7578.1247 7594.0109" y="-4575" class="fill">FILTER</tspan></text>
  <text transform="matrix(1.4113183 0 0 1.4113183 -9114.965 7407.926)" font-family="Tinos" font-size="26" xml:space="preserve" class="fill"><tspan x="7362.047 7375.047 7383.705 7388.3854 7397.0437 7404.2717" y="-4933" class="fill">dI'(t)</tspan></text>
  <text transform="matrix(1.4113183 0 0 1.4113183 -9114.965 7407.926)" font-family="Tinos" font-size="26" xml:space="preserve" class="fill"><tspan x="7358.0314 7371.0314 7389.803" y="-4553" class="fill">dQ'</tspan></text>
  <text transform="matrix(1.4113183 0 0 1.4113183 -9114.965 7407.926)" font-family="Tinos" font-size="21.66" xml:space="preserve" class="fill"><tspan x="7394.5 7401.712 7407.7287" y="-4553" class="fill">(t)</tspan></text>
  <path transform="matrix(1.4113183,0,0,1.4113183,-9114.259,7408.631)" d="m7827.65-5050.24-90.75 0.04-0.02 253.33" fill="none" stroke-miterlimit="10" stroke-width="3" class="stroke" />
  <path transform="matrix(1.4113183,0,0,1.4113183,-9114.259,7408.631)" d="m7836.65-5050.25-9 3.01-0.01-6 9.01 2.99z" />
  <path transform="matrix(1.4113183,0,0,1.4113183,-9114.259,7408.631)" d="m7836.65-5050.25-9 3.01-0.01-6 9.01 2.99z" fill="none" stroke-miterlimit="10" stroke-width="3" class="stroke" />
  <path transform="matrix(1.4113183,0,0,1.4113183,-9114.259,7408.631)" d="m7827.65-4990.24-40.75 0.04-0.02 254.2" fill="none" stroke-miterlimit="10" stroke-width="3" class="stroke" />
  <path transform="matrix(1.4113183,0,0,1.4113183,-9114.259,7408.631)" d="m7836.65-4990.25-9 3.01-0.01-6 9.01 2.99z" />
  <path transform="matrix(1.4113183,0,0,1.4113183,-9114.259,7408.631)" d="m7836.65-4990.25-9 3.01-0.01-6 9.01 2.99z" fill="none" stroke-miterlimit="10" stroke-width="3" class="stroke" />
  <path transform="matrix(1.4113183,0,0,1.4113183,-9114.259,7408.631)" d="m7960.63-4960.25-0.03 70.05 0.02 58.11" fill="none" stroke-miterlimit="10" stroke-width="3" class="stroke" />
  <path transform="matrix(1.4113183,0,0,1.4113183,-9114.259,7408.631)" d="m7960.62-4823.09-3-9 6-0.01-3 9.01z" />
  <path transform="matrix(1.4113183,0,0,1.4113183,-9114.259,7408.631)" d="m7960.62-4823.09-3-9 6-0.01-3 9.01z" fill="none" stroke-miterlimit="10" stroke-width="3" class="stroke" />
  <path transform="matrix(1.4113183,0,0,1.4113183,-9114.259,7408.631)" d="m7840-5080.25h241.25v120h-241.25z" fill="none" stroke-width="3" class="stroke" />
  <text transform="matrix(1.4113183 0 0 1.4113183 -9114.965 7407.926)" font-family="Tinos" font-size="26" xml:space="preserve" class="fill"><tspan x="7860.0939 7874.55 7893.322 7912.0939 7929.4357 7948.2077 7965.5495 7984.3215 8003.0935 8011.7517 8027.6379 8043.524" y="-5011" class="fill">SYNCHRONIZER</tspan></text>
  <path transform="matrix(1.4113183,0,0,1.4113183,-9114.259,7408.631)" d="M8198.75-5050.25H8093.6" fill="none" stroke-miterlimit="10" stroke-width="3" class="stroke" />
  <path transform="matrix(1.4113183,0,0,1.4113183,-9114.259,7408.631)" d="m8084.6-5050.25 9-3v6l-9-3z" />
  <path transform="matrix(1.4113183,0,0,1.4113183,-9114.259,7408.631)" d="m8084.6-5050.25 9-3v6l-9-3z" fill="none" stroke-miterlimit="10" stroke-width="3" class="stroke" />
  <path transform="matrix(1.4113183,0,0,1.4113183,-9114.259,7408.631)" d="M8198.75-4990.25H8093.6" fill="none" stroke-miterlimit="10" stroke-width="3" class="stroke" />
  <path transform="matrix(1.4113183,0,0,1.4113183,-9114.259,7408.631)" d="m8084.6-4990.25 9-3v6l-9-3z" />
  <path transform="matrix(1.4113183,0,0,1.4113183,-9114.259,7408.631)" d="m8084.6-4990.25 9-3v6l-9-3z" fill="none" stroke-miterlimit="10" stroke-width="3" class="stroke" />
  <path transform="matrix(1.4113183,0,0,1.4113183,-9114.259,7408.631)" d="m8198.75-5080.25h281.25v120h-281.25z" fill="none" stroke-width="3" class="stroke" />
  <text transform="matrix(1.4113183 0 0 1.4113183 -9114.965 7407.926)" font-family="Tinos" font-size="26" xml:space="preserve" class="fill"><tspan x="8216.719 8231.175 8249.947 8268.72 8286.062 8304.834 8322.176 8340.948 8359.721 8368.379 8384.265 8400.179 8416.064 8424.723 8443.495" y="-5027" class="fill">SYNCHRONIZATION</tspan></text>
  <text transform="matrix(1.4113183 0 0 1.4113183 -9114.965 7407.926)" font-family="Tinos" font-size="26" xml:space="preserve" class="fill"><tspan x="8287.734 8306.507 8322.393 8339.734 8355.146 8373.919" y="-4995" class="fill">VECTOR</tspan></text>
  <path transform="matrix(1.4113183,0,0,1.4113183,-9114.259,7408.631)" d="m8081.25-4789.74h106.4" fill="none" stroke-miterlimit="10" stroke-width="3" class="stroke" />
  <path transform="matrix(1.4113183,0,0,1.4113183,-9114.259,7408.631)" d="m8196.65-4789.74-9 4.5v-9l9 4.5z" />
  <path transform="matrix(1.4113183,0,0,1.4113183,-9114.259,7408.631)" d="m8196.65-4789.74-9 4.5v-9l9 4.5z" fill="none" stroke-miterlimit="10" stroke-width="3" class="stroke" />
  <path transform="matrix(1.4113183,0,0,1.4113183,-9114.259,7408.631)" d="m8081.25-4729.74h106.4" fill="none" stroke-miterlimit="10" stroke-width="3" class="stroke" />
  <path transform="matrix(1.4113183,0,0,1.4113183,-9114.259,7408.631)" d="m8196.65-4729.74-9 4.5v-9l9 4.5z" />
  <path transform="matrix(1.4113183,0,0,1.4113183,-9114.259,7408.631)" d="m8196.65-4729.74-9 4.5v-9l9 4.5z" fill="none" stroke-miterlimit="10" stroke-width="3" class="stroke" />
  <path transform="matrix(1.4113183,0,0,1.4113183,-9114.259,7408.631)" d="m7827.65-4729.72-10.75 0.02-23.15 0.57" fill="none" stroke-miterlimit="10" stroke-width="3" class="stroke" />
  <path transform="matrix(1.4113183,0,0,1.4113183,-9114.259,7408.631)" d="m7836.65-4729.73-9 3.01-0.01-6 9.01 2.99z" />
  <path transform="matrix(1.4113183,0,0,1.4113183,-9114.259,7408.631)" d="m7836.65-4729.73-9 3.01-0.01-6 9.01 2.99z" fill="none" stroke-miterlimit="10" stroke-width="3" class="stroke" />
  <path transform="matrix(1.4113183,0,0,1.4113183,-9114.259,7408.631)" d="m7840-4819.74h241.25v120h-241.25z" fill="none" stroke-width="3" class="stroke" />
  <text transform="matrix(1.4113183 0 0 1.4113183 -9114.965 7407.926)" font-family="Tinos" font-size="26" xml:space="preserve" class="fill"><tspan x="7869.828 7884.284 7903.056 7926.17 7940.626 7956.512 7972.3986 7989.74 7994.8137 8013.5856 8032.3576" y="-4767" class="fill">SAMPLER AND</tspan></text>
  <text transform="matrix(1.4113183 0 0 1.4113183 -9114.965 7407.926)" font-family="Tinos" font-size="26" xml:space="preserve" class="fill"><tspan x="7886.1096 7904.8815 7923.6535 7942.4255 7961.1975 7977.0837 7985.7419 8001.628 8017.514" y="-4735" class="fill">QUANTIZER</tspan></text>
  <text transform="matrix(1.4113183 0 0 1.4113183 -9114.965 7407.926)" font-family="Tinos" font-size="26" xml:space="preserve" class="fill"><tspan x="7611.547 7620.205 7624.8854 7633.5437 7640.7717" y="-4803" class="fill">I'(t)</tspan></text>
  <text transform="matrix(1.4113183 0 0 1.4113183 -9114.965 7407.926)" font-family="Tinos" font-size="26" xml:space="preserve" class="fill"><tspan x="7602.9846 7621.7565 7626.4367 7635.0949 7642.3229" y="-4698" class="fill">Q'(t)</tspan></text>
  <path transform="matrix(1.4113183,0,0,1.4113183,-9114.259,7408.631)" d="m8441.25-4789.74h106.4" fill="none" stroke-miterlimit="10" stroke-width="3" class="stroke" />
  <path transform="matrix(1.4113183,0,0,1.4113183,-9114.259,7408.631)" d="m8556.65-4789.74-9 4.5v-9l9 4.5z" />
  <path transform="matrix(1.4113183,0,0,1.4113183,-9114.259,7408.631)" d="m8556.65-4789.74-9 4.5v-9l9 4.5z" fill="none" stroke-miterlimit="10" stroke-width="3" class="stroke" />
  <path transform="matrix(1.4113183,0,0,1.4113183,-9114.259,7408.631)" d="m8441.25-4729.74h106.4" fill="none" stroke-miterlimit="10" stroke-width="3" class="stroke" />
  <path transform="matrix(1.4113183,0,0,1.4113183,-9114.259,7408.631)" d="m8556.65-4729.74-9 4.5v-9l9 4.5z" />
  <path transform="matrix(1.4113183,0,0,1.4113183,-9114.259,7408.631)" d="m8556.65-4729.74-9 4.5v-9l9 4.5z" fill="none" stroke-miterlimit="10" stroke-width="3" class="stroke" />
  <path transform="matrix(1.4113183,0,0,1.4113183,-9114.259,7408.631)" d="m8200-4819.74h241.25v120h-241.25z" fill="none" stroke-width="3" class="stroke" />
  <text transform="matrix(1.4113183 0 0 1.4113183 -9114.965 7407.926)" font-family="Tinos" font-size="26" xml:space="preserve" class="fill"><tspan x="8290.891 8306.776 8315.435 8334.207" y="-4767" class="fill">LINE</tspan></text>
  <text transform="matrix(1.4113183 0 0 1.4113183 -9114.965 7407.926)" font-family="Tinos" font-size="26" xml:space="preserve" class="fill"><tspan x="8255.859" y="-4735" class="fill"> </tspan></text>
  <text transform="matrix(1.4113183 0 0 1.4113183 -9114.965 7407.926)" font-family="Tinos" font-size="26" xml:space="preserve" class="fill"><tspan x="8262.359 8281.132 8297.018 8314.359 8333.132 8351.904 8367.79" y="-4735" class="fill">DECODER</tspan></text>
  <text transform="matrix(1.4113183 0 0 1.4113183 -9114.965 7407.926)" font-family="Tinos" font-size="26" xml:space="preserve" class="fill"><tspan x="8118.6564 8127.3146 8131.9948 8140.653 8153.653" y="-4808" class="fill">I'[n]</tspan></text>
  <text transform="matrix(1.4113183 0 0 1.4113183 -9114.965 7407.926)" font-family="Tinos" font-size="26" xml:space="preserve" class="fill"><tspan x="8113.6096 8132.3815 8137.0617 8145.7199 8158.7199" y="-4693" class="fill">Q'[n]</tspan></text>
  <path transform="matrix(1.4113183,0,0,1.4113183,-9114.259,7408.631)" d="m8840-4789.74h107.65" fill="none" stroke-miterlimit="10" stroke-width="3" class="stroke" />
  <path transform="matrix(1.4113183,0,0,1.4113183,-9114.259,7408.631)" d="m8956.65-4789.74-9 4.5v-9l9 4.5z" />
  <path transform="matrix(1.4113183,0,0,1.4113183,-9114.259,7408.631)" d="m8956.65-4789.74-9 4.5v-9l9 4.5z" fill="none" stroke-miterlimit="10" stroke-width="3" class="stroke" />
  <path transform="matrix(1.4113183,0,0,1.4113183,-9114.259,7408.631)" d="m8840-4729.74h107.65" fill="none" stroke-miterlimit="10" stroke-width="3" class="stroke" />
  <path transform="matrix(1.4113183,0,0,1.4113183,-9114.259,7408.631)" d="m8956.65-4729.74-9 4.5v-9l9 4.5z" />
  <path transform="matrix(1.4113183,0,0,1.4113183,-9114.259,7408.631)" d="m8956.65-4729.74-9 4.5v-9l9 4.5z" fill="none" stroke-miterlimit="10" stroke-width="3" class="stroke" />
  <path transform="matrix(1.4113183,0,0,1.4113183,-9114.259,7408.631)" d="m8560-4819.74h280v120h-280z" fill="none" stroke-width="3" class="stroke" />
  <text transform="matrix(1.4113183 0 0 1.4113183 -9114.965 7407.926)" font-family="Tinos" font-size="26" xml:space="preserve" class="fill"><tspan x="8619.828 8638.601 8657.373 8671.829 8689.171 8706.513 8722.398 8746.942 8762.828" y="-4751" class="fill">UNSCREWER</tspan></text>
  <text transform="matrix(1.4113183 0 0 1.4113183 -9114.965 7407.926)" font-family="Tinos" font-size="26" xml:space="preserve" class="fill"><tspan x="8472.609 8491.382 8496.062 8504.72 8517.72" y="-4808" class="fill">X'[n]</tspan></text>
  <text transform="matrix(1.4113183 0 0 1.4113183 -9114.965 7407.926)" font-family="Tinos" font-size="26" xml:space="preserve" class="fill"><tspan x="8472.609 8491.382 8496.062 8504.72 8517.72" y="-4696" class="fill">Y'[n]</tspan></text>
  <path transform="matrix(1.4113183,0,0,1.4113183,-9114.259,7408.631)" d="m9080.7-4819.74v-38.26l-0.05-26.15" fill="none" stroke-miterlimit="10" stroke-width="3" class="stroke" />
  <path transform="matrix(1.4113183,0,0,1.4113183,-9114.259,7408.631)" d="m9080.63-4893.15 4.52 9-9 0.01 4.48-9.01z" />
  <path transform="matrix(1.4113183,0,0,1.4113183,-9114.259,7408.631)" d="m9080.63-4893.15 4.52 9-9 0.01 4.48-9.01z" fill="none" stroke-miterlimit="10" stroke-width="3" class="stroke" />
  <path transform="matrix(1.4113183,0,0,1.4113183,-9114.259,7408.631)" d="m8960-4819.74h241.25v120h-241.25z" fill="none" stroke-width="3" class="stroke" />
  <text transform="matrix(1.4113183 0 0 1.4113183 -9114.965 7407.926)" font-family="Tinos" font-size="26" xml:space="preserve" class="fill"><tspan x="8968.5629 8985.904 9004.677 9023.449 9042.222 9060.994 9076.88 9095.652 9111.538 9120.196 9138.969 9157.741 9176.514" y="-4767" class="fill">CONVOLUTIONAL</tspan></text>
  <text transform="matrix(1.4113183 0 0 1.4113183 -9114.965 7407.926)" font-family="Tinos" font-size="26" xml:space="preserve" class="fill"><tspan x="9019.109 9037.882 9053.768 9071.109 9089.882 9108.654 9124.54" y="-4735" class="fill">DECODER</tspan></text>
  <text transform="matrix(1.4113183 0 0 1.4113183 -9114.965 7407.926)" font-family="Tinos" font-size="26" xml:space="preserve" class="fill"><tspan x="8878.125 8891.125" y="-4807.7814" class="fill">v'</tspan></text>
  <text transform="matrix(1.4113183 0 0 1.4113183 -9114.965 7407.926)" font-family="Tinos" font-size="18.05" xml:space="preserve" class="fill"><tspan x="8895.8129" y="-4802.672" class="fill">t</tspan></text>
  <text transform="matrix(1.4113183 0 0 1.4113183 -9114.965 7407.926)" font-family="Tinos" font-size="18.05" xml:space="preserve" class="fill"><tspan x="8900.828 8906.838 8915.861" y="-4816.2189" class="fill">(0)</tspan></text>
  <text transform="matrix(1.4113183 0 0 1.4113183 -9114.965 7407.926)" font-family="Tinos" font-size="26" xml:space="preserve" class="fill"><tspan x="8878.125 8891.125" y="-4697.7814" class="fill">v'</tspan></text>
  <text transform="matrix(1.4113183 0 0 1.4113183 -9114.965 7407.926)" font-family="Tinos" font-size="18.05" xml:space="preserve" class="fill"><tspan x="8895.8129" y="-4692.672" class="fill">t</tspan></text>
  <text transform="matrix(1.4113183 0 0 1.4113183 -9114.965 7407.926)" font-family="Tinos" font-size="18.05" xml:space="preserve" class="fill"><tspan x="8900.828 8906.838 8915.861" y="-4706.2189" class="fill">(1)</tspan></text>
  <path transform="matrix(1.4113183,0,0,1.4113183,-9114.259,7408.631)" d="m9087.505-4903.38c0 0.452-0.044 0.8984-0.132 1.3412-0.089 0.4429-0.22 0.8728-0.393 1.2901-0.172 0.417-0.384 0.813-0.634 1.1887-0.251 0.3752-0.535 0.7224-0.855 1.0413-0.319 0.3197-0.666 0.6047-1.042 0.8557-0.376 0.2502-0.772 0.4621-1.189 0.6345-0.417 0.1728-0.847 0.3035-1.289 0.3916-0.444 0.0879-0.891 0.1319-1.341 0.1319-0.452 0-0.9-0.044-1.342-0.1319-0.442-0.0881-0.873-0.2188-1.29-0.3916-0.418-0.1724-0.814-0.3843-1.188-0.6345-0.376-0.251-0.724-0.536-1.042-0.8557-0.32-0.3189-0.605-0.6661-0.856-1.0413-0.251-0.3757-0.463-0.7717-0.636-1.1887-0.172-0.4173-0.303-0.8472-0.39-1.2893-0.087-0.443-0.131-0.89-0.131-1.342 0-0.4508 0.044-0.8975 0.131-1.34 0.087-0.443 0.218-0.8735 0.39-1.2904 0.173-0.417 0.385-0.8126 0.636-1.1885 0.251-0.3751 0.536-0.7227 0.856-1.0421 0.318-0.319 0.665-0.6039 1.041-0.855 0.375-0.2509 0.771-0.462 1.188-0.6356 0.417-0.1724 0.848-0.3024 1.29-0.3912 0.443-0.0878 0.891-0.1318 1.343-0.1322 0.45 4e-4 0.897 0.0444 1.341 0.1322 0.442 0.0888 0.872 0.2188 1.289 0.3912 0.417 0.1736 0.813 0.3847 1.189 0.6356 0.376 0.2511 0.723 0.536 1.042 0.855 0.32 0.3194 0.604 0.667 0.855 1.0421 0.25 0.3759 0.462 0.7715 0.634 1.1885 0.173 0.4169 0.304 0.8466 0.393 1.2895 0.088 0.4429 0.132 0.8901 0.132 1.3409z" fill="none" stroke-width="3" class="stroke" />
  <text transform="matrix(1.4113183 0 0 1.4113183 -9114.965 7407.926)" font-family="Tinos" font-size="26" xml:space="preserve" class="fill"><tspan x="9059.125 9072.125" y="-4927.7814" class="fill">u'</tspan></text>
  <text transform="matrix(1.4113183 0 0 1.4113183 -9114.965 7407.926)" font-family="Tinos" font-size="18.05" xml:space="preserve" class="fill"><tspan x="9076.8129" y="-4922.672" class="fill">t</tspan></text>
  <text transform="matrix(1.4113183 0 0 1.4113183 -9114.965 7407.926)" font-family="Tinos" font-size="18.05" xml:space="preserve" class="fill"><tspan x="9081.828 9087.838 9096.861" y="-4936.2189" class="fill">(0)</tspan></text>
  <text transform="matrix(1.4113183 0 0 1.4113183 -9114.965 7407.926)" font-family="Tinos" font-size="26" xml:space="preserve" class="fill"><tspan x="7969.672 7984.128 8002.9 8026.0139 8040.4699 8056.356 8065.014 8083.786 8102.558 8109.058 8127.83 8143.7165 8159.6027 8176.009" y="-4886" class="fill">SAMPLING DELAY</tspan></text>
  <text transform="matrix(1.4113183 0 0 1.4113183 -9114.965 7407.926)" font-family="Tinos" font-size="26" xml:space="preserve" class="fill"><tspan x="8193.82" y="-4886" class="fill"> </tspan></text>
  <path transform="matrix(1.4113183,0,0,1.4113183,-9114.259,7408.631)" d="m7743.75-4789.99 48.15-0.01 35.75 0.19" fill="none" stroke-miterlimit="10" stroke-width="3" class="stroke" />
  <path transform="matrix(1.4113183,0,0,1.4113183,-9114.259,7408.631)" d="m7836.65-4789.76-9.02 2.95 0.03-6 8.99 3.05z" />
  <path transform="matrix(1.4113183,0,0,1.4113183,-9114.259,7408.631)" d="m7836.65-4789.76-9.02 2.95 0.03-6 8.99 3.05z" fill="none" stroke-miterlimit="10" stroke-width="3" class="stroke" />
  <path transform="matrix(1.4113183,0,0,1.4113183,-9114.259,7408.631)" d="m7743.755-4789.99c-4e-4 0.4512-0.0444 0.898-0.133 1.341-0.0881 0.443-0.2185 0.873-0.3913 1.2904-0.1729 0.417-0.3848 0.813-0.6357 1.1886-0.2501 0.3754-0.5352 0.7225-0.8541 1.0414-0.3193 0.3196-0.6669 0.6046-1.042 0.855-0.3759 0.2509-0.7715 0.4629-1.1885 0.6356-0.4174 0.172-0.8474 0.3024-1.2895 0.391-0.4429 0.088-0.8899 0.132-1.3409 0.132-0.452 0-0.899-0.044-1.342-0.132-0.443-0.0886-0.873-0.219-1.29-0.391-0.4172-0.1727-0.8132-0.3847-1.189-0.6356-0.375-0.2504-0.722-0.5354-1.041-0.855-0.3191-0.3189-0.6042-0.666-0.8552-1.0414-0.2508-0.3756-0.4619-0.7716-0.6348-1.1886-0.1733-0.4174-0.304-0.8474-0.392-1.2904s-0.1314-0.8898-0.131-1.341c-4e-4 -0.4516 0.043-0.898 0.131-1.341s0.2187-0.873 0.3915-1.2898c0.1725-0.4172 0.3845-0.8132 0.6353-1.189 0.251-0.3752 0.5361-0.7222 0.8552-1.042 0.319-0.3188 0.666-0.604 1.041-0.8542 0.375-0.2507 0.771-0.4627 1.1888-0.6355 0.4169-0.1724 0.8471-0.3025 1.29-0.3911 0.4429-0.0879 0.8902-0.1323 1.3422-0.1324 0.451 1e-4 0.898 0.0445 1.34 0.1324 0.443 0.0886 0.873 0.2187 1.29 0.3911 0.4174 0.1728 0.813 0.3848 1.1889 0.6355 0.3751 0.2502 0.7227 0.5354 1.042 0.8542 0.3189 0.3198 0.604 0.6668 0.8541 1.042 0.2509 0.3758 0.462 0.7718 0.635 1.189 0.173 0.4168 0.3039 0.8468 0.392 1.2898 0.0886 0.443 0.1326 0.8894 0.133 1.341z" fill="none" stroke-width="3" class="stroke" />
  <path transform="matrix(1.4113183,0,0,1.4113183,-9114.259,7408.631)" d="m7780-4729.13-211 0.03 0.01 69.11" fill="none" stroke-miterlimit="10" stroke-width="3" class="stroke" />
  <path transform="matrix(1.4113183,0,0,1.4113183,-9114.259,7408.631)" d="m7793.755-4729.13c-4e-4 0.452-0.0444 0.8984-0.133 1.3412-0.0881 0.4429-0.219 0.8731-0.392 1.2901-0.1722 0.4177-0.3841 0.8137-0.635 1.1889-0.251 0.3758-0.5352 0.7228-0.8541 1.0418-0.3193 0.3191-0.667 0.6042-1.0429 0.8552-0.3751 0.2508-0.771 0.4619-1.188 0.6348-0.417 0.173-0.847 0.3032-1.2891 0.391-0.4429 0.088-0.8899 0.132-1.3409 0.132-0.452 0-0.899-0.044-1.342-0.1319s-0.873-0.2181-1.2902-0.3911c-0.4178-0.1729-0.8138-0.384-1.1888-0.6348-0.375-0.251-0.722-0.5361-1.041-0.8552-0.3191-0.319-0.6042-0.666-0.8552-1.0418-0.251-0.3752-0.4629-0.7712-0.6353-1.1889-0.1728-0.417-0.3035-0.8472-0.3915-1.2901-0.0875-0.4428-0.1314-0.8892-0.131-1.3412-4e-4 -0.4517 0.0435-0.8985 0.131-1.3409 0.088-0.4429 0.2187-0.8726 0.391-1.2895 0.172-0.417 0.384-0.8126 0.6358-1.1885 0.251-0.3751 0.5361-0.7227 0.8552-1.042 0.319-0.3189 0.666-0.604 1.041-0.8541 0.3758-0.2509 0.7718-0.4628 1.189-0.636 0.4177-0.173 0.847-0.303 1.2898-0.391 0.4429-0.0886 0.8902-0.1326 1.3422-0.133 0.451 4e-4 0.898 0.0444 1.34 0.133 0.443 0.088 0.873 0.218 1.2895 0.391 0.417 0.1732 0.813 0.3851 1.1884 0.636 0.376 0.2501 0.7237 0.5352 1.043 0.8541 0.3189 0.3193 0.6031 0.6669 0.8541 1.042 0.2509 0.3759 0.4628 0.7715 0.6357 1.1885 0.1728 0.4169 0.3032 0.8466 0.3913 1.2895 0.0886 0.4424 0.1326 0.8892 0.133 1.3409z" fill="none" stroke-width="3" class="stroke" />
  <text transform="matrix(1.4113183 0 0 1.4113183 -9114.965 7407.926)" font-family="Tinos" font-size="26" xml:space="preserve" class="fill"><tspan x="8118.4689" y="-5069" class="fill">S</tspan></text>
  <text transform="matrix(1.4113183 0 0 1.4113183 -9114.965 7407.926)" font-family="Tinos" font-size="21.66" xml:space="preserve" class="fill"><tspan x="8132.9377" y="-5062.8127" class="fill">i</tspan></text>
  <text transform="matrix(1.4113183 0 0 1.4113183 -9114.965 7407.926)" font-family="Tinos" font-size="26" xml:space="preserve" class="fill"><tspan x="8138.9689 8147.627 8154.855" y="-5069" class="fill">(t)</tspan></text>
  <text transform="matrix(1.4113183 0 0 1.4113183 -9114.965 7407.926)" font-family="Tinos" font-size="26" xml:space="preserve" class="fill"><tspan x="8116.078" y="-4969" class="fill">S</tspan></text>
  <text transform="matrix(1.4113183 0 0 1.4113183 -9114.965 7407.926)" font-family="Tinos" font-size="21.66" xml:space="preserve" class="fill"><tspan x="8130.547" y="-4962.8127" class="fill">q</tspan></text>
  <text transform="matrix(1.4113183 0 0 1.4113183 -9114.965 7407.926)" font-family="Tinos" font-size="26" xml:space="preserve" class="fill"><tspan x="8141.375 8150.033 8157.261" y="-4969" class="fill">(t)</tspan></text>
 </g>
</svg>