<svg xmlns="http://www.w3.org/2000/svg" width="2249.28" height="809.28" version="1.1" viewBox="0 0 2249.28 809.28">
 <style>
          .fill { fill: black; }
          .stroke { stroke: black; }
          @media (prefers-color-scheme: dark) {
            .fill { fill: white; }
            .stroke { stroke: white; }
          }
        </style><defs>
  <clipPath id="n">
   <path transform="matrix(2,0,0,-2,0,809.28)" d="M52.923265 44.752946H1121.0399V401.03999H52.923265Z" />
  </clipPath>
  <clipPath id="h">
   <path transform="matrix(2,0,0,-2,0,809.28)" d="M52.923265 44.752946H1121.0399V401.03999H52.923265Z" />
  </clipPath>
  <clipPath id="g">
   <path transform="matrix(2,0,0,-2,0,809.28)" d="M52.923265 44.752946H1121.0399V401.03999H52.923265Z" />
  </clipPath>
  <clipPath id="f">
   <path transform="matrix(2,0,0,-2,0,809.28)" d="M52.923265 44.752946H1121.0399V401.03999H52.923265Z" />
  </clipPath>
  <clipPath id="e">
   <path transform="matrix(2,0,0,-2,0,809.28)" d="M52.923265 44.752946H1121.0399V401.03999H52.923265Z" />
  </clipPath>
  <clipPath id="d">
   <path transform="matrix(2,0,0,-2,0,809.28)" d="M52.923265 44.752946H1121.0399V401.03999H52.923265Z" />
  </clipPath>
  <clipPath id="c">
   <path transform="matrix(2,0,0,-2,0,809.28)" d="M52.923265 44.752946H1121.0399V401.03999H52.923265Z" />
  </clipPath>
  <clipPath id="b">
   <path transform="matrix(2,0,0,-2,0,809.28)" d="M52.923265 44.752946H1121.0399V401.03999H52.923265Z" />
  </clipPath>
  <clipPath id="a">
   <path transform="matrix(2,0,0,-2,0,809.28)" d="M52.923265 44.752946H1121.0399V401.03999H52.923265Z" />
  </clipPath>
  <clipPath id="m">
   <path transform="matrix(2,0,0,-2,0,809.28)" d="M52.923265 44.752946H1121.0399V401.03999H52.923265Z" />
  </clipPath>
  <clipPath id="l">
   <path transform="matrix(2,0,0,-2,0,809.28)" d="M52.923265 44.752946H1121.0399V401.03999H52.923265Z" />
  </clipPath>
  <clipPath id="k">
   <path transform="matrix(2,0,0,-2,0,809.28)" d="M52.923265 44.752946H1121.0399V401.03999H52.923265Z" />
  </clipPath>
  <clipPath id="j">
   <path transform="matrix(2,0,0,-2,0,809.28)" d="M52.923265 44.752946H1121.0399V401.03999H52.923265Z" />
  </clipPath>
  <clipPath id="i">
   <path transform="matrix(2,0,0,-2,0,809.28)" d="M52.923265 44.752946H1121.0399V401.03999H52.923265Z" />
  </clipPath>
 </defs>
 <g clip-path="url(#n)">
  <path transform="matrix(2,0,0,-2,0,809.28)" d="M154.91358 44.752946V401.04" fill="none" stroke="#b0b0b0" stroke-dasharray="1.85,.8" stroke-linejoin="round" stroke-opacity=".6" stroke-width=".5" />
 </g>
 <path transform="matrix(2,0,0,-2,0,809.28)" d="m154.91358 44.752946v3" />
 <path transform="matrix(2,0,0,-2,0,809.28)" d="m154.91358 44.752946v3" fill="none" stroke-linejoin="round" stroke-width=".5" class="stroke" />
 <path transform="matrix(2,0,0,-2,0,809.28)" d="m154.91358 401.04v-3" />
 <path transform="matrix(2,0,0,-2,0,809.28)" d="m154.91358 401.04v-3" fill="none" stroke-linejoin="round" stroke-width=".5" class="stroke" />
 <text transform="matrix(2 0 -0 2 0 809.28)" font-family="CMR12" font-size="15.940224" xml:space="preserve" class="fill"><tspan x="135.40361 143.19838 150.99315 158.78792 166.58269" y="-30.183358" class="fill">15000</tspan></text>
 <g clip-path="url(#h)">
  <path transform="matrix(2,0,0,-2,0,809.28)" d="M386.70976 44.752946V401.04" fill="none" stroke="#b0b0b0" stroke-dasharray="1.85,.8" stroke-linejoin="round" stroke-opacity=".6" stroke-width=".5" />
 </g>
 <path transform="matrix(2,0,0,-2,0,809.28)" d="m386.70976 44.752946v3" />
 <path transform="matrix(2,0,0,-2,0,809.28)" d="m386.70976 44.752946v3" fill="none" stroke-linejoin="round" stroke-width=".5" class="stroke" />
 <path transform="matrix(2,0,0,-2,0,809.28)" d="m386.70976 401.04v-3" />
 <path transform="matrix(2,0,0,-2,0,809.28)" d="m386.70976 401.04v-3" fill="none" stroke-linejoin="round" stroke-width=".5" class="stroke" />
 <text transform="matrix(2 0 -0 2 0 809.28)" font-family="CMR12" font-size="15.940224" xml:space="preserve" class="fill"><tspan x="367.19978 374.99455 382.7893 390.58409 398.37886" y="-30.183358" class="fill">20000</tspan></text>
 <g clip-path="url(#g)">
  <path transform="matrix(2,0,0,-2,0,809.28)" d="M618.5059 44.752946V401.04" fill="none" stroke="#b0b0b0" stroke-dasharray="1.85,.8" stroke-linejoin="round" stroke-opacity=".6" stroke-width=".5" />
 </g>
 <path transform="matrix(2,0,0,-2,0,809.28)" d="m618.5059 44.752946v3" />
 <path transform="matrix(2,0,0,-2,0,809.28)" d="m618.5059 44.752946v3" fill="none" stroke-linejoin="round" stroke-width=".5" class="stroke" />
 <path transform="matrix(2,0,0,-2,0,809.28)" d="m618.5059 401.04v-3" />
 <path transform="matrix(2,0,0,-2,0,809.28)" d="m618.5059 401.04v-3" fill="none" stroke-linejoin="round" stroke-width=".5" class="stroke" />
 <text transform="matrix(2 0 -0 2 0 809.28)" font-family="CMR12" font-size="15.940224" xml:space="preserve" class="fill"><tspan x="598.996 606.7908 614.5856 622.3804 630.1752" y="-30.183358" class="fill">25000</tspan></text>
 <g clip-path="url(#f)">
  <path transform="matrix(2,0,0,-2,0,809.28)" d="M850.30209 44.752946V401.04" fill="none" stroke="#b0b0b0" stroke-dasharray="1.85,.8" stroke-linejoin="round" stroke-opacity=".6" stroke-width=".5" />
 </g>
 <path transform="matrix(2,0,0,-2,0,809.28)" d="m850.30209 44.752946v3" />
 <path transform="matrix(2,0,0,-2,0,809.28)" d="m850.30209 44.752946v3" fill="none" stroke-linejoin="round" stroke-width=".5" class="stroke" />
 <path transform="matrix(2,0,0,-2,0,809.28)" d="m850.30209 401.04v-3" />
 <path transform="matrix(2,0,0,-2,0,809.28)" d="m850.30209 401.04v-3" fill="none" stroke-linejoin="round" stroke-width=".5" class="stroke" />
 <text transform="matrix(2 0 -0 2 0 809.28)" font-family="CMR12" font-size="15.940224" xml:space="preserve" class="fill"><tspan x="830.7921 838.5869 846.3817 854.1765 861.9713" y="-30.183358" class="fill">30000</tspan></text>
 <g clip-path="url(#e)">
  <path transform="matrix(2,0,0,-2,0,809.28)" d="M1082.0983 44.752946V401.04" fill="none" stroke="#b0b0b0" stroke-dasharray="1.85,.8" stroke-linejoin="round" stroke-opacity=".6" stroke-width=".5" />
 </g>
 <path transform="matrix(2,0,0,-2,0,809.28)" d="m1082.0983 44.752946v3" />
 <path transform="matrix(2,0,0,-2,0,809.28)" d="m1082.0983 44.752946v3" fill="none" stroke-linejoin="round" stroke-width=".5" class="stroke" />
 <path transform="matrix(2,0,0,-2,0,809.28)" d="m1082.0983 401.04v-3" />
 <path transform="matrix(2,0,0,-2,0,809.28)" d="m1082.0983 401.04v-3" fill="none" stroke-linejoin="round" stroke-width=".5" class="stroke" />
 <text transform="matrix(2 0 -0 2 0 809.28)" font-family="CMR12" font-size="15.940224" xml:space="preserve" class="fill"><tspan x="1062.5883 1070.383 1078.1779 1085.9727 1093.7675" y="-30.183358" class="fill">35000</tspan></text>
 <path transform="matrix(2,0,0,-2,0,809.28)" d="m62.19511 44.752946v1.5" />
 <path transform="matrix(2,0,0,-2,0,809.28)" d="m62.19511 44.752946v1.5" fill="none" stroke-linejoin="round" stroke-width=".5" class="stroke" />
 <path transform="matrix(2,0,0,-2,0,809.28)" d="m62.19511 401.04v-1.5" />
 <path transform="matrix(2,0,0,-2,0,809.28)" d="m62.19511 401.04v-1.5" fill="none" stroke-linejoin="round" stroke-width=".5" class="stroke" />
 <path transform="matrix(2,0,0,-2,0,809.28)" d="m108.55435 44.752946v1.5" />
 <path transform="matrix(2,0,0,-2,0,809.28)" d="m108.55435 44.752946v1.5" fill="none" stroke-linejoin="round" stroke-width=".5" class="stroke" />
 <path transform="matrix(2,0,0,-2,0,809.28)" d="m108.55435 401.04v-1.5" />
 <path transform="matrix(2,0,0,-2,0,809.28)" d="m108.55435 401.04v-1.5" fill="none" stroke-linejoin="round" stroke-width=".5" class="stroke" />
 <path transform="matrix(2,0,0,-2,0,809.28)" d="m201.27281 44.752946v1.5" />
 <path transform="matrix(2,0,0,-2,0,809.28)" d="m201.27281 44.752946v1.5" fill="none" stroke-linejoin="round" stroke-width=".5" class="stroke" />
 <path transform="matrix(2,0,0,-2,0,809.28)" d="m201.27281 401.04v-1.5" />
 <path transform="matrix(2,0,0,-2,0,809.28)" d="m201.27281 401.04v-1.5" fill="none" stroke-linejoin="round" stroke-width=".5" class="stroke" />
 <path transform="matrix(2,0,0,-2,0,809.28)" d="m247.63205 44.752946v1.5" />
 <path transform="matrix(2,0,0,-2,0,809.28)" d="m247.63205 44.752946v1.5" fill="none" stroke-linejoin="round" stroke-width=".5" class="stroke" />
 <path transform="matrix(2,0,0,-2,0,809.28)" d="m247.63205 401.04v-1.5" />
 <path transform="matrix(2,0,0,-2,0,809.28)" d="m247.63205 401.04v-1.5" fill="none" stroke-linejoin="round" stroke-width=".5" class="stroke" />
 <path transform="matrix(2,0,0,-2,0,809.28)" d="m293.99128 44.752946v1.5" />
 <path transform="matrix(2,0,0,-2,0,809.28)" d="m293.99128 44.752946v1.5" fill="none" stroke-linejoin="round" stroke-width=".5" class="stroke" />
 <path transform="matrix(2,0,0,-2,0,809.28)" d="m293.99128 401.04v-1.5" />
 <path transform="matrix(2,0,0,-2,0,809.28)" d="m293.99128 401.04v-1.5" fill="none" stroke-linejoin="round" stroke-width=".5" class="stroke" />
 <path transform="matrix(2,0,0,-2,0,809.28)" d="m340.35054 44.752946v1.5" />
 <path transform="matrix(2,0,0,-2,0,809.28)" d="m340.35054 44.752946v1.5" fill="none" stroke-linejoin="round" stroke-width=".5" class="stroke" />
 <path transform="matrix(2,0,0,-2,0,809.28)" d="m340.35054 401.04v-1.5" />
 <path transform="matrix(2,0,0,-2,0,809.28)" d="m340.35054 401.04v-1.5" fill="none" stroke-linejoin="round" stroke-width=".5" class="stroke" />
 <path transform="matrix(2,0,0,-2,0,809.28)" d="m433.06898 44.752946v1.5" />
 <path transform="matrix(2,0,0,-2,0,809.28)" d="m433.06898 44.752946v1.5" fill="none" stroke-linejoin="round" stroke-width=".5" class="stroke" />
 <path transform="matrix(2,0,0,-2,0,809.28)" d="m433.06898 401.04v-1.5" />
 <path transform="matrix(2,0,0,-2,0,809.28)" d="m433.06898 401.04v-1.5" fill="none" stroke-linejoin="round" stroke-width=".5" class="stroke" />
 <path transform="matrix(2,0,0,-2,0,809.28)" d="m479.42823 44.752946v1.5" />
 <path transform="matrix(2,0,0,-2,0,809.28)" d="m479.42823 44.752946v1.5" fill="none" stroke-linejoin="round" stroke-width=".5" class="stroke" />
 <path transform="matrix(2,0,0,-2,0,809.28)" d="m479.42823 401.04v-1.5" />
 <path transform="matrix(2,0,0,-2,0,809.28)" d="m479.42823 401.04v-1.5" fill="none" stroke-linejoin="round" stroke-width=".5" class="stroke" />
 <path transform="matrix(2,0,0,-2,0,809.28)" d="m525.7874 44.752946v1.5" />
 <path transform="matrix(2,0,0,-2,0,809.28)" d="m525.7874 44.752946v1.5" fill="none" stroke-linejoin="round" stroke-width=".5" class="stroke" />
 <path transform="matrix(2,0,0,-2,0,809.28)" d="m525.7874 401.04v-1.5" />
 <path transform="matrix(2,0,0,-2,0,809.28)" d="m525.7874 401.04v-1.5" fill="none" stroke-linejoin="round" stroke-width=".5" class="stroke" />
 <path transform="matrix(2,0,0,-2,0,809.28)" d="m572.14669 44.752946v1.5" />
 <path transform="matrix(2,0,0,-2,0,809.28)" d="m572.14669 44.752946v1.5" fill="none" stroke-linejoin="round" stroke-width=".5" class="stroke" />
 <path transform="matrix(2,0,0,-2,0,809.28)" d="m572.14669 401.04v-1.5" />
 <path transform="matrix(2,0,0,-2,0,809.28)" d="m572.14669 401.04v-1.5" fill="none" stroke-linejoin="round" stroke-width=".5" class="stroke" />
 <path transform="matrix(2,0,0,-2,0,809.28)" d="m664.8652 44.752946v1.5" />
 <path transform="matrix(2,0,0,-2,0,809.28)" d="m664.8652 44.752946v1.5" fill="none" stroke-linejoin="round" stroke-width=".5" class="stroke" />
 <path transform="matrix(2,0,0,-2,0,809.28)" d="m664.8652 401.04v-1.5" />
 <path transform="matrix(2,0,0,-2,0,809.28)" d="m664.8652 401.04v-1.5" fill="none" stroke-linejoin="round" stroke-width=".5" class="stroke" />
 <path transform="matrix(2,0,0,-2,0,809.28)" d="m711.22439 44.752946v1.5" />
 <path transform="matrix(2,0,0,-2,0,809.28)" d="m711.22439 44.752946v1.5" fill="none" stroke-linejoin="round" stroke-width=".5" class="stroke" />
 <path transform="matrix(2,0,0,-2,0,809.28)" d="m711.22439 401.04v-1.5" />
 <path transform="matrix(2,0,0,-2,0,809.28)" d="m711.22439 401.04v-1.5" fill="none" stroke-linejoin="round" stroke-width=".5" class="stroke" />
 <path transform="matrix(2,0,0,-2,0,809.28)" d="m757.5836 44.752946v1.5" />
 <path transform="matrix(2,0,0,-2,0,809.28)" d="m757.5836 44.752946v1.5" fill="none" stroke-linejoin="round" stroke-width=".5" class="stroke" />
 <path transform="matrix(2,0,0,-2,0,809.28)" d="m757.5836 401.04v-1.5" />
 <path transform="matrix(2,0,0,-2,0,809.28)" d="m757.5836 401.04v-1.5" fill="none" stroke-linejoin="round" stroke-width=".5" class="stroke" />
 <path transform="matrix(2,0,0,-2,0,809.28)" d="m803.9429 44.752946v1.5" />
 <path transform="matrix(2,0,0,-2,0,809.28)" d="m803.9429 44.752946v1.5" fill="none" stroke-linejoin="round" stroke-width=".5" class="stroke" />
 <path transform="matrix(2,0,0,-2,0,809.28)" d="m803.9429 401.04v-1.5" />
 <path transform="matrix(2,0,0,-2,0,809.28)" d="m803.9429 401.04v-1.5" fill="none" stroke-linejoin="round" stroke-width=".5" class="stroke" />
 <path transform="matrix(2,0,0,-2,0,809.28)" d="m896.6613 44.752946v1.5" />
 <path transform="matrix(2,0,0,-2,0,809.28)" d="m896.6613 44.752946v1.5" fill="none" stroke-linejoin="round" stroke-width=".5" class="stroke" />
 <path transform="matrix(2,0,0,-2,0,809.28)" d="m896.6613 401.04v-1.5" />
 <path transform="matrix(2,0,0,-2,0,809.28)" d="m896.6613 401.04v-1.5" fill="none" stroke-linejoin="round" stroke-width=".5" class="stroke" />
 <path transform="matrix(2,0,0,-2,0,809.28)" d="m943.02059 44.752946v1.5" />
 <path transform="matrix(2,0,0,-2,0,809.28)" d="m943.02059 44.752946v1.5" fill="none" stroke-linejoin="round" stroke-width=".5" class="stroke" />
 <path transform="matrix(2,0,0,-2,0,809.28)" d="m943.02059 401.04v-1.5" />
 <path transform="matrix(2,0,0,-2,0,809.28)" d="m943.02059 401.04v-1.5" fill="none" stroke-linejoin="round" stroke-width=".5" class="stroke" />
 <path transform="matrix(2,0,0,-2,0,809.28)" d="m989.37979 44.752946v1.5" />
 <path transform="matrix(2,0,0,-2,0,809.28)" d="m989.37979 44.752946v1.5" fill="none" stroke-linejoin="round" stroke-width=".5" class="stroke" />
 <path transform="matrix(2,0,0,-2,0,809.28)" d="m989.37979 401.04v-1.5" />
 <path transform="matrix(2,0,0,-2,0,809.28)" d="m989.37979 401.04v-1.5" fill="none" stroke-linejoin="round" stroke-width=".5" class="stroke" />
 <path transform="matrix(2,0,0,-2,0,809.28)" d="m1035.739 44.752946v1.5" />
 <path transform="matrix(2,0,0,-2,0,809.28)" d="m1035.739 44.752946v1.5" fill="none" stroke-linejoin="round" stroke-width=".5" class="stroke" />
 <path transform="matrix(2,0,0,-2,0,809.28)" d="m1035.739 401.04v-1.5" />
 <path transform="matrix(2,0,0,-2,0,809.28)" d="m1035.739 401.04v-1.5" fill="none" stroke-linejoin="round" stroke-width=".5" class="stroke" />
 <text transform="matrix(2 0 -0 2 0 809.28)" font-family="CMR17" font-size="21.917809" xml:space="preserve" class="fill"><tspan x="518.3579 529.536 539.57437 556.4949 567.673 573.1305 588.6458 595.8129 606.991 618.1691 627.06777" y="-7.863188" class="fill">SampleIndex</tspan></text>
 <text transform="matrix(2 0 -0 2 0 809.28)" font-family="CMMI12" font-size="21.917809" font-style="italic" xml:space="preserve" class="fill"><tspan x="644.44369" y="-7.863188" class="fill">k</tspan></text>
 <g clip-path="url(#d)">
  <path transform="matrix(2,0,0,-2,0,809.28)" d="M52.923265 60.94781H1121.04" fill="none" stroke="#b0b0b0" stroke-dasharray="1.85,.8" stroke-linejoin="round" stroke-opacity=".6" stroke-width=".5" />
 </g>
 <path transform="matrix(2,0,0,-2,0,809.28)" d="m52.923265 60.94781h3" />
 <path transform="matrix(2,0,0,-2,0,809.28)" d="m52.923265 60.94781h3" fill="none" stroke-linejoin="round" stroke-width=".5" class="stroke" />
 <path transform="matrix(2,0,0,-2,0,809.28)" d="m1121.04 60.94781h-3" />
 <path transform="matrix(2,0,0,-2,0,809.28)" d="m1121.04 60.94781h-3" fill="none" stroke-linejoin="round" stroke-width=".5" class="stroke" />
 <text transform="matrix(2 0 -0 2 0 809.28)" font-family="CMR12" font-size="15.940224" xml:space="preserve" class="fill"><tspan x="29.479743" y="-55.413019" class="fill">0</tspan></text>
 <text transform="matrix(2 0 -0 2 0 809.28)" font-family="CMMI12" font-size="15.940224" font-style="italic" xml:space="preserve" class="fill"><tspan x="37.28373" y="-55.413019" class="fill">.</tspan></text>
 <text transform="matrix(2 0 -0 2 0 809.28)" font-family="CMR12" font-size="15.940224" xml:space="preserve" class="fill"><tspan x="41.619279" y="-55.413019" class="fill">0</tspan></text>
 <g clip-path="url(#c)">
  <path transform="matrix(2,0,0,-2,0,809.28)" d="M52.923265 125.72728H1121.04" fill="none" stroke="#b0b0b0" stroke-dasharray="1.85,.8" stroke-linejoin="round" stroke-opacity=".6" stroke-width=".5" />
 </g>
 <path transform="matrix(2,0,0,-2,0,809.28)" d="m52.923265 125.72728h3" />
 <path transform="matrix(2,0,0,-2,0,809.28)" d="m52.923265 125.72728h3" fill="none" stroke-linejoin="round" stroke-width=".5" class="stroke" />
 <path transform="matrix(2,0,0,-2,0,809.28)" d="m1121.04 125.72728h-3" />
 <path transform="matrix(2,0,0,-2,0,809.28)" d="m1121.04 125.72728h-3" fill="none" stroke-linejoin="round" stroke-width=".5" class="stroke" />
 <text transform="matrix(2 0 -0 2 0 809.28)" font-family="CMR12" font-size="15.940224" xml:space="preserve" class="fill"><tspan x="29.479743" y="-120.19248" class="fill">0</tspan></text>
 <text transform="matrix(2 0 -0 2 0 809.28)" font-family="CMMI12" font-size="15.940224" font-style="italic" xml:space="preserve" class="fill"><tspan x="37.28373" y="-120.19248" class="fill">.</tspan></text>
 <text transform="matrix(2 0 -0 2 0 809.28)" font-family="CMR12" font-size="15.940224" xml:space="preserve" class="fill"><tspan x="41.619279" y="-120.19248" class="fill">2</tspan></text>
 <g clip-path="url(#b)">
  <path transform="matrix(2,0,0,-2,0,809.28)" d="M52.923265 190.50675H1121.04" fill="none" stroke="#b0b0b0" stroke-dasharray="1.85,.8" stroke-linejoin="round" stroke-opacity=".6" stroke-width=".5" />
 </g>
 <path transform="matrix(2,0,0,-2,0,809.28)" d="m52.923265 190.50675h3" />
 <path transform="matrix(2,0,0,-2,0,809.28)" d="m52.923265 190.50675h3" fill="none" stroke-linejoin="round" stroke-width=".5" class="stroke" />
 <path transform="matrix(2,0,0,-2,0,809.28)" d="m1121.04 190.50675h-3" />
 <path transform="matrix(2,0,0,-2,0,809.28)" d="m1121.04 190.50675h-3" fill="none" stroke-linejoin="round" stroke-width=".5" class="stroke" />
 <text transform="matrix(2 0 -0 2 0 809.28)" font-family="CMR12" font-size="15.940224" xml:space="preserve" class="fill"><tspan x="29.479743" y="-184.97194" class="fill">0</tspan></text>
 <text transform="matrix(2 0 -0 2 0 809.28)" font-family="CMMI12" font-size="15.940224" font-style="italic" xml:space="preserve" class="fill"><tspan x="37.28373" y="-184.97194" class="fill">.</tspan></text>
 <text transform="matrix(2 0 -0 2 0 809.28)" font-family="CMR12" font-size="15.940224" xml:space="preserve" class="fill"><tspan x="41.619279" y="-184.97194" class="fill">4</tspan></text>
 <g clip-path="url(#a)">
  <path transform="matrix(2,0,0,-2,0,809.28)" d="M52.923265 255.28621H1121.04" fill="none" stroke="#b0b0b0" stroke-dasharray="1.85,.8" stroke-linejoin="round" stroke-opacity=".6" stroke-width=".5" />
 </g>
 <path transform="matrix(2,0,0,-2,0,809.28)" d="m52.923265 255.28621h3" />
 <path transform="matrix(2,0,0,-2,0,809.28)" d="m52.923265 255.28621h3" fill="none" stroke-linejoin="round" stroke-width=".5" class="stroke" />
 <path transform="matrix(2,0,0,-2,0,809.28)" d="m1121.04 255.28621h-3" />
 <path transform="matrix(2,0,0,-2,0,809.28)" d="m1121.04 255.28621h-3" fill="none" stroke-linejoin="round" stroke-width=".5" class="stroke" />
 <text transform="matrix(2 0 -0 2 0 809.28)" font-family="CMR12" font-size="15.940224" xml:space="preserve" class="fill"><tspan x="29.479743" y="-249.7514" class="fill">0</tspan></text>
 <text transform="matrix(2 0 -0 2 0 809.28)" font-family="CMMI12" font-size="15.940224" font-style="italic" xml:space="preserve" class="fill"><tspan x="37.28373" y="-249.7514" class="fill">.</tspan></text>
 <text transform="matrix(2 0 -0 2 0 809.28)" font-family="CMR12" font-size="15.940224" xml:space="preserve" class="fill"><tspan x="41.619279" y="-249.7514" class="fill">6</tspan></text>
 <g clip-path="url(#m)">
  <path transform="matrix(2,0,0,-2,0,809.28)" d="M52.923265 320.06568H1121.04" fill="none" stroke="#b0b0b0" stroke-dasharray="1.85,.8" stroke-linejoin="round" stroke-opacity=".6" stroke-width=".5" />
 </g>
 <path transform="matrix(2,0,0,-2,0,809.28)" d="m52.923265 320.06568h3" />
 <path transform="matrix(2,0,0,-2,0,809.28)" d="m52.923265 320.06568h3" fill="none" stroke-linejoin="round" stroke-width=".5" class="stroke" />
 <path transform="matrix(2,0,0,-2,0,809.28)" d="m1121.04 320.06568h-3" />
 <path transform="matrix(2,0,0,-2,0,809.28)" d="m1121.04 320.06568h-3" fill="none" stroke-linejoin="round" stroke-width=".5" class="stroke" />
 <text transform="matrix(2 0 -0 2 0 809.28)" font-family="CMR12" font-size="15.940224" xml:space="preserve" class="fill"><tspan x="29.479743" y="-314.53089" class="fill">0</tspan></text>
 <text transform="matrix(2 0 -0 2 0 809.28)" font-family="CMMI12" font-size="15.940224" font-style="italic" xml:space="preserve" class="fill"><tspan x="37.28373" y="-314.53089" class="fill">.</tspan></text>
 <text transform="matrix(2 0 -0 2 0 809.28)" font-family="CMR12" font-size="15.940224" xml:space="preserve" class="fill"><tspan x="41.619279" y="-314.53089" class="fill">8</tspan></text>
 <g clip-path="url(#l)">
  <path transform="matrix(2,0,0,-2,0,809.28)" d="M52.923265 384.84513H1121.04" fill="none" stroke="#b0b0b0" stroke-dasharray="1.85,.8" stroke-linejoin="round" stroke-opacity=".6" stroke-width=".5" />
 </g>
 <path transform="matrix(2,0,0,-2,0,809.28)" d="m52.923265 384.84513h3" />
 <path transform="matrix(2,0,0,-2,0,809.28)" d="m52.923265 384.84513h3" fill="none" stroke-linejoin="round" stroke-width=".5" class="stroke" />
 <path transform="matrix(2,0,0,-2,0,809.28)" d="m1121.04 384.84513h-3" />
 <path transform="matrix(2,0,0,-2,0,809.28)" d="m1121.04 384.84513h-3" fill="none" stroke-linejoin="round" stroke-width=".5" class="stroke" />
 <text transform="matrix(2 0 -0 2 0 809.28)" font-family="CMR12" font-size="15.940224" xml:space="preserve" class="fill"><tspan x="29.479743" y="-379.31034" class="fill">1</tspan></text>
 <text transform="matrix(2 0 -0 2 0 809.28)" font-family="CMMI12" font-size="15.940224" font-style="italic" xml:space="preserve" class="fill"><tspan x="37.28373" y="-379.31034" class="fill">.</tspan></text>
 <text transform="matrix(2 0 -0 2 0 809.28)" font-family="CMR12" font-size="15.940224" xml:space="preserve" class="fill"><tspan x="41.619279" y="-379.31034" class="fill">0</tspan></text>
 <path transform="matrix(2,0,0,-2,0,809.28)" d="m52.923265 44.752946h1.5" />
 <path transform="matrix(2,0,0,-2,0,809.28)" d="m52.923265 44.752946h1.5" fill="none" stroke-linejoin="round" stroke-width=".5" class="stroke" />
 <path transform="matrix(2,0,0,-2,0,809.28)" d="m1121.04 44.752946h-1.5" />
 <path transform="matrix(2,0,0,-2,0,809.28)" d="m1121.04 44.752946h-1.5" fill="none" stroke-linejoin="round" stroke-width=".5" class="stroke" />
 <path transform="matrix(2,0,0,-2,0,809.28)" d="m52.923265 77.14268h1.5" />
 <path transform="matrix(2,0,0,-2,0,809.28)" d="m52.923265 77.14268h1.5" fill="none" stroke-linejoin="round" stroke-width=".5" class="stroke" />
 <path transform="matrix(2,0,0,-2,0,809.28)" d="m1121.04 77.14268h-1.5" />
 <path transform="matrix(2,0,0,-2,0,809.28)" d="m1121.04 77.14268h-1.5" fill="none" stroke-linejoin="round" stroke-width=".5" class="stroke" />
 <path transform="matrix(2,0,0,-2,0,809.28)" d="m52.923265 93.33755h1.5" />
 <path transform="matrix(2,0,0,-2,0,809.28)" d="m52.923265 93.33755h1.5" fill="none" stroke-linejoin="round" stroke-width=".5" class="stroke" />
 <path transform="matrix(2,0,0,-2,0,809.28)" d="m1121.04 93.33755h-1.5" />
 <path transform="matrix(2,0,0,-2,0,809.28)" d="m1121.04 93.33755h-1.5" fill="none" stroke-linejoin="round" stroke-width=".5" class="stroke" />
 <path transform="matrix(2,0,0,-2,0,809.28)" d="m52.923265 109.53241h1.5" />
 <path transform="matrix(2,0,0,-2,0,809.28)" d="m52.923265 109.53241h1.5" fill="none" stroke-linejoin="round" stroke-width=".5" class="stroke" />
 <path transform="matrix(2,0,0,-2,0,809.28)" d="m1121.04 109.53241h-1.5" />
 <path transform="matrix(2,0,0,-2,0,809.28)" d="m1121.04 109.53241h-1.5" fill="none" stroke-linejoin="round" stroke-width=".5" class="stroke" />
 <path transform="matrix(2,0,0,-2,0,809.28)" d="m52.923265 141.92214h1.5" />
 <path transform="matrix(2,0,0,-2,0,809.28)" d="m52.923265 141.92214h1.5" fill="none" stroke-linejoin="round" stroke-width=".5" class="stroke" />
 <path transform="matrix(2,0,0,-2,0,809.28)" d="m1121.04 141.92214h-1.5" />
 <path transform="matrix(2,0,0,-2,0,809.28)" d="m1121.04 141.92214h-1.5" fill="none" stroke-linejoin="round" stroke-width=".5" class="stroke" />
 <path transform="matrix(2,0,0,-2,0,809.28)" d="m52.923265 158.117h1.5" />
 <path transform="matrix(2,0,0,-2,0,809.28)" d="m52.923265 158.117h1.5" fill="none" stroke-linejoin="round" stroke-width=".5" class="stroke" />
 <path transform="matrix(2,0,0,-2,0,809.28)" d="m1121.04 158.117h-1.5" />
 <path transform="matrix(2,0,0,-2,0,809.28)" d="m1121.04 158.117h-1.5" fill="none" stroke-linejoin="round" stroke-width=".5" class="stroke" />
 <path transform="matrix(2,0,0,-2,0,809.28)" d="m52.923265 174.31188h1.5" />
 <path transform="matrix(2,0,0,-2,0,809.28)" d="m52.923265 174.31188h1.5" fill="none" stroke-linejoin="round" stroke-width=".5" class="stroke" />
 <path transform="matrix(2,0,0,-2,0,809.28)" d="m1121.04 174.31188h-1.5" />
 <path transform="matrix(2,0,0,-2,0,809.28)" d="m1121.04 174.31188h-1.5" fill="none" stroke-linejoin="round" stroke-width=".5" class="stroke" />
 <path transform="matrix(2,0,0,-2,0,809.28)" d="m52.923265 206.70162h1.5" />
 <path transform="matrix(2,0,0,-2,0,809.28)" d="m52.923265 206.70162h1.5" fill="none" stroke-linejoin="round" stroke-width=".5" class="stroke" />
 <path transform="matrix(2,0,0,-2,0,809.28)" d="m1121.04 206.70162h-1.5" />
 <path transform="matrix(2,0,0,-2,0,809.28)" d="m1121.04 206.70162h-1.5" fill="none" stroke-linejoin="round" stroke-width=".5" class="stroke" />
 <path transform="matrix(2,0,0,-2,0,809.28)" d="m52.923265 222.89647h1.5" />
 <path transform="matrix(2,0,0,-2,0,809.28)" d="m52.923265 222.89647h1.5" fill="none" stroke-linejoin="round" stroke-width=".5" class="stroke" />
 <path transform="matrix(2,0,0,-2,0,809.28)" d="m1121.04 222.89647h-1.5" />
 <path transform="matrix(2,0,0,-2,0,809.28)" d="m1121.04 222.89647h-1.5" fill="none" stroke-linejoin="round" stroke-width=".5" class="stroke" />
 <path transform="matrix(2,0,0,-2,0,809.28)" d="m52.923265 239.09134h1.5" />
 <path transform="matrix(2,0,0,-2,0,809.28)" d="m52.923265 239.09134h1.5" fill="none" stroke-linejoin="round" stroke-width=".5" class="stroke" />
 <path transform="matrix(2,0,0,-2,0,809.28)" d="m1121.04 239.09134h-1.5" />
 <path transform="matrix(2,0,0,-2,0,809.28)" d="m1121.04 239.09134h-1.5" fill="none" stroke-linejoin="round" stroke-width=".5" class="stroke" />
 <path transform="matrix(2,0,0,-2,0,809.28)" d="m52.923265 271.48109h1.5" />
 <path transform="matrix(2,0,0,-2,0,809.28)" d="m52.923265 271.48109h1.5" fill="none" stroke-linejoin="round" stroke-width=".5" class="stroke" />
 <path transform="matrix(2,0,0,-2,0,809.28)" d="m1121.04 271.48109h-1.5" />
 <path transform="matrix(2,0,0,-2,0,809.28)" d="m1121.04 271.48109h-1.5" fill="none" stroke-linejoin="round" stroke-width=".5" class="stroke" />
 <path transform="matrix(2,0,0,-2,0,809.28)" d="m52.923265 287.67594h1.5" />
 <path transform="matrix(2,0,0,-2,0,809.28)" d="m52.923265 287.67594h1.5" fill="none" stroke-linejoin="round" stroke-width=".5" class="stroke" />
 <path transform="matrix(2,0,0,-2,0,809.28)" d="m1121.04 287.67594h-1.5" />
 <path transform="matrix(2,0,0,-2,0,809.28)" d="m1121.04 287.67594h-1.5" fill="none" stroke-linejoin="round" stroke-width=".5" class="stroke" />
 <path transform="matrix(2,0,0,-2,0,809.28)" d="m52.923265 303.8708h1.5" />
 <path transform="matrix(2,0,0,-2,0,809.28)" d="m52.923265 303.8708h1.5" fill="none" stroke-linejoin="round" stroke-width=".5" class="stroke" />
 <path transform="matrix(2,0,0,-2,0,809.28)" d="m1121.04 303.8708h-1.5" />
 <path transform="matrix(2,0,0,-2,0,809.28)" d="m1121.04 303.8708h-1.5" fill="none" stroke-linejoin="round" stroke-width=".5" class="stroke" />
 <path transform="matrix(2,0,0,-2,0,809.28)" d="m52.923265 336.26054h1.5" />
 <path transform="matrix(2,0,0,-2,0,809.28)" d="m52.923265 336.26054h1.5" fill="none" stroke-linejoin="round" stroke-width=".5" class="stroke" />
 <path transform="matrix(2,0,0,-2,0,809.28)" d="m1121.04 336.26054h-1.5" />
 <path transform="matrix(2,0,0,-2,0,809.28)" d="m1121.04 336.26054h-1.5" fill="none" stroke-linejoin="round" stroke-width=".5" class="stroke" />
 <path transform="matrix(2,0,0,-2,0,809.28)" d="m52.923265 352.4554h1.5" />
 <path transform="matrix(2,0,0,-2,0,809.28)" d="m52.923265 352.4554h1.5" fill="none" stroke-linejoin="round" stroke-width=".5" class="stroke" />
 <path transform="matrix(2,0,0,-2,0,809.28)" d="m1121.04 352.4554h-1.5" />
 <path transform="matrix(2,0,0,-2,0,809.28)" d="m1121.04 352.4554h-1.5" fill="none" stroke-linejoin="round" stroke-width=".5" class="stroke" />
 <path transform="matrix(2,0,0,-2,0,809.28)" d="m52.923265 368.65028h1.5" />
 <path transform="matrix(2,0,0,-2,0,809.28)" d="m52.923265 368.65028h1.5" fill="none" stroke-linejoin="round" stroke-width=".5" class="stroke" />
 <path transform="matrix(2,0,0,-2,0,809.28)" d="m1121.04 368.65028h-1.5" />
 <path transform="matrix(2,0,0,-2,0,809.28)" d="m1121.04 368.65028h-1.5" fill="none" stroke-linejoin="round" stroke-width=".5" class="stroke" />
 <path transform="matrix(2,0,0,-2,0,809.28)" d="m52.923265 401.04h1.5" />
 <path transform="matrix(2,0,0,-2,0,809.28)" d="m52.923265 401.04h1.5" fill="none" stroke-linejoin="round" stroke-width=".5" class="stroke" />
 <path transform="matrix(2,0,0,-2,0,809.28)" d="m1121.04 401.04h-1.5" />
 <path transform="matrix(2,0,0,-2,0,809.28)" d="m1121.04 401.04h-1.5" fill="none" stroke-linejoin="round" stroke-width=".5" class="stroke" />
 <text transform="matrix(0 -2 2 0 0 809.28)" font-family="CMR17" font-size="21.917809" xml:space="preserve" class="fill"><tspan x="69.397449 84.58649 94.62485 102.38375 119.3043 129.34265 134.80019 140.25772 149.15636 158.055 175.8498 190.46898 200.50734 208.26625 216.02516 224.9238 230.38134 240.4197 248.1786 253.63614 263.6745 281.46928 292.9462 302.98457 311.88319 319.6421 329.68046" y="20.018624" class="fill">NormalizedCorrelationFactor</tspan></text>
 <text transform="matrix(0 -2 2 0 0 809.28)" font-family="CMMI12" font-size="21.917809" font-style="italic" xml:space="preserve" class="fill"><tspan x="344.31855" y="20.018624" class="fill">c</tspan></text>
 <text transform="matrix(0 -2 2 0 0 809.28)" font-family="CMR17" font-size="21.917809" xml:space="preserve" class="fill"><tspan x="353.55485" y="20.018624" class="fill">[</tspan></text>
 <text transform="matrix(0 -2 2 0 0 809.28)" font-family="CMMI12" font-size="21.917809" font-style="italic" xml:space="preserve" class="fill"><tspan x="359.02647" y="20.018624" class="fill">k</tspan></text>
 <text transform="matrix(0 -2 2 0 0 809.28)" font-family="CMR17" font-size="21.917809" xml:space="preserve" class="fill"><tspan x="370.9239" y="20.018624" class="fill">]</tspan></text>
 <g clip-path="url(#k)">
  <path transform="matrix(2,0,0,-2,0,809.28)" d="m52.876909 192.89592 1.62257-1.28264 2.132526-1.98959 3.152425-2.94257 1.158984-0.76756 0.927185-0.36296 0.834465-0.08826 0.788106 0.14591 0.78811 0.37129 0.927189 0.70113 1.158971 1.18124 2.966998 3.16802 0.927182 0.6013 0.834468 0.27733 0.788102 0.03257 0.92719-0.20025 1.57621-0.63328 1.15898-0.35464 0.834468-0.02607 0.741752 0.20118 0.74174 0.4309 0.88083 0.7879 1.251698 1.46695 1.668932 1.91798 0.788107 0.59082 0.649033 0.22804 0.55631-0.02409 0.55631-0.24176 0.60267-0.50978 0.69539-0.89123 0.88082-1.52517 1.29806-2.76793 2.178888-4.65263 1.019902-1.64624 0.834468-0.95823 0.741742-0.53817 0.69539-0.24101 0.69539-3.8e-4 0.695389 0.22189 0.788109 0.49721 0.880821 0.839 0.973549 1.25006 1.112612 1.81217 1.34442 2.64586 3.24515 6.61534 0.83447 1.11151 0.64902 0.52806 0.556317 0.18272 0.509953-0.06491 0.50995-0.28926 0.60267-0.6199 0.74174-1.13152 0.97355-1.94899 2.78156-5.83915 0.74174-0.96119 0.60267-0.46096 0.55631-0.15343 0.50995 0.0871 0.556318 0.32755 0.649032 0.6485 0.88082 1.21923 2.78155 4.09074 0.74175 0.5965 0.60267 0.22845 0.60267-0.01083 0.60267-0.2411 0.69539-0.53206 0.88082-0.97633 1.66894-2.27279 1.437137-1.77885 1.019903-0.91822 0.927187-0.54315 0.927183-0.29356 1.11263-0.10675 1.43713 0.10028 1.52985 0.31499 1.11262 0.44012 0.97354 0.63057 0.92719 0.87936 1.01991 1.30359 1.29805 2.06437 2.13252 3.41336 0.83448 0.91752 0.64902 0.4186 0.55631 0.11868 0.55631-0.11661 0.55632-0.35129 0.64903-0.68676 0.83446-1.24848 1.29806-2.42218 1.57621-2.82582 0.83447-1.06343 0.64903-0.51117 0.60266-0.19899 0.55632 0.05408 0.60266 0.30037 0.69539 0.61436 0.97356 1.19551 2.13252 2.70984 0.74175 0.55713 0.60266 0.1945 0.55632-0.05288 0.5563-0.285 0.60268-0.5647 0.74174-1.02439 0.97354-1.76443 2.68885-5.11481 0.69539-0.79433 0.5563-0.3434 0.50995-0.05661 0.46359 0.17548 0.50995 0.44637 0.60267 0.85974 0.74175 1.50528 0.97355 2.55563 2.96699 8.21732 0.69539 1.1699 0.5563 0.55872 0.4636 0.18524 0.41723-0.05766 0.46359-0.31093 0.50995-0.62762 0.64904-1.18413 0.88083-2.13724 2.78155-7.16951 0.64903-0.94293 0.50995-0.38851 0.41724-0.06564 0.41721 0.16843 0.4636 0.4593 0.55632 0.90889 0.69539 1.61311 1.01989 3.02781 1.85438 5.56868 0.69539 1.39202 0.50995 0.58475 0.41723 0.15454 0.32451-0.09878 0.37088-0.35831 0.46359-0.82317 0.55631-1.53097 0.64903-2.48322 0.88083-4.3538 3.24515-17.15782 0.60265-1.63997 0.41725-0.5983 0.32452-0.13348 0.27815 0.12668 0.32451 0.43501 0.41724 1.01558 0.50995 1.92297 0.64903 3.45438 0.83447 5.8197 1.39078 11.64758 1.43713 11.47304 0.7881 4.70377 0.60267 2.42407 0.4636 1.06315 0.32451 0.30329 0.27815-0.0353 0.27816-0.30822 0.37088-0.82945 0.46359-1.68339 0.60267-3.17096 0.78811-5.52937 1.25169-10.70213 1.62257-13.54659 0.83447-5.19304 0.60267-2.56208 0.46359-1.19634 0.37088-0.4482 0.27815-0.03619 0.27815 0.21874 0.32453 0.57 0.41723 1.209 0.5563 2.37461 0.74176 4.29876 1.11262 8.02277 1.99344 14.4561 0.83447 4.39677 0.60268 2.16629 0.50995 1.08793 0.37086 0.34458 0.27817 0.0103 0.27815-0.19984 0.37087-0.58484 0.46359-1.21763 0.60268-2.3167 0.7881-4.06926 1.11262-7.08885 2.64247-17.22179 0.92719-4.4449 0.74174-2.54562 0.60268-1.32399 0.46359-0.53717 0.37088-0.11922 0.32451 0.12573 0.37088 0.40889 0.46359 0.91037 0.55631 1.67571 0.64903 2.74481 0.7881 4.42448 0.92719 6.58153 1.25171 10.66531 2.59611 22.6059 0.7881 4.85866 0.60268 2.46048 0.41722 0.94078 0.32452 0.2571 0.2318-0.08382 0.27815-0.40412 0.32451-0.89842 0.41724-1.83696 0.55632-3.62633 0.64902-5.83111 0.83447-9.65284 1.29805-18.01376 1.66894-22.56689 0.7881-7.95395 0.60268-4.15187 0.46359-1.85938 0.32451-0.56045 0.2318-0.01575 0.23179 0.30765 0.27816 0.79518 0.37088 1.77197 0.50995 3.70824 0.64903 6.6456 0.83445 11.07761 1.62258 25.39062 1.25171 17.83482 0.7881 8.3259 0.60268 4.26935 0.46359 1.90132 0.32451 0.58853 0.23179 0.04448 0.2318-0.26565 0.27815-0.72005 0.37088-1.61603 0.50995-3.36032 0.64904-5.93111 0.92719-10.84489 3.01333-37.20949 0.7881-6.30354 0.60268-3.22299 0.46359-1.49145 0.37088-0.57708 0.27815-0.08225 0.2318 0.15366 0.32453 0.5407 0.41723 1.22009 0.55631 2.4552 0.69537 4.19044 0.97356 7.40341 1.76164 15.52097 1.80801 15.24561 1.11264 7.63375 0.83445 4.37076 0.64904 2.40259 0.50995 1.1851 0.41724 0.46531 0.27813 0.04258 0.27817-0.18025 0.32453-0.50027 0.4172-1.11372 0.50998-2.0918 0.60266-3.50402 0.74173-5.77597 0.92719-9.19142 1.34442-15.87799 1.94711-22.73244 0.8808-7.80769 0.69541-4.31445 0.50994-1.95705 0.37086-0.74139 0.27816-0.17205 0.23181 0.10808 0.27813 0.42825 0.37089 1.06582 0.46359 2.09019 0.60269 3.86319 0.78809 6.67794 1.159 12.0281 2.45703 25.98567 0.97354 7.86015 0.83447 5.01616 0.69538 2.91657 0.60269 1.63794 0.50993 0.79396 0.41725 0.28697 0.37085 0.01108 0.41724-0.22872 0.50995-0.57383 0.64905-1.09951 0.92716-2.05544 1.85439-4.80414 4.40411-11.94439 1.29807-4.43437 1.34442-5.422 4.12598-17.4165 0.69537-1.68233 0.50995-0.74043 0.41724-0.25351 0.32452 0.03801 0.32452 0.25269 0.41721 0.64859 0.50998 1.29214 0.60264 2.22212 0.74175 3.6955 0.92718 5.86022 1.52987 11.39788 1.66893 11.96871 0.92717 5.13478 0.6954 2.75438 0.5563 1.42506 0.4636 0.62943 0.32454 0.13459 0.32449-0.1156 0.37087-0.43197 0.4636-0.97162 0.5563-1.75394 0.6954-2.98328 0.9272-5.04589 1.5762-10.07088 1.808-11.17127 1.06627-5.25438 0.83447-3.0961 0.6954-1.8197 0.60266-1.00154 0.50995-0.43437 0.41724-0.08241 0.41724 0.15274 0.46357 0.43034 0.5563 0.85124 0.6954 1.5216 0.88083 2.53887 1.11264 3.94957 1.52983 6.31458 2.13255 9.8042 2.41065 12.16308 2.54977 12.75533 0.92718 3.5808 0.69541 1.87191 0.50994 0.78362 0.37089 0.19998 0.27811-0.07619 0.32455-0.35208 0.37088-0.77064 0.46357-1.54699 0.5563-2.75073 0.64904-4.46631 0.78812-7.19087 0.92718-10.65044 1.39076-18.94981 2.0398-27.58545 0.88085-9.08569 0.6954-5.08441 0.50995-2.35041 0.41723-0.98874 0.27814-0.17813 0.23181 0.14792 0.27812 0.53192 0.3709 1.30184 0.46359 2.54631 0.60266 4.72497 0.74175 7.70163 1.06627 13.67093 2.78153 36.94757 0.88085 8.35755 0.69541 4.6976 0.5563 2.48164 0.46359 1.21736 0.37088 0.44757 0.27814 0.05042 0.27817-0.17455 0.37086-0.54716 0.50997-1.24551 0.74173-2.53046 2.13254-7.72431 0.60266-1.27069 0.46359-0.50898 0.37088-0.09055 0.32452 0.15513 0.37085 0.43952 0.4636 0.9189 0.60269 1.72766 0.88083 3.29108 1.94708 7.45653 0.64902 1.56692 0.46359 0.61443 0.32452 0.14207 0.27813-0.08107 0.32453-0.34187 0.37087-0.72704 0.4636-1.42333 0.5563-2.46491 0.6954-4.21952 0.7881-6.24255 0.92719-9.20412 1.06628-12.91351 1.20532-17.45149 1.39078-23.5533 3.43057-59.99257 0.69541-7.544111 0.46359-3.051419 0.32452-1.01054 0.18543-0.11921 0.13907 0.14184 0.23181 0.69593 0.32452 1.98475 0.37085 3.78616 0.46359 7.11414 0.55634 12.125669 0.69537 20.611761 0.83446 32.08809 1.1126 52.35071 2.78158 134.91437 0.78812 26.26183 0.60266 13.53355 0.46359 6.06491 0.32452 1.88644 0.18543 0.1926 0.13907-0.27883 0.23181-1.26734 0.32452-3.43878 0.41724-7.18912 0.5563-14.12313 0.69536-24.05866 0.9272-40.54971 3.8942-181.10451 0.83444-24.503259 0.69541-14.397353 0.5563-7.585487 0.46359-3.75859 0.37086-1.420394 0.2318-0.209826 0.18546 0.19041 0.23178 0.667217 0.32452 1.694252 0.4636 3.842311 0.60264 7.21649 0.74178 11.78337 0.97352 19.2409 1.3908 32.37281 3.33786 79.489 0.97354 17.18559 0.74176 9.46468 0.5563 4.67564 0.41724 2.03964 0.32449 0.69222 0.18546 0.04243 0.18542-0.21315 0.27817-0.79322 0.37086-1.91851 0.4636-3.70747 0.60267-6.76514 0.83448-12.21962 3.10605-48.53224 0.60269-5.06458 0.41721-2.01984 0.3245-0.6714 0.18547-0.022 0.18543 0.24234 0.27817 0.85646 0.37088 2.04312 0.46355 3.92769 0.6027 7.13603 0.83447 12.77685 2.5961 41.78761 0.60266 5.62906 0.41724 2.23388 0.27817 0.65016 0.18542 0.04212 0.18544-0.27875 0.27815-1.02919 0.37088-2.52135 0.4636-4.97756 0.5563-8.52063 0.74176-15.16095 1.0199-25.96862 2.36431-61.700001 0.74177-13.331709 0.5563-6.62005 0.41723-2.817642 0.27815-0.802898 0.18545-0.04863 0.18543 0.34221 0.27816 1.24312 0.37088 2.997269 0.4636 5.810478 0.60266 10.680351 0.78811 18.356252 1.25166 35.26518 1.66897 46.03028 0.83447 17.42155 0.64902 9.46381 0.50994 4.587 0.37089 1.6951 0.23178 0.35566 0.1391-0.0437 0.18542-0.3538 0.27817-1.14976 0.37084-2.6396 0.50999-5.52858 0.64901-9.74797 0.92719-17.67073 2.59611-51.45038 0.74175-9.9195 0.60265-5.40906 0.4636-2.42475 0.32453-0.79071 0.23181-0.11527 0.18543 0.1709 0.27816 0.68039 0.37085 1.65736 0.50995 3.54496 0.64905 6.2701 0.97352 11.8488 2.08617 25.89696 0.78812 6.94951 0.60266 3.58513 0.46359 1.64699 0.37086 0.61468 0.23183 0.07349 0.23177-0.15753 0.27818-0.48073 0.37088-1.10213 0.50994-2.27317 0.74174-4.51105 2.82791-18.59005 0.55631-1.84643 0.41723-0.69839 0.27817-0.11809 0.23178 0.11819 0.27816 0.40175 0.37089 0.96871 0.46359 1.87229 0.60266 3.41053 0.88083 6.47482 2.31797 17.87387 0.60266 2.87552 0.46359 1.27846 0.32451 0.34561 0.2318-0.04848 0.2318-0.30308 0.32453-0.86094 0.41724-1.86158 0.50993-3.409 0.64903-6.02391 0.83447-10.07323 1.34443-19.48468 1.5762-22.0774 0.83447-8.78142 0.649-4.63774 0.4636-1.96317 0.32453-0.66945 0.23177-0.11804 0.18547 0.12122 0.27813 0.53727 0.37089 1.36341 0.46359 2.6902 0.60269 4.97078 0.78809 8.5362 1.25171 16.35699 1.80801 23.21807 0.92719 9.13871 0.74173 5.29011 0.60269 2.88895 0.50995 1.48662 0.41723 0.61227 0.3245 0.13718 0.32452-0.12574 0.37088-0.42063 0.50993-0.95929 0.83449-2.13646 1.29804-3.26993 0.60267-0.94687 0.41725-0.31126 0.37085-0.00539 0.32453 0.21727 0.41723 0.58916 0.50994 1.18052 0.64906 2.15697 0.92719 3.98251 1.62255 7.00238 0.5563 1.51998 0.41725 0.58001 0.27815 0.06255 0.23179-0.16992 0.27817-0.49248 0.37088-1.18313 0.46356-2.3852 0.5563-4.2633 0.64907-6.9355 0.78809-11.10743 1.01994-17.9078 2.967-54.49571 0.69537-7.99896 0.50993-3.670043 0.37087-1.361999 0.23181-0.263128 0.1391 0.06399 0.18542 0.34659 0.2781 1.08176 0.3709 2.48529 0.4636 4.73825 0.60268 8.68611 0.78812 15.02869 1.15896 27.11418 2.08614 49.10325 0.8345 14.61704 0.64906 8.08604 0.55624 4.38883 0.41727 1.71391 0.2782 0.40143 0.18542-0.05322 0.23181-0.41643 0.32447-1.20824 0.41723-2.54918 0.5563-4.92859 0.7418-8.70889 1.2517-17.77441 1.71528-23.76346 0.92718-9.95931 0.78804-6.21501 0.6491-3.50789 0.5563-1.90548 0.4636-0.87853 0.3708-0.28557 0.32457 0.02254 0.37091 0.3022 0.46352 0.73553 0.6027 1.43825 0.83448 2.64342 1.29809 4.98038 4.96039 19.78285 0.88084 2.39526 0.69539 1.30585 0.55631 0.59829 0.41726 0.16161 0.37084-0.0735 0.4172-0.33238 0.4636-0.67924 0.5563-1.23243 0.6954-2.12823 0.88088-3.46625 1.43712-6.71686 1.76167-7.96322 0.92719-3.24334 0.7417-1.88952 0.64904-1.08048 0.5099-0.46226 0.46368-0.1264 0.41722 0.12049 0.46357 0.38607 0.55633 0.7994 0.649 1.37232 0.74176 2.11407 0.88084 3.21965 1.0199 4.62299 1.2053 6.54896 3.8942 22.18862 0.60266 1.87434 0.46363 0.80519 0.32451 0.1857 0.2781-0.10985 0.27818-0.37185 0.37091-0.92105 0.46357-1.85672 0.55633-3.27268 0.69538-5.63141 0.88083-9.25056 1.43716-18.0201 1.34434-15.8851 0.74178-6.41696 0.55632-3.07696 0.37086-1.06824 0.2782-0.23929 0.18543 0.11926 0.23181 0.4702 0.32446 1.26631 0.41724 2.67305 0.5099 4.82457 0.64909 8.42552 0.88081 14.74932 3.15246 56.3114 0.60264 5.84914 0.41726 2.32893 0.32452 0.75316 0.18542-4.7e-4 0.1854-0.3187 0.2782-1.07794 0.37088-2.55119 0.46352-4.92934 0.60276-9.08873 0.78804-15.72107 1.20537-29.25552 1.71533-40.87516 0.8344-14.66017 0.6027-7.152181 0.4636-3.268019 0.3245-1.07878 0.2318-0.155551 0.18546 0.242391 0.23181 0.75519 0.32443 1.8796 0.4636 4.261979 0.6027 8.025501 0.7881 13.8768 1.3444 28.48291 1.5299 31.13298 0.8808 13.69703 0.6954 7.65162 0.5563 3.9375 0.41728 1.6799 0.32452 0.57911 0.2317 0.04209 0.23186-0.25184 0.32452-0.81545 0.41722-1.76771 0.55636-3.42301 0.78804-6.38318 1.9471-18.44256 1.159-9.60874 0.9272-5.95486 0.78809-3.74464 0.74171-2.49878 0.6491-1.4823 0.60266-0.88707 0.55624-0.47391 0.55637-0.19893 0.55623 0.03534 0.60277 0.27266 0.64893 0.54915 0.7418 0.94845 0.7881 1.38707 0.92719 2.11348 1.25171 3.47966 1.808 4.99852 0.7417 1.42018 0.51 0.57975 0.4172 0.18098 0.3709-0.08562 0.37088-0.3327 0.41722-0.6799 0.50997-1.27226 0.64903-2.28879 0.83449-3.88249 1.39071-7.79985 1.2981-6.8497 0.74179-2.84088 0.55628-1.33216 0.41723-0.4678 0.2781-0.03803 0.2782 0.18976 0.32456 0.51492 0.41714 1.12841 0.51 2.07656 0.649 3.67657 0.8345 6.1596 1.2517 11.14303 1.9007 16.77065 0.88087 5.94429 0.69533 3.38123 0.55638 1.7729 0.46352 0.827 0.3709 0.24143 0.27819-0.05628 0.32451-0.3118 0.4172-0.76695 0.51-1.44434 0.69537-2.73031 0.92719-4.65612 1.57623-9.28206 2.78151-16.29049 1.808-9.26433 1.3908-6.07513 0.9735-3.37325 0.7418-1.86478 0.5563-0.89627 0.4636-0.36908 0.3708-0.02631 0.37097 0.22594 0.41723 0.56604 0.5099 1.14768 0.6027 1.99553 0.74177 3.34831 0.92719 5.35538 1.39074 9.54481 1.94709 13.15106 0.97357 5.09105 0.74174 2.82285 0.60268 1.53554 0.50992 0.7503 0.41727 0.24223 0.37083-0.05738 0.3709-0.30314 0.46359-0.7033 0.55631-1.2762 0.74178-2.32622 0.97351-3.86629 1.80799-8.32554 1.66892-7.26656 1.0663-3.7111 0.83448-2.18424 0.69532-1.27695 0.6027-0.69323 0.50996-0.28998 0.46363-0.03699 0.50991 0.19275 0.5563 0.46305 0.6954 0.89636 0.8808 1.52667 1.29808 2.74054 2.22528 5.27446 1.43713 3.90336 1.159 3.81661 1.15891 4.64693 1.4835 6.98877 1.7153 7.90315 0.78816 2.63734 0.55624 1.15965 0.3709 0.36878 0.27818 0.03717 0.27812-0.18367 0.3245-0.50934 0.41728-1.14464 0.50992-2.17422 0.60269-3.67827 0.74171-6.1042 0.9272-9.7318 1.43717-17.91688 1.76163-21.38546 0.8808-8.21899 0.69546-4.61872 0.55624-2.32054 0.41727-0.89073 0.27813-0.18278 0.2318 0.09811 0.2782 0.41448 0.37087 1.04388 0.46353 2.05783 0.6027 3.81929 0.7881 6.64418 1.0663 11.09926 3.3842 36.67292 0.9735 7.63795 0.8345 4.94069 0.74178 3.14946 0.64902 1.86459 0.5563 1.00943 0.5099 0.513 0.46368 0.17744 0.46352-0.04846 0.55637-0.29027 0.74173-0.65766 1.34446-1.55207 2.68874-3.42936 0.8809-1.54389 0.78808-1.86145 0.74172-2.33922 0.7881-3.26724 0.8345-4.47035 0.92719-6.2674 1.06628-8.84576 1.34442-13.20128 4.21869-43.0341 0.8808-6.061892 0.64902-3.092458 0.50998-1.450053 0.32452-0.421249 0.2318-0.044808 0.23176 0.178658 0.2782 0.521162 0.37084 1.23725 0.4636 2.45652 0.5563 4.33597 0.64906 7.01921 0.74174 10.58611 0.8808 15.8808 1.159 25.31327 3.5696 81.36033 0.7882 11.88503 0.64899 6.70097 0.46361 2.91107 0.37086 1.16193 0.23181 0.19543 0.18543-0.1364 0.2318-0.5327 0.3245-1.40957 0.41727-2.91023 0.55623-5.6743 0.6954-9.63422 0.9272-16.29453 1.4835-30.69385 2.2252-45.45247 1.2054-20.22928 1.0662-14.35219 0.9272-9.70628 0.8345-6.5932 0.74176-4.21745 0.60264-2.31678 0.50997-1.1935 0.41723-0.45653 0.3245-0.032271 0.27817 0.196869 0.37091 0.584262 0.46352 1.24543 0.55638 2.24278 0.64902 3.62688 0.7881 5.80539 0.9272 8.64289 1.1126 12.59659 1.4371 18.97076 4.96049 67.9642 0.8808 8.11807 0.64901 4.2445 0.50999 2.10949 0.37081 0.78647 0.2782 0.15177 0.2318-0.17042 0.27818-0.56915 0.37082-1.3884 0.4636-2.75511 0.5563-4.78167 0.69546-8.11493 0.8808-13.21502 1.29804-23.39611 1.99347-35.6759 0.8808-11.89429 0.69543-6.59036 0.5099-3.04597 0.41729-1.32021 0.27811-0.2942 0.1854 0.06007 0.23186 0.35669 0.32452 1.00664 0.41722 2.11034 0.55629 4.08277 0.74171 7.23729 1.2981 15.33388 1.4835 16.78555 0.83448 7.13521 0.64902 3.89906 0.5563 2.09781 0.4172 0.82292 0.32456 0.21369 0.27814-0.09723 0.3245-0.418 0.41726-0.97305 0.55634-1.94313 0.78808-3.68088 1.66892-9.24628 1.39078-7.07684 1.06628-4.34755 0.97354-3.10457 0.8808-2.13795 0.74179-1.28385 0.60261-0.62784 0.41729-0.16534 0.37081 0.07561 0.3709 0.31988 0.41728 0.69742 0.46352 1.25765 0.50999 2.05436 0.60261 3.44776 0.6491 5.0588 0.78809 8.07347 0.92718 11.98591 1.48352 22.6558 1.43711 20.78533 0.74179 7.84855 0.55627 3.78154 0.37091 1.31399 0.23182 0.2833 0.18541-0.08591 0.2318-0.51003 0.32448-1.48466 0.41722-3.2539 0.50997-6.02869 0.60272-9.91618 0.78809-17.00471 1.11261-29.60526 2.36431-64.24707 0.78809-15.27663 0.60271-8.0206 0.46358-3.73134 0.32452-1.29003 0.2318-0.24657 0.139 0.12155 0.23186 0.647959 0.32453 1.82579 0.41721 3.861741 0.5563 7.59615 0.6954 12.86335 0.9735 22.52444 2.9207 70.32843 0.83447 13.81263 0.64893 7.57737 0.55639 4.18451 0.41721 1.75514 0.3245 0.57545 0.18548 0.03115 0.18542-0.17702 0.2782-0.63943 0.3708-1.50693 0.51-3.16948 0.649-5.57799 0.9272-10.16867 1.62259-20.80818 1.99347-24.71862 1.15893-11.75887 0.92719-7.29705 0.74172-4.17253 0.55637-2.00627 0.41723-0.80713 0.2781-0.18431 0.23186 0.07152 0.27814 0.36398 0.3245 0.81793 0.41726 1.68783 0.50994 3.0464 0.649 5.42125 0.7881 8.74939 1.0199 14.17483 3.0597 44.69936 0.64908 5.82747 0.50992 2.83035 0.37088 0.97215 0.23181 0.1161 0.18541-0.18649 0.2318-0.58679 0.3245-1.48486 0.41728-3.036 0.55628-5.94153 0.69543-10.16269 0.92719-17.19152 2.87422-56.0402 0.6954-8.47523 0.50997-3.9352 0.37083-1.53865 0.2782-0.3992 0.1854 0.09563 0.2318 0.52446 0.32458 1.47781 0.41712 3.12692 0.55639 6.14528 0.69537 10.36026 1.06624 19.71013 1.9935 37.17351 0.7881 10.592 0.60266 5.47219 0.46362 2.47627 0.32442 0.80633 0.23186 0.10879 0.18542-0.18945 0.2782-0.73441 0.37082-1.78517 0.4636-3.42743 0.649-6.7064 0.9272-12.30919 2.318-31.92081 0.74178-6.84415 0.55622-3.28028 0.41729-1.31559 0.27811-0.31762 0.1855 0.0365 0.23176 0.32124 0.32453 0.95102 0.41721 2.03796 0.55636 3.99942 0.74174 7.15929 1.34438 15.72027 1.25171 13.63018 0.74171 5.84428 0.55638 2.78539 0.41722 1.06663 0.27816 0.2001 0.18542-0.09674 0.23181-0.37942 0.32451-1.00711 0.4172-2.08151 0.5563-4.0416 0.74179-7.26042 1.159-13.94661 1.57621-18.54249 0.7881-6.73813 0.55628-3.12305 0.41722-1.3272 0.3245-0.39938 0.18546 0.024 0.23182 0.28756 0.32452 0.87689 0.4172 1.91234 0.55637 3.81814 0.69533 6.49853 1.0199 11.87147 2.1325 25.19279 0.7882 6.62128 0.60266 3.42259 0.46354 1.563 0.3709 0.56229 0.23178 0.04238 0.23181-0.19096 0.32451-0.6479 0.4172-1.45189 0.55639-2.91717 0.69537-4.96291 1.0199-9.09703 2.96694-27.49789 0.9736-6.54819 0.7881-3.92381 0.649-2.26198 0.5563-1.23013 0.4172-0.487 0.37097-0.11342 0.32443 0.15307 0.3709 0.47159 0.41728 0.9224 0.50992 1.71777 0.60269 2.91714 0.64901 4.28377 0.7417 6.41803 0.88089 9.74339 1.06621 14.57402 1.85439 29.27297 1.2517 17.99963 0.78811 8.34533 0.5563 3.79056 0.4172 1.47498 0.23186 0.26531 0.18543-0.08642 0.23181-0.49206 0.3245-1.42243 0.41726-3.10794 0.50994-5.75051 0.60267-9.4606 0.78803-16.26276 1.0663-27.24291 2.7352-72.40742 0.7881-14.5521 0.649-8.20609 0.46367-3.556972 0.37083-1.419328 0.2318-0.24334 0.1391 0.08916 0.23178 0.53453 0.32452 1.53839 0.4172 3.26793 0.55637 6.42046 0.69533 10.84348 0.9736 18.99373 3.80147 78.16849 0.97351 13.97412 0.88082 9.57138 0.7417 5.83348 0.64909 3.49967 0.50991 1.73733 0.41727 0.77658 0.32453 0.20975 0.2781-0.09161 0.32456-0.42066 0.37091-0.89096 0.46353-1.72238 0.55637-2.94475 0.69533-4.98425 0.8345-7.76288 1.0199-11.73971 1.5298-20.60743 2.31799-31.01203 1.11267-11.86023 0.8808-7.21159 0.74174-4.43375 0.64906-2.62528 0.50994-1.24602 0.4172-0.4906 0.3245-0.05505 0.2782 0.17935 0.37086 0.56438 0.41724 1.08101 0.5099 1.9696 0.6027 3.26459 0.69538 5.05888 0.78812 7.43521 0.9272 11.01114 1.159 16.74084 3.3842 51.20744 0.6954 6.47061 0.5099 2.96779 0.3709 1.08996 0.2318 0.19618 0.1854-0.11972 0.2318-0.50105 0.32457-1.36357 0.41723-2.88591 0.5099-5.21187 0.6491-9.11471 0.83447-15.1238 1.34433-29.14252 1.66898-35.08589 0.88082-13.98816 0.649-7.20368 0.50997-3.57784 0.37092-1.411172 0.27811-0.401748 0.1854 0.03981 0.23186 0.387908 0.32452 1.152672 0.41722 2.46487 0.55629 4.82471 0.74171 8.64955 1.159 16.64423 2.0862 30.07873 0.9735 10.73702 0.78819 6.44565 0.69537 4.01046 0.60264 2.31734 0.55636 1.32256 0.46354 0.612 0.4636 0.26411 0.4636 0.00847 0.60267-0.22713 1.85433-0.84376 0.64909 0.01546 0.69537 0.25475 0.92714 0.61164 1.2517 0.80741 0.55639 0.11922 0.46351-0.11103 0.46367-0.35793 0.46353-0.65216 0.50998-1.1058 0.60262-1.88744 0.69548-3.01326 0.78809-4.51572 0.92713-6.72058 1.20537-10.56947 3.98683-36.60079 0.8809-5.50144 0.74177-3.3239 0.60263-1.73926 0.46359-0.72789 0.37091-0.19435 0.2781 0.08165 0.32457 0.34164 0.41723 0.82785 0.5099 1.60114 0.6027 2.71759 0.69539 4.22643 0.83447 6.57262 0.97354 9.64081 1.1126 13.3613 1.52989 21.36247 2.4107 33.70563 0.92711 9.8201 0.6954 5.171 0.51 2.33814 0.3708 0.84893 0.23186 0.1492 0.18542-0.09654 0.23182-0.39346 0.3245-1.06244 0.41726-2.23716 0.50994-4.02562 0.64899-7.02593 0.83447-11.66814 1.25171-21.05323 1.99343-33.40874 0.9272-11.89702 0.74179-6.83523 0.60261-3.61036 0.4636-1.57725 0.3245-0.5 0.2318-0.06444 0.23186 0.1693 0.32444 0.60942 0.41726 1.3728 0.55633 2.73294 0.74171 4.92114 1.11266 9.12815 3.56964 30.36694 1.3445 9.15854 1.0661 5.88123 0.8345 3.44113 0.6027 1.65146 0.4636 0.69154 0.3246 0.14435 0.2781-0.1184 0.3245-0.43856 0.3709-0.91896 0.4636-1.8046 0.5563-3.15448 0.649-5.0289 0.8345-8.40548 1.1589-14.27258 1.9472-24.09585 0.7417-6.56682 0.5563-3.18986 0.4172-1.22983 0.2318-0.2155 0.1854 0.07795 0.2318 0.41704 0.3246 1.1888 0.4173 2.56773 0.5099 4.68769 0.649 8.24272 0.8345 13.67094 1.5761 30.46537 1.2054 21.2336 0.7418 9.5802 0.5563 4.68378 0.4172 1.8978 0.2782 0.44887 0.1854-0.07213 0.2318-0.51117 0.3245-1.49956 0.4172-3.24635 0.51-5.87938 0.649-10.1915 0.8808-17.57861 3.0597-64.62642 0.6955-8.93231 0.5098-4.15175 0.4173-1.77717 0.2782-0.35949 0.1854 0.12601 0.2318 0.56366 0.3245 1.52927 0.4172 3.17619 0.5564 6.16336 0.7417 11.06358 1.1127 20.53 2.0862 38.81024 0.8807 12.16176 0.6954 6.7666 0.5563 3.45891 0.4172 1.45009 0.3246 0.46947 0.2318-0.0037 0.2317-0.2743 0.3246-0.81517 0.4172-1.73087 0.5563-3.35692 0.7417-5.97442 1.0663-10.58137 4.1724-43.32575 1.1589-9.06871 0.8809-5.24564 0.649-2.67897 0.5099-1.25226 0.371-0.37647 0.2318 0.01209 0.2781 0.27979 0.3245 0.70863 0.4173 1.54242 0.5099 2.88388 0.6026 4.84326 0.7419 8.02129 0.9271 12.79948 1.4835 24.2835 1.4835 23.20173 0.8345 9.79561 0.6027 4.76032 0.4635 2.1049 0.3245 0.60774 0.1855 0.01775 0.1854-0.22435 0.2782-0.79088 0.3708-1.89412 0.4637-3.67256 0.6026-6.77493 0.7881-11.71747 1.2053-21.86423 1.8544-33.35046 0.8345-11.27715 0.649-6.19609 0.5099-3.09935 0.4172-1.34256 0.2782-0.30302 0.1854 0.05537 0.2319 0.35085 0.3244 0.9963 0.4173 2.0895 0.5564 4.03723 0.7417 7.15201 1.2053 14.12014 1.808 20.86284 0.9272 8.22583 0.7417 4.80355 0.6491 2.82899 0.51 1.34558 0.4172 0.56253 0.3245 0.1277 0.3246-0.12106 0.3708-0.41414 0.4635-0.87903 0.6491-1.77623 0.9272-3.28903 3.5233-13.20966 1.0199-2.69484 0.9271-1.86956 0.9273-1.38617 0.9735-1.05423 1.1589-0.91162 1.8081-1.10224 1.7153-0.83964 0.9736-0.25147 0.7881 0.0228 0.6953 0.24438 0.6954 0.48803 0.7417 0.80322 0.8809 1.31384 0.139 0.23931" fill="none" stroke="#1e90ff" stroke-linecap="square" stroke-linejoin="round" stroke-width="2" />
 </g>
 <g clip-path="url(#j)">
  <path transform="matrix(2,0,0,-2,0,809.28)" d="M401.73014 44.752946V401.04" fill="none" stroke="#ff8c00" stroke-dasharray="3.7,1.6" stroke-linejoin="round" />
 </g>
 <path transform="matrix(2,0,0,-2,0,809.28)" d="M52.923265 44.752946V401.04" fill="none" stroke-linecap="square" stroke-miterlimit="10" stroke-width=".5" class="stroke" />
 <path transform="matrix(2,0,0,-2,0,809.28)" d="M1121.04 44.752946V401.04" fill="none" stroke-linecap="square" stroke-miterlimit="10" stroke-width=".5" class="stroke" />
 <path transform="matrix(2,0,0,-2,0,809.28)" d="M52.923265 44.752946H1121.04" fill="none" stroke-linecap="square" stroke-miterlimit="10" stroke-width=".5" class="stroke" />
 <path transform="matrix(2,0,0,-2,0,809.28)" d="M52.923265 401.04H1121.04" fill="none" stroke-linecap="square" stroke-miterlimit="10" stroke-width=".5" class="stroke" />
 <g clip-path="url(#i)">
  <path transform="matrix(2,0,0,-2,0,809.28)" d="m401.73014 381.84513c0.79563 0 1.55875 0.3161 2.12134 0.8787 0.56256 0.56257 0.87866 1.32571 0.87866 2.1213 0 0.79563-0.3161 1.55875-0.87866 2.12134-0.56259 0.56256-1.32571 0.87866-2.12134 0.87866-0.79559 0-1.55874-0.3161-2.1213-0.87866-0.5626-0.56259-0.8787-1.32571-0.8787-2.12134 0-0.79559 0.3161-1.55873 0.8787-2.1213 0.56256-0.5626 1.32571-0.8787 2.1213-0.8787z" fill="#ff8c00" />
  <path transform="matrix(2,0,0,-2,0,809.28)" d="m401.73014 381.84513c0.79563 0 1.55875 0.3161 2.12134 0.8787 0.56256 0.56257 0.87866 1.32571 0.87866 2.1213 0 0.79563-0.3161 1.55875-0.87866 2.12134-0.56259 0.56256-1.32571 0.87866-2.12134 0.87866-0.79559 0-1.55874-0.3161-2.1213-0.87866-0.5626-0.56259-0.8787-1.32571-0.8787-2.12134 0-0.79559 0.3161-1.55873 0.8787-2.1213 0.56256-0.5626 1.32571-0.8787 2.1213-0.8787z" fill="none" stroke="#ff8c00" stroke-linejoin="round" />
 </g>
 <path transform="matrix(2,0,0,-2,0,809.28)" d="m1004.7246 356.76023h107.9154c1.6 0 2.4 0.80002 2.4 2.40003v33.47974c0 1.6-0.8 2.4-2.4 2.4h-107.9154c-1.59994 0-2.39993-0.8-2.39993-2.4v-33.47974c0-1.60001 0.79999-2.40003 2.39993-2.40003z" fill="#fff" />
 <path transform="matrix(2,0,0,-2,0,809.28)" d="m1004.7246 356.76023h107.9154c1.6 0 2.4 0.80002 2.4 2.40003v33.47974c0 1.6-0.8 2.4-2.4 2.4h-107.9154c-1.59994 0-2.39993-0.8-2.39993-2.4v-33.47974c0-1.60001 0.79999-2.40003 2.39993-2.40003z" fill="none" stroke-miterlimit="10" class="stroke" />
 <path transform="matrix(2,0,0,-2,0,809.28)" d="m1007.1247 385.47364h23.99994" fill="none" stroke="#1e90ff" stroke-linecap="square" stroke-linejoin="round" stroke-width="2" />
 <text transform="matrix(2 0 -0 2 0 809.28)" font-family="CMMI12" font-size="11.955168" font-style="italic" xml:space="preserve" ><tspan x="1040.7246" y="-381.27363" >c</tspan></text>
 <text transform="matrix(2 0 -0 2 0 809.28)" font-family="CMR12" font-size="11.955168" xml:space="preserve" ><tspan x="1045.7626" y="-381.27363" >[</tspan></text>
 <text transform="matrix(2 0 -0 2 0 809.28)" font-family="CMMI12" font-size="11.955168" font-style="italic" xml:space="preserve" ><tspan x="1049.0143" y="-381.27363" >k</tspan></text>
 <text transform="matrix(2 0 -0 2 0 809.28)" font-family="CMR12" font-size="11.955168" xml:space="preserve" ><tspan x="1055.5038" y="-381.27363" >]</tspan></text>
 <path transform="matrix(2,0,0,-2,0,809.28)" d="m1007.1247 368.08485h23.99994" fill="none" stroke="#ff8c00" stroke-dasharray="3.7,1.6" stroke-linejoin="round" />
 <text transform="matrix(2 0 -0 2 0 809.28)" font-family="CMMI12" font-size="11.955168" font-style="italic" xml:space="preserve" ><tspan x="1040.7246" y="-363.88484" >k</tspan></text>
 <text transform="matrix(2 0 -0 2 0 809.28)" font-family="CMMI8" font-size="7.970112" font-style="italic" xml:space="preserve" ><tspan x="1046.8129 1054.2968 1058.7919" y="-362.09156" >max</tspan></text>
 <text transform="matrix(2 0 -0 2 0 809.28)" font-family="CMR12" font-size="11.955168" xml:space="preserve" ><tspan x="1067.9684 1080.9683 1086.8143 1092.6604 1098.5065 1104.3526" y="-363.88484" >=20324</tspan></text>
</svg>