<svg xmlns="http://www.w3.org/2000/svg" width="1954.08" height="740.16" version="1.1" viewBox="0 0 1954.08 740.16">
 <style>
          .fill { fill: black; }
          .stroke { stroke: black; }
          @media (prefers-color-scheme: dark) {
            .fill { fill: white; }
            .stroke { stroke: white; }
          }
        </style><defs>
  <clipPath id="a">
   <path transform="scale(.48)" d="M78.125 28.125H3993.75V1515.625H78.125Z" clip-rule="evenodd" />
  </clipPath>
 </defs>
 <g clip-path="url(#a)">
  <path transform="matrix(1.3825619,0,0,1.3825619,-10067.077,6101.0378)" d="m7567.94-4400h886.999c2.506 0 5.005 0.1224 7.4989 0.368 2.4931 0.246 4.9681 0.613 7.4251 1.102 2.458 0.489 4.885 1.0972 7.2829 1.8242 2.3971 0.7271 4.7521 1.5704 7.0671 2.5293 2.314 0.9585 4.576 2.0285 6.786 3.2095 2.21 1.1812 4.356 2.468 6.439 3.86 2.084 1.392 4.095 2.8822 6.032 4.4716 1.936 1.5894 3.791 3.2704 5.562 5.0419 1.773 1.7715 3.453 3.6255 5.042 5.5621 1.589 1.9374 3.08 3.9467 4.472 6.0304 1.3919 2.083 2.679 4.2293 3.86 6.439 1.181 2.2093 2.251 4.472 3.209 6.787 0.959 2.315 1.802 4.671 2.53 7.068 0.727 2.398 1.335 4.8255 1.824 7.283 0.489 2.457 0.857 4.9321 1.102 7.4253 0.245 2.4931 0.368 4.9927 0.368 7.4987v357c0 2.5053-0.123 5.005-0.368 7.4982s-0.613 4.9685-1.102 7.4263c-0.489 2.4573-1.097 4.8845-1.824 7.2822-0.728 2.3977-1.571 4.7539-2.53 7.0689-0.958 2.3147-2.028 4.5766-3.209 6.7861-1.181 2.2097-2.4681 4.3563-3.86 6.4394-1.392 2.0833-2.883 4.0931-4.472 6.0299-1.589 1.9367-3.269 3.791-5.042 5.5627-1.771 1.7715-3.626 3.4519-5.562 5.0415-1.937 1.5893-3.948 3.0801-6.031 4.4724-2.083 1.3918-4.229 2.6784-6.439 3.8594s-4.472 2.251-6.786 3.21c-2.315 0.9584-4.671 1.8014-7.0681 2.5287-2.3979 0.7273-4.8249 1.3353-7.2829 1.8243-2.457 0.4887-4.932 0.856-7.4251 1.1013-2.4939 0.2457-4.9929 0.3684-7.4989 0.3687h-886.999c-2.5052-3e-4 -5.0043-0.123-7.498-0.3687-2.494-0.2453-4.9691-0.6126-7.427-1.1013-2.457-0.489-4.884-1.097-7.282-1.8243-2.3974-0.7273-4.754-1.5703-7.069-2.5287-2.3142-0.959-4.5764-2.029-6.7864-3.21-2.2096-1.181-4.3559-2.4676-6.4396-3.8594-2.083-1.3923-4.093-2.8831-6.0291-4.4724-1.9369-1.5896-3.791-3.27-5.563-5.0415-1.772-1.7717-3.4522-3.6262-5.041-5.563-1.5899-1.9365-3.0811-3.9463-4.4739-6.0296-1.3914-2.0831-2.6775-4.2297-3.859-6.4394-1.1803-2.2095-2.2501-4.4714-3.2091-6.7861-0.9589-2.315-1.8013-4.6712-2.5293-7.0686-0.7271-2.3977-1.335-4.8252-1.8246-7.2825-0.488-2.4578-0.8551-4.9331-1.101-7.4263-0.245-2.4932-0.3674-4.9929-0.368-7.4982v-357c6e-4 -2.506 0.123-5.0056 0.3688-7.4987 0.2452-2.4932 0.6122-4.9683 1.1011-7.4253 0.4887-2.4575 1.0966-4.885 1.8237-7.283 0.728-2.397 1.5704-4.753 2.5293-7.068 0.959-2.315 2.0291-4.5777 3.2101-6.787 1.1805-2.2097 2.4666-4.356 3.8587-6.439 1.3921-2.0837 2.8833-4.093 4.4723-6.03 1.5897-1.937 3.2699-3.791 5.0419-5.5625s3.6261-3.4525 5.5621-5.0419c1.937-1.5894 3.947-3.0796 6.03-4.4716 2.0837-1.392 4.23-2.6788 6.4396-3.86 2.21-1.181 4.4722-2.251 6.7862-3.2095 2.3149-0.9589 4.6709-1.8022 7.0688-2.5293 2.398-0.727 4.8252-1.3352 7.2822-1.8242 2.4572-0.489 4.9331-0.856 7.4268-1.102 2.4934-0.2456 4.9932-0.368 7.4984-0.368z" fill="none" stroke-width="3" class="stroke" />
  <text transform="matrix(1.3825619 0 0 1.3825619 -10067.77 6100.3469)" font-family="Tinos" font-size="50" xml:space="preserve" class="fill"><tspan x="7669.5314 7697.331 7733.431 7769.5314 7802.8815 7838.9816 7872.3317 7908.4318 7944.5319 7961.1818 7991.7316 8022.339 8052.8889 8069.5388 8105.6389 8141.739 8153.3449 8189.445 8219.995 8253.345 8282.983 8319.083" y="-4346" class="fill">SYNCHRONIZATION VECTOR</tspan></text>
  <path transform="matrix(1.3825619,0,0,1.3825619,-10067.077,6101.0378)" d="m7773.19-4080h59.11v90h46.79" fill="none" stroke-miterlimit="10" stroke-width="3" class="stroke" />
  <path transform="matrix(1.3825619,0,0,1.3825619,-10067.077,6101.0378)" d="m7888.09-3990-9 4.5v-9l9 4.5z" />
  <path transform="matrix(1.3825619,0,0,1.3825619,-10067.077,6101.0378)" d="m7888.09-3990-9 4.5v-9l9 4.5z" fill="none" stroke-miterlimit="10" stroke-width="3" class="stroke" />
  <path transform="matrix(1.3825619,0,0,1.3825619,-10067.077,6101.0378)" d="m7773.19-4140h59.11v-90h46.79" fill="none" stroke-miterlimit="10" stroke-width="3" class="stroke" />
  <path transform="matrix(1.3825619,0,0,1.3825619,-10067.077,6101.0378)" d="m7888.09-4230-9 4.5v-9l9 4.5z" />
  <path transform="matrix(1.3825619,0,0,1.3825619,-10067.077,6101.0378)" d="m7888.09-4230-9 4.5v-9l9 4.5z" fill="none" stroke-miterlimit="10" stroke-width="3" class="stroke" />
  <path transform="matrix(1.3825619,0,0,1.3825619,-10067.077,6101.0378)" d="m7531.94-4170h241.25v120h-241.25z" fill="none" stroke-width="3" class="stroke" />
  <text transform="matrix(1.3825619 0 0 1.3825619 -10067.77 6100.3469)" font-family="Tinos" font-size="26" xml:space="preserve" class="fill"><tspan x="7583.1564 7597.6125 7614.954 7630.8405 7649.6125 7672.726 7690.068 7705.954" y="-4101" class="fill">PREAMBLE</tspan></text>
  <path transform="matrix(1.3825619,0,0,1.3825619,-10067.077,6101.0378)" d="m8132.69-4230h107.65" fill="none" stroke-miterlimit="10" stroke-width="3" class="stroke" />
  <path transform="matrix(1.3825619,0,0,1.3825619,-10067.077,6101.0378)" d="m8249.34-4230-9 4.5v-9l9 4.5z" />
  <path transform="matrix(1.3825619,0,0,1.3825619,-10067.077,6101.0378)" d="m8249.34-4230-9 4.5v-9l9 4.5z" fill="none" stroke-miterlimit="10" stroke-width="3" class="stroke" />
  <path transform="matrix(1.3825619,0,0,1.3825619,-10067.077,6101.0378)" d="m7891.44-4290h241.25v120h-241.25z" fill="none" stroke-width="3" class="stroke" />
  <text transform="matrix(1.3825619 0 0 1.3825619 -10067.77 6100.3469)" font-family="Tinos" font-size="26" xml:space="preserve" class="fill"><tspan x="7971.7658 7986.2219 8004.9938 8020.88 8035.336" y="-4237" class="fill">PULSE</tspan></text>
  <text transform="matrix(1.3825619 0 0 1.3825619 -10067.77 6100.3469)" font-family="Tinos" font-size="26" xml:space="preserve" class="fill"><tspan x="7936.75 7959.864 7978.6359 7997.4079 8016.1799 8032.066 8047.9738 8063.86" y="-4205" class="fill">MODULATE</tspan></text>
  <text transform="matrix(1.3825619 0 0 1.3825619 -10067.77 6100.3469)" font-family="Tinos" font-size="26" xml:space="preserve" class="fill"><tspan x="8079.746" y="-4205" class="fill"> </tspan></text>
  <path transform="matrix(1.3825619,0,0,1.3825619,-10067.077,6101.0378)" d="m8132.69-3990h107.65" fill="none" stroke-miterlimit="10" stroke-width="3" class="stroke" />
  <path transform="matrix(1.3825619,0,0,1.3825619,-10067.077,6101.0378)" d="m8249.34-3990-9 4.5v-9l9 4.5z" />
  <path transform="matrix(1.3825619,0,0,1.3825619,-10067.077,6101.0378)" d="m8249.34-3990-9 4.5v-9l9 4.5z" fill="none" stroke-miterlimit="10" stroke-width="3" class="stroke" />
  <path transform="matrix(1.3825619,0,0,1.3825619,-10067.077,6101.0378)" d="m7891.44-4050h241.25v120h-241.25z" fill="none" stroke-width="3" class="stroke" />
  <text transform="matrix(1.3825619 0 0 1.3825619 -10067.77 6100.3469)" font-family="Tinos" font-size="26" xml:space="preserve" class="fill"><tspan x="7971.7658 7986.2219 8004.9938 8020.88 8035.336" y="-3997" class="fill">PULSE</tspan></text>
  <text transform="matrix(1.3825619 0 0 1.3825619 -10067.77 6100.3469)" font-family="Tinos" font-size="26" xml:space="preserve" class="fill"><tspan x="7940 7963.114 7981.8859 8000.6579 8019.4299 8035.316 8051.2238 8067.11" y="-3965" class="fill">MODULATE</tspan></text>
  <path transform="matrix(1.3825619,0,0,1.3825619,-10067.077,6101.0378)" d="m8493.94-3990h138.4" fill="none" stroke-miterlimit="10" stroke-width="3" class="stroke" />
  <path transform="matrix(1.3825619,0,0,1.3825619,-10067.077,6101.0378)" d="m8641.34-3990-9 4.5v-9l9 4.5z" />
  <path transform="matrix(1.3825619,0,0,1.3825619,-10067.077,6101.0378)" d="m8641.34-3990-9 4.5v-9l9 4.5z" fill="none" stroke-miterlimit="10" stroke-width="3" class="stroke" />
  <path transform="matrix(1.3825619,0,0,1.3825619,-10067.077,6101.0378)" d="m8252.69-4050h241.25v120h-241.25z" fill="none" stroke-width="3" class="stroke" />
  <text transform="matrix(1.3825619 0 0 1.3825619 -10067.77 6100.3469)" font-family="Tinos" font-size="26" xml:space="preserve" class="fill"><tspan x="8310.656 8333.7709 8349.669 8365.555 8382.896 8401.669 8417.555" y="-3997" class="fill">MATCHED</tspan></text>
  <text transform="matrix(1.3825619 0 0 1.3825619 -10067.77 6100.3469)" font-family="Tinos" font-size="26" xml:space="preserve" class="fill"><tspan x="8330.625 8345.081 8353.739 8367.238 8383.124 8399.01" y="-3965" class="fill">FILTER</tspan></text>
  <path transform="matrix(1.3825619,0,0,1.3825619,-10067.077,6101.0378)" d="m8493.94-4230h138.4" fill="none" stroke-miterlimit="10" stroke-width="3" class="stroke" />
  <path transform="matrix(1.3825619,0,0,1.3825619,-10067.077,6101.0378)" d="m8641.34-4230-9 4.5v-9l9 4.5z" />
  <path transform="matrix(1.3825619,0,0,1.3825619,-10067.077,6101.0378)" d="m8641.34-4230-9 4.5v-9l9 4.5z" fill="none" stroke-miterlimit="10" stroke-width="3" class="stroke" />
  <path transform="matrix(1.3825619,0,0,1.3825619,-10067.077,6101.0378)" d="m8252.69-4290h241.25v120h-241.25z" fill="none" stroke-width="3" class="stroke" />
  <text transform="matrix(1.3825619 0 0 1.3825619 -10067.77 6100.3469)" font-family="Tinos" font-size="26" xml:space="preserve" class="fill"><tspan x="8310.656 8333.7709 8349.669 8365.555 8382.896 8401.669 8417.555" y="-4237" class="fill">MATCHED</tspan></text>
  <text transform="matrix(1.3825619 0 0 1.3825619 -10067.77 6100.3469)" font-family="Tinos" font-size="26" xml:space="preserve" class="fill"><tspan x="8330.625 8345.081 8353.739 8367.238 8383.124 8399.01" y="-4205" class="fill">FILTER</tspan></text>
  <text transform="matrix(1.3825619 0 0 1.3825619 -10067.77 6100.3469)" font-family="Tinos" font-size="26" xml:space="preserve" class="fill"><tspan x="7824.078" y="-4249" class="fill">S</tspan></text>
  <text transform="matrix(1.3825619 0 0 1.3825619 -10067.77 6100.3469)" font-family="Tinos" font-size="21.66" xml:space="preserve" class="fill"><tspan x="7838.547" y="-4242.8127" class="fill">i</tspan></text>
  <text transform="matrix(1.3825619 0 0 1.3825619 -10067.77 6100.3469)" font-family="Tinos" font-size="26" xml:space="preserve" class="fill"><tspan x="7844.578 7853.2365 7866.2365" y="-4249" class="fill">[n]</tspan></text>
  <text transform="matrix(1.3825619 0 0 1.3825619 -10067.77 6100.3469)" font-family="Tinos" font-size="26" xml:space="preserve" class="fill"><tspan x="7821.6877" y="-3959" class="fill">S</tspan></text>
  <text transform="matrix(1.3825619 0 0 1.3825619 -10067.77 6100.3469)" font-family="Tinos" font-size="21.66" xml:space="preserve" class="fill"><tspan x="7836.1564" y="-3952.8126" class="fill">q</tspan></text>
  <text transform="matrix(1.3825619 0 0 1.3825619 -10067.77 6100.3469)" font-family="Tinos" font-size="26" xml:space="preserve" class="fill"><tspan x="7846.9846 7855.6428 7868.6428" y="-3959" class="fill">[n]</tspan></text>
  <text transform="matrix(1.3825619 0 0 1.3825619 -10067.77 6100.3469)" font-family="Tinos" font-size="26" xml:space="preserve" class="fill"><tspan x="8169.3908 8182.3908 8191.049 8199.707 8206.935" y="-3946" class="fill">dI(t)</tspan></text>
  <text transform="matrix(1.3825619 0 0 1.3825619 -10067.77 6100.3469)" font-family="Tinos" font-size="26" xml:space="preserve" class="fill"><tspan x="8164.328 8177.328 8196.101 8204.759 8211.986" y="-4246" class="fill">dQ(t)</tspan></text>
  <text transform="matrix(1.3825619 0 0 1.3825619 -10067.77 6100.3469)" font-family="Tinos" font-size="26" xml:space="preserve" class="fill"><tspan x="8566.078" y="-4246" class="fill">S</tspan></text>
  <text transform="matrix(1.3825619 0 0 1.3825619 -10067.77 6100.3469)" font-family="Tinos" font-size="21.66" xml:space="preserve" class="fill"><tspan x="8580.547" y="-4239.8127" class="fill">q</tspan></text>
  <text transform="matrix(1.3825619 0 0 1.3825619 -10067.77 6100.3469)" font-family="Tinos" font-size="26" xml:space="preserve" class="fill"><tspan x="8591.375 8600.033 8607.261" y="-4246" class="fill">(t)</tspan></text>
  <text transform="matrix(1.3825619 0 0 1.3825619 -10067.77 6100.3469)" font-family="Tinos" font-size="26" xml:space="preserve" class="fill"><tspan x="8568.469" y="-3959" class="fill">S</tspan></text>
  <text transform="matrix(1.3825619 0 0 1.3825619 -10067.77 6100.3469)" font-family="Tinos" font-size="21.66" xml:space="preserve" class="fill"><tspan x="8582.9379" y="-3952.8126" class="fill">i</tspan></text>
  <text transform="matrix(1.3825619 0 0 1.3825619 -10067.77 6100.3469)" font-family="Tinos" font-size="26" xml:space="preserve" class="fill"><tspan x="8588.969 8597.627 8604.8549" y="-3959" class="fill">(t)</tspan></text>
  <path transform="matrix(1.3825619,0,0,1.3825619,-10067.077,6101.0378)" d="m7357.44-4109.99 162.15-0.01" fill="none" stroke-miterlimit="10" stroke-width="3" class="stroke" />
  <path transform="matrix(1.3825619,0,0,1.3825619,-10067.077,6101.0378)" d="m7528.59-4110-9 4.5v-9l9 4.5z" />
  <path transform="matrix(1.3825619,0,0,1.3825619,-10067.077,6101.0378)" d="m7528.59-4110-9 4.5v-9l9 4.5z" fill="none" stroke-miterlimit="10" stroke-width="3" class="stroke" />
  <path transform="matrix(1.3825619,0,0,1.3825619,-10067.077,6101.0378)" d="m7357.435-4109.99c-2e-4 0.4512-0.0442 0.898-0.1321 1.341-0.0884 0.443-0.2189 0.8724-0.3911 1.29-0.1728 0.417-0.3848 0.813-0.6352 1.1884-0.251 0.3756-0.5366 0.7227-0.855 1.0416-0.3196 0.3192-0.6666 0.6044-1.042 0.855-0.3756 0.251-0.772 0.463-1.1886 0.636-0.4174 0.1725-0.8471 0.303-1.29 0.391-0.443 0.088-0.89 0.132-1.341 0.132-0.4514 0-0.899-0.044-1.3411-0.1328-0.4429-0.0872-0.873-0.2177-1.29-0.3902-0.4179-0.173-0.8139-0.385-1.189-0.636-0.3754-0.2506-0.7221-0.5358-1.041-0.855-0.3199-0.3189-0.605-0.666-0.8559-1.0416-0.2505-0.3754-0.462-0.7714-0.635-1.1884-0.173-0.4176-0.303-0.847-0.391-1.29s-0.132-0.8898-0.132-1.341c0-0.4516 0.044-0.898 0.1326-1.341 0.0874-0.443 0.2174-0.8728 0.3904-1.2898 0.173-0.4172 0.385-0.8132 0.6355-1.189 0.2504-0.3752 0.5355-0.7222 0.8554-1.042 0.3189-0.3188 0.6656-0.604 1.041-0.8542 0.3751-0.2507 0.7711-0.4627 1.189-0.6355 0.417-0.1725 0.8467-0.3032 1.2896-0.3915 0.4425-0.0885 0.8901-0.132 1.3415-0.132 0.451 0 0.898 0.0435 1.341 0.132 0.4429 0.0883 0.8726 0.219 1.29 0.3915 0.4166 0.1728 0.813 0.3848 1.1886 0.6355 0.3754 0.2502 0.7224 0.5354 1.042 0.8542 0.3184 0.3198 0.604 0.6668 0.855 1.042 0.2504 0.3758 0.4624 0.7718 0.6352 1.189 0.1722 0.417 0.3027 0.8468 0.3911 1.2898 0.0879 0.443 0.1319 0.8894 0.1321 1.341z" fill="none" stroke-width="3" class="stroke" />
  <path transform="matrix(1.3825619,0,0,1.3825619,-10067.077,6101.0378)" d="m8658.445-4229.99c-1e-3 0.4512-0.045 0.8985-0.1321 1.3414-0.0889 0.4428-0.2199 0.8726-0.3929 1.2896-0.173 0.4174-0.384 0.8134-0.635 1.189-0.251 0.3754-0.535 0.7225-0.854 1.0414-0.32 0.3188-0.666 0.604-1.042 0.855-0.376 0.2506-0.772 0.4626-1.189 0.6356-0.417 0.172-0.846 0.3024-1.289 0.391-0.443 0.088-0.8901 0.132-1.341 0.132-0.452 0-0.899-0.044-1.342-0.132-0.443-0.0886-0.8731-0.219-1.2901-0.391-0.417-0.173-0.8139-0.385-1.1879-0.6356-0.376-0.251-0.723-0.5362-1.042-0.855-0.319-0.3189-0.604-0.666-0.855-1.0414-0.251-0.3756-0.463-0.7716-0.636-1.189-0.173-0.417-0.304-0.8468-0.391-1.2896-0.087-0.4429-0.131-0.8902-0.131-1.3414 0-0.4516 0.044-0.898 0.131-1.341s0.218-0.8728 0.391-1.2898c0.173-0.4172 0.385-0.8132 0.636-1.189 0.251-0.3752 0.536-0.7222 0.855-1.0412 0.319-0.3196 0.666-0.6048 1.042-0.855 0.374-0.2507 0.7709-0.4627 1.1879-0.6355 0.417-0.1725 0.8471-0.3032 1.2901-0.3911 0.443-0.0884 0.89-0.1324 1.342-0.1324 0.4509 0 0.898 0.044 1.341 0.1324 0.442 0.0879 0.871 0.2186 1.288 0.3911 0.417 0.1728 0.814 0.3848 1.19 0.6355 0.376 0.2502 0.722 0.5354 1.042 0.855 0.319 0.319 0.603 0.666 0.854 1.0412 0.251 0.3758 0.462 0.7718 0.635 1.189 0.173 0.417 0.304 0.8468 0.3929 1.2898 0.0871 0.443 0.1311 0.8894 0.1321 1.341z" fill="none" stroke-width="3" class="stroke" />
  <path transform="matrix(1.3825619,0,0,1.3825619,-10067.077,6101.0378)" d="m8658.445-3989.99c-1e-3 0.4516-0.045 0.899-0.1321 1.3415-0.0889 0.4426-0.2199 0.8725-0.3929 1.2898-0.173 0.417-0.384 0.8132-0.635 1.1887-0.251 0.3753-0.535 0.7224-0.854 1.0415-0.32 0.3191-0.666 0.6043-1.042 0.8552-0.376 0.2508-0.772 0.4627-1.189 0.6353s-0.846 0.303-1.289 0.3911c-0.443 0.0879-0.8901 0.1319-1.341 0.1319-0.452 0-0.899-0.044-1.342-0.1319-0.443-0.0881-0.8731-0.2185-1.2901-0.3911s-0.8139-0.3845-1.1879-0.6355c-0.376-0.2507-0.723-0.5359-1.042-0.855s-0.604-0.6662-0.855-1.0415c-0.251-0.3755-0.463-0.7717-0.636-1.1887-0.173-0.4173-0.304-0.8472-0.391-1.2898-0.087-0.4425-0.131-0.8899-0.131-1.3415 0-0.4512 0.044-0.8983 0.131-1.3409s0.218-0.8725 0.391-1.2895 0.385-0.8133 0.636-1.1885c0.251-0.3755 0.536-0.7229 0.855-1.0421s0.666-0.604 1.042-0.8549c0.374-0.2507 0.7709-0.4626 1.1879-0.6351 0.417-0.173 0.8471-0.3034 1.2901-0.3915s0.89-0.1323 1.342-0.1325c0.4509 2e-4 0.898 0.0444 1.341 0.1325 0.442 0.0881 0.871 0.2185 1.288 0.3915 0.417 0.1725 0.814 0.3841 1.19 0.635 0.376 0.2506 0.722 0.5358 1.042 0.855 0.319 0.3192 0.603 0.6666 0.854 1.042 0.251 0.3753 0.462 0.7716 0.635 1.1886s0.304 0.8466 0.3929 1.2894c0.0871 0.4427 0.1311 0.8898 0.1321 1.341z" fill="none" stroke-width="3" class="stroke" />
  <text transform="matrix(1.3825619 0 0 1.3825619 -10067.77 6100.3469)" font-family="Tinos" font-size="26" xml:space="preserve" class="fill"><tspan x="7328.1096 7342.5656 7351.2238 7364.2238" y="-4136" class="fill">S[n]</tspan></text>
 </g>
</svg>